<svg xmlns="http://www.w3.org/2000/svg" xmlns:xlink="http://www.w3.org/1999/xlink" viewBox="0 0 24.98 24.98"><defs><style>.cls-1{fill:none;}.cls-2{clip-path:url(#clip-path);}.cls-3{clip-path:url(#clip-path-2);}.cls-4{fill:#4e93b8;}.cls-5{clip-path:url(#clip-path-3);}.cls-6{fill:#37a8e0;}.cls-7{fill:#307da1;}.cls-8{fill:#fff;}</style><clipPath id="clip-path" transform="translate(-0.95 -1.01)"><rect class="cls-1" x="0.94" y="0.99" width="25" height="25"/></clipPath><clipPath id="clip-path-2" transform="translate(-0.95 -1.01)"><rect class="cls-1" x="0.94" y="0.99" width="25" height="25"/></clipPath><clipPath id="clip-path-3" transform="translate(-0.95 -1.01)"><rect class="cls-1" width="26.95" height="26.94"/></clipPath></defs><title>global-minus-button</title><g id="Layer_2" data-name="Layer 2"><g id="Cosmetic_Treatment_Details" data-name="Cosmetic Treatment Details"><g id="Index_plus_and_minus_in_a_blue_circle_with_a_shadow" data-name="Index plus and minus in a blue circle with a shadow"><g class="cls-2"><g class="cls-3"><path class="cls-4" d="M1,13.5A12.49,12.49,0,1,1,13.44,26,12.49,12.49,0,0,1,1,13.5" transform="translate(-0.95 -1.01)"/></g><g class="cls-5"><path class="cls-6" d="M25.65,16.16,21.47,12,5.42,15,16.1,25.71a12.51,12.51,0,0,0,9.55-9.55" transform="translate(-0.95 -1.01)"/><path class="cls-7" d="M16.1,25.71,5.42,15l16-3.05,4.18,4.18a12.51,12.51,0,0,1-9.55,9.55" transform="translate(-0.95 -1.01)"/><path class="cls-8" d="M20.82,15.49H6.05a.64.64,0,0,1-.64-.64V12.13a.64.64,0,0,1,.64-.64H20.82a.64.64,0,0,1,.64.64v2.72a.64.64,0,0,1-.64.64" transform="translate(-0.95 -1.01)"/></g></g></g></g></g></svg>