<svg xmlns="http://www.w3.org/2000/svg" width="153" height="159" viewBox="0 0 153 159">
    <g fill="none">
        <path fill="#000" d="M152.936 136.045c0 .47-.257.896-.664 1.11l-6.227 3.283c.386-.213.664-.618.664-1.109v-2.09l3.723-1.961-.107-33.521c-.021-3.69-3.702-7.335-3.745-7.378l-.042-.043c-1.006-1.087-3.317-3.156-5.842-4.691.749-.49 1.455-1.045 2.118-1.642 2.568 1.685 4.687 3.668 5.564 4.627.406.406 4.45 4.542 4.472 9.148l.086 34.267z"/>
        <path fill="#000" d="M146.687 137.261v2.09c0 .469-.256.895-.663 1.109 0 0-.021 0-.021.02-.172.086-.364.15-.578.15-.706 0-1.263-.554-1.263-1.258v-.768l2.525-1.343zM146.687 107.067v30.194l-2.525 1.343v-31.537c0-.704.557-1.259 1.263-1.259.706 0 1.262.555 1.262 1.259z"/>
        <path fill="#000" d="M146.024 140.46l-19.13 10.107c.385-.213.663-.618.663-1.109v-2.09l16.605-8.785v.768c0 .703.557 1.258 1.263 1.258.214 0 .406-.064.6-.15zM141.252 87.044c.535.298 1.049.618 1.54.938-.662.597-1.369 1.151-2.118 1.642-.214-.128-.449-.278-.684-.405-.6-.342-.813-1.11-.471-1.706.364-.597 1.134-.81 1.733-.47z"/>
        <path fill="#000" d="M141.252 87.044c-.599-.342-1.37-.128-1.712.469-.342.597-.128 1.364.471 1.706.235.127.45.255.685.405-2.782 1.855-6.12 2.942-9.694 2.942-3.595 0-6.954-1.087-9.736-2.942l.342-.256.193-.128.171-.128-.728-1.045-.727-1.023-.171.106c-.064.043-.15.107-.214.15l-.171.127c-.043.022-.086.064-.129.107l-.171.128c-.086.064-.193.15-.278.213l-.064.043c-.043.021-.065.042-.107.085-3.51-3.198-5.714-7.783-5.714-12.88 0-9.616 7.853-17.442 17.504-17.442 9.651 0 17.504 7.826 17.504 17.443 0 5.075-2.204 9.66-5.692 12.858-.513-.32-1.027-.64-1.562-.938zm-10.271 3.006c8.26 0 14.957-6.695 14.957-14.905 0-8.231-6.719-14.927-14.957-14.927-8.26 0-14.98 6.696-14.98 14.927.022 8.21 6.741 14.905 14.98 14.905zM127.557 147.368v2.09c0 .47-.257.896-.663 1.109-.171.107-.385.15-.6.15-.706 0-1.262-.555-1.262-1.259v-.768l2.525-1.322z"/>
        <path fill="#000" d="M127.557 118.07v29.298l-2.525 1.344V118.07c0-.704.556-1.259 1.263-1.259.706 0 1.262.555 1.262 1.259z"/>
        <path fill="#000" d="M126.894 150.567l-2.825 1.493c-.192.106-.385.149-.6.149-.213 0-.406-.043-.598-.15l-14.145-7.527c-.406-.213-.663-.64-.663-1.108l-.107-34.29v-.553-.064-.064c0-.192.021-.384.021-.576v-.043-.042c.022-.171.022-.363.043-.534V107.152l.064-.576v-.043-.064c.022-.191.065-.405.086-.597v-.02-.022c.043-.192.064-.405.107-.597l.021-.128c.043-.213.086-.405.129-.619v-.042l.021-.064c.043-.214.107-.405.15-.619v-.042-.022-.02c.064-.214.107-.427.171-.62l.043-.127c.064-.214.128-.405.192-.619l.043-.106c.064-.214.15-.405.214-.619 0-.021 0-.021.022-.042.064-.214.15-.405.235-.619l.043-.128c.085-.192.15-.383.235-.575l.043-.086v-.021c.064-.17.15-.341.235-.512l.043-.106c.086-.192.171-.384.257-.555l.064-.128c.086-.17.171-.362.257-.533l.021-.021s0-.022.022-.022c0 0 0-.02.021-.02.107-.193.214-.406.321-.62l.193-.34c.043-.064.085-.128.107-.214.021-.085.085-.128.107-.192l.107-.17c.107-.192.214-.363.32-.533l.043-.064c.086-.15.193-.299.279-.47l.085-.149c.043-.064.086-.149.129-.213l.128-.192.128-.192.15-.213c.043-.064.086-.128.15-.213l.128-.192c.043-.064.107-.128.15-.213l.129-.17c.128-.171.256-.363.406-.534l.086-.107c.128-.17.278-.362.406-.533l.022-.021.021-.021c.086-.107.193-.235.3-.363l.107-.128c.064-.085.128-.17.214-.256l.064-.064c.171-.192.342-.405.513-.597l.022-.021v-.021c.15-.17.342-.363.513-.533l.043-.043.022-.021c.17-.171.32-.342.492-.512l.085-.085c.172-.171.343-.342.514-.49l.086-.086c.192-.17.363-.341.556-.49l.021-.022.3-.256c.064-.043.128-.106.192-.15l.172-.148c.064-.064.15-.128.214-.171l.107-.085c.085-.064.15-.128.235-.192.642.576 1.327 1.13 2.054 1.6l-.085.063c-.086.064-.172.128-.236.192l-.064.043c-.107.085-.214.149-.3.234l-.085.064c-.086.064-.15.107-.214.17l-.021.022-.15.128c-.064.043-.107.085-.171.15l-.3.255c-.15.15-.321.299-.492.448l-.086.085c-.15.15-.32.299-.47.448l-.086.085c-.15.15-.3.299-.45.47l-.02.02-.022.022c-.15.17-.321.341-.471.512l-.021.021c-.172.17-.321.363-.471.555l-.064.064c-.065.064-.129.149-.193.234l-.107.128c-.086.107-.193.235-.278.341-.129.17-.257.32-.385.49l-.086.107c-.128.17-.235.32-.364.49l-.107.15-.128.192-.129.17c-.042.065-.085.129-.128.192l-.364.534-.128.191-.086.128c-.085.15-.17.278-.256.427l-.043.064c-.086.15-.193.32-.278.49l-.086.17c-.043.065-.064.129-.107.193l-.278.512c-.107.192-.193.383-.3.575v.022l-.021.042c-.086.17-.171.32-.236.49l-.042.107c-.086.171-.172.342-.236.512l-.043.107c-.064.149-.15.32-.214.469l-.02.043s0 .02-.022.02c-.086.193-.15.363-.214.534l-.043.107c-.064.191-.15.362-.214.554v.021c-.064.17-.128.363-.193.555l-.021.042v.043c-.064.192-.128.384-.171.554l-.022.107c-.064.192-.107.384-.17.576v.042l-.13.555-.02.106c-.043.171-.086.363-.129.534l-.021.106c-.043.192-.065.363-.107.555v.02c-.022.172-.065.342-.086.513l-.021.106-.065.512v.107c-.021.149-.021.32-.042.469v.042c-.022.171-.022.342-.022.512v.598l.107 33.542 12.882 6.866 1.54-.81v.767c0 .704.557 1.258 1.263 1.258.172.064.386.022.557-.085z"/>
        <path fill="#000" d="M121.266 89.624c-.728-.49-1.412-1.024-2.054-1.6.042-.02.064-.064.107-.085l.064-.043c.085-.063.192-.149.278-.213l.171-.128c.043-.021.086-.064.129-.106l.17-.128c.065-.043.15-.107.215-.15l.17-.106.728 1.023.728 1.045-.171.128-.193.128-.342.235zM50.244 78.322c0 .47-.257.896-.663 1.109l-6.227 3.305c.385-.213.642-.618.642-1.087v-2.111l3.723-1.962-.107-33.521c-.022-3.69-3.702-7.336-3.745-7.378l-.043-.043c-1.005-1.087-3.316-3.156-5.841-4.691.748-.49 1.455-1.045 2.118-1.642 2.568 1.685 4.686 3.668 5.564 4.627.406.384 4.45 4.542 4.472 9.148l.107 34.246z"/>
        <path fill="#000" d="M43.996 79.538v2.09c0 .468-.257.874-.642 1.087l-.043.021c-.171.085-.364.128-.578.128-.706 0-1.263-.554-1.263-1.258v-.768l2.526-1.3z"/>
        <path fill="#000" d="M43.996 49.343v30.195L41.47 80.88V49.343c0-.704.557-1.258 1.263-1.258.706 0 1.263.576 1.263 1.258zM43.29 82.757l.042-.02s-.021.02-.043.02z"/>
        <path fill="#000" d="M42.733 82.885c.214 0 .407-.042.578-.128L24.2 92.844c.386-.214.664-.619.664-1.11v-2.089L41.47 80.86v.767c0 .704.557 1.258 1.263 1.258zM38.56 29.341c.535.299 1.049.619 1.541.939-.663.597-1.37 1.151-2.118 1.642-.214-.128-.45-.278-.685-.406-.6-.34-.813-1.108-.471-1.705.086-.15.193-.278.342-.384.386-.299.92-.341 1.391-.086z"/>
        <path fill="#000" d="M28.289 32.327c3.317 0 6.398-1.088 8.88-2.922-.128.107-.235.235-.342.384-.342.597-.128 1.365.47 1.706.236.128.45.256.686.405-2.782 1.855-6.12 2.943-9.694 2.943-3.595 0-6.955-1.088-9.736-2.943l.342-.256c.064-.042.128-.085.193-.149l.128-.085.021-.021.022-.022c.578-.405.706-1.173.32-1.748-.085-.107-.17-.214-.277-.278 2.525 1.877 5.627 2.986 8.987 2.986zM24.844 89.645v2.09c0 .469-.278.895-.664 1.109-.17.106-.385.149-.599.149-.706 0-1.262-.555-1.262-1.258v-.768l2.525-1.322z"/>
        <path fill="#000" d="M24.844 60.368v29.298l-2.525 1.344V60.368c0-.704.556-1.259 1.262-1.259s1.263.555 1.263 1.259zM38.56 29.341c-.45-.255-1.005-.191-1.39.086 3.701-2.708 6.098-7.08 6.098-12.005 0-8.231-6.72-14.927-14.979-14.927-8.26 0-14.958 6.696-14.958 14.927 0 4.883 2.354 9.211 6.013 11.94-.428-.32-1.027-.362-1.498-.042l-.17.128c-.065.043-.15.107-.215.15l-.17.127c-.044.022-.087.064-.13.107l-.17.128c-.086.064-.193.15-.279.213l-.064.043s-.021 0-.021.021c-.043.021-.064.043-.107.085-3.51-3.198-5.714-7.783-5.714-12.88C10.806 7.827 18.66 0 28.31 0c9.651 0 17.504 7.826 17.504 17.443 0 5.075-2.204 9.66-5.692 12.858-.535-.362-1.048-.661-1.562-.96z"/>
        <path fill="#000" d="M16.498 30.301c.642.576 1.327 1.13 2.055 1.6l-.086.063-.257.192-.064.043c-.107.085-.214.15-.3.234l-.107.086c-.064.042-.128.106-.192.149l-.129.107c-.064.042-.128.106-.192.149l-.257.234-.021.022-.514.448-.085.085c-.15.15-.321.298-.471.469l-.086.085-.47.47s0 .02-.022.02l-.021.043c-.172.17-.321.342-.471.512l-.022.021c-.17.171-.32.363-.47.534l-.065.064c-.064.063-.128.149-.192.213l-.107.128c-.086.106-.193.234-.278.34-.129.171-.257.32-.385.491l-.086.107c-.128.17-.235.32-.364.49l-.364.512-.128.192-.128.17-.129.193c-.043.064-.085.106-.107.17l-.128.192-.086.15c-.085.149-.171.277-.257.426l-.042.064c-.107.15-.193.32-.279.469l-.107.17c-.042.064-.064.128-.107.192l-.278.49c-.107.193-.214.385-.3.577v.02l-.02.044c-.086.149-.172.32-.236.49l-.043.107c-.085.17-.171.34-.235.511l-.043.107c-.064.15-.15.32-.214.47l-.043.084c-.064.171-.15.342-.214.534l-.043.127c-.064.192-.15.363-.214.555v.021c-.064.17-.128.363-.192.555l-.043.106c-.064.192-.128.363-.171.555l-.022.106c-.064.192-.107.384-.17.576v.043c-.044.192-.086.362-.15.554l-.022.107c-.043.17-.086.362-.128.554L8.174 48c-.043.192-.064.362-.107.554v.043c-.021.17-.064.341-.085.512l-.022.106-.064.512v.107c-.021.149-.021.32-.043.469v.042c-.021.192-.021.342-.021.512v.597l.107 33.542 12.882 6.867 1.54-.81v.767c0 .704.557 1.258 1.263 1.258.214 0 .428-.064.6-.15l-2.825 1.494c-.193.106-.386.149-.6.149-.214 0-.406-.043-.599-.15L6.056 86.895c-.407-.213-.664-.64-.664-1.109l-.107-34.288v-.619-.064c0-.191.022-.383.022-.575v-.086c.021-.17.021-.362.043-.533v-.128l.064-.575v-.043c0-.021 0-.043.021-.064.022-.192.064-.405.086-.597v-.043-.021c.043-.192.064-.405.107-.597l.021-.128c.043-.213.086-.405.129-.618v-.022l.021-.064c.043-.213.107-.405.15-.618v-.043-.021l.192-.64.043-.128c.064-.213.129-.405.193-.618l.043-.107c.064-.213.15-.426.214-.618v-.021c.064-.214.15-.406.235-.597l.043-.128c.085-.192.15-.384.235-.576l.043-.085c.086-.192.15-.363.235-.534l.043-.106c.086-.192.171-.363.257-.555l.064-.128c.086-.17.171-.34.257-.533l.021-.042s0-.022.022-.022c.107-.213.214-.405.32-.618l.193-.341c.043-.064.064-.128.107-.192s.086-.128.107-.192l.086-.17c.107-.192.214-.363.32-.534l.044-.064c.085-.149.192-.298.278-.469l.107-.149c.043-.064.085-.128.128-.213l.129-.192c.042-.064.085-.128.15-.213l.128-.192c.043-.064.085-.128.15-.214l.128-.191c.043-.064.086-.107.128-.171l.15-.192c.128-.17.257-.362.407-.533l.085-.107c.15-.192.278-.362.428-.554.107-.128.193-.256.3-.363l.107-.128c.085-.085.15-.17.214-.255l.064-.064c.171-.192.342-.406.535-.597.171-.192.342-.363.514-.555l.042-.043.022-.02c.17-.171.32-.342.492-.513l.085-.085.514-.512.086-.085c.192-.17.363-.341.556-.49l.321-.278c.064-.064.128-.106.214-.17l.128-.107.022-.021c.064-.064.15-.107.214-.17l.107-.086c.15-.128.214-.192.3-.256z"/>
        <path fill="#000" d="M18.553 31.9c-.728-.49-1.413-1.023-2.055-1.599.022-.021.065-.043.107-.085 0 0 .022 0 .022-.022l.064-.042c.086-.064.192-.15.278-.213l.171-.128c.043-.022.086-.064.129-.107l.17-.128c.065-.043.15-.107.215-.15l.171-.127c.47-.32 1.07-.299 1.498.042.107.086.193.171.278.278.407.575.257 1.364-.32 1.748l-.022.022-.022.02-.128.086c-.064.043-.128.085-.193.15l-.363.255z"/>
        <g fill="#FFF">
            <path d="M20.371 24.224c2.247 1.684 5.03 2.665 8.025 2.665 2.974 0 5.735-.98 7.96-2.601 3.317-2.431 5.457-6.355 5.457-10.747C41.813 6.163 35.8.17 28.396.17c-7.383 0-13.417 5.992-13.417 13.37.021 4.37 2.14 8.252 5.392 10.683zM112.835 148.861l-2.76 1.6-11.599-6.675c-.599-.341-1.37-.15-1.733.47-.342.596-.15 1.364.47 1.726l10.336 5.95-1.498.853c-.599.34-.813 1.108-.47 1.727.235.405.663.64 1.091.64.214 0 .428-.064.62-.171l3.382-1.94 3.402-1.962c.6-.341.813-1.11.47-1.727-.32-.64-1.09-.832-1.711-.49z" transform="translate(0 3.838)"/>
            <path d="M101.643 145.577L7.361 91.351l1.584-.917c.599-.341.813-1.109.47-1.727-.342-.597-1.112-.81-1.733-.47l-3.466 1.984-.086.042-3.338 1.92c-.6.34-.813 1.108-.471 1.727.235.405.663.64 1.091.64.214 0 .428-.064.62-.171l2.761-1.6 95.588 54.995c.192.106.406.17.62.17.428 0 .856-.234 1.092-.64.364-.597.15-1.364-.45-1.727z" transform="translate(0 3.838)"/>
        </g>
        <path fill="#FFF" d="M123.168 86.11c2.251 1.691 5.039 2.676 8.041 2.676 2.98 0 5.747-.985 7.977-2.611 3.324-2.44 5.469-6.38 5.469-10.789 0-7.406-6.026-13.42-13.446-13.42-7.398 0-13.445 6.014-13.445 13.42.021 4.367 2.144 8.263 5.404 10.724z"/>
    </g>
</svg>
