<svg xmlns="http://www.w3.org/2000/svg" width="192" height="159" viewBox="0 0 192 159">
    <g fill="none">
        <g fill="#000">
            <g>
                <path d="M72.9 56.245l-70.833-40C.832 15.285.19 13.725.19 11.805c0-4.198 2.828-9.118 6.416-11.23l.404-.24 6.415 3.576 65.867 37.193-1.283.744c-3.09 1.8-5.584 6.167-5.584 9.766 0 1.512.451 2.64 1.307 3.168l-.832 1.463zM7.057 2.28c-2.899 1.92-5.18 6.07-5.18 9.502 0 1.391.404 2.471 1.117 3.023L70.928 53.15c-.095-.48-.143-1.008-.143-1.56 0-3.72 2.234-8.038 5.251-10.414L12.617 5.375 7.057 2.28z" transform="translate(0 102.472) translate(.238)"/>
                <path d="M72.947 56.39l-.095-.049-70.832-40C.76 15.357.095 13.797.095 11.806.095 7.583 2.946 2.592 6.582.48l.475-.264.048.024 6.415 3.575 66.057 37.313-1.45.84c-3.041 1.776-5.512 6.119-5.512 9.646 0 1.488.451 2.568 1.235 3.048l.095.072-.998 1.655zM7.033.48l-.356.192C3.113 2.759.309 7.63.309 11.782c0 1.92.641 3.431 1.83 4.343l70.713 39.928.737-1.247c-.808-.552-1.26-1.704-1.26-3.192 0-3.623 2.52-8.062 5.632-9.862l1.093-.648L13.378 4.007 7.033.48zm64.061 52.934L2.923 14.925c-.76-.6-1.188-1.704-1.188-3.143 0-3.432 2.304-7.655 5.227-9.622l.071-.048.072.024 5.56 3.095 63.561 35.897-.142.12c-3.065 2.424-5.204 6.67-5.204 10.318 0 .552.048 1.056.143 1.536l.071.312zM7.057 2.424c-2.851 1.92-5.061 6.022-5.061 9.382 0 1.367.38 2.4 1.07 2.927L70.76 52.958c-.07-.432-.095-.864-.095-1.344 0-3.671 2.115-7.918 5.157-10.414L12.546 5.495 7.057 2.424z" transform="translate(0 102.472) translate(.238)"/>
            </g>
            <path d="M73.185 56.39l-.095-.049-70.833-40C.998 15.357.333 13.797.333 11.806.333 7.583 3.184 2.592 6.82.48l.475-.264.047.024 6.416 3.575 66.056 37.313-1.449.84c-3.041 1.776-5.513 6.119-5.513 9.646 0 1.488.452 2.568 1.236 3.048l.095.072-.998 1.655zM7.271.48l-.356.192C3.35 2.759.547 7.63.547 11.782c0 1.92.641 3.431 1.83 4.343L73.09 56.053l.737-1.247c-.808-.552-1.26-1.704-1.26-3.192 0-3.623 2.519-8.062 5.632-9.862l1.093-.648L13.615 4.007 7.271.48zm64.06 52.934L3.162 14.925c-.761-.6-1.189-1.704-1.189-3.143 0-3.432 2.305-7.655 5.228-9.622l.071-.048.071.024 5.56 3.095 63.562 35.897-.143.12c-3.065 2.424-5.203 6.67-5.203 10.318 0 .552.047 1.056.142 1.536l.072.312zM7.296 2.424c-2.852 1.92-5.061 6.022-5.061 9.382 0 1.367.38 2.4 1.069 2.927l67.696 38.225c-.071-.432-.095-.864-.095-1.344 0-3.671 2.115-7.918 5.156-10.414L12.784 5.495l-5.49-3.071z" transform="translate(0 102.472)"/>
            <path d="M73.233 56.557l-.214-.12-70.833-40C.879 15.429.19 13.82.19 11.782.19 7.51 3.065 2.496 6.724.36l.523-.312.119.072 6.416 3.575 66.246 37.41-1.64.959c-3.017 1.752-5.464 6.047-5.464 9.55 0 1.44.427 2.496 1.188 2.952l.19.12-1.07 1.871zm-.096-.312l.832-1.463c-.095-.048-.19-.12-.285-.192.048.048.119.096.19.144l.095.072-.832 1.44zM7.271.624l-.285.168C3.446 2.855.689 7.679.689 11.806c0 1.871.618 3.36 1.782 4.247l70.595 39.856.618-1.055c-.784-.6-1.212-1.752-1.212-3.24 0-3.671 2.566-8.134 5.703-9.958l.903-.528-65.534-37L7.271.623zm67.458 44.775c-1.235 1.92-2.043 4.2-2.043 6.215 0-2.015.808-4.295 2.043-6.215zM11.714 2.807l1.973 1.104 26.446 14.925L13.687 3.911l-1.973-1.104zm59.784 50.847L3.113 15.045c-.808-.624-1.236-1.776-1.236-3.24 0-3.479 2.329-7.75 5.299-9.717l.119-.072 5.679 3.167 63.728 35.993-.285.216c-3.042 2.4-5.157 6.599-5.157 10.222 0 .528.048 1.056.143 1.512l.095.528zM3.16 14.78c.024.024.048.048.095.072L71.19 53.198c-.024-.144-.047-.264-.071-.408 0 .048.024.12.024.168l.047.24-.214-.12L3.232 14.853l-.072-.072zM7.295 2.568c-2.78 1.92-4.966 5.95-4.966 9.238 0 1.32.356 2.327 1.021 2.831l67.483 38.081c-.048-.36-.072-.72-.072-1.104 0-3.623 2.068-7.87 5.062-10.39L12.736 5.591 7.295 2.568zM76.25 41.2l-.142.12c-.048.048-.095.096-.167.144.12-.096.214-.192.31-.264zM11.097 4.415l1.758.984 31.864 17.997L12.855 5.399l-1.758-.984zM6.724 2.711c-2.613 2.064-4.61 5.903-4.61 9.095 0-3.168 1.973-7.03 4.61-9.095z" transform="translate(0 102.472)"/>
            <g>
                <path d="M21.86 26.131c-5.465 0-10.906-1.2-15.064-3.623C2.614 20.06.309 16.773.309 13.245c0-3.55 2.305-6.838 6.487-9.262 8.316-4.847 21.813-4.847 30.13 0 4.181 2.448 6.486 5.735 6.486 9.262 0 3.552-2.305 6.84-6.487 9.263-4.158 2.4-9.6 3.623-15.065 3.623zm0-24.14c-5.156 0-10.312 1.152-14.233 3.432-3.635 2.136-5.655 4.895-5.655 7.798 0 2.904 1.996 5.687 5.655 7.799 7.842 4.583 20.601 4.583 28.467 0 3.635-2.136 5.655-4.895 5.655-7.799 0-2.903-1.996-5.686-5.655-7.798-3.921-2.304-9.077-3.431-14.234-3.431z" transform="translate(0 102.472) translate(60.354 3.84)"/>
                <path d="M21.86 26.251c-5.726 0-11.096-1.296-15.136-3.647C2.494 20.132.19 16.82.19 13.22c0-3.575 2.329-6.91 6.534-9.382 8.34-4.87 21.908-4.87 30.249 0 4.23 2.472 6.534 5.783 6.534 9.382 0 3.576-2.329 6.911-6.534 9.383-4.016 2.351-9.386 3.647-15.113 3.647zm0-25.82c-5.44 0-10.858 1.2-14.993 3.624C2.733 6.48.451 9.718.451 13.221c0 3.504 2.282 6.743 6.416 9.167 3.992 2.327 9.338 3.623 15.017 3.623 5.68 0 11.002-1.296 14.994-3.623 4.134-2.424 6.415-5.663 6.415-9.167 0-3.503-2.28-6.742-6.415-9.166C32.743 1.632 27.302.432 21.86.432zm0 24.14c-5.18 0-10.36-1.151-14.28-3.455-3.683-2.136-5.703-4.967-5.703-7.919 0-2.951 2.02-5.758 5.703-7.918 3.802-2.232 8.887-3.455 14.28-3.455 5.394 0 10.48 1.223 14.281 3.455 3.683 2.136 5.703 4.967 5.703 7.918 0 2.952-2.02 5.76-5.703 7.919-3.92 2.304-9.1 3.455-14.28 3.455zm0-22.46c-5.37 0-10.383 1.224-14.161 3.408-3.612 2.112-5.584 4.847-5.584 7.702 0 2.856 1.996 5.591 5.584 7.703 7.817 4.56 20.53 4.56 28.347 0 3.612-2.112 5.584-4.847 5.584-7.703 0-2.855-1.996-5.59-5.584-7.702-3.778-2.208-8.815-3.407-14.186-3.407z" transform="translate(0 102.472) translate(60.354 3.84)"/>
                <g>
                    <path d="M21.86 26.251c-5.726 0-11.096-1.296-15.136-3.647C2.494 20.132.19 16.82.19 13.22c0-3.575 2.329-6.91 6.534-9.382 8.34-4.87 21.908-4.87 30.249 0 4.23 2.472 6.534 5.783 6.534 9.382 0 3.576-2.329 6.911-6.534 9.383-4.016 2.351-9.386 3.647-15.113 3.647zm0-25.82c-5.44 0-10.858 1.2-14.993 3.624C2.733 6.48.451 9.718.451 13.221c0 3.504 2.282 6.743 6.416 9.167 3.992 2.327 9.338 3.623 15.017 3.623 5.68 0 11.002-1.296 14.994-3.623 4.134-2.424 6.415-5.663 6.415-9.167 0-3.503-2.28-6.742-6.415-9.166C32.743 1.632 27.302.432 21.86.432zm0 24.14c-5.18 0-10.36-1.151-14.28-3.455-3.683-2.136-5.703-4.967-5.703-7.919 0-2.951 2.02-5.758 5.703-7.918 3.802-2.232 8.887-3.455 14.28-3.455 5.394 0 10.48 1.223 14.281 3.455 3.683 2.136 5.703 4.967 5.703 7.918 0 2.952-2.02 5.76-5.703 7.919-3.92 2.304-9.1 3.455-14.28 3.455zm0-22.46c-5.37 0-10.383 1.224-14.161 3.408-3.612 2.112-5.584 4.847-5.584 7.702 0 2.856 1.996 5.591 5.584 7.703 7.817 4.56 20.53 4.56 28.347 0 3.612-2.112 5.584-4.847 5.584-7.703 0-2.855-1.996-5.59-5.584-7.702-3.778-2.208-8.815-3.407-14.186-3.407z" transform="translate(0 102.472) translate(60.354 3.84)"/>
                    <path d="M21.86 26.371c-5.75 0-11.12-1.296-15.183-3.671C2.424 20.228.07 16.845.07 13.22c0-3.623 2.353-7.006 6.606-9.478 8.364-4.87 22.003-4.87 30.367 0 4.253 2.472 6.606 5.855 6.606 9.478 0 3.624-2.353 7.007-6.606 9.479-4.04 2.351-9.433 3.671-15.184 3.671zm-.07-.24h.142-.143zm.07-25.58c-5.655 0-10.954 1.273-14.945 3.6-4.111 2.4-6.368 5.615-6.368 9.07 0 3.456 2.257 6.671 6.368 9.07 3.991 2.328 9.29 3.6 14.945 3.6 5.656 0 10.954-1.272 14.946-3.6 4.111-2.399 6.368-5.614 6.368-9.07 0-3.455-2.257-6.67-6.368-9.07-3.968-2.327-9.29-3.6-14.946-3.6zM.31 13.222c0 2.784 1.426 5.423 4.087 7.631-2.638-2.208-4.087-4.847-4.087-7.63zm43.08.744v0zm.023-.384c0 .096 0 .192-.024.288 0-.096.024-.192.024-.288zm0-.36v0zM4.348 5.663C1.735 7.847.308 10.462.308 13.22c0-2.783 1.427-5.398 4.04-7.558zm39.04 6.887c0 .096.024.192.024.288 0-.096-.024-.192-.024-.288zM21.86 24.69c-5.417 0-10.526-1.223-14.351-3.455-3.73-2.16-5.774-5.015-5.774-8.015 0-2.999 2.043-5.854 5.774-8.014 3.825-2.232 8.934-3.455 14.351-3.455 5.418 0 10.527 1.223 14.352 3.455 3.73 2.16 5.774 5.015 5.774 8.014 0 3-2.043 5.855-5.774 8.015-3.825 2.232-8.91 3.455-14.352 3.455zm13.473-3.24c-3.089 1.633-6.867 2.592-10.764 2.904 4.016-.312 7.746-1.32 10.764-2.903zm-26.85.025c2.994 1.56 6.677 2.543 10.645 2.855-3.85-.288-7.58-1.247-10.645-2.855zM21.86 2.232c-5.346 0-10.36 1.2-14.114 3.407-3.564 2.088-5.536 4.775-5.536 7.606 0 2.832 1.972 5.52 5.536 7.607 7.77 4.535 20.435 4.535 28.229 0 3.564-2.088 5.536-4.775 5.536-7.607 0-2.831-1.972-5.518-5.536-7.606C32.22 3.43 27.207 2.232 21.86 2.232zm19.865 11.47V13.7zm0-.097v0zm-39.729 0v0zm39.753-.096v.072c-.024-.024-.024-.048 0-.072zm-39.753 0v0zm39.753-.288v0zm-39.753 0v0zm39.634-1.175c.071.384.119.768.119 1.151 0-.36-.048-.767-.12-1.151zm-39.539 0c-.071.384-.119.768-.119 1.175.024-.407.048-.791.119-1.175zm19.77-10.054h-.072.071zm0 0h.07-.07z" transform="translate(0 102.472) translate(60.354 3.84)"/>
                </g>
            </g>
        </g>
        <g fill="#000">
            <g>
                <path d="M116.734.405l-.428-.238L14.654 59.028l1.713.953L116.33 2.095l68.037 39.313L74.46 104.936c-.023.024-2.497 1.262-3.83.12-.261-.239-1.546-1.072-5.162-3.453-6.78-4.43-20.268-9.93-22.48-12.073L6.59 68.981l-.096.072-4.686-2.572-1.475.857 41.56 23.454c2.498 2.334 15.915 7.787 22.671 12.216 2.546 1.666 4.734 3.095 4.996 3.31.785.666 1.689.88 2.57.88 1.593 0 3.044-.738 3.163-.785l112.405-65.005L116.734.405z" transform="translate(2.692 51.236) translate(.238 .238)"/>
                <path d="M72.105 107.318c-1.046 0-1.927-.31-2.64-.905-.262-.215-2.665-1.786-4.972-3.31-3.378-2.215-8.445-4.69-12.918-6.882-4.544-2.214-8.469-4.143-9.753-5.333L.095 67.338l1.713-1 4.663 2.572.095-.072 36.493 20.597c1.07 1.048 4.876 2.905 9.301 5.048 4.568 2.238 9.73 4.762 13.18 7 3.687 2.43 4.9 3.215 5.186 3.453 1.284 1.096 3.663-.119 3.687-.119l109.692-63.41-67.8-39.169-99.938 57.886-1.95-1.096.19-.095L116.33.048l.475.285 71.13 41.075-.19.095-112.428 65.005c-.143.095-1.594.81-3.212.81zM.571 67.338l41.393 23.36c1.237 1.166 5.163 3.07 9.706 5.31 4.473 2.19 9.564 4.666 12.942 6.904 2.854 1.882 4.758 3.12 4.995 3.31.667.572 1.5.857 2.498.857 1.594 0 3.045-.762 3.093-.785L187.46 41.408 116.663.524l-.357-.214L14.892 59.028l1.451.81 99.963-57.885.047.023 68.228 39.408-.19.095-109.86 63.553c-.023.023-2.545 1.31-3.972.095-.262-.214-1.546-1.072-5.138-3.429-3.426-2.238-8.588-4.762-13.156-7-4.425-2.167-8.231-4.025-9.35-5.096L6.59 69.1l-.096.072L1.808 66.6l-1.237.738z" transform="translate(2.692 51.236) translate(.238 .238)"/>
            </g>
            <path d="M72.343 107.556c-1.046 0-1.927-.31-2.64-.905-.262-.215-2.665-1.786-4.972-3.31-3.378-2.214-8.446-4.69-12.918-6.881-4.544-2.215-8.469-4.144-9.754-5.334L.333 67.576l1.713-1 4.663 2.572.095-.071 36.493 20.596c1.07 1.048 4.876 2.905 9.301 5.048 4.568 2.239 9.73 4.763 13.18 7 3.687 2.43 4.9 3.215 5.185 3.453 1.285 1.096 3.664-.119 3.688-.119l109.692-63.409-67.8-39.17-99.938 57.886-1.95-1.096.19-.095L116.568.286l.475.285 71.13 41.075-.19.095-112.428 65.005c-.143.095-1.594.81-3.212.81zM.81 67.576l41.393 23.36c1.237 1.166 5.162 3.071 9.706 5.31 4.473 2.19 9.564 4.666 12.942 6.905 2.854 1.88 4.757 3.119 4.995 3.31.666.57 1.5.857 2.498.857 1.594 0 3.045-.762 3.093-.786l112.262-64.886L116.9.762l-.357-.214L15.13 59.266l1.451.81L116.544 2.19l.047.023 68.228 39.408-.19.095-109.86 63.553c-.023.024-2.545 1.31-3.972.095-.262-.214-1.546-1.072-5.139-3.429-3.425-2.238-8.587-4.762-13.155-7-4.425-2.167-8.231-4.024-9.35-5.096L6.829 69.338l-.096.072-4.686-2.572-1.237.738z" transform="translate(2.692 51.236)"/>
            <path d="M72.343 107.675c-1.07 0-1.998-.31-2.712-.953-.238-.19-2.593-1.738-4.877-3.238l-.07-.048c-3.355-2.214-8.422-4.69-12.895-6.881-4.543-2.215-8.469-4.143-9.777-5.334L.119 67.576l1.95-1.142 4.663 2.547.096-.071 36.587 20.668c1.071 1.024 4.877 2.881 9.278 5.048 4.568 2.238 9.73 4.762 13.18 7.024 3.901 2.548 4.924 3.239 5.186 3.453 1.213 1.048 3.473-.095 3.568-.143l109.526-63.314-67.61-39.027-99.938 57.886-2.189-1.215.357-.214L116.543.143l.548.31 71.32 41.193-.357.214-112.428 64.981c-.166.096-1.641.834-3.283.834zm-3.687-1.905c.618.405 1.023.69 1.142.786.69.595 1.546.88 2.569.88-1.023 0-1.88-.309-2.57-.88-.118-.096-.523-.358-1.141-.786zm6.804.88c-.262.12-1.618.787-3.117.787 1.499 0 2.855-.643 3.117-.786zM1.047 67.577L42.274 90.84c1.237 1.143 5.138 3.072 9.682 5.286 4.496 2.19 9.563 4.691 12.965 6.905 2.855 1.882 4.758 3.12 5.02 3.334.642.548 1.45.833 2.426.833 1.57 0 2.974-.738 3.045-.762L187.483 41.67 116.543.69 15.369 59.267l1.213.69 99.963-57.884.119.071 68.394 39.527-.357.214L74.817 105.39c-.023.024-2.616 1.357-4.091.071-.262-.214-1.547-1.071-5.139-3.429-3.426-2.238-8.588-4.762-13.132-6.976-4.4-2.143-8.23-4.024-9.373-5.096L6.828 69.505l-.096.072-4.686-2.572-1 .571zm68.68 36.908c.69.452 1.022.69 1.141.786 1.261 1.095 3.497.047 3.807-.096-.31.143-2.546 1.167-3.807.096-.119-.096-.452-.334-1.142-.786zM54.857 95.96c2.76 1.357 5.59 2.785 8.04 4.166-2.45-1.38-5.28-2.81-8.04-4.166zM43.32 91.912c1.475.928 3.807 2.119 6.542 3.476-2.735-1.357-5.09-2.548-6.542-3.476zM.57 67.576l20.555 11.597L.57 67.576zm6.234 1.643l1.522.858-1.522-.858zm-4.758-2.5l2.807 1.548-2.807-1.548-.785.453.785-.453zm12.846-7.453l1.713.953-1.713-.953zM116.544.405l-68.3 39.55 68.3-39.55.428.238 43.201 24.954L116.543.405z" transform="translate(2.692 51.236)"/>
        </g>
        <g fill="#000">
            <g>
                <g>
                    <path d="M7.492 14.9c-.119 0-.261 0-.38-.024l-.45-.048-2.632-4.8c-.569-.737-1.066-1.687-1.47-2.685L.237 3.089l.213-.404C.498 2.59 1.73.38 4.196.38h.095C4.386.356 6.26.166 7.563.927c2.703 1.568 4.836 5.251 4.836 8.388 0 1.307-.853 2.71-1.066 3.042-.214.428-1.352 2.543-3.841 2.543zM2.182 3.137L4.077 6.63c.38.974.83 1.782 1.351 2.495l2.252 4.087c1.518-.118 2.182-1.592 2.182-1.615l.07-.143c.238-.333.83-1.378.83-2.163 0-2.495-1.825-5.679-3.982-6.938-.712-.404-1.968-.357-2.348-.333-1.209.024-1.92.689-2.252 1.117z" transform="translate(6.28 13.483) translate(0 1.426) translate(119.964)"/>
                    <path d="M7.492 15.018c-.119 0-.261 0-.403-.023l-.522-.048-2.655-4.871c-.57-.737-1.09-1.688-1.47-2.71L.095 3.09l.237-.451C.379 2.543 1.636.26 4.196.26h.095C4.576.214 6.378.095 7.634.808c2.75 1.592 4.884 5.323 4.884 8.483 0 1.331-.83 2.71-1.09 3.09-.19.451-1.376 2.637-3.936 2.637zm-.759-.285l.38.024c.118 0 .26.024.379.024 2.418 0 3.556-2.068 3.746-2.495.26-.38 1.067-1.711 1.067-2.995 0-3.089-2.087-6.725-4.766-8.27C6.26.286 4.362.5 4.362.5h-.118C1.826.499.64 2.662.593 2.757l-.19.332 2.276 4.183c.38 1.021.901 1.948 1.446 2.685l2.608 4.776zm.854-1.402L5.31 9.173c-.522-.69-.972-1.545-1.352-2.495L2.015 3.137l.048-.072c.592-.736 1.398-1.14 2.323-1.14.403-.048 1.683-.095 2.418.333 2.205 1.259 4.054 4.49 4.054 7.033 0 .808-.616 1.878-.83 2.21l-.07.143S9.27 13.19 7.68 13.331h-.094zM2.323 3.161l1.873 3.421c.38.951.83 1.783 1.352 2.472l2.205 4.04c1.398-.167 1.991-1.521 2.015-1.545l.07-.143c.214-.308.807-1.354.807-2.09 0-2.472-1.802-5.609-3.936-6.82-.663-.381-1.896-.357-2.276-.31-.877-.024-1.564.31-2.11.975z" transform="translate(6.28 13.483) translate(0 1.426) translate(119.964)"/>
                    <g>
                        <path d="M7.492 15.018c-.119 0-.261 0-.403-.023l-.522-.048-2.655-4.871c-.57-.737-1.09-1.688-1.47-2.71L.095 3.09l.237-.451C.379 2.543 1.636.26 4.196.26h.095C4.576.214 6.378.095 7.634.808c2.75 1.592 4.884 5.323 4.884 8.483 0 1.331-.83 2.71-1.09 3.09-.19.451-1.376 2.637-3.936 2.637zm-.759-.285l.38.024c.118 0 .26.024.379.024 2.418 0 3.556-2.068 3.746-2.495.26-.38 1.067-1.711 1.067-2.995 0-3.089-2.087-6.725-4.766-8.27C6.26.286 4.362.5 4.362.5h-.118C1.826.499.64 2.662.593 2.757l-.19.332 2.276 4.183c.38 1.021.901 1.948 1.446 2.685l2.608 4.776zm.854-1.402L5.31 9.173c-.522-.69-.972-1.545-1.352-2.495L2.015 3.137l.048-.072c.592-.736 1.398-1.14 2.323-1.14.403-.048 1.683-.095 2.418.333 2.205 1.259 4.054 4.49 4.054 7.033 0 .808-.616 1.878-.83 2.21l-.07.143S9.27 13.19 7.68 13.331h-.094zM2.323 3.161l1.873 3.421c.38.951.83 1.783 1.352 2.472l2.205 4.04c1.398-.167 1.991-1.521 2.015-1.545l.07-.143c.214-.308.807-1.354.807-2.09 0-2.472-1.802-5.609-3.936-6.82-.663-.381-1.896-.357-2.276-.31-.877-.024-1.564.31-2.11.975z" transform="translate(6.28 13.483) translate(0 1.426) translate(119.964)"/>
                        <path d="M7.492 15.137c-.142 0-.261 0-.403-.023l-.57-.048-2.678-4.943c-.57-.736-1.09-1.687-1.47-2.733L0 3.065l.284-.522C.332 2.448 1.636.095 4.244.095h.095c.284-.047 2.11-.166 3.39.57 2.774 1.616 4.955 5.37 4.955 8.579 0 1.354-.854 2.757-1.114 3.16-.237.5-1.447 2.733-4.078 2.733zm0-.237c2.37 0 3.509-1.901 3.817-2.448-.308.547-1.47 2.448-3.817 2.448zm-.688-.286l.332.024c.119 0 .237.024.356.024 2.347 0 3.461-2.02 3.65-2.424.262-.38 1.044-1.71 1.044-2.923 0-3.065-2.063-6.653-4.718-8.174C6.212.428 4.386.618 4.362.618H4.22C1.897.618.711 2.709.664 2.804l-.142.285L2.774 7.2c.38 1.022.877 1.925 1.446 2.662l2.584 4.752zM2.632 7.485c.355.88.782 1.664 1.256 2.33-.474-.642-.924-1.45-1.256-2.33zM11.427 5.3c.617 1.307.996 2.71.996 4.016 0-1.307-.38-2.709-.996-4.016zM4.955.356c-.308 0-.545.024-.64.024h-.119c-1.398 0-2.394.713-3.01 1.331.616-.642 1.612-1.33 3.01-1.33h.119s.474-.048 1.09-.025h-.45zm2.584 13.118l-2.323-4.23c-.522-.69-.972-1.545-1.375-2.519L1.873 3.113l.095-.119c.616-.76 1.446-1.188 2.418-1.188.427-.048 1.707-.095 2.466.356 2.228 1.284 4.101 4.563 4.101 7.13 0 .831-.616 1.924-.853 2.28l-.071.12c0 .023-.024.047-.024.07-.142.262-.877 1.57-2.347 1.688l-.119.024zM2.466 3.16L4.29 6.51c.38.95.83 1.782 1.328 2.472L7.8 12.975c1.257-.19 1.826-1.45 1.826-1.45l.094-.166c.214-.309.783-1.33.783-2.044 0-2.424-1.778-5.513-3.865-6.725-.592-.332-1.754-.356-2.205-.285-.806-.024-1.446.285-1.967.856zm8.274 6.154c0 .737-.545 1.711-.783 2.115.261-.404.783-1.378.783-2.115zM2.18 3.137l1.897 3.47c.38.974.83 1.805 1.351 2.494l.664 1.212-.664-1.212c-.521-.689-.972-1.52-1.351-2.495L2.18 3.136zM4.955 2.02c.545 0 1.304.071 1.802.356.355.214.687.452 1.02.76-.333-.284-.665-.546-1.02-.76-.688-.404-1.968-.356-2.347-.332H4.29h.119c.118 0 .308-.024.545-.024z" transform="translate(6.28 13.483) translate(0 1.426) translate(119.964)"/>
                    </g>
                </g>
                <g>
                    <g>
                        <path d="M5.31 15.565c-.948 0-1.943-.071-2.94-.19l-.426-.071-1.802-3.66.19-.38C.474 10.979 4.03 4.159 9.626.665l.023-.023h.024l.19-.095c1.09-.523 2.418-.38 3.746.404 2.702 1.568 4.836 5.251 4.836 8.388 0 1.426-.45 2.543-1.28 3.256l.047.07-.782.405c-.237.119-5.097 2.495-11.12 2.495zm-2.275-1.806c5.192.594 9.98-1.093 11.854-1.854v-.023l.853-.38c.664-.286 1.043-1.046 1.043-2.187 0-2.495-1.825-5.68-3.983-6.939-.9-.522-1.707-.641-2.276-.309l-.047.024C6 4.943 2.821 10.218 2.04 11.644l.996 2.115z" transform="translate(6.28 13.483) translate(0 1.426) translate(2.845 64.636) translate(.237)"/>
                        <path d="M5.31 15.684c-1.019 0-2.015-.071-2.963-.19l-.498-.072L0 11.644l.213-.428C.356 10.931 3.912 4.135 9.46.642l.355-.19c1.138-.547 2.466-.404 3.865.403 2.75 1.593 4.884 5.323 4.884 8.484 0 1.402-.45 2.543-1.233 3.28l.047.094-.877.476c-.213.095-5.145 2.495-11.19 2.495zm-3.295-.5l.38.048c.948.143 1.92.19 2.94.19 5.998 0 10.858-2.376 11.071-2.495l.664-.356-.024-.048.071-.071c.783-.665 1.233-1.782 1.233-3.16 0-3.09-2.086-6.726-4.765-8.27C12.257.262 11 .119 9.934.618l-.237.119C4.149 4.182.593 11.002.45 11.287l-.166.333 1.731 3.565zm3.272-1.164c-.735 0-1.494-.047-2.252-.118h-.071l-1.091-2.21.024-.048c.853-1.52 4.006-6.749 8.487-9.6l.048-.024c.592-.333 1.446-.238 2.394.309 2.205 1.283 4.054 4.491 4.054 7.034 0 1.188-.403 1.996-1.114 2.305l-.735.333-.118.07c-1.565.595-5.311 1.95-9.626 1.95zm-2.181-.356c5.05.57 9.72-1.046 11.617-1.806l.095-.071.853-.38c.617-.262.972-.999.972-2.092 0-2.471-1.802-5.608-3.935-6.844-.878-.499-1.636-.617-2.158-.309l-.047.024c-4.386 2.78-7.492 7.866-8.37 9.458l.973 2.02z" transform="translate(6.28 13.483) translate(0 1.426) translate(2.845 64.636) translate(.237)"/>
                    </g>
                    <path d="M5.548 15.684c-1.02 0-2.015-.071-2.964-.19l-.498-.072-1.849-3.778.213-.428C.593 10.931 4.15 4.135 9.697.642l.355-.19c1.138-.547 2.466-.404 3.865.403C16.667 2.448 18.8 6.178 18.8 9.34c0 1.402-.45 2.543-1.233 3.28l.047.094-.877.476c-.213.095-5.145 2.495-11.19 2.495zm-3.296-.5l.38.048c.948.143 1.92.19 2.94.19 5.998 0 10.858-2.376 11.071-2.495l.664-.356-.024-.048.071-.071c.783-.665 1.233-1.782 1.233-3.16 0-3.09-2.086-6.726-4.765-8.27-1.328-.76-2.584-.903-3.651-.404l-.237.119C4.386 4.182.83 11.002.688 11.287l-.166.333 1.73 3.565zm3.272-1.164c-.735 0-1.494-.047-2.252-.118H3.2l-1.091-2.21.024-.048c.853-1.52 4.006-6.749 8.487-9.6l.048-.024c.592-.333 1.446-.238 2.394.309 2.205 1.283 4.054 4.491 4.054 7.034 0 1.188-.403 1.996-1.114 2.305l-.735.333-.118.07c-1.565.595-5.311 1.95-9.626 1.95zm-2.181-.356c5.05.57 9.72-1.046 11.617-1.806l.095-.071.853-.38c.617-.262.972-.999.972-2.092 0-2.471-1.802-5.608-3.935-6.844-.877-.499-1.636-.617-2.158-.309l-.047.024c-4.386 2.78-7.492 7.866-8.37 9.458l.973 2.02z" transform="translate(6.28 13.483) translate(0 1.426) translate(2.845 64.636)"/>
                    <path d="M5.548 15.803c-1.02 0-2.015-.072-2.988-.19l-.569-.072-1.92-3.897.237-.475C.45 10.884 3.96 4.182 9.46.618l.474-.262c1.185-.546 2.56-.404 3.983.404 2.774 1.616 4.955 5.371 4.955 8.579 0 1.378-.427 2.543-1.21 3.303l.072.119-.996.523c-.166.095-5.097 2.519-11.19 2.519zm-2.205-.357c.711.071 1.47.119 2.205.119-.735 0-1.47-.048-2.205-.119zm-1.02-.356l.309.047c.948.143 1.92.19 2.916.19 5.974 0 10.81-2.376 11-2.471l.546-.285-.024-.024.142-.119c.759-.641 1.186-1.734 1.186-3.065 0-3.066-2.063-6.654-4.718-8.175-1.28-.736-2.513-.88-3.533-.404L9.91.903C4.41 4.325.853 11.121.711 11.406l-.142.262 1.754 3.422zm-.142.214L.38 11.644l.166-.309-.166.31 1.802 3.659zm15.22-2.733l.048.071-.782.404c-.024 0-.047.024-.119.048.072-.024.095-.048.119-.048l.782-.404-.047-.071.071-.071.142-.143c-.047.095-.142.166-.213.214zM5.382 4.468c-2.655 2.875-4.338 5.893-4.74 6.63.402-.737 2.11-3.755 4.74-6.63zm8.37-3.565c.024.024.07.048.095.048.972.57 1.873 1.402 2.631 2.4-.758-.998-1.66-1.83-2.631-2.4-.024-.024-.071-.048-.095-.048zM9.79.713l-.023.024.024-.024zM10.93.285c-.285.048-.57.143-.83.262.26-.12.545-.214.83-.262zM5.524 14.14c-.759 0-1.541-.047-2.252-.119l-.119-.023-1.138-2.33.071-.118c.854-1.545 4.03-6.773 8.535-9.624l.048-.024c.64-.356 1.54-.261 2.513.309 2.228 1.283 4.101 4.563 4.101 7.153 0 1.235-.426 2.091-1.185 2.4l-.711.333-.119.07c-1.517.571-5.358 1.973-9.744 1.973zm-2.039-.356c.664.071 1.328.095 2.015.095 4.339 0 8.18-1.378 9.602-1.973v-.023l.332-.143-.332.143-.07.047c-1.803.76-6.497 2.377-11.547 1.854zm-.047-.238c5.026.547 9.72-1.07 11.498-1.806l.071-.047.878-.38c.569-.238.9-.951.9-1.973 0-2.424-1.778-5.513-3.864-6.725-.83-.475-1.565-.594-2.039-.309l-.047.024c-4.315 2.733-7.421 7.77-8.298 9.363l.9 1.853zm-1.186-1.877l.38.76-.38-.76zm8.464-9.553c-4.433 2.804-7.563 7.937-8.44 9.505v-.023c.853-1.498 3.983-6.678 8.44-9.482zM17 9.339c0 1.022-.308 1.759-.854 2.091.57-.356.854-1.07.854-2.091z" transform="translate(6.28 13.483) translate(0 1.426) translate(2.845 64.636)"/>
                </g>
                <g>
                    <g>
                        <g>
                            <path d="M4.908 3.303c.213-.119.332-.38.332-.76 0-.737-.522-1.664-1.162-2.044C3.722.285 3.414.309 3.2.475V.452L.308 3.35c-.403.404-.047 1.093.522.998l3.675-1.022c.166.047.308.047.403-.024z" transform="translate(6.28 13.483) translate(0 1.426) translate(0 74.38) translate(.711 1.426) translate(.237)"/>
                            <path d="M.735 4.515c-.26 0-.498-.143-.64-.38-.142-.285-.095-.618.118-.832L3.224.261l.024.048c.26-.119.569-.095.901.095.687.404 1.233 1.354 1.233 2.139 0 .309-.095.57-.237.736l.118.072-.284.07c-.119.072-.261.096-.45.072L.876 4.515H.735zM3.201.642L.403 3.469c-.19.19-.166.404-.071.547.071.143.26.285.498.261l3.698-1.021h.024c.119.023.237 0 .332-.048.19-.095.284-.333.284-.665 0-.713-.497-1.569-1.114-1.925-.284-.166-.569-.19-.759-.024l-.094.048z" transform="translate(6.28 13.483) translate(0 1.426) translate(0 74.38) translate(.711 1.426) translate(.237)"/>
                        </g>
                        <path d="M.972 4.515c-.26 0-.498-.143-.64-.38C.19 3.85.237 3.517.45 3.303L3.461.261l.024.048c.26-.119.57-.095.901.095.688.404 1.233 1.354 1.233 2.139 0 .309-.095.57-.237.736l.118.072-.284.07c-.119.072-.261.096-.45.072L1.113 4.515H.972zM3.438.642L.64 3.469c-.19.19-.166.404-.071.547.071.143.26.285.498.261l3.698-1.021h.024c.119.023.237 0 .332-.048.19-.095.284-.333.284-.665 0-.713-.497-1.569-1.114-1.925-.284-.166-.569-.19-.758-.024l-.095.048z" transform="translate(6.28 13.483) translate(0 1.426) translate(0 74.38) translate(.711 1.426)"/>
                        <path d="M.972 4.634c-.308 0-.593-.166-.735-.452C.071 3.85.12 3.47.38 3.208L3.51.048l.047.095c.261-.095.57-.048.877.142.712.404 1.28 1.426 1.28 2.234 0 .285-.07.499-.189.69l.285.142-.593.142c-.142.072-.285.095-.474.095L1.114 4.61c-.047.024-.095.024-.142.024zM.474 4.11c.071.119.19.214.308.238-.142-.024-.26-.12-.308-.238zM3.51.737L.71 3.54c-.166.166-.095.356-.07.427.047.12.189.214.378.19l3.699-1.045h.047c.095.024.19 0 .261-.024.142-.095.237-.285.237-.546 0-.666-.474-1.497-1.043-1.83-.142-.095-.427-.19-.616-.048l-.095.072zM.379 3.945c0 .023 0 .047.024.071 0-.024 0-.048-.024-.071zm4.363-.57l-2.016.57 2.016-.57c.023 0 .023 0 0 0zm.023 0c.143.023.285 0 .38-.072l.047-.024.095-.095c.142-.142.213-.38.213-.641 0 .356-.118.618-.332.76-.118.048-.26.071-.403.071zM3.438.474l-2.205 2.21L3.343.547l.095-.072c.047-.023.07-.023.118-.047l-.118.047zm1.28.333c.45.451.782 1.14.782 1.735 0-.594-.332-1.284-.782-1.735z" transform="translate(6.28 13.483) translate(0 1.426) translate(0 74.38) translate(.711 1.426)"/>
                    </g>
                    <g>
                        <path d="M1.707 6.416c-.569 0-1.043-.285-1.28-.76-.285-.547-.19-1.212.26-1.664L4.387.262l.237.45c.285 0 .57.096.854.262.9.523 1.588 1.711 1.588 2.757 0 .665-.284 1.188-.759 1.473-.213.119-.474.214-.735.19l-3.556.998c-.118 0-.213.024-.308.024z" transform="translate(6.28 13.483) translate(0 1.426) translate(0 74.38) translate(0 .238)"/>
                        <path d="M1.707 6.535c-.616 0-1.138-.309-1.399-.832C0 5.11.118 4.373.57 3.897L4.386.047l.26.547c.285.024.57.119.83.285.949.547 1.66 1.783 1.66 2.852 0 .713-.308 1.283-.806 1.592-.26.143-.521.214-.782.214l-3.533.974c-.095 0-.213.024-.308.024zM4.339.452L.735 4.064c-.403.404-.498 1.021-.237 1.52.26.523.83.785 1.47.666l3.556-.998h.024c.213.023.45-.048.664-.167.45-.261.687-.76.687-1.378 0-.998-.664-2.139-1.54-2.661-.262-.143-.546-.238-.807-.238h-.071L4.339.452z" transform="translate(6.28 13.483) translate(0 1.426) translate(0 74.38) translate(0 .238)"/>
                    </g>
                    <path d="M1.707 6.773c-.616 0-1.138-.31-1.399-.832C0 5.347.118 4.61.57 4.135L4.386.285l.26.547c.285.023.57.119.83.285.949.546 1.66 1.782 1.66 2.851 0 .713-.308 1.284-.806 1.593-.26.142-.521.214-.782.214l-3.533.974c-.095 0-.213.024-.308.024zM4.339.689L.735 4.301C.332 4.705.237 5.323.498 5.822c.26.523.83.784 1.47.665l3.556-.998h.024c.213.024.45-.047.664-.166.45-.261.687-.76.687-1.378 0-.998-.664-2.139-1.54-2.662-.262-.142-.546-.237-.807-.237h-.071L4.339.689z" transform="translate(6.28 13.483) translate(0 1.426) translate(0 74.38)"/>
                    <path d="M1.707 6.891c-.64 0-1.21-.332-1.494-.879C-.119 5.371 0 4.586.498 4.064L4.433.095l.309.642c.284.023.545.118.83.285.971.57 1.706 1.83 1.706 2.97 0 .737-.308 1.355-.877 1.687-.26.167-.545.238-.83.214l-3.508.975c-.143 0-.237.023-.356.023zM.284 5.537c.024.119.072.238.119.356.237.476.735.76 1.28.76.095 0 .214 0 .308-.023-.687.119-1.303-.166-1.612-.737-.023-.118-.07-.237-.095-.356zM4.314.879L.83 4.372c-.356.38-.45.927-.214 1.379.237.475.76.713 1.352.618l3.556-.998h.024c.213.023.426-.048.616-.143.403-.238.64-.713.64-1.283 0-.975-.64-2.068-1.47-2.543-.237-.143-.498-.214-.735-.238h-.142L4.315.88zm1.234 4.753l-2.49.69 2.49-.69h.07-.07zM7.04 3.968c0 .666-.284 1.189-.758 1.474-.166.095-.356.166-.522.19.166-.024.356-.071.522-.19.474-.285.758-.808.758-1.474zm-3.366-2.78L.664 4.23c-.166.166-.285.38-.356.594.071-.214.19-.428.356-.594l3.01-3.042zm1.565-.095c.07.024.142.071.213.119.332.19.616.451.877.784-.237-.333-.545-.594-.877-.784-.071-.048-.142-.095-.213-.119zM4.6.951c.07 0 .142 0 .236.023-.047 0-.118-.023-.165-.023h-.072zM4.361.499l.19.38-.19-.38z" transform="translate(6.28 13.483) translate(0 1.426) translate(0 74.38)"/>
                </g>
                <g>
                    <path d="M1.351 29.87l-1.02-2.043.025-1.52 10.953-7.653c3.58-2.495 7.207-4.8 10.787-6.844L41.584.665c.64-.356 1.328-.38 1.92-.047.783.451 1.234 1.497 1.234 2.875-.024 2.091-1.02 4.23-2.348 4.99L22.902 19.63c-3.58 2.043-7.23 3.897-10.787 5.489L1.35 29.87zm.664-2.423l.119.261 9.293-4.135c3.533-1.568 7.113-3.374 10.645-5.394L41.561 7.034c.71-.404 1.493-1.949 1.493-3.54 0-.856-.237-1.332-.403-1.427-.047-.047-.19.024-.237.072L22.926 13.284c-3.533 2.02-7.136 4.3-10.669 6.772L1.991 27.233l.024.214z" transform="translate(6.28 13.483) translate(0 1.426) translate(75.155 17.823)"/>
                    <path d="M1.304 30.013l-1.09-2.186.023-1.592 11-7.7c3.58-2.495 7.208-4.8 10.812-6.867L41.537.523c.687-.38 1.422-.404 2.039-.048.83.476 1.28 1.569 1.28 2.97-.024 2.14-1.043 4.326-2.394 5.086L22.973 19.724c-3.58 2.043-7.23 3.897-10.81 5.489l-10.859 4.8zm-.854-2.21l.972 1.925 10.646-4.729c3.58-1.592 7.207-3.422 10.787-5.465L42.343 8.388c1.28-.736 2.276-2.827 2.276-4.895 0-1.33-.427-2.329-1.162-2.78-.545-.309-1.185-.285-1.802.047L22.167 11.905c-3.58 2.044-7.207 4.35-10.787 6.844L.474 26.377.45 27.803zm1.636.048l-.19-.38v-.333l10.314-7.2c3.556-2.472 7.136-4.753 10.669-6.773L42.367 2.02c.118-.071.26-.119.355-.048.214.12.45.666.45 1.521 0 1.64-.829 3.232-1.564 3.636L22.12 18.274c-3.533 2.02-7.113 3.85-10.669 5.418l-9.365 4.159zm.048-.452l.07.119 9.2-4.087c3.532-1.569 7.112-3.375 10.645-5.395L41.537 6.891c.664-.38 1.422-1.9 1.446-3.445 0-.808-.213-1.236-.332-1.307-.023 0-.07.023-.118.047L22.997 13.355c-3.532 2.02-7.112 4.301-10.669 6.773L2.11 27.257l.024.142z" transform="translate(6.28 13.483) translate(0 1.426) translate(75.155 17.823)"/>
                    <g>
                        <path d="M1.304 30.013l-1.09-2.186.023-1.592 11-7.7c3.58-2.495 7.208-4.8 10.812-6.867L41.537.523c.687-.38 1.422-.404 2.039-.048.83.476 1.28 1.569 1.28 2.97-.024 2.14-1.043 4.326-2.394 5.086L22.973 19.724c-3.58 2.043-7.23 3.897-10.81 5.489l-10.859 4.8zm-.854-2.21l.972 1.925 10.646-4.729c3.58-1.592 7.207-3.422 10.787-5.465L42.343 8.388c1.28-.736 2.276-2.827 2.276-4.895 0-1.33-.427-2.329-1.162-2.78-.545-.309-1.185-.285-1.802.047L22.167 11.905c-3.58 2.044-7.207 4.35-10.787 6.844L.474 26.377.45 27.803zm1.636.048l-.19-.38v-.333l10.314-7.2c3.556-2.472 7.136-4.753 10.669-6.773L42.367 2.02c.118-.071.26-.119.355-.048.214.12.45.666.45 1.521 0 1.64-.829 3.232-1.564 3.636L22.12 18.274c-3.533 2.02-7.113 3.85-10.669 5.418l-9.365 4.159zm.048-.452l.07.119 9.2-4.087c3.532-1.569 7.112-3.375 10.645-5.395L41.537 6.891c.664-.38 1.422-1.9 1.446-3.445 0-.808-.213-1.236-.332-1.307-.023 0-.07.023-.118.047L22.997 13.355c-3.532 2.02-7.112 4.301-10.669 6.773L2.11 27.257l.024.142z" transform="translate(6.28 13.483) translate(0 1.426) translate(75.155 17.823)"/>
                        <path d="M1.257 30.18L.095 27.874l.024-1.687 11.071-7.723c3.58-2.495 7.231-4.8 10.811-6.867L41.49.452c.71-.404 1.493-.428 2.157-.048.853.499 1.351 1.616 1.351 3.09-.023 2.162-1.067 4.395-2.465 5.203L23.044 19.842c-3.603 2.044-7.23 3.898-10.81 5.49L1.256 30.18zm-.925-2.353l1.02 2.044 7.776-3.446L1.35 29.87l-1.02-2.044.025-.88-.024.88zm.237-.071l.9 1.806L12.02 24.88c3.58-1.592 7.207-3.422 10.787-5.465L42.296 8.27c1.256-.713 2.204-2.78 2.228-4.777 0-1.283-.403-2.257-1.114-2.661-.498-.285-1.114-.262-1.683.047L22.238 12.024c-3.58 2.044-7.207 4.349-10.787 6.844L.593 26.448l-.024 1.308zM42.628.38c-.332 0-.688.095-1.02.285L22.12 11.81c-3.58 2.044-7.207 4.35-10.787 6.844l-7.09 4.943 7.09-4.943c3.58-2.495 7.207-4.8 10.787-6.844L41.608.665C42.13.38 42.675.31 43.15.452c-.166-.048-.332-.072-.521-.072zm2.015 4.159c-.261 1.71-1.162 3.303-2.253 3.945L22.902 19.629c-1.683.974-3.39 1.877-5.073 2.756 1.707-.88 3.39-1.782 5.073-2.756L42.39 8.484c1.115-.642 1.992-2.234 2.253-3.945zm-.285-2.947c.237.523.38 1.165.38 1.901 0 .238-.024.475-.048.713.024-.238.048-.475.048-.713 0-.736-.119-1.402-.38-1.9zM2.038 27.993l-.26-.523v-.427l10.36-7.224c3.557-2.472 7.137-4.753 10.693-6.773L42.32 1.901c.261-.143.403-.119.498-.047.237.142.498.712.498 1.615 0 1.664-.853 3.327-1.612 3.755L22.215 18.37c-3.533 2.02-7.137 3.85-10.67 5.418L2.04 27.993zm.096-.309l6.188-2.756-6.188 2.756zm-.119-.237l.048.119-.048-.12v-.237.238zm.237-.072l9.08-4.04c3.533-1.568 7.09-3.374 10.622-5.394L41.442 6.796c.64-.356 1.375-1.83 1.375-3.327 0-.665-.142-1.045-.237-1.164 0 0-.024 0-.047.024L23.044 13.474c-3.532 2.02-7.112 4.277-10.645 6.749L2.252 27.328v.047zM42.556 2.067c-.047 0-.07.024-.118.048L22.95 13.26c-3.533 2.02-7.113 4.301-10.67 6.773L4.814 25.26l7.468-5.227c3.556-2.472 7.136-4.753 10.669-6.773L42.438 2.115c.047-.024.071-.048.118-.048zm-.403 4.397c-.19.261-.379.451-.569.57L22.096 18.179c-2.726 1.568-5.476 2.994-8.227 4.301 2.727-1.307 5.5-2.733 8.227-4.301L41.584 7.034c.166-.119.38-.309.57-.57zm.522-4.397c.166.12.38.57.38 1.402 0 .19-.024.38-.024.57.023-.19.023-.38.023-.57.024-.831-.213-1.307-.38-1.402zm-.047.072l-.048.071.024-.024.07-.119-.046.095V2.14z" transform="translate(6.28 13.483) translate(0 1.426) translate(75.155 17.823)"/>
                    </g>
                </g>
                <g>
                    <path d="M1.399 29.348c-.048-.024-1.043-.713-1.162-1.83-.071-.69.19-1.354.782-1.996.238-.166 15.956-11.098 20.816-13.854L41.324.523c.19-.071 2.323-.666 3.556.594l-.688.665c-.83-.855-2.49-.404-2.49-.404L22.31 12.476c-4.813 2.756-20.508 13.64-20.674 13.759-.308.356-.498.784-.45 1.164.07.666.734 1.14.734 1.14l-.521.809z" transform="translate(6.28 13.483) translate(0 1.426) translate(73.259 17.347)"/>
                    <path d="M1.446 29.514l-.095-.071c-.047-.024-1.09-.737-1.209-1.925-.07-.713.19-1.426.806-2.091.119-.095 15.885-11.05 20.84-13.878L41.276.404c.048-.024 2.347-.76 3.699.618l.07.095-.853.832-.07-.095c-.736-.76-2.23-.404-2.372-.357L22.38 12.595C17.616 15.327 2.23 25.973 1.73 26.33c-.308.356-.45.737-.402 1.07.07.593.64 1.021.687 1.069l.095.07-.071.096-.593.88zM42.722.428c-.735 0-1.327.19-1.351.19L21.906 11.739C16.951 14.567 1.21 25.522 1.091 25.593c-.546.594-.807 1.236-.735 1.901.094.88.758 1.474 1.02 1.687l.402-.594c-.19-.166-.64-.594-.711-1.164-.048-.428.118-.856.474-1.26l.024-.023c.142-.095 15.837-11.003 20.673-13.76L41.632 1.284c.023-.024 1.66-.451 2.56.333l.522-.5c-.57-.546-1.352-.688-1.992-.688z" transform="translate(6.28 13.483) translate(0 1.426) translate(73.259 17.347)"/>
                    <g>
                        <path d="M1.446 29.514l-.095-.071c-.047-.024-1.09-.737-1.209-1.925-.07-.713.19-1.426.806-2.091.119-.095 15.885-11.05 20.84-13.878L41.276.404c.048-.024 2.347-.76 3.699.618l.07.095-.853.832-.07-.095c-.736-.76-2.23-.404-2.372-.357L22.38 12.595C17.616 15.327 2.23 25.973 1.73 26.33c-.308.356-.45.737-.402 1.07.07.593.64 1.021.687 1.069l.095.07-.071.096-.593.88zM42.722.428c-.735 0-1.327.19-1.351.19L21.906 11.739C16.951 14.567 1.21 25.522 1.091 25.593c-.546.594-.807 1.236-.735 1.901.094.88.758 1.474 1.02 1.687l.402-.594c-.19-.166-.64-.594-.711-1.164-.048-.428.118-.856.474-1.26l.024-.023c.142-.095 15.837-11.003 20.673-13.76L41.632 1.284c.023-.024 1.66-.451 2.56.333l.522-.5c-.57-.546-1.352-.688-1.992-.688z" transform="translate(6.28 13.483) translate(0 1.426) translate(73.259 17.347)"/>
                        <path d="M1.47 29.68l-.19-.142c-.047-.024-1.138-.784-1.256-1.996-.095-.76.19-1.497.83-2.186.118-.096 15.908-11.074 20.863-13.902L41.205.309c.047-.024 2.418-.808 3.84.642l.167.166-1.02.998-.166-.166c-.687-.69-2.062-.38-2.228-.333L22.452 12.69C17.71 15.399 2.347 26.068 1.826 26.425c-.285.309-.404.665-.38.974.071.523.593.927.64.974l.19.143-.119.19-.687.974zM.237 27.352c0 .047 0 .118.024.166.118.974.853 1.616 1.09 1.782l-.023-.023c-.285-.238-.949-.856-1.067-1.759-.024-.071-.024-.119-.024-.166zM42.722.547c-.735 0-1.304.19-1.304.19l-19.44 11.12c-4.955 2.829-20.674 13.76-20.793 13.855-.521.57-.758 1.164-.687 1.782.071.737.569 1.26.877 1.521l.285-.404c-.238-.214-.593-.618-.664-1.164-.048-.452.142-.927.498-1.355l.023-.024c.166-.118 15.885-11.026 20.698-13.782L41.608 1.188c.024-.024 1.636-.475 2.608.285l.356-.356c-.475-.38-1.091-.57-1.85-.57zM1.873 28.492l.071.048s-.024 0-.071-.048zm-.213-2.257c-.332.38-.498.784-.45 1.164V27.4c-.048-.357.118-.785.45-1.165zM41.703 1.402c-.024 0-.024 0 0 0l-19.37 11.074C17.615 15.16 2.395 25.712 1.683 26.21c.522-.356 15.909-11.026 20.65-13.735l19.37-11.074zM28.094 8.08l-6.259 3.564c-3.603 2.067-12.731 8.27-17.615 11.644 4.908-3.374 14.06-9.624 17.615-11.644l6.26-3.564zm16.027-6.345l.071.071.522-.523-.522.5-.07-.048zM42.722.309c.878 0 1.565.238 2.087.713-.854-.808-2.087-.784-2.822-.666.214-.023.45-.047.735-.047z" transform="translate(6.28 13.483) translate(0 1.426) translate(73.259 17.347)"/>
                    </g>
                </g>
            </g>
            <g>
                <g>
                    <path d="M10.716 8.08C9.673 5.228 7.634 2.566 5.24 1.188 3.39.118 1.54 0 .166.855l.9 1.426c.83-.523 2.016-.404 3.344.357 2.11 1.235 3.959 3.707 4.836 6.297l1.47-.855z" transform="translate(6.28 13.483) translate(84.639 21.387) translate(.237)"/>
                    <path d="M9.175 9.101l-.047-.142c-.901-2.614-2.774-5.062-4.79-6.226-1.28-.737-2.418-.88-3.224-.38l-.095.07L0 .809.095.737c1.399-.88 3.295-.76 5.192.332C7.61 2.424 9.744 5.085 10.81 8.032l.024.095-1.66.974zM2.23 1.83c.663 0 1.422.237 2.228.713C6.52 3.73 8.37 6.107 9.294 8.769l1.256-.713C9.483 5.204 7.42 2.614 5.168 1.307 3.39.285 1.636.143.332.903l.759 1.212c.355-.19.735-.285 1.138-.285z" transform="translate(6.28 13.483) translate(84.639 21.387) translate(.237)"/>
                </g>
                <path d="M9.412 9.101l-.047-.142c-.901-2.614-2.774-5.062-4.79-6.226-1.28-.737-2.418-.88-3.224-.38l-.094.07L.237.809.332.737c1.399-.88 3.295-.76 5.192.332 2.323 1.355 4.457 4.016 5.524 6.963l.024.095-1.66.974zM2.466 1.83c.663 0 1.422.237 2.228.713C6.757 3.73 8.606 6.107 9.531 8.769l1.256-.713C9.72 5.204 7.657 2.614 5.405 1.307 3.627.285 1.873.143.57.903l.759 1.212c.355-.19.735-.285 1.138-.285z" transform="translate(6.28 13.483) translate(84.639 21.387)"/>
                <path d="M9.365 9.268l-.095-.262c-.877-2.59-2.75-5.014-4.742-6.154-1.233-.713-2.347-.856-3.082-.38l-.19.118L.12.784l.19-.119c1.445-.903 3.366-.784 5.31.333 2.347 1.355 4.504 4.064 5.595 7.034l.071.19-1.92 1.046zm.095-.404c0 .024.023.047.023.071l-.023-.071zM4.552 2.59c.024.024.071.048.095.048 1.968 1.14 3.793 3.47 4.741 6.012-.948-2.567-2.75-4.872-4.741-6.012-.024-.024-.071-.048-.095-.048zm6.401 5.49l-.972.546.972-.546zM2.466 1.71c.687 0 1.47.238 2.3.713 2.038 1.188 3.888 3.517 4.86 6.155l1.043-.594C9.602 5.18 7.563 2.662 5.359 1.402 3.674.428 2.014.262.734.951l.64 1.021c.332-.19.711-.261 1.09-.261zm0-1.426c.948 0 1.991.31 3.01.903C7.754 2.495 9.84 5.11 10.93 7.985l.023.047C9.886 5.132 7.776 2.519 5.5 1.188 3.77.19 2.04.024.711.69 1.233.428 1.826.285 2.466.285zM1.304 2.258c.024-.024.071-.024.095-.048l-.095.048zM.427.855l.332.523L.427.855z" transform="translate(6.28 13.483) translate(84.639 21.387)"/>
            </g>
            <g>
                <g>
                    <path d="M10.716 2.566C8.108-1.259 2.892.452.498 1.901l-.403.238v1.283c.474.071 1.067.214 1.66.523v-.832c1.327-.69 5.57-2.519 7.562.404.498.737.664 1.52.498 2.376-.427 2.282-2.94 4.444-4.03 5.3l-.071-.595c0 .428-.45 1.212-.474 1.688v1.212l.426-.167.546-.356c.19-.119 4.575-3.137 5.263-6.749.237-1.33-.024-2.566-.759-3.66z" transform="translate(6.28 13.483) translate(125.18) translate(.237)"/>
                    <path d="M5.145 13.664v-1.378c.023-.262.142-.57.26-.88.119-.308.238-.617.238-.808l.237-.023.047.38c1.138-.903 3.414-2.947 3.817-5.085.166-.832 0-1.593-.474-2.282-1.92-2.804-6.022-1.045-7.35-.38v.95l-.166-.094C1.257 3.802.711 3.636.12 3.54l-.095-.024v-1.45l.45-.285c2.418-1.45 7.705-3.184 10.36.713.783 1.14 1.044 2.376.783 3.731-.687 3.66-5.12 6.701-5.31 6.82l-.57.38-.592.238zm.545-2.4l-.071.214c-.119.285-.237.594-.237.808v1.022l.237-.096.521-.356c.19-.119 4.529-3.113 5.193-6.678.237-1.283 0-2.47-.735-3.54C8.038-1.117 2.916.594.545 1.996L.19 2.21v1.117c.498.095.995.238 1.422.428v-.713l.071-.024c1.28-.665 5.667-2.59 7.705.428.522.76.688 1.568.522 2.471-.45 2.329-2.987 4.515-4.078 5.37l-.166.12.024-.143z" transform="translate(6.28 13.483) translate(125.18) translate(.237)"/>
                </g>
                <path d="M5.382 13.664v-1.378c.023-.262.142-.57.26-.88.12-.308.238-.617.238-.808l.237-.023.047.38c1.138-.903 3.414-2.947 3.817-5.085.166-.832 0-1.593-.474-2.282-1.92-2.804-6.022-1.045-7.35-.38v.95l-.166-.094C1.494 3.802.948 3.636.356 3.54L.26 3.517v-1.45l.45-.285c2.418-1.45 7.705-3.184 10.36.713.783 1.14 1.044 2.376.783 3.731-.687 3.66-5.12 6.701-5.31 6.82l-.57.38-.592.238zm.545-2.4l-.071.214c-.119.285-.237.594-.237.808v1.022l.237-.096.522-.356c.19-.119 4.528-3.113 5.192-6.678.237-1.283 0-2.47-.735-3.54C8.275-1.117 3.153.594.782 1.996l-.355.214v1.117c.498.095.995.238 1.422.428v-.713l.071-.024c1.28-.665 5.667-2.59 7.706.428.521.76.687 1.568.521 2.471-.45 2.329-2.987 4.515-4.078 5.37l-.166.12.024-.143z" transform="translate(6.28 13.483) translate(125.18)"/>
                <path d="M5.263 13.83v-1.544c.024-.285.142-.618.261-.927.095-.285.213-.594.213-.76v-.12l.475-.023.023.261C7.302 9.838 9.46 7.866 9.84 5.846c.142-.808 0-1.521-.45-2.21-1.85-2.71-5.833-1.022-7.137-.38v1.069l-.332-.166C1.422 3.92.9 3.73.332 3.659l-.19-.023V2.02l.522-.309C3.129.238 8.488-1.521 11.19 2.448c.783 1.164 1.067 2.447.806 3.826-.71 3.683-5.168 6.772-5.358 6.89l-.592.381-.783.285zm.237-.926v.594-.594zm.45-1.355c-.094.261-.213.547-.213.737v.831l.072-.023.521-.357c.19-.119 4.481-3.09 5.145-6.582.237-1.236 0-2.4-.711-3.446C8.25-.974 3.2.713.877 2.115l-.284.166v.95c.426.072.806.19 1.185.357V2.97l.119-.07c1.304-.666 5.76-2.615 7.87.474.546.785.712 1.616.546 2.567-.45 2.376-3.035 4.586-4.125 5.442l-.237.166zm.807 1.188c-.166.119-.285.214-.308.214l-.024.024.024-.024c.023-.024.142-.095.308-.214zm-.783-2.043c-.023.166-.094.332-.165.546l.19-.475-.025-.071zm5.762-4.706c0 .072-.024.143-.048.214-.024.143-.07.31-.118.452.047-.143.07-.31.118-.452.024-.071.048-.142.048-.214zM1.376 3.683c.212.072.426.167.615.262v-.832.832l-.165-.072c-.143-.07-.285-.142-.45-.19zM.331 3.422h.047-.047zM6.33 1.925c1.186 0 2.347.356 3.153 1.473-1.92-2.59-5.713-1.117-7.207-.404.806-.404 2.442-1.07 4.054-1.07zm3.699-.404c.332.285.64.641.9 1.045.166.262.309.5.427.76-.118-.26-.26-.522-.426-.76-.261-.404-.57-.76-.901-1.045zm-9.697.618L.735 1.9c.26-.143.545-.309.853-.451-.308.142-.592.308-.853.451l-.403.238z" transform="translate(6.28 13.483) translate(125.18)"/>
            </g>
            <g>
                <g>
                    <path d="M9.01 1.14L8.82.215c-.024.024-.048.024-.072.047-.07.048-3.295 2.567-8.582 6.25l.308 1.806C6.164 4.372 9.626 1.663 9.65 1.64c.308-.167.57-.404.783-.666l-1.423.167z" transform="translate(6.28 13.483) translate(117.83 14.02) translate(.237 .238)"/>
                    <path d="M.403 8.531L.047 6.464l.072-.048C5.405 2.71 8.654.19 8.677.166c.024-.023.024-.023.048-.023l.023-.024.143-.095.213.998 1.636-.19-.19.237c-.237.286-.498.5-.806.69-.308.237-3.627 2.804-9.175 6.677l-.166.095zM.308 6.56l.285 1.568c5.69-3.968 9.009-6.559 9.033-6.559.213-.118.379-.261.545-.404l-1.233.143-.19-.855c-.545.356-3.65 2.756-8.44 6.107z" transform="translate(6.28 13.483) translate(117.83 14.02) translate(.237 .238)"/>
                </g>
                <path d="M.64 8.769L.284 6.7l.072-.047C5.643 2.947 8.89.428 8.914.404 8.938.38 8.938.38 8.962.38l.023-.024.143-.095.213.998 1.636-.19-.19.238c-.237.285-.498.499-.806.69C9.673 2.233 6.354 4.8.806 8.673l-.166.095zM.545 6.796L.83 8.365c5.69-3.969 9.009-6.559 9.033-6.559.213-.119.379-.261.545-.404l-1.233.143-.19-.856c-.545.357-3.65 2.757-8.44 6.107z" transform="translate(6.28 13.483) translate(117.83 14.02)"/>
                <path d="M.545 8.959L.142 6.63l.119-.095C5.548 2.828 8.796.309 8.819.285l.024-.024c.024 0 .024-.023.048-.023l.284-.19.213 1.069 1.826-.214-.403.452c-.237.285-.522.522-.83.712-.024.024-3.319 2.59-9.175 6.678l-.26.214zM9.2 2.424c-1.257.95-4.15 3.113-8.322 6.036l-.142.095C5.026 5.56 7.919 3.398 9.199 2.424zM.664 6.844L.9 8.15c5.571-3.897 8.843-6.44 8.867-6.464.095-.047.166-.095.237-.166l-.948.095L8.89.832c-.735.594-3.723 2.875-8.227 6.012zm-.261-.095l.047.237-.047-.237.071-.048c1.565-1.093 2.94-2.067 4.102-2.923C3.39 4.634 1.99 5.632.403 6.748zM9.033.452l.095.499-.095-.5z" transform="translate(6.28 13.483) translate(117.83 14.02)"/>
            </g>
            <g>
                <g>
                    <path d="M5.666 1.022C4.22.19 2.821.072 1.707.712.948 1.165.427 1.903.166 2.876l1.399-.689.38.666c.141-.333.355-.57.615-.713.214-.12.451-.19.735-.19.45 0 .996.166 1.565.499 2.158 1.26 3.983 4.42 3.983 6.939 0 1.045-.308 1.806-.877 2.138-.308.19-.711.214-1.162.12l.214.38-1.375 1.021c.545.214 1.09.333 1.612.333.569 0 1.09-.143 1.564-.404 1.091-.642 1.707-1.901 1.707-3.588-.023-3.113-2.157-6.797-4.86-8.365z" transform="translate(6.28 13.483) translate(118.779 3.09) translate(.237)"/>
                    <path d="M7.207 13.521c-.521 0-1.067-.118-1.636-.356l-.19-.071 1.447-1.07-.285-.523.261.048c.427.095.806.048 1.09-.119.522-.309.807-1.045.807-2.043 0-2.472-1.802-5.609-3.936-6.82-.853-.5-1.66-.595-2.157-.31-.237.143-.403.357-.545.666l-.095.214-.427-.784-1.517.736.07-.237C.357 1.83.902 1.069 1.685.594 2.82-.07 4.266.048 5.76.903c2.75 1.592 4.884 5.323 4.884 8.484 0 1.71-.616 3.017-1.778 3.683-.522.309-1.067.451-1.66.451zm-1.351-.499c1.067.38 2.063.333 2.869-.142 1.067-.618 1.66-1.854 1.66-3.493 0-3.09-2.087-6.725-4.766-8.27C4.22.309 2.845.19 1.779.808 1.113 1.188.64 1.83.355 2.662l1.256-.618.308.57c.143-.261.332-.452.546-.57.592-.333 1.47-.214 2.394.309 2.205 1.259 4.054 4.49 4.054 7.034 0 1.069-.332 1.9-.924 2.233-.285.167-.617.214-1.02.19l.142.262-1.256.95z" transform="translate(6.28 13.483) translate(118.779 3.09) translate(.237)"/>
                </g>
                <path d="M7.444 13.521c-.521 0-1.066-.118-1.635-.356l-.19-.071 1.446-1.07-.284-.523.26.048c.427.095.806.048 1.09-.119.523-.309.807-1.045.807-2.043 0-2.472-1.802-5.609-3.936-6.82-.853-.5-1.66-.595-2.157-.31-.237.143-.403.357-.545.666l-.095.214-.427-.784-1.517.736.07-.237c.262-1.022.807-1.783 1.59-2.258C3.057-.07 4.504.048 5.997.903c2.75 1.592 4.884 5.323 4.884 8.484 0 1.71-.616 3.017-1.778 3.683-.522.309-1.067.451-1.66.451zm-1.351-.499c1.067.38 2.063.333 2.869-.142 1.067-.618 1.66-1.854 1.66-3.493 0-3.09-2.087-6.725-4.766-8.27C4.457.309 3.082.19 2.016.808 1.35 1.188.876 1.83.592 2.662l1.256-.618.308.57c.143-.261.332-.452.546-.57.592-.333 1.47-.214 2.394.309 2.205 1.259 4.054 4.49 4.054 7.034 0 1.069-.332 1.9-.924 2.233-.285.167-.617.214-1.02.19l.143.262-1.257.95z" transform="translate(6.28 13.483) translate(118.779 3.09)"/>
                <path d="M7.444 13.64c-.545 0-1.114-.119-1.683-.356l-.403-.167 1.541-1.14-.356-.642.498.095c.403.071.759.048 1.02-.095.474-.285.758-.974.758-1.925 0-2.424-1.778-5.513-3.864-6.725-.806-.475-1.565-.594-2.039-.309-.213.12-.38.333-.498.618l-.19.428-.497-.88-1.66.809.119-.5C.45 1.807 1.02.999 1.85.524c1.185-.69 2.655-.57 4.196.309C8.819 2.448 11 6.202 11 9.41c0 1.759-.64 3.113-1.826 3.802-.545.286-1.114.428-1.73.428zm-1.304-.475c.949.309 1.826.309 2.585-.048-.735.357-1.636.38-2.585.048zm.214-.166c.948.285 1.825.213 2.56-.214 1.02-.594 1.589-1.806 1.589-3.375 0-3.065-2.063-6.653-4.718-8.174C4.41.452 3.082.333 2.063.926c-.57.333-.996.832-1.257 1.522l1.09-.523.285.499c.142-.19.308-.333.474-.452.64-.356 1.541-.261 2.513.31C7.397 3.564 9.27 6.843 9.27 9.41c0 1.117-.356 1.973-.996 2.353-.237.142-.545.214-.877.214l.095.166L6.354 13zm.83-1.022l.047.071-.569.428.569-.428-.047-.071zM10.74 9.41c0 1.26-.356 2.305-.996 3.018.64-.713.996-1.758.996-3.018zm-3.414 2.305c.332.024.616-.023.83-.166-.237.143-.522.19-.83.166zm-.308-.023l.213.023h.024c-.071-.023-.166-.023-.237-.023zm2.039-2.258v0zm.26-4.824c.878 1.521 1.4 3.208 1.4 4.777.023-1.545-.522-3.256-1.4-4.777zM.403 2.875l1.399-.689-1.399.69zm1.778 0c.048-.095.119-.19.166-.285-.024.024-.047.072-.071.095l-.095.19zM1.754.832c-.545.38-.972.926-1.209 1.616.261-.69.664-1.236 1.21-1.616z" transform="translate(6.28 13.483) translate(118.779 3.09)"/>
                <g>
                    <g>
                        <path d="M1.802.356l-1.494.785c.308.451.664.855 1.02 1.235l1.493-.879c-.379-.309-.711-.713-1.02-1.14z" transform="translate(6.28 13.483) translate(118.779 3.09) translate(1.66 8.792) translate(.237)"/>
                        <path d="M1.304 2.543l-.071-.072c-.38-.38-.711-.808-1.02-1.26l-.07-.118L1.848.19l.071.071c.309.428.64.808.996 1.141l.119.119-1.731 1.022zm-.83-1.355c.261.38.57.737.877 1.046l1.28-.737C2.324 1.188 2.04.88 1.779.523l-1.304.665z" transform="translate(6.28 13.483) translate(118.779 3.09) translate(1.66 8.792) translate(.237)"/>
                    </g>
                    <path d="M1.541 2.543L1.47 2.47c-.38-.38-.711-.808-1.02-1.26l-.07-.118L2.085.19l.071.071c.309.428.64.808.996 1.141l.119.119L1.54 2.543zm-.83-1.355c.261.38.57.737.877 1.046l1.28-.737C2.56 1.188 2.277.88 2.016.523l-1.304.665z" transform="translate(6.28 13.483) translate(118.779 3.09) translate(1.66 8.792)"/>
                    <path d="M1.517 2.685L1.4 2.543c-.38-.38-.711-.808-1.043-1.284L.19 1.046 2.11.048l.119.166c.308.404.64.784.995 1.14l.237.214-1.944 1.117zm-.924-1.45c.284.405.592.761.9 1.118l-.023-.024c-.308-.333-.593-.69-.877-1.07v-.023zm.284 0c.214.31.45.595.711.856l1.067-.618c-.237-.237-.474-.522-.687-.808l-1.09.57zm1.992.096l.07.071.12.119-.736.428.735-.428c-.07-.048-.142-.119-.19-.19zM.522 1.14L2.015.356l.071.072c0 .024.024.024.024.047-.024-.047-.071-.071-.095-.119l-1.493.785z" transform="translate(6.28 13.483) translate(118.779 3.09) translate(1.66 8.792)"/>
                </g>
            </g>
            <g>
                <g>
                    <path d="M7.468.855C6.164.095 4.291.285 4.196.31 1.636.214.38 2.519.332 2.614l-.213.404.663 1.236c.57-.38 1.115-.642 1.541-.666L2.04 3.09c.356-.427 1.067-1.093 2.157-1.093h.048c.427-.047 1.66-.071 2.347.333 2.157 1.26 3.983 4.42 3.983 6.939 0 .76-.593 1.806-.83 2.162l-.071.143c-.024.071-.688 1.497-2.181 1.616l-.261-.452c-.308.357-.782.642-1.446.832l.687 1.26.45.047c.143 0 .262.024.38.024 2.49 0 3.651-2.115 3.865-2.567.213-.332 1.066-1.71 1.066-3.042.072-3.184-2.062-6.867-4.765-8.436z" transform="translate(6.28 13.483) translate(11.854 64.399) translate(.237)"/>
                    <path d="M7.373 14.947c-.142 0-.26 0-.403-.024l-.498-.047-.782-1.45.142-.047c.617-.167 1.067-.428 1.399-.784l.119-.12.284.547c1.328-.142 1.944-1.402 2.015-1.544l.071-.143c.214-.309.806-1.354.806-2.091 0-2.471-1.801-5.608-3.935-6.844-.64-.356-1.778-.356-2.276-.309h-.071c-1.02 0-1.684.594-2.015.998l.331.594h-.19c-.355.024-.853.238-1.47.666l-.118.071-.758-1.402.237-.452C.403 2.305 1.636.19 4.078.19h.166C4.48.166 6.283 0 7.563.737c2.75 1.592 4.884 5.323 4.884 8.483 0 1.33-.83 2.71-1.09 3.09-.238.45-1.423 2.637-3.984 2.637zm-.758-.285l.379.024c.118 0 .237.024.38.024 2.418 0 3.556-2.068 3.745-2.496.19-.285 1.067-1.687 1.067-2.994 0-3.089-2.086-6.725-4.765-8.27C6.235.262 4.457.38 4.244.429H4.22C1.85.333.593 2.424.474 2.662l-.19.356.57 1.046c.521-.333.948-.547 1.303-.595l-.237-.427.048-.072c.355-.427 1.09-1.14 2.252-1.14h.047c.522-.048 1.731-.048 2.419.332C8.89 3.446 10.74 6.654 10.74 9.196c0 .808-.617 1.878-.83 2.21l-.071.12c-.071.142-.759 1.568-2.276 1.686h-.071l-.214-.38c-.308.31-.735.547-1.256.69l.593 1.14z" transform="translate(6.28 13.483) translate(11.854 64.399) translate(.237)"/>
                </g>
                <path d="M7.61 14.947c-.142 0-.26 0-.403-.024l-.498-.047-.782-1.45.142-.047c.617-.167 1.067-.428 1.4-.784l.118-.12.284.547c1.328-.142 1.944-1.402 2.015-1.544l.071-.143c.214-.309.807-1.354.807-2.091 0-2.471-1.802-5.608-3.936-6.844-.64-.356-1.778-.356-2.276-.309h-.071c-1.02 0-1.683.594-2.015.998l.332.594h-.19c-.356.024-.854.238-1.47.666l-.119.071-.758-1.402.237-.452C.64 2.305 1.873.19 4.315.19h.166C4.718.166 6.52 0 7.8.737c2.75 1.592 4.884 5.323 4.884 8.483 0 1.33-.83 2.71-1.09 3.09-.238.45-1.423 2.637-3.984 2.637zm-.758-.285l.379.024c.119 0 .237.024.38.024 2.418 0 3.556-2.068 3.745-2.496.19-.285 1.067-1.687 1.067-2.994 0-3.089-2.086-6.725-4.765-8.27C6.472.262 4.694.38 4.48.429h-.024C2.087.333.83 2.424.711 2.662l-.19.356.57 1.046c.521-.333.948-.547 1.304-.595l-.238-.427.048-.072c.355-.427 1.09-1.14 2.252-1.14h.048c.521-.048 1.73-.048 2.418.332 2.205 1.284 4.054 4.492 4.054 7.034 0 .808-.616 1.878-.83 2.21l-.071.12c-.071.142-.759 1.568-2.276 1.686h-.071l-.213-.38c-.309.31-.735.547-1.257.69l.593 1.14z" transform="translate(6.28 13.483) translate(11.854 64.399)"/>
                <path d="M7.61 15.066c-.142 0-.284 0-.403-.024l-.569-.047-.9-1.64.284-.071c.593-.167 1.043-.404 1.328-.76l.213-.262.332.618c1.209-.19 1.778-1.331 1.85-1.474l.07-.142c.214-.31.783-1.33.783-2.044 0-2.424-1.779-5.513-3.865-6.725-.593-.356-1.707-.333-2.205-.285h-.07c-.925 0-1.566.523-1.874.88l.38.688-.38.024c-.332.024-.806.238-1.422.642l-.214.142-.853-1.568.284-.523C.522 2.234 1.802.048 4.291.048h.166c.071 0 2.015-.238 3.39.57 2.774 1.592 4.955 5.37 4.955 8.578 0 1.355-.853 2.757-1.114 3.161-.237.475-1.422 2.709-4.078 2.709zm-.284-.238h.284c2.442 0 3.58-1.996 3.841-2.495-.237.5-1.399 2.495-3.84 2.495h-.285zm-.403-.285l.308.024c.119 0 .237.024.356.024 2.347 0 3.461-2.02 3.65-2.424.19-.285 1.044-1.687 1.044-2.923 0-3.066-2.063-6.654-4.718-8.175C6.4.404 4.67.523 4.457.547H4.41C2.086.452.877 2.495.759 2.733l-.166.285.498.88c.403-.262.782-.429 1.09-.524l-.19-.356.095-.119c.356-.451 1.138-1.188 2.347-1.188h.048c.545-.048 1.778-.048 2.466.356 2.228 1.284 4.101 4.563 4.101 7.13 0 .831-.616 1.924-.853 2.28v.167c-.072.166-.783 1.616-2.371 1.735l-.143.024-.165-.31c-.285.238-.64.428-1.044.571l.45.88zm-.83-1.022l.119-.023c-.048 0-.072 0-.119.023zm1.446-.831l.237.451-.237-.451c-.047.023-.07.07-.095.095l.095-.095zm2.418-1.141c-.118.214-.71 1.33-1.944 1.568 1.233-.213 1.85-1.33 1.944-1.568zm2.585-2.305c0 1.283-.83 2.661-1.09 3.042.26-.404 1.09-1.759 1.09-3.042zm-1.684 0c0 .737-.545 1.735-.782 2.115.26-.404.782-1.378.782-2.115zM9.365 2.139c1.873 1.853 3.177 4.634 3.177 7.105 0-2.471-1.304-5.276-3.177-7.105zm1.351 5.798c.095.451.142.88.142 1.283 0-.404-.047-.832-.142-1.283zM.356 3.018l.663 1.236c.095-.072.166-.12.261-.167-.047.024-.095.072-.166.095l-.118.072-.64-1.236zm1.967.119l.237.428-.142.023c.048 0 .095-.023.142-.023l-.237-.428zm2.134-1.165c-1.067 0-1.778.642-2.134 1.046l.024-.024c.332-.38 1.043-1.022 2.11-1.022zm.617-.023c-.143 0-.285 0-.403.023.094-.023.237-.023.403-.023zM4.29.309c-.877 0-1.588.285-2.157.665.592-.38 1.375-.689 2.3-.641C4.385.309 4.338.309 4.29.309zm1.446 0c.593.047 1.257.19 1.85.475C6.994.475 6.307.356 5.737.31z" transform="translate(6.28 13.483) translate(11.854 64.399)"/>
            </g>
            <g>
                <g>
                    <path d="M111.69 4.087l-.546-1.45-.165-.26c-.593-.642-1.233-1.141-1.85-1.522-.38-.213-.83-.38-1.351-.475-1.02-.19-2.086-.071-3.106.333-3.604 1.473-14.154 6.155-33.855 17.775C47.82 32.057 5.595 58.482.853 61.428l-.64.404.688 1.426c.521-.071.996-.047 1.446.048.166.023.332.071.498.142l-.474-.998c7.041-4.396 47.108-29.443 69.275-42.536C91.8 8.008 102.491 3.374 105.29 2.258c.521-.214 1.066-.31 1.588-.31.19 0 .38.024.569.048.332.071.64.166.83.285.19.12.38.238.569.38 0 0 1.683.88 2.679 3.209.118-.666.166-1.331.166-1.783z" transform="translate(6.28 13.483) translate(15.173 3.09) translate(.237)"/>
                    <path d="M3.058 63.662l-.26-.095c-.166-.047-.309-.095-.475-.119-.45-.095-.924-.119-1.398-.047H.83L.07 61.785l.711-.452c4.742-2.97 46.967-29.371 69.964-42.94C90.447 6.749 100.997 2.09 104.625.618c1.043-.428 2.133-.547 3.177-.333.545.095 1.02.262 1.398.5.64.38 1.28.902 1.897 1.544l.19.285.545 1.497c0 .5-.047 1.188-.166 1.854l-.071.404-.166-.38c-.806-1.902-2.086-2.828-2.49-3.09v.024l-.142-.095c-.213-.166-.379-.285-.545-.38-.19-.12-.474-.214-.806-.262-.166-.024-.356-.047-.545-.047-.522-.024-1.043.095-1.541.285-2.798 1.14-13.467 5.774-33.619 17.656-21.74 12.832-61.238 37.499-69.18 42.465l.497 1.117zm-1.564-.523c.308 0 .592.024.877.095.071.024.166.024.237.048l-.403-.832.095-.047c7.752-4.848 47.464-29.657 69.275-42.537 20.176-11.905 30.869-16.54 33.642-17.68.45-.19.925-.285 1.4-.309l-.096-.119.356.12c.19 0 .38.023.569.07.356.072.664.167.877.286.166.095.356.214.545.38.072.024 1.565.832 2.561 2.9.071-.5.095-.999.095-1.38l-.522-1.425-.166-.238c-.569-.617-1.185-1.116-1.825-1.473-.356-.214-.806-.356-1.328-.451-.996-.19-2.039-.072-3.035.332-3.603 1.474-14.153 6.155-33.831 17.775C47.82 32.224 5.595 58.624.877 61.594l-.545.333.593 1.26c.213-.048.403-.048.569-.048z" transform="translate(6.28 13.483) translate(15.173 3.09) translate(.237)"/>
                </g>
                <path d="M3.295 63.662l-.26-.095c-.166-.047-.309-.095-.475-.119-.45-.095-.924-.119-1.398-.047h-.095l-.759-1.616.711-.452c4.742-2.97 46.967-29.371 69.964-42.94C90.684 6.749 101.234 2.09 104.862.618c1.043-.428 2.134-.547 3.177-.333.545.095 1.02.262 1.398.5.64.38 1.28.902 1.897 1.544l.19.285.545 1.497c0 .5-.047 1.188-.166 1.854l-.071.404-.166-.38c-.806-1.902-2.086-2.828-2.49-3.09v.024l-.142-.095c-.213-.166-.379-.285-.545-.38-.19-.12-.474-.214-.806-.262-.166-.024-.356-.047-.545-.047-.522-.024-1.043.095-1.541.285-2.798 1.14-13.467 5.774-33.619 17.656C50.238 32.912 10.74 57.58 2.798 62.545l.497 1.117zm-1.564-.523c.308 0 .592.024.877.095.071.024.166.024.237.048l-.403-.832.095-.047C10.289 57.555 50 32.746 71.812 19.866c20.176-11.905 30.869-16.54 33.642-17.68.451-.19.925-.285 1.4-.309l-.096-.119.356.12c.19 0 .38.023.57.07.355.072.663.167.876.286.166.095.356.214.546.38.07.024 1.564.832 2.56 2.9.071-.5.095-.999.095-1.38l-.522-1.425-.166-.238c-.569-.617-1.185-1.116-1.825-1.473-.356-.214-.806-.356-1.328-.451-.996-.19-2.039-.072-3.035.332-3.603 1.474-14.153 6.155-33.831 17.775-22.997 13.57-65.222 39.97-69.94 42.94l-.545.333.593 1.26c.213-.048.403-.048.569-.048z" transform="translate(6.28 13.483) translate(15.173 3.09)"/>
                <path d="M3.533 63.876l-.522-.166c-.166-.048-.308-.095-.45-.12-.427-.094-.901-.094-1.376-.047l-.166.024-.853-1.782.806-.5c4.742-2.97 46.966-29.395 69.963-42.94C90.661 6.701 101.211 2.02 104.815.547c1.066-.428 2.18-.547 3.224-.357.545.095 1.043.285 1.422.5.664.38 1.304.902 1.92 1.568l.214.332.545 1.521c0 .523-.047 1.212-.166 1.854l-.142.808-.308-.76c-.711-1.712-1.85-2.615-2.324-2.948l-.142-.07-.142-.096c-.19-.142-.38-.285-.545-.38-.19-.095-.45-.19-.759-.261-.166-.024-.332-.048-.522-.048-.498-.024-1.02.071-1.517.285-2.798 1.14-13.466 5.75-33.595 17.656C50.31 32.936 10.835 57.602 2.868 62.57l.665 1.307zm-.76-.499c.096.024.19.048.31.095l-.238-.071c-.047-.024-.047-.024-.071-.024zM.523 61.999l.616 1.307c.047 0 .071 0 .119-.024H1.114l-.592-1.283zM1.73 63.02c.308 0 .616.023.9.095l-.331-.713.19-.12c7.728-4.847 47.463-29.656 69.299-42.536 20.175-11.905 30.868-16.539 33.665-17.68.404-.166.807-.261 1.21-.309l-.19-.237.687.237c.19 0 .38.024.57.072.355.071.687.166.9.309.166.095.356.237.57.38.047.024 1.422.76 2.418 2.59.023-.356.047-.689.047-.95l-.522-1.379-.142-.237c-.569-.594-1.161-1.093-1.778-1.45-.356-.19-.782-.356-1.28-.451-.972-.19-1.992-.072-2.964.332-3.603 1.474-14.13 6.131-33.831 17.752-22.997 13.568-65.222 39.97-69.94 42.94l-.45.285.521 1.093c.142-.023.308-.023.45-.023zm67.331-41.396C50.641 32.58 22.31 50.188 8.843 58.577c13.42-8.365 41.822-26.021 60.22-36.952zm35.468-18.94c-3.367 1.426-11.665 5.228-25.7 13.213 14.035-7.961 22.333-11.763 25.7-13.213zm-2.845-.57c-4.552 2.044-12.637 6.012-24.941 13.07 12.304-7.058 20.365-11.003 24.94-13.07zm7.444.618l.095.047c.38.238 1.73 1.188 2.537 3.137v-.024l-.166-.356c-.972-2.044-2.442-2.804-2.513-2.852l-.024-.023c-.19-.143-.38-.262-.545-.357-.024 0-.048-.024-.071-.024.023 0 .047.024.07.024.167.095.356.238.57.38l.047.048zm2.703 2.638c0 .047 0 .095-.024.142v.048c.024-.072.024-.12.024-.19zm.095-1.26v0zm-.972-1.996l.26.261V2.4v-.024l-.26-.261zm-3.936-.143h.095c.142 0 .285.024.403.024-.118-.024-.26-.024-.38-.024H106.925h.095zm1.304-1.497c.332.095.64.19.901.333-.26-.143-.569-.261-.9-.333z" transform="translate(6.28 13.483) translate(15.173 3.09)"/>
                <g>
                    <g>
                        <path d="M108.18 1.33c-.141.096-14.39 8.484-32.313 18.607-15.838 8.96-59.864 35.028-70.224 41.159l-1.423.831-.616-1.259c-.878-1.402-2.182-2.305-3.225-2.852l3.106 6.512.782-.476c.546-.332 54.482-32.318 72.406-42.441 17.923-10.147 32.195-18.536 32.314-18.63.213-.12.403-.31.569-.547l-.972-1.759c-.095.452-.26.76-.403.856z" transform="translate(6.28 13.483) translate(15.173 3.09) translate(.948 6.178) translate(.237 .238)"/>
                        <path d="M3.461 64.494L.142 57.555l.308.166c.996.523 2.348 1.45 3.272 2.9l.57 1.164L5.594 61c12.542-7.438 54.671-32.366 70.224-41.159 17.663-9.98 31.65-18.226 32.29-18.606.072-.072.238-.31.404-.808l.095-.262 1.138 2.068-.048.071c-.19.261-.403.452-.616.57l-.024.024c-1.517.88-15.22 8.959-32.314 18.607C58.797 31.653 4.86 63.638 4.339 63.947l-.878.547zM.688 58.102l2.868 6.06.664-.405c.522-.309 54.458-32.318 72.405-42.465 17.094-9.672 30.797-17.727 32.29-18.607l.025-.023c.166-.096.332-.262.497-.452l-.806-1.473c-.118.285-.26.57-.403.689-.592.356-14.604 8.602-32.314 18.607C60.361 28.825 18.232 53.753 5.69 61.19l-1.517.903-.664-1.379c-.759-1.235-1.92-2.067-2.821-2.613z" transform="translate(6.28 13.483) translate(15.173 3.09) translate(.948 6.178) translate(.237 .238)"/>
                    </g>
                    <path d="M3.698 64.731L.38 57.793l.309.166c.995.523 2.347 1.45 3.271 2.9l.57 1.163 1.303-.784C18.374 53.8 60.504 28.873 76.056 20.08c17.663-9.98 31.65-18.226 32.29-18.607.072-.071.238-.309.404-.808l.095-.261 1.138 2.067-.048.072c-.19.261-.403.451-.616.57l-.024.024c-1.517.879-15.22 8.959-32.314 18.607C59.034 31.89 5.097 63.876 4.576 64.184l-.878.547zM.925 58.34l2.868 6.06.664-.404c.522-.31 54.458-32.318 72.405-42.465 17.094-9.672 30.797-17.728 32.291-18.607l.024-.024c.166-.095.332-.261.498-.451l-.807-1.474c-.118.285-.26.57-.403.69-.592.356-14.604 8.602-32.314 18.606-15.553 8.793-57.682 33.72-70.224 41.158l-1.517.903-.664-1.378c-.759-1.236-1.92-2.067-2.821-2.614z" transform="translate(6.28 13.483) translate(15.173 3.09) translate(.948 6.178)"/>
                    <path d="M3.651 64.898L.12 57.508l.64.332c.995.523 2.394 1.473 3.295 2.947l.498 1.07 1.185-.714C18.28 53.705 60.41 28.777 75.961 19.985 93.648 9.981 107.66 1.711 108.252 1.378c.024-.023.166-.214.356-.736l.166-.523 1.304 2.376-.095.119c-.214.285-.427.475-.64.618l-.024.024c-1.494.879-15.173 8.935-32.314 18.606C58.939 32.081 5.145 63.995 4.623 64.304l-.972.594zm-2.537-5.87l2.656 5.537-2.656-5.537zm.071-.38l2.656 5.584.569-.332c.521-.31 54.553-32.366 72.405-42.465 17.046-9.648 30.797-17.728 32.29-18.607l.024-.024c.143-.095.285-.214.427-.356l-.64-1.189c-.119.262-.237.428-.356.5-.592.356-14.51 8.554-32.314 18.63C60.67 29.205 18.564 54.133 6.022 61.547l-1.636.975-.711-1.498c-.711-1.093-1.684-1.877-2.49-2.376zm3.51 5.347c-.096.047-.143.095-.167.095.024 0 .071-.024.166-.095zm-.214-1.806l1.422-.832c4.434-2.638 12.59-7.462 21.954-12.975-9.365 5.537-17.52 10.361-21.954 12.975l-1.422.832zM.948 58.22l.024.024c.877.5 2.063 1.355 2.892 2.662l.38.784-.38-.784c-.806-1.284-1.967-2.14-2.916-2.686zm107.47-56.652c-.616.38-14.652 8.626-32.314 18.63-2.822 1.593-6.496 3.708-10.74 6.18 4.22-2.448 7.918-4.563 10.74-6.18 17.828-10.075 31.721-18.273 32.314-18.63zm-1.826 3.018c-5.026 2.947-16.335 9.53-29.659 17.062-.663.38-1.375.785-2.133 1.212.758-.427 1.47-.831 2.133-1.212 13.372-7.556 24.657-14.115 29.66-17.062zm3.201-2.067c-.024.024-.024.047-.047.047.023 0 .047-.023.047-.047zm-.925-1.806l.475.88-.475-.88c-.094.285-.213.523-.308.689.048-.095.143-.238.214-.451l.094-.238z" transform="translate(6.28 13.483) translate(15.173 3.09) translate(.948 6.178)"/>
                </g>
            </g>
            <g>
                <g>
                    <g>
                        <path d="M5.737 6.178l-.924-1.544-.095.071c-.142-.38-.308-.76-.498-1.093l-.118-.19C3.058 1.735 1.399.784.308.285l5.31 9.03c.19-.831.451-2.424.12-3.137z" transform="translate(6.28 13.483) translate(15.41 44.438) translate(0 22.1) translate(.474 .238)"/>
                        <path d="M5.69 9.624L.024.024l.332.142C1.54.69 3.153 1.687 4.196 3.351l.119.19c.19.309.332.641.45.974l.095-.047.972 1.663c.332.737.095 2.305-.095 3.184l-.047.31zM.616.547l4.955 8.412c.143-.784.332-2.115.048-2.733l-.854-1.45-.118.072-.048-.143c-.118-.356-.284-.713-.497-1.07l-.119-.19C3.083 2.02 1.707 1.094.616.548z" transform="translate(6.28 13.483) translate(15.41 44.438) translate(0 22.1) translate(.474 .238)"/>
                    </g>
                    <path d="M6.164 9.862L.498.262.83.403c1.185.523 2.797 1.52 3.84 3.184l.12.19c.189.31.331.642.45.975l.094-.048.972 1.664c.332.736.095 2.305-.094 3.184l-.048.309zM1.091.784l4.955 8.412c.142-.784.332-2.115.047-2.732l-.853-1.45-.119.071-.047-.142c-.119-.357-.285-.713-.498-1.07l-.119-.19c-.9-1.425-2.276-2.352-3.366-2.899z" transform="translate(6.28 13.483) translate(15.41 44.438) translate(0 22.1)"/>
                    <path d="M6.212 10.194L.213 0l.688.309c1.185.546 2.845 1.52 3.888 3.232l.119.19c.166.285.308.57.426.855l.071-.047L6.45 6.297c.355.784.118 2.377-.071 3.28l-.166.617zm-.45-4.538l.45.76c.284.618.142 1.877-.024 2.828l-.024.095c.166-.88.356-2.258.048-2.9l-.45-.783zM1.398 1.093l4.6 7.795c.118-.76.236-1.83 0-2.353l-.783-1.33-.142.094-.095-.285c-.119-.356-.285-.713-.474-1.046l-.119-.19c-.83-1.307-2.015-2.162-2.987-2.685zm3.65 3.47l.143.356.095-.071-.095.071-.047-.143c-.048-.047-.071-.142-.095-.213zM1.092.665l.047.024c1.043.523 2.49 1.45 3.438 2.97l.118.19.142.286-.142-.285-.118-.19C3.627 2.139 2.229 1.212 1.09.665z" transform="translate(6.28 13.483) translate(15.41 44.438) translate(0 22.1)"/>
                </g>
                <g>
                    <path d="M57.137.261C35.989 11.93 6.497 28.017 1.565 30.702l-.38-.665c-.166.523-.426 1.117-.877 1.782l.664 1.117.711-.38c.403-.214 30.963-16.848 53.77-29.42l-.284-1.544 1.968-1.33z" transform="translate(6.28 13.483) translate(15.41 44.438) translate(5.927)"/>
                    <path d="M.9 33.102L.143 31.82l.048-.071c.403-.594.687-1.188.877-1.759l.071-.261.474.784C3.983 29.23 35.183 12.238 57.09.142l.118.214-1.944 1.284.285 1.544-.072.048C35.325 14.329 9.436 28.445 1.967 32.508l-1.066.594zM.428 31.82l.569.95.877-.475c7.444-4.063 33.286-18.131 53.438-29.229l-.284-1.473C32.883 13.807 2.94 30.108 1.636 30.822l-.095.047-.308-.523c-.214.475-.474.974-.806 1.473z" transform="translate(6.28 13.483) translate(15.41 44.438) translate(5.927)"/>
                    <g>
                        <path d="M.9 33.102L.143 31.82l.048-.071c.403-.594.687-1.188.877-1.759l.071-.261.474.784C3.983 29.23 35.183 12.238 57.09.142l.118.214-1.944 1.284.285 1.544-.072.048C35.325 14.329 9.436 28.445 1.967 32.508l-1.066.594zM.428 31.82l.569.95.877-.475c7.444-4.063 33.286-18.131 53.438-29.229l-.284-1.473C32.883 13.807 2.94 30.108 1.636 30.822l-.095.047-.308-.523c-.214.475-.474.974-.806 1.473z" transform="translate(6.28 13.483) translate(15.41 44.438) translate(5.927)"/>
                        <path d="M.853 33.269L0 31.819l.095-.119c.403-.57.687-1.164.853-1.71l.166-.523.546.926C5.524 28.303 35.562 11.93 57.042.071l.095-.047.237.404-1.968 1.307.285 1.544-.142.072c-20.2 11.12-46.066 25.213-53.51 29.276l-1.186.642zm-.165-.784l.26.451-.26-.451zm-.119-.642l.474.784.759-.428c7.444-4.04 33.215-18.107 53.343-29.205l-.237-1.236C32.433 14.14 1.968 30.726 1.66 30.892l-.19.12-.237-.429c-.166.428-.403.832-.664 1.26zm-.285-.024l.024-.024-.024.024zm1.067-1.473l.214.356c.047-.023.498-.285 1.327-.736-.545.309-.972.522-1.232.665l-.095.048-.214-.333zm-.166-.31c-.047.144-.094.31-.166.452.024-.07.048-.142.095-.213l.071-.238zM55.193 1.95l.213 1.188-.07.047c-5.501 3.042-11.452 6.298-17.308 9.506 5.88-3.232 11.854-6.512 17.378-9.553l-.213-1.188zm-.095-.547l.047.19 1.92-1.26c-.663.357-1.303.714-1.967 1.07z" transform="translate(6.28 13.483) translate(15.41 44.438) translate(5.927)"/>
                    </g>
                </g>
            </g>
        </g>
        <path fill="#FFF" d="M98.243 7.161c9.625 0 18.989 1.886 27.78 5.61 8.506 3.604 16.13 8.76 22.682 15.324s11.698 14.203 15.296 22.724c3.717 8.808 5.599 18.165 5.599 27.833 0 9.667-1.882 19.024-5.599 27.832-3.598 8.522-8.744 16.16-15.296 22.724-6.552 6.565-14.176 11.72-22.682 15.325-8.791 3.724-18.13 5.61-27.78 5.61-9.65 0-18.989-1.886-27.78-5.61-8.506-3.604-16.13-8.76-22.682-15.325-6.552-6.564-11.698-14.202-15.296-22.724-3.717-8.808-5.6-18.165-5.6-27.832 0-9.668 1.883-19.025 5.6-27.833 3.598-8.521 8.744-16.16 15.296-22.724s14.176-11.72 22.682-15.325c8.791-3.723 18.155-5.609 27.78-5.609zm0-7.161C54.881 0 19.738 35.208 19.738 78.652c0 43.443 35.143 78.651 78.505 78.651 43.362 0 78.505-35.208 78.505-78.651C176.748 35.208 141.605 0 98.243 0z"/>
        <path fill="#FFF" d="M90.216 8.039L97.357 8.027 97.093 159.417 89.951 159.429z" transform="rotate(-40.405 93.654 83.728)"/>
    </g>
</svg>
