<svg xmlns="http://www.w3.org/2000/svg" width="74" height="154" viewBox="0 0 74 154">
    <g fill="none">
        <path fill="#FFF" d="M47.454 46.29c.211-1.036.305-2.094.258-3.13-.047-.765-.211-2.724-1.01-4.525-.258.585-.352.968-.352.968-.094.36-.423.586-.799.586-.07 0-.14 0-.211-.023-.447-.112-.705-.54-.588-.968.024-.068.282-.99.94-2.297-1.198-1.486-2.631-1.846-3.735-1.846-1.739 0-5.732-1.913-10.69-5.11-2.325-1.509-5.12-2.094-7.892-1.667-1.34.203-2.749.743-4.112 1.284-1.503.585-3.03 1.193-4.205 1.193-1.433 0-2.654.54-3.476 1.553-.376.45-.635.969-.846 1.531.517 2.162 1.315 4.188 2.35 6.102l-.635-.09s10.336 18.687 28.66 13.058l4.699-5.628-.588-.563c.118-.09.282-.158.47-.18.024.022.681-.023 1.762-.248zm-30.352-9.389c-.493.09-.986.136-1.433.18h-.094c-.728 0-1.315-.54-1.362-1.238-.047-.72.54-1.35 1.292-1.396.352-.022.728-.067 1.104-.135.752-.135 1.456.338 1.597 1.058.118.72-.376 1.396-1.104 1.531zm6.742-2.206c-.61.18-1.362.473-2.114.766-.164.067-.352.09-.517.09-.54 0-1.057-.316-1.268-.81-.282-.676.047-1.442.728-1.712h.024c.798-.315 1.62-.63 2.349-.833.728-.203 1.48.18 1.715.878.235.675-.188 1.396-.917 1.621zm7.236 1.17c-.258.384-.705.609-1.151.609-.259 0-.517-.068-.752-.203-.517-.315-1.057-.675-1.62-1.013-.095-.068-.212-.135-.306-.18-.658-.36-.893-1.148-.517-1.779.376-.63 1.198-.855 1.856-.495.164.09.329.202.493.292.54.338 1.057.676 1.574.991.634.36.822 1.17.423 1.779zm6.155 3.175c-.235.473-.728.743-1.245.743-.188 0-.4-.045-.587-.135-.682-.315-1.433-.675-2.209-1.08-.657-.36-.916-1.149-.54-1.78.352-.63 1.198-.877 1.856-.517.728.383 1.41.72 2.044 1.013.704.315 1.01 1.103.68 1.756zm4.37 2.364h-.048c-.47-.022-.963-.067-1.456-.157-.752-.135-1.222-.833-1.08-1.531.14-.72.869-1.171 1.597-1.036.376.068.728.113 1.08.113.752.022 1.34.653 1.316 1.373-.07.676-.681 1.238-1.41 1.238z"/>
        <path fill="#000" d="M74 85.128l-.188 55.34c0 .474-.282.924-.728 1.149l-23.75 12.158c-.212.112-.424.157-.635.157-.211 0-.446-.045-.634-.157l-4.746-2.41c.188.113.423.158.658.158.752 0 1.363-.585 1.363-1.305v-.788l3.359 1.71 22.388-11.46.164-54.552c0-.248 0-.496-.023-.788V84.227v-.09c0-.293-.024-.563-.047-.833v-.09c-.024-.248-.047-.518-.07-.788v-.18c-.024-.293-.071-.563-.118-.856l-.023-.157c-.047-.315-.094-.586-.141-.856v-.045c-.047-.27-.118-.563-.188-.9l-.047-.18c-.07-.316-.141-.608-.212-.901l-.047-.158c-.07-.315-.164-.608-.235-.9l-.023-.068c-.094-.293-.165-.608-.282-.945l-.047-.18c-.094-.316-.188-.608-.305-.924l-.07-.18c-.118-.338-.236-.63-.33-.9 0 0 0-.023-.023-.045v-.023c-.094-.27-.212-.563-.353-.9l-.07-.18c-.118-.293-.235-.586-.376-.879l-.07-.135c-.118-.247-.235-.518-.353-.765l-.07-.158c-.141-.293-.282-.563-.423-.855l-.094-.18c-.141-.27-.282-.54-.423-.789l-.024-.045s0-.022-.023-.022v-.023c-.164-.292-.329-.608-.517-.945l-.117-.203c-.047-.09-.118-.18-.165-.27l-.023-.045c-.047-.09-.118-.18-.165-.27-.07-.09-.117-.203-.188-.293l-.164-.27c-.165-.27-.329-.518-.493-.788l-.07-.113c-.142-.225-.306-.473-.447-.698l-.141-.225c-.07-.112-.141-.202-.212-.315-.07-.09-.14-.18-.188-.293-.07-.09-.14-.202-.211-.292v-.023c-.07-.09-.141-.18-.188-.27l-.211-.27-.047-.068c-.047-.09-.118-.157-.188-.247s-.141-.203-.212-.293l-.188-.27-.634-.81-.14-.158c-.212-.27-.424-.54-.659-.811-.164-.18-.305-.383-.47-.563l-.164-.18c-.117-.135-.211-.248-.329-.383l-.047-.067c-.023-.023-.023-.045-.047-.068-.282-.315-.564-.608-.822-.878l-.024-.022-.798-.833-.094-.09-.799-.766-.14-.135c-.26-.248-.541-.495-.823-.743l-.047-.045-.024-.023-.07-.067c-.282-.27-.587-.518-.846-.743l-.047-.045c-.047-.045-.094-.09-.14-.113l-.142-.135-.14-.135c-.118-.09-.212-.18-.33-.27l-.211-.158-.023-.022c-.118-.09-.212-.18-.33-.248l-.187-.135c-.165-.135-.353-.27-.517-.405l-.118-.09c-.14-.113-.281-.203-.422-.315l-.282-.203c-.07-.045-.141-.09-.188-.135l-.259-.18c-.117-.068-.211-.158-.329-.225l-.164-.113c.846-.473 1.644-1.013 2.443-1.576.047.045.094.067.141.113l.282.202c.141.113.305.225.446.338l.118.09h.023c.188.135.376.27.564.428l.188.157c.118.09.235.18.329.27l.023.023c.047.045.094.09.141.113l.07.045.353.27c.047.045.118.09.165.135l.14.112c.048.045.118.09.165.136l.047.045c.282.247.587.517.893.788l.023.022c.024.023.047.045.07.045l.048.045.023.023c.282.27.588.54.87.788l.14.135c.306.292.564.563.823.81l.094.09c.305.316.587.586.845.878l.024.023s0 .022.023.022c.282.293.564.608.846.924l.117.135c.118.135.235.247.353.382l.164.203c.165.203.33.383.494.585.235.293.47.563.704.856l.141.18c.212.27.447.563.658.856l.047.045c.024.045.07.09.094.135l.047.067c.094.113.164.225.235.315.07.09.117.18.188.248l.047.068c.07.09.14.202.211.292.07.09.141.203.212.293v.023c.07.112.14.202.211.315.07.112.141.202.212.292.07.113.14.226.235.338l.164.248c.164.248.329.495.47.72l.07.113c.165.27.353.563.517.833l.165.293c.07.112.117.202.187.315.047.09.118.202.165.293l.023.067c.047.09.118.203.165.293l.117.225c.212.36.376.698.54.99 0 0 0 .023.024.023 0 .023.024.045.024.068v.022c.14.27.282.563.446.833l.094.18c.14.293.305.608.446.9l.024.068c.023.023.023.045.047.09l.023.045c.118.27.259.54.376.811l.024.023c.023.022.023.045.047.09l.023.045c.141.315.259.608.4.923l.093.202c.141.36.282.676.376.968l.024.046c.117.292.211.607.352.945l.07.18c.118.338.212.653.33.99l.07.181c.117.36.211.698.305 1.013v.023c0 .022 0 .045.024.067.094.315.164.63.258.968l.047.158c.07.315.165.653.235.968 0 .045.024.068.024.09l.023.113c.07.36.141.675.188.968v.067c.047.293.094.586.141.923v.023c0 .023 0 .068.024.09v.068c.047.315.094.63.117.923v.18l.07.855v.135c.024.293.048.586.048.901v.225c.07.36.07.63.07.9zM66.694 31.565c.023 1.554-.329 3.445-.94 5.044-.47 1.238-1.268 2.814-2.56 3.647.07-.135.117-.248.188-.383.305-.653.023-1.44-.682-1.733-.376-.18-.798-.158-1.174 0 1.08-.496 2.443-3.76 2.396-6.53-.024-.742-.118-1.238-.376-1.553l.024-.022c.234.292.61.472 1.01.495.751.022 1.386-.54 1.433-1.261v-.405c.423.675.681 1.553.681 2.701z"/>
        <path fill="#000" d="M66.06 28.166v.72c-.658-1.148-1.739-1.643-2.749-1.868-.634-13.554-12.31-24.384-26.616-24.384-14.683 0-26.64 11.46-26.64 25.532 0 1.959.235 3.85.657 5.673-1.057 2.905-.14 6.867-.023 7.385.023.068.047.135.07.18-2.208-3.94-3.453-8.443-3.453-13.238C7.306 12.63 20.486 0 36.695 0 52.88 0 66.06 12.63 66.06 28.166z"/>
        <path fill="#000" d="M66.06 28.886v.406c-.024.72-.658 1.283-1.433 1.26-.423-.022-.776-.202-1.01-.495-.188-.248-.306-.54-.306-.878.024-.338.024-.675.024-1.036 0-.382 0-.765-.024-1.148 1.01.248 2.09.743 2.749 1.891z"/>
        <path fill="#000" d="M63.593 30.057c-.423-.473-1.151-.585-2.443-.585-.047 0-.212.022-.447.112-.21.09-1.221.54-1.221 1.486 0 .72-.61 1.306-1.363 1.306-.751 0-1.362-.585-1.362-1.306 0-.383.047-.765.164-1.103.799-.18 1.621-.315 2.49-.383.447-.045.8-.428.752-.855-.047-.428-.446-.766-.893-.72-.422.022-.798.067-1.198.134.494-.45 1.058-.788 1.598-1.013.517-.203 1.033-.315 1.503-.315.54 0 1.316 0 2.138.18.024.383.024.766.024 1.148 0 .338 0 .698-.024 1.036-.023.338.094.63.282.878zM62.724 38.14c.681.292.986 1.08.681 1.733-.07.135-.117.248-.188.383-.14.09-.305.18-.47.27-.352.158-.681.27-1.01.316.329-.293.681-.608 1.01-.946.33-.315.306-.81 0-1.103-.329-.316-.845-.293-1.15 0-.4.405-.823.788-1.246 1.125.212-.36.4-.743.587-1.125.141-.27.353-.496.611-.608.024 0 .024-.023.047-.023.33-.18.752-.18 1.128-.022z"/>
        <path fill="#000" d="M62.747 40.526c.165-.067.33-.157.47-.27-2.09 4.21-5.215 7.768-8.997 10.47-.024-.023-.047-.023-.07-.046l-.283-.202c-.117-.09-.235-.158-.352-.248-.07-.045-.141-.09-.235-.157l-.352-.226c-.07-.045-.165-.09-.235-.135l-.118-.067c-.47-.293-1.057-.27-1.503 0v-.023c2.49-1.53 4.745-3.467 6.601-5.741 1.34-.856 2.725-1.846 4.088-3.062.305-.023.634-.135.986-.293zM62.747 38.77c.33.315.33.81 0 1.103-.329.316-.657.63-1.01.946-.117.023-.258.023-.376.023-.14 0-.282 0-.423-.023-.281-.045-.634-.113-.986-.225.14-.225.258-.45.376-.676.422-.36.822-.743 1.245-1.125.329-.316.845-.316 1.174-.023z"/>
        <path fill="#000" d="M61.361 40.864c.118 0 .259 0 .376-.022-1.362 1.215-2.725 2.228-4.087 3.062.845-1.036 1.62-2.117 2.278-3.288.353.113.705.18.987.226.164 0 .305.022.446.022zM61.385 38.23s.047 0 .14-.045c-.258.135-.47.338-.61.608-.188.382-.376.765-.587 1.125-.235.203-.47.383-.682.586-.54-.203-1.104-.496-1.62-.99-.54-.519-.54-1.352 0-1.87.54-.517 1.409-.517 1.926 0 .329.316.728.473 1.433.586zM60.14 28.751c.047.428-.306.81-.752.856-.87.067-1.691.202-2.49.382.211-.72.634-1.328 1.15-1.8l1.199-.136c.47-.067.87.27.893.698z"/>
        <path fill="#000" d="M60.328 39.918c-.118.226-.259.45-.376.676-.094-.023-.212-.068-.306-.113.235-.157.47-.36.682-.563z"/>
        <path fill="#FFF" d="M59.646 40.504c.094.045.212.067.306.112-.682 1.171-1.433 2.252-2.279 3.288-4.534 2.836-8.716 3.782-10.689 4.097.188-.563.353-1.126.47-1.688.893-.18 2.09-.473 3.453-.946 2.514-.878 5.662-2.364 8.74-4.863zM58.049 28.166c-.517.473-.94 1.08-1.151 1.801-3.242.72-5.92 2.364-7.988 4.908-1.174 1.441-1.879 2.837-2.231 3.738-.047-.09-.07-.18-.118-.27-.282-.563-.564-1.036-.892-1.442.446-.878 1.057-1.89 1.926-2.949 1.832-2.274 5.098-5.02 10.454-5.786z"/>
        <path fill="#000" d="M54.15 50.68c.023.023.046.023.07.045-.776.563-1.598 1.081-2.443 1.576l-.376-.247-.212-.135-.117-.068c-.635-.405-.822-1.216-.4-1.824.118-.157.235-.292.4-.382.446-.27 1.033-.293 1.503 0l.118.067c.07.045.14.09.235.135l.352.226c.094.045.164.112.235.157.117.09.235.158.352.248l.282.202z"/>
        <path fill="#000" d="M51.4 52.054l.377.247c-3.76 2.162-8.011 3.513-12.475 3.895.118-.022.235-.045.33-.09 1.808-.743 3.405-1.98 4.698-3.512 2.372-.698 4.627-1.688 6.718-2.972v.023c-.164.09-.282.225-.4.382-.422.608-.234 1.419.4 1.824l.118.068c.094.045.164.09.235.135z"/>
        <path fill="#FFF" d="M47.454 46.29c-.117.585-.282 1.148-.47 1.689-.681.112-1.104.135-1.174.135h-.047c-.423 0-.8-.315-.823-.743 0-.09 0-.18.024-.27.094-.316.376-.54.728-.563.024.022.681-.023 1.762-.248zM46.561 38.365c.047.09.094.18.118.27-.259.585-.353.968-.353.968-.094.36-.423.586-.798.586-.07 0-.141 0-.212-.023-.446-.112-.705-.54-.587-.968.023-.068.282-.99.94-2.297.305.406.61.879.892 1.464z"/>
        <path fill="#FFF" d="M44.964 47.123c-.024.09-.047.18-.024.27.024.428.4.743.823.743h.047c.07 0 .493-.022 1.174-.135-.587 1.689-1.48 3.265-2.631 4.616-1.809.518-3.665.855-5.591 1.013"/>
        <path fill="#000" d="M45.34 99.56v49.87l-2.749-1.396V99.56c0-.72.61-1.306 1.363-1.306.775-.023 1.386.563 1.386 1.306z"/>
        <path fill="#000" d="M43.32 151.366l-32.114-16.323c.188.112.423.157.657.157.752 0 1.363-.585 1.363-1.306v-.788l29.365 14.928v2.184c.024.495.306.923.728 1.148zM44.353 52.594c-1.292 1.531-2.913 2.77-4.698 3.512-.118.045-.212.068-.33.09-.07 0-.14.023-.187.023-.54 0-1.034-.293-1.269-.788-.305-.675.024-1.44.728-1.734.07-.022.141-.067.212-.09 1.88-.135 3.735-.472 5.544-1.013z"/>
        <path fill="#000" d="M39.114 56.219c.07 0 .141 0 .188-.023-.047.023-.117.023-.188.023zM38.762 53.607c-.07.023-.141.068-.212.09-.704.293-1.01 1.059-.728 1.734.235.495.728.788 1.269.788-.799.068-1.598.09-2.42.09-5.685 0-10.994-1.553-15.505-4.255.235-.113.447-.225.682-.338.68-.338.94-1.126.61-1.779-.117-.225-.305-.405-.516-.54 4.228 2.702 9.302 4.278 14.73 4.278.704.022 1.409-.023 2.09-.068z"/>
        <path fill="#000" d="M22.458 49.96c.353.653.07 1.44-.61 1.779-.235.112-.447.225-.682.337-.869-.518-1.691-1.08-2.49-1.666.634-.36 1.292-.698 1.927-1.013.446-.203.94-.18 1.315.045.235.113.423.293.54.518z"/>
        <path fill="#000" d="M21.942 49.42c-.4-.226-.893-.248-1.34-.045-.634.315-1.292.652-1.926 1.013-3.171-2.364-5.826-5.336-7.776-8.736.306.428.87.63 1.433.518.729-.158 1.198-.878 1.01-1.576 0 0-.023-.068-.046-.203 2.114 3.648 5.074 6.732 8.645 9.029zM18.676 50.388c.799.585 1.621 1.148 2.49 1.666-4.886 2.521-9.725 6.62-11.722 8.69l-.047.045c-.07.068-6.484 6.17-6.484 12.429l-.164 54.552 7.752 3.94v2.184c0 .496.282.924.728 1.149L.752 129.729c-.447-.225-.729-.675-.729-1.17l.188-55.341c.024-7.228 6.743-13.734 7.283-14.275 2.02-2.116 6.437-5.876 11.182-8.555z"/>
        <path fill="#000" d="M13.367 40.594c.164.698-.282 1.418-1.01 1.576-.564.135-1.128-.09-1.433-.518-.047-.09-.118-.18-.165-.27-.023-.068-.047-.113-.07-.18-.118-.518-1.034-4.48.023-7.385.564 2.341 1.433 4.548 2.608 6.574.023.135.047.203.047.203zM13.226 133.106v.788c0 .72-.61 1.306-1.363 1.306-.234 0-.47-.067-.657-.157-.423-.225-.729-.653-.729-1.149v-2.183l2.749 1.395zM13.226 81.773v51.333l-2.749-1.395V81.773c0-.72.611-1.306 1.363-1.306.775 0 1.386.586 1.386 1.306z"/>
        <path fill="#000" d="M10.76 41.382c.046.09.093.18.164.27-.07-.067-.118-.158-.165-.27zM45.34 149.43v.788c0 .72-.611 1.305-1.363 1.305-.235 0-.47-.067-.658-.157-.422-.225-.728-.653-.728-1.148v-2.184l2.749 1.396z"/>
    </g>
</svg>
