<?xml version="1.0" encoding="utf-8"?>
<!-- Generator: Adobe Illustrator 24.2.1, SVG Export Plug-In . SVG Version: 6.00 Build 0)  -->
<svg version="1.1" id="Layer_1" xmlns="http://www.w3.org/2000/svg" xmlns:xlink="http://www.w3.org/1999/xlink" x="0px" y="0px"
	 viewBox="0 0 187.7 160.1" style="enable-background:new 0 0 187.7 160.1;" xml:space="preserve">
<style type="text/css">
	.st0{fill:#010101;}
	.st1{fill:#FFFFFF;}
	.st2{clip-path:url(#SVGID_2_);fill:#82C6BC;}
</style>
<g>
	<g>
		<g id="XMLID_2_">
			<path class="st0" d="M187.7,80.2l-0.1,24.9c0,0.6-0.3,1.1-0.8,1.3l-10.3,5.5c-0.2,0.1-0.5,0.2-0.7,0.2c-0.2,0-0.5-0.1-0.7-0.2
				l-2.1-1.1c0.2,0.1,0.5,0.2,0.7,0.2c0.8,0,1.5-0.7,1.5-1.5v-0.9l0.5,0.3l8.7-4.7l0.1-24c0-0.1,0-0.2,0-0.3c0,0,0,0,0,0l0,0
				c0-0.1,0-0.2,0-0.4c0,0,0,0,0,0l0,0c0-0.1,0-0.2,0-0.3l0-0.1c0-0.1,0-0.2,0-0.3c0,0,0,0,0,0c0,0,0,0,0,0c0,0,0,0,0,0l0,0
				c0-0.1,0-0.2-0.1-0.4c0,0,0,0,0,0c0,0,0,0,0,0c0-0.1,0-0.3-0.1-0.4l0-0.1c0-0.1-0.1-0.3-0.1-0.4c0,0,0,0,0,0l0,0
				c0-0.1-0.1-0.3-0.1-0.4c0,0,0,0,0,0c0,0,0,0,0,0c0-0.1-0.1-0.3-0.1-0.4l0,0c0,0,0,0,0,0c0-0.1-0.1-0.3-0.1-0.4c0,0,0,0,0,0l0,0
				c0-0.1-0.1-0.3-0.1-0.4c0,0,0,0,0,0c0-0.1-0.1-0.3-0.1-0.4l0,0c0,0,0,0,0,0c-0.1-0.1-0.1-0.3-0.2-0.4c0,0,0,0,0,0l0,0
				c0-0.1-0.1-0.2-0.1-0.3l0,0c0,0,0,0,0,0c-0.1-0.1-0.1-0.2-0.2-0.4c0,0,0,0,0,0l0,0c-0.1-0.1-0.1-0.2-0.2-0.3c0,0,0,0,0,0
				c0,0,0,0,0,0c-0.1-0.1-0.1-0.3-0.2-0.4l-0.3-0.6c-0.1-0.1-0.1-0.2-0.2-0.3l0,0c-0.1-0.1-0.1-0.2-0.2-0.3l-0.8-1.1
				c-0.1-0.1-0.2-0.2-0.3-0.4l-0.1-0.1c-0.1-0.1-0.2-0.2-0.3-0.3c0,0,0,0,0,0c-0.1-0.1-0.1-0.2-0.2-0.2l-0.1-0.1
				c0-0.1-0.1-0.1-0.1-0.2c0,0,0,0,0,0l0,0c-0.1-0.1-0.2-0.2-0.3-0.4c0,0,0,0,0,0c-0.1-0.1-0.2-0.2-0.3-0.4l0,0c0,0,0,0,0,0
				c-0.1-0.1-0.2-0.2-0.3-0.3l-0.1-0.1c-0.1-0.1-0.2-0.2-0.3-0.3l-0.1-0.1c-0.1-0.1-0.2-0.2-0.3-0.3c0,0,0,0,0,0l-0.4-0.3
				c0,0,0,0,0,0l-0.2-0.2c-0.1-0.1-0.1-0.1-0.2-0.2c0,0,0,0,0,0l0,0c0,0,0,0,0,0c-0.1,0-0.1-0.1-0.2-0.1l0,0
				c0.2-0.1,0.5-0.3,0.7-0.4c0.3-0.2,0.7-0.4,1-0.7c0.1-0.1,0.2-0.2,0.3-0.3c0,0,0.1-0.1,0.1-0.1c0.1-0.1,0.2-0.1,0.3-0.2
				c0.1-0.1,0.1-0.1,0.2-0.2h0c0,0,0,0,0,0c0,0,0,0,0,0l0,0l0.5,0.4c0,0,0,0,0,0c0.1,0.1,0.3,0.2,0.4,0.4l0,0c0,0,0,0,0,0
				c0.1,0.1,0.3,0.2,0.4,0.4l0.1,0.1c0.1,0.1,0.2,0.2,0.4,0.4c0,0,0,0,0,0c0,0,0,0,0,0l0,0c0.1,0.1,0.3,0.3,0.4,0.4c0,0,0,0,0,0
				c0.1,0.1,0.3,0.3,0.4,0.4l0,0c0,0,0,0,0,0c0.1,0.1,0.1,0.1,0.2,0.2l0.1,0.1c0.1,0.1,0.1,0.2,0.2,0.3c0,0,0,0,0,0
				c0.1,0.1,0.2,0.3,0.3,0.4l0.1,0.1c0.1,0.1,0.2,0.3,0.3,0.4l0.5,0.7l0.4,0.6c0.1,0.1,0.1,0.2,0.2,0.3l0,0c0.1,0.1,0.2,0.3,0.2,0.4
				l0.4,0.7c0.1,0.1,0.2,0.3,0.2,0.5c0,0,0,0,0,0l0,0c0.1,0.1,0.1,0.2,0.2,0.4l0,0.1c0,0,0,0,0,0c0.1,0.1,0.1,0.3,0.2,0.4l0,0.1
				c0.1,0.1,0.1,0.3,0.2,0.4l0,0.1c0.1,0.1,0.1,0.3,0.2,0.4l0,0.1c0.1,0.2,0.1,0.3,0.2,0.5c0,0,0,0,0,0c0,0,0,0,0,0
				c0.1,0.1,0.1,0.3,0.2,0.4l0,0.1c0,0,0,0,0,0c0,0.1,0.1,0.3,0.1,0.5l0,0.1c0,0.2,0.1,0.3,0.1,0.5l0,0c0,0,0,0,0,0
				c0,0.2,0.1,0.3,0.1,0.5l0,0c0,0,0,0,0,0c0,0,0,0,0,0c0,0.2,0.1,0.3,0.1,0.5l0,0.1c0,0.1,0.1,0.3,0.1,0.4c0,0,0,0,0,0c0,0,0,0,0,0
				c0,0,0,0,0,0c0,0.1,0,0.3,0.1,0.4c0,0,0,0,0,0.1c0,0,0,0,0,0c0,0.1,0,0.3,0.1,0.4l0,0.1c0,0.1,0,0.3,0,0.4c0,0,0,0,0,0
				c0,0,0,0,0,0c0,0,0,0,0,0v0c0,0,0,0,0,0c0,0.1,0,0.3,0,0.4c0,0,0,0,0,0.1l0,0.1C187.7,79.9,187.7,80,187.7,80.2z"/>
			<path class="st0" d="M184.3,54.5c0,0.1,0,0.2,0,0.3c0,0.1,0,0.2,0,0.3c0,0.8-0.7,1.5-1.6,1.5c-0.5,0-0.9-0.3-1.2-0.6
				c0.3-0.3,0.5-0.7,0.4-1.2c0-0.5-0.3-1-0.8-1.2c-0.5-5.4-5-9.6-10.5-9.6c-5.8,0-10.6,4.7-10.6,10.6c0,0.2,0,0.3,0,0.5
				c-0.4,0.2-0.7,0.4-1,0.8c-0.3,0.4-1.2,1.9-0.5,4.8c0,0.1,0.1,0.2,0.1,0.3c-1-1.9-1.6-4.1-1.6-6.4c0-7.5,6.1-13.6,13.6-13.6
				C178.2,40.9,184.3,47,184.3,54.5z"/>
			<path class="st0" d="M184.3,55c0-0.1,0-0.2,0-0.3C184.3,54.9,184.3,54.9,184.3,55z"/>
			<path class="st0" d="M184.3,55c-0.1,1.8-0.5,3.5-1.2,5c0,0,0-0.1,0-0.1c0,0,0-0.1,0-0.1c0,0,0-0.1,0-0.1c0,0,0,0,0,0
				c0,0,0-0.1,0-0.1c0,0,0,0,0,0c0,0,0-0.1,0-0.1c0,0,0-0.1,0-0.1c0,0,0,0,0,0c0-0.1,0-0.2-0.1-0.2c0,0,0-0.1,0-0.1
				c0-0.1-0.1-0.1-0.1-0.2c0,0,0,0,0-0.1c-0.1-0.1-0.1-0.1-0.2-0.2c0,0,0,0,0,0c0,0,0,0-0.1-0.1c0,0,0,0-0.1,0c0,0-0.1,0-0.1-0.1
				c0,0-0.1,0-0.1-0.1c0,0-0.1,0-0.1,0c0,0,0,0-0.1,0c0,0,0,0,0,0c0,0-0.1,0-0.1,0c0,0,0,0,0,0c0,0-0.1,0-0.1,0c-0.1,0-0.3,0-0.4,0
				c0,0,0,0,0,0c0,0-0.1,0-0.1,0c0,0-0.1,0-0.1,0c0,0,0,0,0,0c0,0-0.1,0-0.1,0c0,0-0.1,0-0.1,0.1c0,0-0.1,0-0.1,0.1c0,0,0,0,0,0
				c0,0,0,0-0.1,0.1c-0.1,0-0.1,0.1-0.1,0.1c-0.1,0.1-0.1,0.1-0.2,0.2c0.3-0.8,0.6-1.6,0.7-2.5c0.2-0.1,0.3-0.2,0.4-0.3
				c0.3,0.4,0.7,0.6,1.2,0.6C183.5,56.5,184.2,55.9,184.3,55z"/>
			<path class="st0" d="M183.2,59.5c0,0,0-0.1,0-0.1C183.2,59.4,183.2,59.5,183.2,59.5z"/>
			<path class="st0" d="M183.2,59.4c0,0,0,0.1,0,0.1c0,0,0,0,0,0c0,0,0,0.1,0,0.1c0,0,0,0,0,0c0,0,0,0.1,0,0.1c0,0,0,0.1,0,0.1
				c0,0,0,0.1,0,0.1c0,0,0,0,0,0c0,0.1-0.1,0.1-0.1,0.2c-0.1,0.1-0.1,0.2-0.2,0.3c-1.5,1.5-3,2.4-4.4,3l-0.3-0.2
				c-0.7-0.5-1.6-0.3-2.1,0.4c0-0.1,0-0.1,0.1-0.2c0.4-0.3,0.9-0.6,1.3-0.9c0.1-0.1,0.2-0.2,0.3-0.2c0,0,0,0,0,0
				c0.1-0.1,0.2-0.2,0.3-0.2c0,0,0,0,0,0c0.1-0.1,0.2-0.2,0.2-0.2c0.1-0.1,0.2-0.2,0.2-0.2c0.1-0.1,0.1-0.1,0.2-0.2
				c0.1-0.1,0.1-0.1,0.2-0.2c0.1-0.1,0.1-0.1,0.2-0.2c0-0.1,0.1-0.1,0.1-0.2c0,0,0.1-0.1,0.1-0.1c0,0,0.1-0.1,0.1-0.1
				c0.1-0.1,0.2-0.3,0.3-0.4c0.2-0.3,0.4-0.6,0.5-0.9c0-0.1,0.1-0.1,0.1-0.2c0-0.1,0.1-0.2,0.1-0.2c0-0.1,0.1-0.1,0.1-0.2
				c0.1-0.2,0.2-0.3,0.3-0.4c0,0,0.1-0.1,0.1-0.1c0,0,0,0,0.1-0.1c0,0,0,0,0,0c0,0,0.1,0,0.1-0.1c0,0,0.1,0,0.1-0.1c0,0,0.1,0,0.1,0
				c0,0,0,0,0,0c0,0,0.1,0,0.1,0c0,0,0.1,0,0.1,0c0,0,0,0,0,0c0.1,0,0.3,0,0.4,0c0,0,0.1,0,0.1,0c0,0,0,0,0,0c0,0,0.1,0,0.1,0
				c0,0,0,0,0,0c0,0,0,0,0.1,0c0,0,0.1,0,0.1,0c0,0,0.1,0,0.1,0.1c0,0,0.1,0,0.1,0.1c0,0,0,0,0.1,0c0,0,0,0,0.1,0.1c0,0,0,0,0,0
				c0.1,0.1,0.1,0.1,0.2,0.2c0,0,0,0,0,0.1c0,0.1,0.1,0.1,0.1,0.2c0,0,0,0.1,0,0.1c0,0.1,0.1,0.1,0.1,0.2c0,0,0,0,0,0
				C183.2,59.3,183.2,59.3,183.2,59.4z"/>
			<path class="st0" d="M183.2,59.7c0,0,0-0.1,0-0.1C183.2,59.6,183.2,59.6,183.2,59.7z"/>
			<path class="st0" d="M183.2,59.4c0,0,0-0.1,0-0.1C183.2,59.3,183.2,59.3,183.2,59.4z"/>
			<path class="st0" d="M183.2,59.8c0,0,0-0.1,0-0.1C183.2,59.7,183.2,59.8,183.2,59.8z"/>
			<path class="st0" d="M183.2,59.3C183.2,59.2,183.2,59.2,183.2,59.3C183.2,59.2,183.2,59.2,183.2,59.3z"/>
			<path class="st0" d="M183.1,59.9c0,0,0-0.1,0-0.1C183.2,59.9,183.1,59.9,183.1,59.9z"/>
			<path class="st0" d="M183.1,59C183.1,59,183.1,58.9,183.1,59C183.1,58.9,183.1,59,183.1,59z"/>
			<path class="st0" d="M183.1,60.1C183.1,60.1,183.1,60.1,183.1,60.1c0,0.1,0,0.1-0.1,0.1c0,0,0,0,0,0
				C183,60.2,183.1,60.1,183.1,60.1z"/>
			<path class="st0" d="M183.1,60.1C183.1,60.1,183.1,60.1,183.1,60.1c0,0.1,0,0.1-0.1,0.1C183,60.2,183.1,60.1,183.1,60.1z"/>
			<path class="st0" d="M183,60.3C183,60.3,183,60.2,183,60.3c-0.1,0.1-0.1,0.3-0.2,0.4C182.9,60.5,182.9,60.4,183,60.3z"/>
			<path class="st0" d="M183,58.7C182.9,58.7,182.9,58.7,183,58.7C182.9,58.7,182.9,58.7,183,58.7z"/>
			<path class="st0" d="M183,60.3c-0.1,0.1-0.1,0.3-0.2,0.4c0,0.1-0.1,0.2-0.2,0.3c-0.1,0.1-0.1,0.2-0.2,0.3
				c-0.5,0.9-1.1,1.7-1.7,2.4c-0.1,0.1-0.1,0.2-0.2,0.2c-0.1,0.1-0.1,0.2-0.2,0.2c-0.1,0.1-0.1,0.1-0.2,0.2c0,0,0,0,0,0
				c-0.1,0.1-0.1,0.1-0.2,0.2c0,0-0.1,0.1-0.1,0.1h0c0,0-0.1-0.1-0.1-0.1l-0.1-0.1c-0.1-0.1-0.2-0.1-0.3-0.2v0c0,0,0,0,0,0l0,0
				c-0.1-0.1-0.1-0.1-0.2-0.2l-0.4-0.3c-0.1,0-0.1-0.1-0.2-0.1l-0.1-0.1c1.3-0.6,2.9-1.5,4.4-3C182.9,60.5,182.9,60.4,183,60.3z"/>
			<path class="st0" d="M182.7,58.4C182.7,58.4,182.7,58.4,182.7,58.4C182.7,58.4,182.7,58.4,182.7,58.4z"/>
			<path class="st0" d="M182.7,58.4C182.6,58.4,182.6,58.3,182.7,58.4C182.6,58.3,182.6,58.4,182.7,58.4z"/>
			<path class="st0" d="M182.5,61.3c0.1-0.1,0.1-0.2,0.2-0.3C182.6,61.1,182.5,61.2,182.5,61.3z"/>
			<path class="st0" d="M182.5,58.3c0,0-0.1,0-0.1-0.1C182.4,58.2,182.5,58.2,182.5,58.3z"/>
			<path class="st0" d="M182.3,58.1C182.3,58.1,182.2,58.1,182.3,58.1C182.2,58.1,182.3,58.1,182.3,58.1z"/>
			<path class="st0" d="M182.2,58.1c0,0-0.1,0-0.1,0C182.1,58.1,182.2,58.1,182.2,58.1z"/>
			<path class="st0" d="M182.1,58.1c0,0-0.1,0-0.1,0C182,58,182,58.1,182.1,58.1z"/>
			<path class="st0" d="M182,54.7c0,0.5-0.1,0.9-0.4,1.2c-0.2-0.3-0.3-0.6-0.3-0.9c0-0.1,0-0.1,0-0.2c0-0.1,0-0.2,0-0.3
				c0-0.3,0-0.7,0-1C181.6,53.7,181.9,54.1,182,54.7z"/>
			<path class="st0" d="M182,58c-0.1,0-0.3,0-0.4,0C181.7,58,181.8,58,182,58z"/>
			<path class="st0" d="M181.5,58c0,0-0.1,0-0.1,0C181.4,58,181.5,58,181.5,58z"/>
			<path class="st0" d="M181.4,58c0,0-0.1,0-0.1,0C181.3,58.1,181.3,58,181.4,58z"/>
			<path class="st0" d="M181.3,54.5c0,0.1,0,0.2,0,0.3c0,0.5-0.1,0.9-0.1,1.4c-0.2,0.1-0.4,0.1-0.5,0.2c-2.9,0.2-4.1,2.4-4.5,3.2
				c-0.4-1.3-1.1-2.2-2-2.6c1-1.5,2.9-3.4,6.2-3.6c0.3,0,0.6,0,0.9,0.2C181.2,53.8,181.3,54.1,181.3,54.5z"/>
			<path class="st0" d="M181.2,54.8c0-0.1,0-0.2,0-0.3C181.3,54.6,181.3,54.7,181.2,54.8z"/>
			<path class="st0" d="M181.2,54.9c0,0.4,0.1,0.7,0.3,0.9c-0.1,0.1-0.3,0.2-0.4,0.3c0.1-0.5,0.1-0.9,0.1-1.4
				C181.2,54.8,181.2,54.9,181.2,54.9z"/>
			<path class="st0" d="M181.2,58.1c0,0-0.1,0-0.1,0C181.1,58.1,181.2,58.1,181.2,58.1z"/>
			<path class="st0" d="M181.1,58.1c0,0-0.1,0-0.1,0.1C181,58.2,181.1,58.1,181.1,58.1z"/>
			<path class="st0" d="M180.7,63.6c0.7-0.7,1.2-1.5,1.7-2.4C182,62.1,181.4,62.9,180.7,63.6z"/>
			<path class="st0" d="M181,58.2c0,0-0.1,0-0.1,0.1C180.9,58.2,180.9,58.2,181,58.2z"/>
			<path class="st0" d="M180.8,58.3C180.8,58.3,180.8,58.3,180.8,58.3C180.8,58.3,180.8,58.3,180.8,58.3z"/>
			<path class="st0" d="M180.5,63.9c0.1-0.1,0.1-0.2,0.2-0.2C180.7,63.7,180.6,63.8,180.5,63.9z"/>
			<path class="st0" d="M180.4,58.7c0.1-0.1,0.1-0.1,0.2-0.2c-0.1,0.1-0.2,0.3-0.3,0.4c0,0.1-0.1,0.1-0.1,0.2
				C180.3,58.9,180.3,58.8,180.4,58.7z"/>
			<path class="st0" d="M180.4,58.7c-0.1,0.1-0.1,0.3-0.2,0.4c0,0.1-0.1,0.2-0.1,0.2c0,0.1-0.1,0.2-0.1,0.2
				c-0.2,0.3-0.3,0.6-0.5,0.9c-0.1,0.1-0.2,0.3-0.3,0.4c0,0.1-0.1,0.1-0.1,0.1c0,0,0,0.1-0.1,0.1c0,0.1-0.1,0.1-0.1,0.2
				c-0.1,0.1-0.1,0.1-0.2,0.2c-0.1,0.1-0.1,0.1-0.2,0.2c-0.1,0.1-0.1,0.1-0.2,0.2c-0.1,0.1-0.2,0.2-0.2,0.2
				c-0.1,0.1-0.2,0.2-0.2,0.2c0,0,0,0,0,0c-0.1,0.1-0.2,0.2-0.3,0.2c0,0,0,0,0,0c-0.1,0.1-0.2,0.2-0.3,0.2c-0.4,0.3-0.8,0.6-1.3,0.9
				c0.2-0.8,0.4-1.6,0.3-2.4c0,0,0,0,0,0C177.5,60.8,179,60,180.4,58.7z"/>
			<path class="st0" d="M180.1,64.3c0.1-0.1,0.1-0.1,0.2-0.2C180.2,64.2,180.2,64.3,180.1,64.3z"/>
			<path class="st0" d="M180.1,59.3c0-0.1,0.1-0.2,0.1-0.2C180.2,59.2,180.1,59.2,180.1,59.3z"/>
			<path class="st0" d="M179.8,64.5c0.1-0.1,0.1-0.1,0.2-0.2C180,64.4,179.9,64.5,179.8,64.5z"/>
			<path class="st0" d="M179.6,64.5c0,0,0.1,0.1,0.1,0.1c-0.1,0.1-0.1,0.1-0.2,0.2c-0.1,0.1-0.2,0.1-0.3,0.2c0,0-0.1,0.1-0.1,0.1
				c-0.1,0.1-0.2,0.2-0.3,0.3c-0.3,0.2-0.7,0.5-1,0.7c-0.2,0.1-0.5,0.3-0.7,0.4l-0.2-0.2c0,0,0,0,0,0l-0.5-0.3
				c-0.5-0.3-0.7-0.9-0.7-1.4c0.7-0.1,1.6-0.4,2.7-0.9l0.1,0.1c0.1,0,0.1,0.1,0.2,0.1l0.4,0.3c0.1,0.1,0.1,0.1,0.2,0.2l0,0
				c0,0,0,0,0,0v0C179.3,64.3,179.4,64.4,179.6,64.5L179.6,64.5z"/>
			<path class="st0" d="M179.4,60.4c0.2-0.3,0.4-0.6,0.5-0.9C179.8,59.8,179.6,60.1,179.4,60.4z"/>
			<path class="st0" d="M179.3,65.1c0.1-0.1,0.2-0.1,0.3-0.2C179.4,64.9,179.3,65,179.3,65.1z"/>
			<path class="st0" d="M179.4,60.4c-0.1,0.1-0.2,0.3-0.3,0.4C179.3,60.7,179.3,60.5,179.4,60.4z"/>
			<path class="st0" d="M178.8,65.4c0.1-0.1,0.2-0.2,0.3-0.3C179,65.2,178.9,65.3,178.8,65.4z"/>
			<path class="st0" d="M179,61c0-0.1,0.1-0.1,0.1-0.1C179.1,60.9,179.1,60.9,179,61z"/>
			<path class="st0" d="M178.8,61.2c0-0.1,0.1-0.1,0.1-0.2C178.9,61.1,178.9,61.2,178.8,61.2z"/>
			<path class="st0" d="M178.5,61.6c0.1-0.1,0.1-0.1,0.2-0.2C178.6,61.5,178.6,61.5,178.5,61.6z"/>
			<path class="st0" d="M178.3,61.8c0.1-0.1,0.1-0.1,0.2-0.2C178.5,61.7,178.4,61.7,178.3,61.8z"/>
			<path class="st0" d="M177.8,66.1c0.3-0.2,0.7-0.4,1-0.7C178.5,65.6,178.2,65.9,177.8,66.1z"/>
			<path class="st0" d="M178,63.4l0.3,0.2c-1.1,0.5-2,0.7-2.7,0.9c0,0,0-0.1,0-0.1c0.1-0.2,0.2-0.4,0.2-0.6
				C176.4,63.1,177.3,62.9,178,63.4z"/>
			<path class="st0" d="M177.9,62.2c0.1-0.1,0.2-0.2,0.2-0.2C178,62.1,177.9,62.2,177.9,62.2z"/>
			<path class="st0" d="M177.6,62.5c0.1-0.1,0.2-0.2,0.3-0.2C177.8,62.3,177.7,62.4,177.6,62.5z"/>
			<path class="st0" d="M177.3,62.7c0.1-0.1,0.2-0.2,0.3-0.2C177.5,62.6,177.4,62.7,177.3,62.7z"/>
			<path class="st0" d="M177.1,66.5c0.2-0.1,0.5-0.3,0.7-0.4C177.6,66.2,177.4,66.3,177.1,66.5L177.1,66.5z"/>
			<path class="st0" d="M177.1,66.5L177.1,66.5c-1.3,0.7-2.7,1.2-4.3,1.5C174.4,67.7,175.8,67.2,177.1,66.5z"/>
			<path class="st0" d="M176.9,66.3l0.2,0.2c-1.3,0.7-2.8,1.2-4.3,1.5c-0.1,0-0.2,0-0.2,0c-0.2,0-0.3,0-0.5,0.1c-0.1,0-0.1,0-0.2,0
				c0,0,0,0,0,0c0.1,0,0.3-0.1,0.4-0.1c1.5-0.6,2.7-1.9,3.4-3.4c0,0,0,0,0,0c-0.1,0.6,0.2,1.1,0.7,1.4L176.9,66.3
				C176.9,66.3,176.9,66.3,176.9,66.3z"/>
			<path class="st0" d="M176,63.6c0.4-0.3,0.9-0.6,1.3-0.9C176.9,63.1,176.5,63.4,176,63.6C176,63.6,176,63.6,176,63.6z"/>
			<path class="st0" d="M176.4,61.2c0,0.8-0.1,1.6-0.3,2.4c-0.6,0.4-1.3,0.7-2,0.9c-0.5-0.2-0.9-0.7-0.9-1.3c0-0.2,0-0.3,0-0.5
				c0,0,0,0,0,0c0-0.1,0-0.1,0.1-0.2c0.2-0.5,0.7-0.9,1.3-1C174.5,61.6,175.3,61.6,176.4,61.2C176.4,61.2,176.4,61.2,176.4,61.2z"/>
			<path class="st0" d="M176.1,59.5c0.1,0.5,0.2,1,0.3,1.6c-1.1,0.4-1.8,0.5-1.9,0.5c-0.6,0-1.1,0.4-1.3,1c0.1-0.4,0.2-0.8,0.2-1.2
				c0-0.5-0.1-0.9-0.2-1.2c0.2,0.4,0.5,0.7,1,0.9c0.1,0,0.3,0,0.4,0c0.7,0,1.3-0.5,1.5-1.1C176,59.9,176,59.8,176.1,59.5z"/>
			<path class="st0" d="M176,63.6C176,63.6,176,63.6,176,63.6c-0.6,0.4-1.3,0.7-2,0.9c0,0,0,0,0,0C174.7,64.3,175.4,64,176,63.6z"/>
			<path class="st0" d="M176,63.6c0,0.1,0,0.1-0.1,0.2c0,0,0,0,0,0c-0.1,0.2-0.2,0.4-0.2,0.6c0,0,0,0.1,0,0.1
				c-0.6,0.1-0.9,0.1-1,0.1c0,0-0.1,0-0.1,0c-0.2,0-0.4,0-0.6-0.1C174.7,64.3,175.4,64,176,63.6z"/>
			<path class="st0" d="M176.1,59.5c-0.1,0.2-0.1,0.4-0.1,0.4c-0.2,0.7-0.8,1.1-1.5,1.1c-0.1,0-0.3,0-0.4,0c-0.5-0.1-0.8-0.4-1-0.9
				l0,0c0,0,0-0.1-0.1-0.1c0,0,0,0,0,0c-0.1-0.3-0.1-0.6,0-0.8c0-0.1,0.3-1.1,1.1-2.3C175,57.3,175.7,58.2,176.1,59.5z"/>
			<path class="st0" d="M175.9,63.8C175.9,63.8,176,63.8,175.9,63.8c-0.1,0.2-0.1,0.4-0.2,0.6C175.7,64.2,175.8,64,175.9,63.8z"/>
			<path class="st0" d="M175.7,64.4C175.7,64.4,175.7,64.5,175.7,64.4C175.7,64.5,175.7,64.5,175.7,64.4
				C175.7,64.5,175.7,64.5,175.7,64.4z"/>
			<path class="st0" d="M175.3,108.6v0.9c0,0.8-0.7,1.5-1.5,1.5c-0.3,0-0.5-0.1-0.7-0.2c-0.5-0.3-0.8-0.8-0.8-1.3V107L175.3,108.6z"
				/>
			<path class="st0" d="M175.3,86.7v21.9l-3-1.6V86.7c0-0.8,0.7-1.5,1.5-1.5C174.7,85.2,175.3,85.8,175.3,86.7z"/>
			<path class="st0" d="M174.7,64.7c0.1,0,0.4,0,1-0.1c-0.7,1.5-1.9,2.8-3.4,3.4c-0.1,0.1-0.3,0.1-0.4,0.1c0,0,0,0,0,0
				c0,0-0.1,0-0.1,0c0,0,0,0-0.1,0c-0.6,0-1.1-0.3-1.4-0.9c-0.3-0.8,0-1.7,0.8-2c0.1,0,0.1-0.1,0.2-0.1c0,0,0.1,0,0.1,0
				c0.1,0,0.3,0,0.4,0c0.1,0,0.3,0,0.4,0c0.6-0.1,1.2-0.2,1.8-0.4C174.2,64.6,174.4,64.7,174.7,64.7
				C174.6,64.7,174.6,64.7,174.7,64.7z"/>
			<path class="st0" d="M174,64.5C174,64.5,174,64.5,174,64.5c-0.6,0.2-1.2,0.3-1.8,0.4C172.8,64.9,173.4,64.7,174,64.5z"/>
			<path class="st0" d="M173.1,63.2c0,0.6,0.4,1.1,0.9,1.3c-0.6,0.2-1.2,0.3-1.8,0.4c-0.1,0-0.3,0-0.4,0s-0.3,0-0.4,0
				c0,0-0.1,0-0.1,0c0.8-0.4,1.5-1.3,1.8-2.3C173.1,62.9,173.1,63.1,173.1,63.2z"/>
			<path class="st0" d="M173.2,62.6c0,0.1,0,0.1-0.1,0.2C173.1,62.7,173.1,62.7,173.2,62.6z"/>
			<path class="st0" d="M172.9,56.7c0.4,0,0.8,0.1,1.1,0.2c-0.8,1.2-1,2.2-1.1,2.3c-0.1,0.3-0.1,0.6,0,0.8c-0.1-0.1-0.1-0.2-0.2-0.3
				c-0.8,0-2.3-0.3-5.7-2.7c-0.6-0.4-1.2-0.5-1.9-0.4c-0.3,0.1-0.8,0.3-1.3,0.4c-0.8,0.3-1.6,0.7-2.5,0.7c-0.1,0.4-0.1,1.2,0,1.9
				c-0.8-1.4-1.3-3-1.4-4.7c0.4-0.2,0.8-0.3,1.2-0.3c0.3,0,1-0.3,1.5-0.5c0.6-0.3,1.3-0.5,2-0.6c1.4-0.2,2.9,0.1,4.1,0.9
				C171.3,56.2,172.6,56.7,172.9,56.7z"/>
			<path class="st0" d="M173.1,110.8l-13.9-7.3c0.2,0.1,0.5,0.2,0.7,0.2c0.8,0,1.5-0.7,1.5-1.5v-0.9l10.8,5.7v2.5
				C172.3,110.1,172.6,110.6,173.1,110.8z"/>
			<path class="st0" d="M173,60c0,0,0,0.1,0.1,0.1C173.1,60.1,173.1,60.1,173,60z"/>
			<path class="st0" d="M172.6,68c0.1,0,0.2,0,0.2,0C172.8,67.9,172.7,68,172.6,68z"/>
			<path class="st0" d="M172.6,68c-0.2,0-0.3,0-0.5,0.1C172.3,68,172.5,68,172.6,68z"/>
			<path class="st0" d="M171.8,65c0.1,0,0.3,0,0.4,0C172.1,65,171.9,65,171.8,65z"/>
			<path class="st0" d="M171.9,68c0.1,0,0.1,0,0.2,0C172.1,68,172,68,171.9,68z"/>
			<path class="st0" d="M171.9,68.1C171.9,68.1,171.9,68.1,171.9,68.1C171.9,68.1,171.9,68.1,171.9,68.1z"/>
			<path class="st0" d="M171.4,65c0.1,0,0.3,0,0.4,0C171.7,65,171.6,65,171.4,65z"/>
			<path class="st0" d="M171.8,68.1c-0.1,0-0.3,0-0.4,0c-0.1,0-0.2,0-0.3,0c-0.1,0-0.3,0-0.4,0c-2.4,0-4.7-0.6-6.7-1.8
				c0.2-0.1,0.5-0.3,0.7-0.4c0.7-0.4,1-1.3,0.7-2c-0.1-0.3-0.3-0.5-0.6-0.6l0,0c1.7,1.1,3.7,1.8,5.9,1.8c0.1,0,0.2,0,0.3,0
				c0.1,0,0.1,0,0.2,0c0.1,0,0.1,0,0.2,0c-0.1,0-0.1,0.1-0.2,0.1c-0.8,0.3-1.1,1.2-0.8,2C170.6,67.7,171.1,68.1,171.8,68.1
				C171.7,68.1,171.8,68.1,171.8,68.1z"/>
			<path class="st0" d="M171.4,65c0,0-0.1,0-0.1,0c0,0,0,0,0,0C171.4,65.1,171.4,65,171.4,65z"/>
			<path class="st0" d="M171.1,68.1c0.1,0,0.2,0,0.3,0C171.3,68.1,171.2,68.1,171.1,68.1z"/>
			<path class="st0" d="M171.2,65.1c0.1,0,0.1,0,0.2,0C171.3,65.1,171.2,65.1,171.2,65.1z"/>
			<path class="st0" d="M171,65.1c0.1,0,0.1,0,0.2,0C171.1,65.1,171,65.1,171,65.1z"/>
			<path class="st0" d="M165.4,63.9c0.4,0.7,0.1,1.7-0.7,2c-0.2,0.1-0.5,0.3-0.7,0.4c-0.9-0.5-1.8-1.2-2.6-1.9
				c0.6-0.4,1.3-0.8,2-1.2c0.5-0.2,1-0.2,1.5,0.1C165,63.4,165.2,63.6,165.4,63.9z"/>
			<path class="st0" d="M164.8,63.3L164.8,63.3c-0.4-0.3-1-0.3-1.5,0c-0.7,0.3-1.3,0.7-2,1.2c-1-1-1.9-2.1-2.6-3.3
				c0.3,0.5,1,0.8,1.6,0.6c0.8-0.2,1.3-1,1.1-1.8c0-0.1,0-0.1,0-0.2C162.3,61.1,163.4,62.4,164.8,63.3z"/>
			<path class="st0" d="M164,66.3c-1.8,1.1-3.6,2.6-4.4,3.5c0,0,0,0-0.1,0.1c-0.7,0.7-2.5,2.9-2.5,4.9l-0.1,24l1.5,0.8v2.5
				c0,0.6,0.3,1.1,0.8,1.3l-4.5-2.4c-0.5-0.3-0.8-0.8-0.8-1.3l0.1-24.9c0-3.6,3-6.7,3.4-7.1c0.8-0.8,2.3-2.2,4-3.3
				C162.1,65.1,163,65.8,164,66.3z"/>
			<path class="st0" d="M161.5,59.9c0.2,0.8-0.3,1.6-1.1,1.8c-0.6,0.1-1.3-0.1-1.6-0.6c0,0,0,0,0,0c0-0.1-0.1-0.1-0.1-0.2
				c0-0.1-0.1-0.2-0.1-0.3c-0.7-2.9,0.2-4.4,0.5-4.8c0.3-0.3,0.6-0.6,1-0.8c0.1,1.7,0.6,3.3,1.4,4.7
				C161.5,59.8,161.5,59.8,161.5,59.9z"/>
			<path class="st0" d="M161.5,101.2v0.9c0,0.8-0.7,1.5-1.5,1.5c-0.3,0-0.5-0.1-0.7-0.2c0,0,0,0,0,0c-0.5-0.3-0.8-0.8-0.8-1.3v-2.5
				L161.5,101.2z"/>
			<path class="st0" d="M161.5,78.7v22.6l-3-1.6v-21c0-0.8,0.7-1.5,1.5-1.5C160.8,77.1,161.5,77.8,161.5,78.7z"/>
			<path class="st0" d="M158.7,60.9c0,0.1,0.1,0.1,0.1,0.2C158.7,61,158.7,60.9,158.7,60.9z"/>
			<path class="st0" d="M113.7,39.3l-0.1,24.9c0,0.6-0.3,1.1-0.8,1.3L102.6,71c-0.2,0.1-0.5,0.2-0.7,0.2s-0.5-0.1-0.7-0.2L99.1,70
				c0.2,0.1,0.5,0.2,0.7,0.2c0.8,0,1.5-0.7,1.5-1.5v-0.9l0.5,0.3l8.7-4.7l0.1-24c0-0.1,0-0.2,0-0.3l0-0.1c0-0.1,0-0.2,0-0.4
				c0,0,0,0,0,0c0,0,0,0,0,0c0-0.1,0-0.2,0-0.3l0,0c0,0,0,0,0,0c0-0.1,0-0.2,0-0.4c0,0,0,0,0,0l0,0c0-0.1,0-0.2-0.1-0.4c0,0,0,0,0,0
				c0-0.1,0-0.3-0.1-0.4l0-0.1c0-0.1-0.1-0.3-0.1-0.4c0,0,0,0,0,0l0,0c0-0.1-0.1-0.3-0.1-0.4c0,0,0,0,0,0l0,0c0-0.1-0.1-0.3-0.1-0.4
				l0,0c0,0,0,0,0,0c0-0.1-0.1-0.3-0.1-0.4c0,0,0,0,0,0l0,0c0-0.1-0.1-0.3-0.1-0.4c0,0,0,0,0,0c0,0,0,0,0,0c0-0.1-0.1-0.3-0.1-0.4
				l0,0c0,0,0,0,0,0c-0.1-0.1-0.1-0.3-0.2-0.4c0,0,0,0,0,0l0,0c0-0.1-0.1-0.2-0.1-0.3l0-0.1c-0.1-0.1-0.1-0.3-0.2-0.4c0,0,0,0,0,0
				l0-0.1c-0.1-0.1-0.1-0.2-0.2-0.3c0,0,0,0,0,0c0,0,0,0,0,0c-0.1-0.1-0.1-0.3-0.2-0.4l-0.3-0.6c-0.1-0.1-0.1-0.2-0.2-0.3l0-0.1
				c-0.1-0.1-0.1-0.2-0.2-0.3l-0.7-1.1c-0.1-0.1-0.2-0.2-0.3-0.4l-0.1-0.1c-0.1-0.1-0.2-0.2-0.3-0.3c0,0,0,0,0,0
				c-0.1-0.1-0.1-0.2-0.2-0.2l-0.2-0.2c0,0,0,0,0,0c0,0,0,0,0,0c-0.1-0.1-0.2-0.3-0.3-0.4c0,0,0,0,0,0c-0.1-0.1-0.2-0.2-0.3-0.4l0,0
				l1.1-1l-1.1,1c-0.1-0.1-0.2-0.2-0.3-0.3l-0.1-0.1c-0.1-0.1-0.2-0.2-0.3-0.3l-0.1-0.1c-0.1-0.1-0.2-0.2-0.3-0.3c0,0,0,0,0,0
				l-0.6-0.5c-0.1-0.1-0.1-0.1-0.2-0.2c0,0,0,0,0,0l0,0c-0.1,0-0.1-0.1-0.2-0.1l0,0c0.6-0.3,1.1-0.7,1.7-1.1h0
				c0.1-0.1,0.3-0.2,0.4-0.3c0.1-0.1,0.2-0.2,0.3-0.3c0.1-0.1,0.1-0.1,0.2-0.2h0c0,0,0,0,0,0c0,0,0,0,0,0l0.1,0.1c0,0,0,0,0,0
				l0.4,0.3c0,0,0,0,0,0c0.1,0.1,0.3,0.2,0.4,0.4l0,0c0,0,0,0,0,0c0.1,0.1,0.3,0.2,0.4,0.4l0.1,0.1c0.1,0.1,0.2,0.2,0.4,0.4
				c0,0,0,0,0,0l0,0c0.1,0.1,0.3,0.3,0.4,0.4c0,0,0,0,0,0c0.1,0.1,0.3,0.3,0.4,0.4l0,0c0,0,0,0,0,0c0,0.1,0.1,0.1,0.1,0.2l0.1,0.1
				c0.1,0.1,0.1,0.2,0.2,0.3v0c0,0,0,0,0,0c0.1,0.1,0.2,0.3,0.3,0.4l0.1,0.1c0.1,0.1,0.2,0.3,0.3,0.4l0.5,0.7l0.4,0.6
				c0.1,0.1,0.1,0.2,0.2,0.4l0,0.1c0.1,0.1,0.2,0.3,0.2,0.4l0.2,0.3c0,0,0.1,0.1,0.1,0.2l0.1,0.3c0.1,0.1,0.2,0.3,0.2,0.5
				c0,0,0,0,0,0l0,0c0.1,0.1,0.1,0.3,0.2,0.4l0,0l0,0.1c0.1,0.1,0.1,0.3,0.2,0.4l0,0.1c0.1,0.1,0.1,0.3,0.2,0.4l0,0.1
				c0.1,0.1,0.1,0.3,0.2,0.4l0,0.1c0.1,0.2,0.1,0.3,0.2,0.4c0,0,0,0,0,0c0.1,0.1,0.1,0.3,0.2,0.4l0,0.1c0,0,0,0,0,0
				c0,0.1,0.1,0.3,0.1,0.5l0,0.1c0,0.2,0.1,0.3,0.1,0.5c0,0,0,0,0,0.1c0,0.2,0.1,0.3,0.1,0.4l0,0c0,0,0,0,0,0c0,0.2,0.1,0.3,0.1,0.5
				l0,0.1c0,0.1,0.1,0.3,0.1,0.4c0,0,0,0,0,0c0,0,0,0,0,0c0,0.1,0,0.3,0.1,0.4c0,0,0,0,0,0.1c0,0,0,0,0,0c0,0.1,0,0.3,0.1,0.4l0,0.1
				c0,0.1,0,0.3,0,0.4l0,0c0,0,0,0,0,0c0,0.1,0,0.3,0,0.4l0,0c0,0,0,0,0,0l0,0.1C113.7,39,113.7,39.2,113.7,39.3z"/>
			<path class="st0" d="M110.3,13.6c0,0.1,0,0.2,0,0.3c0,0.1,0,0.2,0,0.3c0,0.8-0.7,1.5-1.6,1.5c-0.5,0-0.9-0.3-1.2-0.6
				c0.3-0.3,0.5-0.7,0.4-1.2c0-0.5-0.3-0.9-0.8-1.2c-0.5-5.4-5-9.6-10.5-9.6c-5.8,0-10.6,4.7-10.6,10.6c0,0.2,0,0.3,0,0.5
				c-0.4,0.2-0.7,0.4-1,0.8c-0.3,0.4-1.2,1.9-0.5,4.8c0,0.1,0,0.2,0.1,0.3c-1-1.9-1.6-4.1-1.6-6.3C83.1,6.1,89.2,0,96.7,0
				C104.2,0,110.3,6.1,110.3,13.6z"/>
			<path class="st0" d="M110.3,14.2c0-0.1,0-0.2,0-0.3C110.3,14,110.3,14.1,110.3,14.2z"/>
			<path class="st0" d="M110.3,14.2c-0.1,1.8-0.5,3.5-1.2,5.1c0.3-0.7,0-1.6-0.8-1.9c-0.8-0.4-1.7,0-2,0.7c0,0.1-0.1,0.1-0.1,0.2
				c0.4-0.9,0.8-1.9,0.9-2.9c0.2-0.1,0.3-0.2,0.4-0.3c0.3,0.4,0.7,0.6,1.2,0.6C109.5,15.7,110.2,15,110.3,14.2z"/>
			<path class="st0" d="M108.3,17.3c0.7,0.3,1.1,1.2,0.8,1.9c0,0,0,0,0,0c-0.1,0.2-0.2,0.4-0.3,0.6c0,0.1-0.1,0.2-0.2,0.3
				c-0.1,0.1-0.1,0.2-0.2,0.3c-0.5,0.9-1.1,1.7-1.7,2.4c-0.1,0.1-0.1,0.2-0.2,0.2c-0.1,0.1-0.2,0.2-0.3,0.3
				c-0.1,0.1-0.2,0.2-0.2,0.2c0,0-0.1,0.1-0.1,0.1c0,0-0.1,0.1-0.1,0.1c0,0,0,0,0,0c0,0,0,0,0,0c0,0-0.1-0.1-0.1-0.1l-0.1-0.1
				c-0.1-0.1-0.2-0.1-0.2-0.2c0,0,0,0,0,0l-0.1,0c-0.1-0.1-0.1-0.1-0.2-0.2l-1-0.7c-0.7-0.5-1.6-0.3-2.1,0.4c0-0.1,0-0.1,0.1-0.2
				c0.4-0.3,0.9-0.6,1.3-0.9c0.1-0.1,0.2-0.2,0.3-0.2c0,0,0,0,0,0c0.1-0.1,0.2-0.2,0.3-0.2c0,0,0,0,0,0c0.1-0.1,0.2-0.2,0.2-0.2
				c0.1-0.1,0.2-0.2,0.2-0.2c0.1-0.1,0.1-0.1,0.2-0.2c0.1-0.1,0.1-0.1,0.2-0.2c0.1-0.1,0.1-0.1,0.2-0.2c0-0.1,0.1-0.1,0.1-0.2
				c0,0,0.1-0.1,0.1-0.1c0,0,0.1-0.1,0.1-0.1c0.1-0.1,0.2-0.3,0.3-0.4c0.2-0.3,0.4-0.6,0.5-0.9c0-0.1,0.1-0.1,0.1-0.2
				c0-0.1,0.1-0.2,0.1-0.2c0-0.1,0.1-0.1,0.1-0.2C106.6,17.3,107.5,16.9,108.3,17.3z"/>
			<path class="st0" d="M109.1,19.2C109.1,19.3,109.1,19.3,109.1,19.2c-0.1,0.2-0.2,0.4-0.3,0.6C108.9,19.6,109,19.4,109.1,19.2z"/>
			<path class="st0" d="M108.5,20.4c0.1-0.1,0.1-0.2,0.2-0.3C108.6,20.2,108.5,20.3,108.5,20.4z"/>
			<path class="st0" d="M108,13.8c0,0.5-0.1,0.9-0.4,1.2c-0.2-0.3-0.3-0.6-0.3-0.9c0-0.1,0-0.1,0-0.2c0-0.1,0-0.2,0-0.3
				c0-0.3,0-0.7,0-1C107.6,12.8,107.9,13.3,108,13.8z"/>
			<path class="st0" d="M107.2,13.6c0,0.1,0,0.2,0,0.3c0,0.5-0.1,0.9-0.1,1.4c-0.2,0.1-0.4,0.1-0.5,0.2c-2.9,0.2-4.1,2.4-4.5,3.2
				c-0.4-1.3-1.1-2.2-2-2.6c1-1.5,2.9-3.4,6.2-3.6c0.3,0,0.6,0,0.9,0.2C107.2,12.9,107.2,13.3,107.2,13.6z"/>
			<path class="st0" d="M107.2,13.9c0-0.1,0-0.2,0-0.3C107.2,13.7,107.2,13.8,107.2,13.9z"/>
			<path class="st0" d="M107.2,14c0,0.4,0.1,0.7,0.3,0.9c-0.1,0.1-0.3,0.2-0.4,0.3c0.1-0.5,0.1-0.9,0.1-1.4
				C107.2,13.9,107.2,14,107.2,14z"/>
			<path class="st0" d="M107,128.2l-0.1,24.9c0,0.6-0.3,1.1-0.8,1.3l-10.3,5.5c-0.2,0.1-0.5,0.2-0.7,0.2c-0.2,0-0.5-0.1-0.7-0.2
				l-2.1-1.1c0.2,0.1,0.5,0.2,0.7,0.2c0.8,0,1.5-0.7,1.5-1.5v-0.9l0.5,0.3l8.7-4.7l0.1-24c0-0.1,0-0.2,0-0.3l0-0.1
				c0-0.1,0-0.2,0-0.4c0,0,0,0,0,0c0,0,0,0,0,0c0-0.1,0-0.2,0-0.4l0,0c0,0,0,0,0,0c0-0.1,0-0.2,0-0.4c0,0,0,0,0,0l0,0
				c0-0.1,0-0.2-0.1-0.4c0,0,0,0,0,0c0,0,0,0,0,0c0-0.1,0-0.3-0.1-0.4l0-0.1c0-0.1-0.1-0.3-0.1-0.4c0,0,0,0,0,0l0,0
				c0-0.1-0.1-0.3-0.1-0.4c0,0,0,0,0,0c0,0,0,0,0,0c0-0.1-0.1-0.3-0.1-0.4l0,0c0,0,0,0,0,0c0-0.1-0.1-0.3-0.1-0.4c0,0,0,0,0,0l0,0
				c0-0.1-0.1-0.3-0.1-0.4c0,0,0,0,0,0c0-0.1-0.1-0.3-0.1-0.4l0-0.1c-0.1-0.1-0.1-0.3-0.2-0.4c0,0,0,0,0,0l0,0
				c0-0.1-0.1-0.2-0.1-0.3l0-0.1c-0.1-0.1-0.1-0.3-0.2-0.4c0,0,0,0,0,0l0,0c-0.1-0.1-0.1-0.2-0.2-0.3c0,0,0,0,0,0c0,0,0,0,0,0
				c-0.1-0.1-0.1-0.3-0.2-0.4l-0.3-0.6c-0.1-0.1-0.1-0.2-0.2-0.3l0-0.1c-0.1-0.1-0.1-0.2-0.2-0.3l-0.7-1.1c-0.1-0.1-0.2-0.2-0.3-0.4
				l-0.1-0.1c-0.1-0.1-0.2-0.2-0.3-0.3c0,0,0,0,0,0c-0.1-0.1-0.1-0.2-0.2-0.2l-0.2-0.2c0,0,0,0,0,0c0,0,0,0,0,0
				c-0.1-0.1-0.2-0.3-0.3-0.4c0,0,0,0,0,0c-0.1-0.1-0.2-0.2-0.3-0.4l0,0c0,0,0,0,0,0c-0.1-0.1-0.2-0.2-0.3-0.3l-0.1-0.1
				c-0.1-0.1-0.2-0.2-0.3-0.3l-0.1-0.1c-0.1-0.1-0.2-0.2-0.3-0.3c0,0,0,0,0,0l-0.4-0.3c0,0,0,0,0,0c0,0,0,0,0,0l-0.2-0.2
				c-0.1-0.1-0.1-0.1-0.2-0.2c0,0,0,0,0,0l0,0c-0.1,0-0.1-0.1-0.2-0.1l0,0c0.6-0.3,1.1-0.7,1.7-1.1c0,0,0,0,0,0
				c0.1-0.1,0.2-0.2,0.4-0.3c0,0,0,0,0,0c0.1-0.1,0.1-0.1,0.2-0.2c0.1-0.1,0.2-0.2,0.3-0.3c0,0,0,0,0,0c0,0,0,0,0,0l0.5,0.4
				c0,0,0,0,0,0c0.1,0.1,0.3,0.2,0.4,0.4l0,0c0,0,0,0,0,0c0.1,0.1,0.3,0.2,0.4,0.4l0.1,0.1c0.1,0.1,0.2,0.2,0.4,0.4c0,0,0,0,0,0l0,0
				c0.1,0.1,0.3,0.3,0.4,0.4c0,0,0,0,0,0c0,0,0,0,0,0c0,0,0,0,0,0c0.1,0.1,0.3,0.3,0.4,0.4l0,0c0,0,0,0,0,0c0.1,0.1,0.1,0.1,0.1,0.2
				l0.1,0.1c0.1,0.1,0.1,0.2,0.2,0.3c0,0,0,0,0,0c0.1,0.1,0.2,0.3,0.3,0.4l0.1,0.1c0.1,0.1,0.2,0.3,0.3,0.4l0.1,0.1c0,0,0,0,0,0
				l0.8,1.1c0.1,0.1,0.1,0.2,0.2,0.4l0,0.1c0.1,0.1,0.2,0.3,0.2,0.4l0.2,0.3c0,0,0.1,0.1,0.1,0.2l0.1,0.3c0.1,0.1,0.2,0.3,0.2,0.5
				c0,0,0,0,0,0l0,0.1c0.1,0.1,0.1,0.3,0.2,0.4l0,0l0,0.1c0.1,0.1,0.1,0.3,0.2,0.4l0,0.1c0.1,0.1,0.1,0.3,0.2,0.4l0,0.1
				c0.1,0.1,0.1,0.3,0.2,0.4l0,0.1c0.1,0.2,0.1,0.3,0.2,0.5c0,0,0,0,0,0c0.1,0.1,0.1,0.3,0.2,0.4l0,0.1c0,0,0,0,0,0
				c0,0.1,0.1,0.3,0.1,0.5l0,0.1c0,0.2,0.1,0.3,0.1,0.5c0,0,0,0,0,0.1c0,0.2,0.1,0.3,0.1,0.4l0,0c0,0,0,0,0,0c0,0.2,0.1,0.3,0.1,0.4
				l0,0.1c0,0.1,0.1,0.3,0.1,0.4c0,0,0,0,0,0c0,0,0,0,0,0c0,0,0,0,0,0c0,0.1,0,0.3,0.1,0.4c0,0,0,0,0,0.1c0,0,0,0,0,0
				c0,0.1,0,0.3,0.1,0.4l0,0.1c0,0.1,0,0.3,0,0.4l0,0c0,0,0,0,0,0c0,0.1,0,0.3,0,0.4l0,0c0,0,0,0,0,0v0.1
				C107,127.9,107,128,107,128.2z"/>
			<path class="st0" d="M106.7,22.8c0.7-0.7,1.2-1.5,1.7-2.4C108,21.3,107.4,22,106.7,22.8z"/>
			<path class="st0" d="M106.5,23c0.1-0.1,0.1-0.2,0.2-0.2C106.7,22.8,106.6,22.9,106.5,23z"/>
			<path class="st0" d="M106,23.6c0.1-0.1,0.2-0.2,0.2-0.2C106.1,23.4,106.1,23.5,106,23.6z"/>
			<path class="st0" d="M106.1,18.4c0-0.1,0.1-0.2,0.1-0.2C106.2,18.3,106.1,18.4,106.1,18.4z"/>
			<path class="st0" d="M105.7,23.8c0,0,0.1-0.1,0.1-0.1C105.8,23.7,105.8,23.7,105.7,23.8z"/>
			<path class="st0" d="M105.7,23.8C105.7,23.8,105.7,23.8,105.7,23.8L105.7,23.8C105.7,23.8,105.7,23.8,105.7,23.8z"/>
			<path class="st0" d="M105.6,23.7c0,0,0.1,0.1,0.1,0.1c-0.1,0.1-0.1,0.1-0.2,0.2c-0.1,0.1-0.2,0.2-0.3,0.3
				c-0.1,0.1-0.3,0.2-0.4,0.3h0c-0.5,0.4-1.1,0.8-1.7,1.1l-0.7-0.5c-0.5-0.3-0.8-0.9-0.7-1.5c0.1-0.2,0.2-0.4,0.2-0.6
				c0.5-0.7,1.4-0.9,2.1-0.4l1,0.7c0.1,0,0.1,0.1,0.2,0.2l0.1,0c0,0,0,0,0,0C105.3,23.5,105.4,23.5,105.6,23.7L105.6,23.7z"/>
			<path class="st0" d="M105.4,19.5c0.2-0.3,0.4-0.6,0.5-0.9C105.8,19,105.6,19.2,105.4,19.5z"/>
			<path class="st0" d="M105.2,24.2c0.1-0.1,0.2-0.2,0.3-0.3C105.4,24,105.3,24.1,105.2,24.2z"/>
			<path class="st0" d="M105.4,19.5c-0.1,0.1-0.2,0.3-0.3,0.4C105.2,19.8,105.3,19.7,105.4,19.5z"/>
			<path class="st0" d="M104.8,24.5c0.1-0.1,0.3-0.2,0.4-0.3C105.1,24.3,104.9,24.4,104.8,24.5z"/>
			<path class="st0" d="M105,20.1c0-0.1,0.1-0.1,0.1-0.1C105.1,20,105.1,20,105,20.1z"/>
			<path class="st0" d="M104.8,20.3c0-0.1,0.1-0.1,0.1-0.2C104.9,20.2,104.9,20.3,104.8,20.3z"/>
			<path class="st0" d="M104.5,20.7c0.1-0.1,0.1-0.1,0.2-0.2C104.6,20.6,104.6,20.7,104.5,20.7z"/>
			<path class="st0" d="M104.3,20.9c0.1-0.1,0.1-0.1,0.2-0.2C104.4,20.8,104.4,20.8,104.3,20.9z"/>
			<path class="st0" d="M103.1,25.6c0.6-0.3,1.1-0.7,1.7-1.1C104.3,24.9,103.7,25.3,103.1,25.6L103.1,25.6z"/>
			<path class="st0" d="M103.9,21.4c0.1-0.1,0.2-0.2,0.2-0.2C104,21.2,103.9,21.3,103.9,21.4z"/>
			<path class="st0" d="M103.6,21.6c0.1-0.1,0.2-0.2,0.3-0.2C103.8,21.5,103.7,21.5,103.6,21.6z"/>
			<path class="st0" d="M103.3,21.9c0.1-0.1,0.2-0.2,0.3-0.2C103.5,21.7,103.4,21.8,103.3,21.9z"/>
			<path class="st0" d="M103.6,102.5c0,0.1,0,0.2,0,0.3c0,0,0,0,0,0c0,0.1,0,0.1,0,0.2c0,0.8-0.7,1.4-1.5,1.4c0,0,0,0-0.1,0
				c-0.5,0-0.9-0.3-1.2-0.6c0.3-0.3,0.5-0.7,0.4-1.2c0-0.5-0.3-1-0.8-1.2c-0.5-5.4-5-9.6-10.5-9.6c-5.8,0-10.6,4.7-10.6,10.6
				c0,0.2,0,0.3,0,0.5c-0.4,0.2-0.7,0.4-1,0.8c-0.3,0.4-1.2,1.9-0.5,4.8c0,0.1,0,0.2,0.1,0.3c-1-1.9-1.6-4.1-1.6-6.3
				c0-7.5,6.1-13.6,13.6-13.6C97.5,88.9,103.6,95,103.6,102.5z"/>
			<path class="st0" d="M103.6,102.8c0-0.1,0-0.2,0-0.3C103.6,102.6,103.6,102.7,103.6,102.8z"/>
			<path class="st0" d="M103.6,102.9c0,0.1,0,0.1,0,0.2c0,0,0,0,0,0C103.6,103,103.6,102.9,103.6,102.9z"/>
			<path class="st0" d="M102,104.5c0.8,0,1.5-0.6,1.5-1.4c-0.1,1.8-0.5,3.5-1.2,5c0.3-0.7-0.1-1.6-0.8-1.9c-0.8-0.3-1.7,0-2,0.7
				c-0.4,0.8-0.8,1.5-1.3,2.1c1.1-1.4,1.8-3.1,2.1-4.9c0.2-0.1,0.3-0.2,0.4-0.3C101.1,104.2,101.5,104.5,102,104.5
				C102,104.5,102,104.5,102,104.5z"/>
			<path class="st0" d="M103.1,25.6L103.1,25.6c-1.3,0.7-2.7,1.2-4.3,1.5C100.4,26.8,101.8,26.3,103.1,25.6z"/>
			<path class="st0" d="M102.4,25.1l0.7,0.5c-1.3,0.7-2.8,1.2-4.3,1.5c-0.1,0-0.2,0-0.2,0c-0.2,0-0.3,0-0.5,0.1c-0.1,0-0.1,0-0.2,0
				c0,0,0,0,0,0c0.1,0,0.3-0.1,0.4-0.1c1.5-0.6,2.7-2,3.4-3.5C101.6,24.1,101.9,24.7,102.4,25.1z"/>
			<path class="st0" d="M102,22.7c0.4-0.3,0.9-0.6,1.3-0.9C102.9,22.2,102.5,22.5,102,22.7C102,22.7,102,22.7,102,22.7z"/>
			<path class="st0" d="M101.6,106.1c0.7,0.3,1.1,1.2,0.8,1.9c0,0,0,0,0,0c-0.7,1.6-1.8,3-3,4.3c-0.1,0.1-0.2,0.1-0.2,0.2
				c0,0-0.1,0.1-0.1,0.1c0,0-0.1-0.1-0.1-0.1l-0.1-0.1c-0.1-0.1-0.2-0.1-0.2-0.2c0,0,0,0,0,0l-0.1,0c-0.1-0.1-0.1-0.1-0.2-0.2
				l-0.4-0.3c-0.1,0-0.1-0.1-0.2-0.1l-0.4-0.3c-0.7-0.5-1.6-0.3-2.1,0.4c0-0.1,0-0.1,0.1-0.2c0.6-0.4,1.2-0.8,1.7-1.2c0,0,0,0,0.1,0
				c0.1-0.1,0.1-0.1,0.2-0.2c0.1-0.1,0.2-0.2,0.4-0.4c0.2-0.2,0.5-0.5,0.7-0.8c0.5-0.6,0.9-1.4,1.3-2.1
				C99.9,106.1,100.8,105.8,101.6,106.1z"/>
			<path class="st0" d="M102.4,108.1C102.4,108.1,102.3,108.1,102.4,108.1c-0.8,1.7-1.8,3.1-3,4.3
				C100.6,111.1,101.6,109.7,102.4,108.1z"/>
			<path class="st0" d="M102.3,20.3c0,0.8-0.1,1.6-0.3,2.4c-1.2,0.7-2.5,1.1-3.8,1.3c-0.1,0-0.3,0-0.4,0c-0.1,0-0.3,0-0.4,0
				c0,0-0.1,0-0.1,0c1.2-0.6,2.1-2.2,2-3.7c0-0.5-0.1-0.9-0.2-1.2c0.2,0.4,0.5,0.7,1,0.9c0.1,0,0.3,0,0.4,0c0.7,0,1.3-0.5,1.5-1.1
				c0,0,0-0.2,0.1-0.4C102.2,19.2,102.3,19.7,102.3,20.3z"/>
			<path class="st0" d="M102,22.7C102,22.7,102,22.7,102,22.7c-1.2,0.7-2.4,1.2-3.8,1.3C99.6,23.9,100.9,23.4,102,22.7z"/>
			<path class="st0" d="M102,22.7c0,0.1,0,0.1-0.1,0.2c0,0,0,0,0,0c-0.1,0.2-0.2,0.4-0.2,0.6c-0.7,1.6-1.9,2.9-3.4,3.5
				c-0.1,0.1-0.3,0.1-0.4,0.1c0,0,0,0,0,0c0,0-0.1,0-0.1,0c0,0,0,0-0.1,0c-0.6,0-1.1-0.3-1.4-0.9c-0.3-0.8,0-1.7,0.8-2
				c0.1,0,0.1-0.1,0.2-0.1c0,0,0.1,0,0.1,0c0.1,0,0.3,0,0.4,0c0.1,0,0.3,0,0.4,0C99.6,23.9,100.9,23.4,102,22.7z"/>
			<path class="st0" d="M102.1,18.7c-0.1,0.2-0.1,0.4-0.1,0.4c-0.2,0.7-0.8,1.1-1.5,1.1c-0.1,0-0.3,0-0.4,0c-0.5-0.1-0.8-0.4-1-0.9
				c0,0,0,0,0,0c0,0,0-0.1-0.1-0.1c0,0,0,0,0,0c-0.1-0.3-0.1-0.6,0-0.8c0-0.1,0.3-1.1,1.1-2.3C101,16.4,101.7,17.4,102.1,18.7z"/>
			<path class="st0" d="M101.9,23C101.9,23,101.9,23,101.9,23c-0.1,0.2-0.1,0.4-0.2,0.6C101.7,23.3,101.8,23.1,101.9,23z"/>
			<path class="st0" d="M101.3,67.7v0.9c0,0.8-0.7,1.5-1.5,1.5c-0.3,0-0.5-0.1-0.7-0.2c-0.5-0.3-0.8-0.8-0.8-1.3v-2.5L101.3,67.7z"
				/>
			<path class="st0" d="M101.3,45.8v21.9l-3-1.6V45.8c0-0.8,0.7-1.5,1.5-1.5C100.7,44.3,101.3,45,101.3,45.8z"/>
			<path class="st0" d="M101.2,102.6c0,0.5-0.1,0.9-0.4,1.2c-0.2-0.3-0.3-0.6-0.3-0.9c0-0.1,0-0.1,0-0.2c0-0.1,0-0.2,0-0.3
				c0-0.3,0-0.7,0-1C100.9,101.7,101.2,102.1,101.2,102.6z"/>
			<path class="st0" d="M100.5,102.5c0,0.1,0,0.2,0,0.3c0,0.5-0.1,0.9-0.1,1.4c-0.2,0.1-0.3,0.1-0.5,0.2c-2.9,0.2-4.1,2.4-4.5,3.3
				c-0.4-1.3-1.1-2.2-2-2.6c1-1.5,2.9-3.4,6.2-3.6c0.3,0,0.6,0,0.9,0.2C100.5,101.8,100.5,102.1,100.5,102.5z"/>
			<path class="st0" d="M100.5,102.7c0-0.1,0-0.2,0-0.3C100.5,102.6,100.5,102.7,100.5,102.7z"/>
			<path class="st0" d="M100.5,102.9c0,0.4,0.1,0.7,0.3,0.9c-0.1,0.1-0.3,0.2-0.4,0.3c0.1-0.5,0.1-0.9,0.1-1.4
				C100.5,102.8,100.5,102.9,100.5,102.9z"/>
			<path class="st0" d="M99.1,112.6c0.1-0.1,0.2-0.1,0.2-0.2C99.3,112.4,99.2,112.5,99.1,112.6z"/>
			<path class="st0" d="M98.9,15.8c0.4,0,0.8,0.1,1.1,0.2c-0.8,1.2-1,2.2-1.1,2.3c-0.1,0.3-0.1,0.6,0,0.8c-0.1-0.1-0.1-0.2-0.2-0.3
				c-0.8,0-2.3-0.3-5.7-2.7c-0.6-0.4-1.2-0.5-1.9-0.4c-0.3,0.1-0.8,0.3-1.3,0.4c-0.8,0.3-1.6,0.7-2.5,0.7c-0.1,0.4-0.1,1.2,0,1.9
				c-0.8-1.4-1.3-3-1.4-4.7c0.4-0.2,0.8-0.3,1.2-0.3c0.3,0,1-0.3,1.5-0.5c0.6-0.3,1.3-0.5,2-0.6c1.4-0.2,2.9,0.1,4.1,0.9
				C97.3,15.3,98.6,15.8,98.9,15.8z"/>
			<path class="st0" d="M99.1,70l-13.9-7.3c0.2,0.1,0.5,0.2,0.7,0.2c0.8,0,1.5-0.7,1.5-1.5v-0.9l10.8,5.7v2.5
				C98.3,69.2,98.6,69.7,99.1,70z"/>
			<path class="st0" d="M99,19.2c0,0,0,0.1,0.1,0.1C99.1,19.2,99.1,19.2,99,19.2z"/>
			<path class="st0" d="M98.9,112.5c0,0,0.1,0.1,0.1,0.1c-0.1,0.1-0.2,0.2-0.3,0.3c-0.1,0.1-0.1,0.1-0.2,0.2c0,0,0,0,0,0
				c-0.1,0.1-0.2,0.2-0.4,0.3c0,0,0,0,0,0c-0.5,0.4-1.1,0.8-1.7,1.1l-0.8-0.5c-0.5-0.3-0.8-0.9-0.7-1.5c0.1-0.2,0.2-0.4,0.2-0.6
				c0.5-0.7,1.4-0.9,2.1-0.4l0.4,0.3c0.1,0,0.1,0.1,0.2,0.1l0.4,0.3c0.1,0.1,0.1,0.1,0.2,0.2l0.1,0c0,0,0,0,0,0
				C98.6,112.3,98.7,112.4,98.9,112.5L98.9,112.5z"/>
			<path class="st0" d="M98.6,27.1c0.1,0,0.2,0,0.2,0C98.8,27.1,98.7,27.1,98.6,27.1z"/>
			<path class="st0" d="M98.7,112.9c0.1-0.1,0.2-0.2,0.3-0.3C98.9,112.7,98.8,112.8,98.7,112.9z"/>
			<path class="st0" d="M98.5,113.1c0.1-0.1,0.1-0.1,0.2-0.2C98.6,113,98.6,113,98.5,113.1z"/>
			<path class="st0" d="M98.1,113.4c0.1-0.1,0.2-0.2,0.4-0.3C98.3,113.2,98.2,113.3,98.1,113.4z"/>
			<path class="st0" d="M98.6,27.1c-0.2,0-0.3,0-0.5,0.1C98.3,27.1,98.5,27.1,98.6,27.1z"/>
			<path class="st0" d="M97.8,24.1c0.1,0,0.3,0,0.4,0C98.1,24.1,97.9,24.1,97.8,24.1z"/>
			<path class="st0" d="M97.9,27.2c0.1,0,0.1,0,0.2,0C98.1,27.2,98,27.2,97.9,27.2z"/>
			<path class="st0" d="M97.9,27.2C97.9,27.2,97.9,27.2,97.9,27.2C97.9,27.2,97.9,27.2,97.9,27.2z"/>
			<path class="st0" d="M97.4,24.2c0.1,0,0.3,0,0.4,0C97.7,24.1,97.6,24.2,97.4,24.2z"/>
			<path class="st0" d="M97.6,109.8c0.2-0.2,0.5-0.5,0.7-0.8C98.1,109.3,97.8,109.5,97.6,109.8z"/>
			<path class="st0" d="M97.8,27.2c-0.1,0-0.3,0-0.4,0c-0.1,0-0.2,0-0.3,0c-0.1,0-0.3,0-0.4,0c-2.4,0-4.7-0.6-6.7-1.8
				c0.2-0.1,0.5-0.3,0.7-0.4c0.7-0.4,1-1.3,0.7-2c-0.1-0.3-0.3-0.5-0.6-0.6l0,0c1.7,1.1,3.7,1.8,5.9,1.8c0.1,0,0.2,0,0.3,0
				c0.1,0,0.1,0,0.2,0c0.1,0,0.1,0,0.2,0c-0.1,0-0.1,0.1-0.2,0.1c-0.8,0.3-1.1,1.2-0.8,2C96.6,26.8,97.1,27.2,97.8,27.2
				C97.7,27.2,97.8,27.2,97.8,27.2z"/>
			<path class="st0" d="M96.4,114.5c0.6-0.3,1.1-0.7,1.7-1.1C97.6,113.8,97,114.1,96.4,114.5L96.4,114.5z"/>
			<path class="st0" d="M97.2,110.1c0.1-0.1,0.2-0.2,0.4-0.4C97.5,109.9,97.4,110,97.2,110.1z"/>
			<path class="st0" d="M97.4,24.2c0,0-0.1,0-0.1,0c0,0,0,0,0,0C97.4,24.2,97.4,24.2,97.4,24.2z"/>
			<path class="st0" d="M97,27.2c0.1,0,0.2,0,0.3,0C97.3,27.2,97.2,27.2,97,27.2z"/>
			<path class="st0" d="M97.2,24.2c0.1,0,0.1,0,0.2,0C97.3,24.2,97.2,24.2,97.2,24.2z"/>
			<path class="st0" d="M97.1,110.3c0.1-0.1,0.1-0.1,0.2-0.2C97.2,110.2,97.1,110.3,97.1,110.3z"/>
			<path class="st0" d="M97,24.2c0.1,0,0.1,0,0.2,0C97.1,24.2,97,24.2,97,24.2z"/>
			<path class="st0" d="M96.4,114.5L96.4,114.5c-1.3,0.7-2.7,1.2-4.3,1.5C93.7,115.7,95.1,115.2,96.4,114.5z"/>
			<path class="st0" d="M95.7,113.9l0.8,0.5c-1.3,0.7-2.8,1.2-4.3,1.5c-0.1,0-0.2,0-0.2,0c-0.2,0-0.3,0-0.5,0.1c-0.1,0-0.1,0-0.2,0
				c0,0,0,0-0.1,0c0.1,0,0.3-0.1,0.4-0.1c1.5-0.6,2.7-2,3.4-3.5C94.9,113,95.1,113.6,95.7,113.9z"/>
			<path class="st0" d="M95.3,111.6c0.6-0.4,1.2-0.8,1.7-1.2C96.5,110.8,95.9,111.2,95.3,111.6C95.3,111.6,95.3,111.6,95.3,111.6z"
				/>
			<path class="st0" d="M95.6,109.2c0,0.8-0.1,1.6-0.3,2.4c-1.2,0.7-2.5,1.1-3.8,1.3c-0.1,0-0.3,0-0.4,0c-0.1,0-0.3,0-0.4,0
				c0,0-0.1,0-0.1,0c1.2-0.6,2.1-2.2,2-3.7c0-0.5-0.1-0.9-0.2-1.2c0.2,0.4,0.5,0.8,1,0.9c0.1,0,0.3,0,0.4,0c0.7,0,1.3-0.5,1.5-1.1
				c0,0,0-0.2,0.1-0.4C95.5,108,95.6,108.6,95.6,109.2z"/>
			<path class="st0" d="M95.3,111.6C95.3,111.6,95.3,111.6,95.3,111.6c-1.2,0.7-2.4,1.2-3.8,1.3C92.8,112.7,94.1,112.3,95.3,111.6z"
				/>
			<path class="st0" d="M95.3,111.6c0,0.1,0,0.1-0.1,0.2c0,0,0,0,0,0c-0.1,0.2-0.2,0.4-0.2,0.6c-0.7,1.6-1.9,2.9-3.4,3.5
				c-0.1,0.1-0.3,0.1-0.4,0.1c0,0,0,0-0.1,0c0,0-0.1,0-0.1,0c-0.6,0-1.1-0.3-1.4-0.9c-0.3-0.8,0-1.7,0.8-2c0.1,0,0.1-0.1,0.2-0.1
				c0,0,0.1,0,0.1,0c0.1,0,0.3,0,0.4,0c0.1,0,0.3,0,0.4,0C92.9,112.7,94.1,112.3,95.3,111.6z"/>
			<path class="st0" d="M95.4,107.5c-0.1,0.2-0.1,0.4-0.1,0.4c-0.2,0.7-0.8,1.1-1.5,1.1c-0.1,0-0.3,0-0.4,0c-0.5-0.1-0.9-0.5-1-0.9
				c0,0,0,0,0-0.1c-0.1-0.3-0.1-0.6,0-0.9c0-0.1,0.3-1.1,1.1-2.3C94.3,105.3,95,106.2,95.4,107.5z"/>
			<path class="st0" d="M95.2,111.8C95.2,111.8,95.2,111.8,95.2,111.8c-0.1,0.2-0.1,0.4-0.2,0.6C95,112.2,95.1,112,95.2,111.8z"/>
			<path class="st0" d="M94.6,156.6v0.9c0,0.8-0.7,1.5-1.5,1.5c-0.3,0-0.5-0.1-0.7-0.2c-0.5-0.3-0.8-0.8-0.8-1.3V155L94.6,156.6z"/>
			<path class="st0" d="M94.6,134.7v21.9l-3-1.6v-20.3c0-0.8,0.7-1.5,1.5-1.5S94.6,133.8,94.6,134.7z"/>
			<path class="st0" d="M92.2,104.7c0.4,0,0.8,0.1,1.1,0.2c-0.8,1.2-1,2.2-1.1,2.3c-0.1,0.3-0.1,0.6,0,0.9c-0.1-0.1-0.1-0.3-0.2-0.3
				c-0.8,0-2.3-0.3-5.7-2.7c-0.6-0.4-1.2-0.5-1.9-0.4c-0.3,0.1-0.8,0.3-1.3,0.4c-0.8,0.3-1.6,0.7-2.5,0.7c-0.1,0.4-0.1,1.2,0,1.9
				c-0.8-1.4-1.3-3-1.4-4.7c0.4-0.2,0.8-0.3,1.2-0.3c0.3,0,1-0.3,1.5-0.5c0.6-0.3,1.3-0.5,2-0.6c1.4-0.2,2.9,0.1,4.1,0.9
				C90.6,104.2,91.9,104.7,92.2,104.7z"/>
			<path class="st0" d="M92.4,158.8l-13.9-7.4c0.2,0.1,0.5,0.2,0.7,0.2c0.8,0,1.5-0.7,1.5-1.5v-0.9l10.8,5.7v2.5
				C91.6,158.1,91.9,158.6,92.4,158.8z"/>
			<path class="st0" d="M91.9,115.9c0.1,0,0.2,0,0.2,0C92.1,115.9,92,115.9,91.9,115.9z"/>
			<path class="st0" d="M91.9,115.9c-0.2,0-0.3,0-0.5,0.1C91.6,116,91.8,116,91.9,115.9z"/>
			<path class="st0" d="M91.1,113c0.1,0,0.3,0,0.4,0C91.4,113,91.2,113,91.1,113z"/>
			<path class="st0" d="M91.2,116c0.1,0,0.1,0,0.2,0C91.4,116,91.3,116,91.2,116z"/>
			<path class="st0" d="M91.3,23c0.4,0.7,0.1,1.7-0.7,2c-0.2,0.1-0.5,0.3-0.7,0.4c-0.9-0.5-1.8-1.2-2.6-1.9c0.6-0.4,1.3-0.8,2-1.2
				c0.5-0.2,1-0.2,1.5,0.1C91,22.5,91.2,22.8,91.3,23z"/>
			<path class="st0" d="M91.1,116c-0.2,0-0.3,0-0.5,0c-0.1,0-0.2,0-0.3,0c-0.1,0-0.3,0-0.4,0c-2.4,0-4.7-0.6-6.7-1.8
				c0.2-0.1,0.5-0.3,0.7-0.4c0.7-0.4,1-1.3,0.7-2c-0.1-0.2-0.3-0.4-0.5-0.6l0,0c1.7,1.1,3.7,1.7,5.8,1.7c0.1,0,0.2,0,0.3,0
				c0.1,0,0.1,0,0.2,0c0.1,0,0.1,0,0.2,0c-0.1,0-0.1,0.1-0.2,0.1c-0.8,0.3-1.1,1.2-0.8,2c0.2,0.6,0.8,0.9,1.4,0.9
				C91,116,91.1,116,91.1,116z"/>
			<path class="st0" d="M90.7,113c0.1,0,0.3,0,0.4,0C91,113,90.8,113,90.7,113z"/>
			<path class="st0" d="M90.8,22.4L90.8,22.4c-0.4-0.3-1-0.3-1.5,0c-0.7,0.3-1.3,0.7-2,1.2c-1-1-1.9-2.1-2.6-3.3
				c0.3,0.5,1,0.8,1.6,0.6c0.8-0.2,1.3-1,1.1-1.8c0-0.1,0-0.1,0-0.2C88.3,20.2,89.4,21.5,90.8,22.4z"/>
			<path class="st0" d="M90.7,113c0,0-0.1,0-0.1,0c0,0,0,0,0,0C90.6,113,90.7,113,90.7,113z"/>
			<path class="st0" d="M90.3,116.1c0.1,0,0.2,0,0.3,0C90.5,116.1,90.4,116.1,90.3,116.1z"/>
			<path class="st0" d="M90.4,113c0.1,0,0.1,0,0.2,0C90.5,113,90.5,113,90.4,113z"/>
			<path class="st0" d="M90.2,113.1c0.1,0,0.1,0,0.2,0C90.4,113,90.3,113.1,90.2,113.1z"/>
			<path class="st0" d="M90,25.5c-1.8,1.1-3.6,2.6-4.4,3.5c0,0,0,0-0.1,0.1c-0.7,0.7-2.5,2.9-2.5,4.9l-0.1,24l1.5,0.8v2.5
				c0,0.6,0.3,1.1,0.8,1.3l-4.5-2.4c-0.5-0.3-0.8-0.8-0.8-1.3L80,33.9c0-3.6,3-6.7,3.4-7.1c0.8-0.8,2.3-2.2,4-3.3
				C88.1,24.3,89,24.9,90,25.5z"/>
			<path class="st0" d="M87.5,19c0.2,0.8-0.3,1.6-1.1,1.8c-0.6,0.1-1.3-0.1-1.6-0.6c0-0.1-0.1-0.1-0.1-0.2c0,0,0,0,0,0
				c0-0.1-0.1-0.2-0.1-0.3c-0.7-2.9,0.2-4.4,0.5-4.8c0.3-0.3,0.6-0.6,1-0.8c0.1,1.7,0.6,3.3,1.4,4.7C87.5,18.9,87.5,19,87.5,19z"/>
			<path class="st0" d="M87.5,60.4v0.9c0,0.8-0.7,1.5-1.5,1.5c-0.3,0-0.5-0.1-0.7-0.2c0,0,0,0,0,0c-0.5-0.3-0.8-0.8-0.8-1.3v-2.5
				L87.5,60.4z"/>
			<path class="st0" d="M87.5,37.8v22.6l-3-1.6v-21c0-0.8,0.7-1.5,1.5-1.5C86.8,36.3,87.5,36.9,87.5,37.8z"/>
			<path class="st0" d="M84.6,20c0,0.1,0.1,0.1,0.1,0.2C84.7,20.1,84.7,20.1,84.6,20z"/>
			<path class="st0" d="M84.6,111.9c0.4,0.7,0.1,1.7-0.7,2c-0.2,0.1-0.5,0.3-0.7,0.4c-0.9-0.5-1.8-1.2-2.6-1.9
				c0.6-0.4,1.3-0.8,2-1.2c0.5-0.3,1.1-0.2,1.6,0.1C84.3,111.5,84.5,111.7,84.6,111.9z"/>
			<path class="st0" d="M84.1,111.3L84.1,111.3c-0.4-0.3-1-0.4-1.6-0.1c-0.7,0.3-1.3,0.7-2,1.2c-1-1-1.9-2.1-2.6-3.3
				c0.3,0.5,1,0.8,1.6,0.7c0.8-0.2,1.3-1,1.1-1.8c0-0.1,0-0.1,0-0.2C81.6,109.1,82.7,110.4,84.1,111.3z"/>
			<path class="st0" d="M83.2,114.3c-1.8,1.1-3.6,2.6-4.4,3.5c0,0,0,0-0.1,0.1c-0.7,0.7-2.5,2.9-2.5,4.9l-0.1,24l1.5,0.8v2.5
				c0,0.6,0.3,1.1,0.8,1.3l-4.5-2.4c-0.5-0.3-0.8-0.8-0.8-1.3l0-6c0.2-0.1,0.3-0.3,0.4-0.5c0.4-0.7,0.2-1.5-0.4-2l0.1-16.5
				c0-3.6,3-6.7,3.4-7.1c0.8-0.8,2.3-2.2,4-3.3C81.4,113.1,82.3,113.8,83.2,114.3z"/>
			<path class="st0" d="M80.8,107.9c0.2,0.8-0.3,1.6-1.1,1.8c-0.6,0.1-1.3-0.1-1.6-0.7c0,0,0,0,0,0c0-0.1-0.1-0.1-0.1-0.2
				c0,0,0,0,0,0c0-0.1-0.1-0.2-0.1-0.3c-0.7-2.9,0.2-4.4,0.5-4.8c0.3-0.3,0.6-0.6,1-0.8c0.1,1.7,0.6,3.3,1.4,4.7
				C80.7,107.7,80.8,107.8,80.8,107.9z"/>
			<path class="st0" d="M80.7,149.2v0.9c0,0.8-0.7,1.5-1.5,1.5c-0.3,0-0.5-0.1-0.7-0.2c-0.5-0.3-0.8-0.8-0.8-1.3v-2.5L80.7,149.2z"
				/>
			<path class="st0" d="M80.7,126.6v22.6l-3-1.6v-21c0-0.8,0.7-1.5,1.5-1.5C80.1,125.1,80.7,125.8,80.7,126.6z"/>
			<path class="st0" d="M77.9,108.8c0,0.1,0.1,0.1,0.1,0.2C78,109,77.9,108.9,77.9,108.8z"/>
			<path class="st0" d="M73.2,139.2c0.6,0.5,0.8,1.3,0.4,2c-0.1,0.2-0.3,0.4-0.4,0.5L73.2,139.2z"/>
			<path class="st0" d="M29,78.7L29,78.7c-0.1-0.2-0.2-0.3-0.2-0.4l-0.3-0.6c-0.1-0.1-0.1-0.2-0.2-0.3l0,0C28.1,77.2,28,77.1,28,77
				l-0.1-0.1c0,0,0,0,0,0l-0.7-1c-0.1-0.1-0.2-0.2-0.3-0.3l-0.1-0.1c-0.1-0.1-0.2-0.2-0.3-0.4c0,0,0,0,0,0c-0.1-0.1-0.1-0.2-0.2-0.2
				l-0.1-0.1c0-0.1-0.1-0.1-0.1-0.2l0-0.1c-0.1-0.1-0.2-0.3-0.3-0.4c0,0,0,0,0,0c-0.1-0.1-0.2-0.2-0.3-0.4c0,0,0,0,0,0c0,0,0,0,0,0
				c-0.1-0.1-0.2-0.2-0.3-0.3l0,0c0,0,0,0,0,0c-0.1-0.1-0.2-0.2-0.3-0.3c0,0,0,0,0,0l0,0c-0.1-0.1-0.2-0.2-0.4-0.3c0,0,0,0,0,0
				l-0.4-0.3c0,0,0,0,0,0c0,0-0.1-0.1-0.1-0.1l-0.1-0.1c-0.1-0.1-0.1-0.1-0.2-0.2c0,0,0,0,0,0l0,0c-0.1,0-0.1-0.1-0.2-0.1l0,0
				c0.6-0.3,1.1-0.7,1.7-1.1h0c0.1-0.1,0.2-0.2,0.3-0.3c0.1-0.1,0.2-0.1,0.3-0.2c0.1,0,0.1-0.1,0.2-0.1c0.1,0,0.1-0.1,0.2-0.1
				c0,0,0,0,0,0c0,0,0,0,0,0l0.1,0.1c0,0,0.1,0.1,0.2,0.1l0.2,0.2c0,0,0,0,0,0c0.1,0.1,0.3,0.2,0.4,0.4l0,0c0,0,0,0,0,0c0,0,0,0,0,0
				c0.1,0.1,0.3,0.2,0.4,0.4l0.1,0.1c0.1,0.1,0.2,0.2,0.4,0.4c0,0,0,0,0,0l0,0c0,0,0,0,0,0v0l0,0c0.1,0.1,0.2,0.3,0.4,0.4
				c0,0,0,0,0,0c0,0,0,0,0,0c0.1,0.1,0.3,0.3,0.4,0.4c0,0,0,0,0,0c0,0,0,0,0,0c0.1,0.1,0.1,0.1,0.2,0.2l0.1,0.1
				c0.1,0.1,0.2,0.2,0.2,0.3c0,0,0,0,0,0c0.1,0.1,0.2,0.3,0.3,0.4l0.1,0.1c0.1,0.1,0.2,0.3,0.3,0.4l0.7,1l0.2,0.3
				c0.1,0.1,0.1,0.2,0.2,0.3l0,0.1c0.1,0.1,0.2,0.3,0.2,0.4l0.4,0.7c0.1,0.2,0.2,0.3,0.2,0.5c0,0,0,0,0,0l0,0c0,0,0,0,0,0l0,0
				c0.1,0.1,0.1,0.3,0.2,0.4l0,0.1c0,0,0,0,0,0c0.1,0.1,0.1,0.3,0.2,0.4l0,0.1c0.1,0.1,0.1,0.3,0.2,0.4l0,0c0,0,0,0,0,0l0,0
				c0,0,0,0,0,0c0.1,0.1,0.1,0.3,0.2,0.4l0,0.1c0.1,0.2,0.1,0.3,0.2,0.5c0,0,0,0,0,0c0,0,0,0,0,0c0,0,0,0,0,0c0,0,0,0,0,0
				c0.1,0.1,0.1,0.3,0.2,0.5l0,0.1c0.1,0.2,0.1,0.3,0.1,0.5c0,0,0,0,0,0l0,0.1c0,0.1,0.1,0.3,0.1,0.5c0,0,0,0,0,0c0,0,0,0,0,0l0,0
				c0,0.1,0.1,0.3,0.1,0.4c0,0,0,0,0,0.1c0,0,0,0,0,0c0,0.2,0.1,0.3,0.1,0.5l0,0.1c0,0.2,0.1,0.3,0.1,0.5c0,0,0,0,0,0s0,0,0,0
				c0,0,0,0,0,0c0,0,0,0,0,0c0,0.2,0,0.3,0.1,0.4l0,0c0,0,0,0,0,0.1c0,0.1,0,0.3,0.1,0.4l0,0.1c0,0.1,0,0.3,0,0.4c0,0,0,0,0,0v0
				c0,0,0,0,0,0c0,0.1,0,0.3,0,0.4c0,0,0,0,0,0.1c0,0,0,0,0,0.1c0,0.1,0,0.3,0,0.4l-0.1,24.9c0,0.6-0.3,1.1-0.8,1.3l-10.3,5.5
				c-0.2,0.1-0.5,0.2-0.7,0.2c-0.2,0-0.5-0.1-0.7-0.2l-2-1.1c0.2,0.1,0.5,0.2,0.7,0.2c0.8,0,1.5-0.7,1.5-1.5v-0.9l0.5,0.3l8.7-4.7
				l0.1-24c0-0.1,0-0.2,0-0.3c0,0,0,0,0,0c0,0,0,0,0-0.1c0-0.1,0-0.2,0-0.3c0,0,0,0,0,0l0,0c0-0.1,0-0.2,0-0.3l0-0.1
				c0-0.1,0-0.2,0-0.3c0,0,0,0,0,0l0,0c0-0.1,0-0.2-0.1-0.4c0,0,0,0,0,0c0,0,0,0,0,0c0-0.1,0-0.2-0.1-0.4l0-0.1
				c0-0.1-0.1-0.3-0.1-0.4c0,0,0,0,0,0l0,0c0-0.1-0.1-0.3-0.1-0.4c0,0,0,0,0,0c0-0.1-0.1-0.3-0.1-0.4l0-0.1c0-0.1-0.1-0.2-0.1-0.4
				c0,0,0,0,0,0l0-0.1c0-0.1-0.1-0.3-0.1-0.4c0,0,0,0,0,0c0,0,0,0,0,0c0-0.1-0.1-0.3-0.1-0.4l0-0.1c0-0.1-0.1-0.2-0.1-0.4
				c0,0,0,0,0,0l0,0c0-0.1-0.1-0.2-0.1-0.3l0-0.1c-0.1-0.1-0.1-0.2-0.2-0.4c0,0,0,0,0,0l0,0C29.1,78.9,29,78.8,29,78.7L29,78.7z"/>
			<path class="st0" d="M30.4,59.8c0,0.1,0,0.2,0,0.3c0,0,0,0,0,0c0,0.1,0,0.1,0,0.2c0,0.8-0.8,1.5-1.6,1.4c-0.5,0-0.9-0.3-1.2-0.6
				c0.3-0.3,0.5-0.7,0.4-1.2c0-0.5-0.3-1-0.8-1.2c-0.5-5.4-5-9.6-10.5-9.6c-5.8,0-10.6,4.7-10.6,10.6c0,0.2,0,0.3,0,0.5
				c-0.4,0.2-0.7,0.4-1,0.8C4.9,61.5,4,63,4.6,65.9c0,0.1,0.1,0.2,0.1,0.3c-1-1.9-1.6-4.1-1.6-6.4c0-7.5,6.1-13.6,13.6-13.6
				C24.3,46.2,30.4,52.3,30.4,59.8z"/>
			<path class="st0" d="M30.4,60.2c0-0.1,0-0.2,0-0.3C30.4,59.9,30.4,60,30.4,60.2z"/>
			<path class="st0" d="M30.4,60.4c0-0.1,0-0.1,0-0.2C30.4,60.3,30.4,60.3,30.4,60.4C30.4,60.4,30.4,60.4,30.4,60.4z"/>
			<path class="st0" d="M30.4,60.4c-0.1,1.8-0.5,3.5-1.2,5c0.3-0.7-0.1-1.6-0.8-1.9c-0.8-0.4-1.7,0-2,0.7c-0.4,0.8-0.8,1.5-1.3,2.1
				c1.1-1.4,1.8-3.1,2.1-4.9c0.2-0.1,0.3-0.2,0.4-0.3c0.3,0.4,0.7,0.6,1.2,0.6C29.6,61.9,30.3,61.2,30.4,60.4z"/>
			<path class="st0" d="M28.4,63.5c0.7,0.3,1.1,1.2,0.8,1.9c0,0,0,0,0,0c-0.2,0.4-0.4,0.8-0.6,1.2c-0.5,0.9-1.1,1.7-1.7,2.4
				c-0.1,0.1-0.1,0.2-0.2,0.2c-0.1,0.1-0.1,0.2-0.2,0.2c-0.1,0.1-0.1,0.1-0.2,0.2c0,0,0,0,0,0c-0.1,0.1-0.1,0.1-0.2,0.2
				c0,0-0.1,0.1-0.1,0.1c-0.1,0-0.1-0.1-0.2-0.1l-0.1-0.1c-0.1-0.1-0.2-0.1-0.2-0.2c0,0,0,0,0,0l-0.1,0c-0.1-0.1-0.1-0.1-0.2-0.2
				l-1-0.7c-0.7-0.5-1.6-0.3-2.1,0.4c0-0.1,0.1-0.1,0.1-0.2c0.6-0.3,1.1-0.7,1.6-1.1c0.1-0.1,0.1-0.1,0.2-0.2
				c0.1-0.1,0.1-0.1,0.2-0.2c0.1-0.1,0.1-0.1,0.2-0.2c0.1-0.1,0.1-0.1,0.2-0.2c0.2-0.2,0.5-0.5,0.7-0.8c0.5-0.6,0.9-1.4,1.3-2.1
				C26.7,63.5,27.6,63.1,28.4,63.5z"/>
			<path class="st0" d="M29.2,65.4C29.2,65.4,29.2,65.5,29.2,65.4c-0.2,0.5-0.4,0.8-0.6,1.2C28.8,66.2,29,65.8,29.2,65.4z"/>
			<path class="st0" d="M28.1,60c0,0.5-0.1,0.9-0.4,1.2c-0.2-0.3-0.3-0.6-0.3-0.9c0-0.1,0-0.1,0-0.2c0-0.1,0-0.2,0-0.3
				c0-0.3,0-0.7,0-1C27.7,59,28,59.5,28.1,60z"/>
			<path class="st0" d="M27.4,59.8c0,0.1,0,0.2,0,0.3c0,0.5-0.1,0.9-0.1,1.4c-0.2,0.1-0.4,0.1-0.5,0.2c-2.9,0.2-4.1,2.4-4.5,3.2
				c-0.4-1.3-1.1-2.2-2-2.6c1-1.5,2.9-3.4,6.2-3.6c0.3,0,0.6,0,0.9,0.2C27.3,59.1,27.4,59.5,27.4,59.8z"/>
			<path class="st0" d="M27.4,60.1c0-0.1,0-0.2,0-0.3C27.4,59.9,27.4,60,27.4,60.1z"/>
			<path class="st0" d="M27.3,60.2c0,0.4,0.1,0.7,0.3,0.9c-0.1,0.1-0.3,0.2-0.4,0.3c0.1-0.5,0.1-0.9,0.1-1.4
				C27.4,60.1,27.3,60.2,27.3,60.2z"/>
			<path class="st0" d="M26.8,69c0.7-0.7,1.2-1.5,1.7-2.4C28.1,67.5,27.5,68.3,26.8,69z"/>
			<path class="st0" d="M26.6,69.2c0.1-0.1,0.1-0.2,0.2-0.2C26.8,69.1,26.7,69.1,26.6,69.2z"/>
			<path class="st0" d="M26.2,69.7c0.1-0.1,0.1-0.1,0.2-0.2C26.3,69.5,26.3,69.6,26.2,69.7z"/>
			<path class="st0" d="M25.9,69.9c0.1-0.1,0.1-0.1,0.2-0.2C26.1,69.8,26,69.8,25.9,69.9z"/>
			<path class="st0" d="M25.7,69.9c0.1,0,0.1,0.1,0.2,0.1c-0.1,0-0.1,0.1-0.2,0.1c-0.1,0-0.1,0.1-0.2,0.1c-0.1,0.1-0.2,0.1-0.3,0.2
				c-0.1,0.1-0.2,0.2-0.3,0.3h0c-0.5,0.4-1.1,0.8-1.7,1.1l-0.7-0.5c-0.5-0.3-0.8-0.9-0.7-1.5c0.1-0.2,0.2-0.4,0.2-0.6
				c0.5-0.7,1.4-0.9,2.1-0.4l1,0.7c0.1,0.1,0.1,0.1,0.2,0.2l0.1,0c0,0,0,0,0,0C25.4,69.7,25.5,69.7,25.7,69.9L25.7,69.9z"/>
			<path class="st0" d="M25.5,70.3c0.1,0,0.1-0.1,0.2-0.1C25.6,70.2,25.6,70.2,25.5,70.3z"/>
			<path class="st0" d="M24.9,70.7c0.1-0.1,0.2-0.2,0.3-0.3C25.1,70.6,25,70.6,24.9,70.7z"/>
			<path class="st0" d="M24.4,67.1c0.2-0.2,0.5-0.5,0.7-0.8C24.9,66.6,24.7,66.9,24.4,67.1z"/>
			<path class="st0" d="M23.2,71.8c0.6-0.3,1.1-0.7,1.7-1.1C24.4,71.1,23.8,71.5,23.2,71.8L23.2,71.8z"/>
			<path class="st0" d="M24.1,67.5c0.1-0.1,0.1-0.1,0.2-0.2C24.2,67.4,24.1,67.4,24.1,67.5z"/>
			<path class="st0" d="M23.9,67.7c0.1-0.1,0.1-0.1,0.2-0.2C24,67.5,23.9,67.6,23.9,67.7z"/>
			<path class="st0" d="M23.2,71.8L23.2,71.8c-1.3,0.7-2.7,1.2-4.3,1.5C20.5,73,21.9,72.5,23.2,71.8z"/>
			<path class="st0" d="M22.5,71.3l0.7,0.5c-1.3,0.7-2.8,1.2-4.3,1.5c-0.1,0-0.2,0-0.2,0c-0.2,0-0.3,0-0.5,0.1c-0.1,0-0.1,0-0.2,0
				c0,0,0,0,0,0c0.1,0,0.3-0.1,0.4-0.1c1.5-0.6,2.7-2,3.4-3.5C21.7,70.3,22,70.9,22.5,71.3z"/>
			<path class="st0" d="M22.1,68.9c0.6-0.3,1.1-0.7,1.6-1.1C23.2,68.3,22.7,68.6,22.1,68.9C22.1,68.9,22.1,68.9,22.1,68.9z"/>
			<path class="st0" d="M22.5,66.5c0,0.8-0.1,1.6-0.3,2.4c-1.2,0.7-2.5,1.1-3.8,1.3c-0.1,0-0.3,0-0.4,0c-0.1,0-0.3,0-0.4,0
				c0,0-0.1,0-0.1,0c1.2-0.6,2.1-2.2,2-3.7c0-0.5-0.1-0.9-0.2-1.2c0.2,0.4,0.5,0.7,1,0.9c0.1,0,0.3,0,0.4,0c0.7,0,1.3-0.5,1.5-1.1
				c0,0,0-0.2,0.1-0.4C22.3,65.4,22.4,65.9,22.5,66.5z"/>
			<path class="st0" d="M22.2,64.9C22.2,64.9,22.2,64.9,22.2,64.9c-0.1,0.2-0.1,0.4-0.1,0.4c-0.2,0.7-0.8,1.1-1.5,1.1
				c-0.1,0-0.3,0-0.4,0c-0.5-0.1-0.8-0.5-1-0.9c0,0,0-0.1-0.1-0.1c-0.1-0.3-0.1-0.6,0-0.8c0-0.1,0.3-1.1,1.1-2.3
				C21.1,62.7,21.8,63.6,22.2,64.9z"/>
			<path class="st0" d="M22.1,68.9C22.1,68.9,22.1,68.9,22.1,68.9c-1.2,0.7-2.4,1.2-3.8,1.3C19.7,70.1,21,69.6,22.1,68.9z"/>
			<path class="st0" d="M22.1,69c0,0.1,0,0.1-0.1,0.2c0,0,0,0,0,0c-0.1,0.2-0.2,0.4-0.2,0.6c-0.7,1.6-1.9,2.9-3.4,3.5
				c-0.1,0.1-0.3,0.1-0.4,0.1c0,0,0,0,0,0c0,0,0,0-0.1,0c0,0,0,0-0.1,0c0,0,0,0-0.1,0c-0.6,0-1.1-0.3-1.4-0.9c-0.3-0.8,0-1.7,0.8-2
				c0.1,0,0.1-0.1,0.2-0.1c0,0,0.1,0,0.1,0c0.1,0,0.3,0,0.4,0c0.1,0,0.3,0,0.4,0C19.7,70.1,21,69.6,22.1,69z"/>
			<path class="st0" d="M22,69.2C22,69.2,22,69.2,22,69.2c-0.1,0.2-0.1,0.4-0.2,0.6C21.9,69.5,21.9,69.4,22,69.2z"/>
			<path class="st0" d="M21.4,113.9v0.9c0,0.8-0.7,1.5-1.5,1.5c-0.3,0-0.5-0.1-0.7-0.2c0,0,0,0,0,0c-0.5-0.3-0.8-0.8-0.8-1.3v-2.5
				L21.4,113.9z"/>
			<path class="st0" d="M21.4,92v21.9l-3-1.6V92c0-0.8,0.7-1.5,1.5-1.5S21.4,91.2,21.4,92z"/>
			<g>
				<g>
					<path class="st1" d="M173.3,61.4c0,0.4,0,0.8-0.2,1.2c0,0.1,0,0.1-0.1,0.2c0,0,0,0,0,0c-0.3,1-1,1.8-1.8,2.3c0,0,0,0,0,0
						c-0.1,0-0.1,0-0.2,0c-0.1,0-0.1,0-0.2,0c-0.1,0-0.2,0-0.3,0c-2.2,0-4.2-0.7-5.9-1.8c-1.4-0.9-2.5-2.2-3.3-3.6
						c-0.1-0.7-0.1-1.6,0-1.9c0.9,0,1.7-0.4,2.5-0.7c0.5-0.2,1-0.4,1.3-0.4c0.7-0.1,1.3,0,1.9,0.4c3.5,2.3,4.9,2.6,5.7,2.7
						c0.1,0.1,0.1,0.2,0.2,0.3c0,0,0,0,0,0c0,0,0,0.1,0.1,0.1l0,0C173.2,60.5,173.3,60.9,173.3,61.4z"/>
				</g>
				<g>
					<path class="st1" d="M162.9,105.9c0.4,0.7,0.2,1.7-0.6,2.1l-3.5,2c-0.2,0.1-0.5,0.2-0.8,0.2c-0.5,0-1-0.3-1.3-0.8
						c-0.4-0.7-0.2-1.7,0.6-2.1l3.5-2C161.5,105,162.5,105.2,162.9,105.9z"/>
				</g>
				<g>
					<path class="st1" d="M153.1,92.9c0.7,0.4,1,1.3,0.6,2.1c-0.3,0.5-0.8,0.8-1.3,0.8c-0.3,0-0.5-0.1-0.8-0.2l-1.8-1
						c-0.7-0.4-1-1.3-0.6-2.1c0.4-0.7,1.3-1,2.1-0.6L153.1,92.9z"/>
				</g>
				<g>
					<path class="st1" d="M152.4,112c0.4,0.7,0.2,1.7-0.6,2.1l-3.5,2c-0.2,0.1-0.5,0.2-0.8,0.2c-0.5,0-1-0.3-1.3-0.8
						c-0.4-0.7-0.2-1.7,0.6-2.1l3.5-2C151,111,152,111.3,152.4,112z"/>
				</g>
				<g>
					<path class="st1" d="M144.1,87.8c0.7,0.4,1,1.3,0.6,2.1c-0.3,0.5-0.8,0.8-1.3,0.8c-0.3,0-0.5-0.1-0.8-0.2l-3.6-2.1
						c-0.7-0.4-1-1.3-0.6-2.1c0.4-0.7,1.3-1,2.1-0.6L144.1,87.8z"/>
				</g>
				<g>
					<path class="st1" d="M141.9,118.1c0.4,0.7,0.2,1.7-0.6,2.1l-3.5,2c-0.2,0.1-0.5,0.2-0.8,0.2c-0.5,0-1-0.3-1.3-0.8
						c-0.4-0.7-0.2-1.7,0.6-2.1l3.5-2C140.5,117.1,141.4,117.4,141.9,118.1z"/>
				</g>
				<g>
					<path class="st1" d="M133.4,81.5c0.7,0.4,1,1.3,0.6,2.1c-0.3,0.5-0.8,0.8-1.3,0.8c-0.3,0-0.5-0.1-0.8-0.2l-3.6-2.1
						c-0.7-0.4-1-1.3-0.6-2.1c0.4-0.7,1.3-1,2.1-0.6L133.4,81.5z"/>
				</g>
				<g>
					<path class="st1" d="M131.3,124.2c0.4,0.7,0.2,1.7-0.6,2.1l-3.5,2c-0.2,0.1-0.5,0.2-0.8,0.2c-0.5,0-1-0.3-1.3-0.8
						c-0.4-0.7-0.2-1.7,0.6-2.1l3.5-2C130,123.2,130.9,123.4,131.3,124.2z"/>
				</g>
				<g>
					<path class="st1" d="M122.6,75.3c0.7,0.4,1,1.3,0.6,2.1c-0.3,0.5-0.8,0.8-1.3,0.8c-0.3,0-0.5-0.1-0.8-0.2l-3.6-2.1
						c-0.7-0.4-1-1.3-0.6-2.1c0.4-0.7,1.3-1,2.1-0.6L122.6,75.3z"/>
				</g>
				<g>
					<path class="st1" d="M120.8,130.2c0.4,0.7,0.2,1.7-0.6,2.1l-3.5,2c-0.2,0.1-0.5,0.2-0.8,0.2c-0.5,0-1-0.3-1.3-0.8
						c-0.4-0.7-0.2-1.7,0.6-2.1l3.5-2C119.5,129.3,120.4,129.5,120.8,130.2z"/>
				</g>
				<g>
					<path class="st1" d="M111.8,69.1c0.7,0.4,1,1.3,0.6,2.1c-0.3,0.5-0.8,0.8-1.3,0.8c-0.3,0-0.5-0.1-0.8-0.2l-1.8-1
						c-0.7-0.4-1-1.3-0.6-2.1c0.4-0.7,1.3-1,2.1-0.6L111.8,69.1z"/>
				</g>
				<g>
					<path class="st1" d="M99.3,20.5c0.1,1.5-0.8,3.1-2,3.7c0,0,0,0,0,0c-0.1,0-0.1,0-0.2,0c-0.1,0-0.1,0-0.2,0c-0.1,0-0.2,0-0.3,0
						c-2.2,0-4.2-0.7-5.9-1.8c-1.4-0.9-2.5-2.2-3.3-3.6c-0.1-0.7-0.1-1.6,0-1.9c0.9,0,1.7-0.4,2.5-0.7c0.5-0.2,1-0.4,1.3-0.4
						c0.7-0.1,1.3,0,1.9,0.4c3.5,2.3,4.9,2.6,5.7,2.7c0.1,0.1,0.1,0.2,0.2,0.3c0,0,0,0,0,0c0,0,0,0.1,0.1,0.1c0,0,0,0,0,0
						C99.2,19.6,99.3,20,99.3,20.5z"/>
				</g>
				<g>
					<path class="st1" d="M92.6,109.3c0.1,1.5-0.8,3.1-2,3.7c0,0,0,0,0,0c-0.1,0-0.1,0-0.2,0c-0.1,0-0.1,0-0.2,0c-0.1,0-0.2,0-0.3,0
						c-2.1,0-4.1-0.6-5.8-1.7c-1.4-0.9-2.6-2.2-3.4-3.7c-0.1-0.7-0.1-1.6,0-1.9c0.9,0,1.7-0.4,2.5-0.7c0.5-0.2,1-0.4,1.3-0.4
						c0.7-0.1,1.3,0,1.9,0.4c3.5,2.3,4.9,2.6,5.7,2.7c0.1,0.1,0.1,0.2,0.2,0.3c0,0,0,0.1,0,0.1C92.5,108.4,92.6,108.8,92.6,109.3z"
						/>
				</g>
				<g>
					<path class="st1" d="M85.9,65.1c0.4,0.7,0.2,1.7-0.6,2.1l-3.5,2c-0.2,0.1-0.5,0.2-0.8,0.2c-0.5,0-1-0.3-1.3-0.8
						c-0.4-0.7-0.2-1.7,0.6-2.1l3.5-2C84.5,64.1,85.5,64.4,85.9,65.1z"/>
				</g>
				<g>
					<path class="st1" d="M75.4,71.2c0.4,0.7,0.2,1.7-0.6,2.1l-3.5,2c-0.2,0.1-0.5,0.2-0.8,0.2c-0.5,0-1-0.3-1.3-0.8
						c-0.4-0.7-0.2-1.7,0.6-2.1l3.5-2C74,70.2,74.9,70.4,75.4,71.2z"/>
				</g>
				<g>
					<path class="st1" d="M73.2,139.2l0,2.5c-0.3,0.2-0.6,0.3-0.9,0.3c-0.3,0-0.5-0.1-0.8-0.2l-0.5-0.3c-0.7-0.4-1-1.3-0.6-2.1
						s1.3-1,2.1-0.6l0.5,0.3C73.1,139.2,73.2,139.2,73.2,139.2z"/>
				</g>
				<g>
					<path class="st1" d="M65.6,134.8c0.7,0.4,1,1.3,0.6,2.1c-0.3,0.5-0.8,0.8-1.3,0.8c-0.3,0-0.5-0.1-0.8-0.2l-3.5-2
						c-0.7-0.4-1-1.3-0.6-2.1c0.4-0.7,1.3-1,2.1-0.6L65.6,134.8z"/>
				</g>
				<g>
					<path class="st1" d="M64.9,77.2c0.4,0.7,0.2,1.7-0.6,2.1l-3.5,2c-0.2,0.1-0.5,0.2-0.8,0.2c-0.5,0-1-0.3-1.3-0.8
						c-0.4-0.7-0.2-1.7,0.6-2.1l3.5-2C63.5,76.3,64.4,76.5,64.9,77.2z"/>
				</g>
				<g>
					<path class="st1" d="M55.1,128.8c0.7,0.4,1,1.3,0.6,2.1c-0.3,0.5-0.8,0.8-1.3,0.8c-0.3,0-0.5-0.1-0.8-0.2l-3.5-2
						c-0.7-0.4-1-1.3-0.6-2.1c0.4-0.7,1.3-1,2.1-0.6L55.1,128.8z"/>
				</g>
				<g>
					<path class="st1" d="M54.3,83.3c0.4,0.7,0.2,1.7-0.6,2.1l-3.5,2c-0.2,0.1-0.5,0.2-0.8,0.2c-0.5,0-1-0.3-1.3-0.8
						c-0.4-0.7-0.2-1.7,0.6-2.1l3.5-2C53,82.3,53.9,82.6,54.3,83.3z"/>
				</g>
				<g>
					<path class="st1" d="M44.6,122.7c0.7,0.4,1,1.3,0.6,2.1c-0.3,0.5-0.8,0.8-1.3,0.8c-0.3,0-0.5-0.1-0.8-0.2l-3.5-2
						c-0.7-0.4-1-1.3-0.6-2.1c0.4-0.7,1.3-1,2.1-0.6L44.6,122.7z"/>
				</g>
				<g>
					<path class="st1" d="M43.8,89.4c0.4,0.7,0.2,1.7-0.6,2.1l-3.5,2c-0.2,0.1-0.5,0.2-0.8,0.2c-0.5,0-1-0.3-1.3-0.8
						c-0.4-0.7-0.2-1.7,0.6-2.1l3.5-2C42.5,88.4,43.4,88.7,43.8,89.4z"/>
				</g>
				<g>
					<path class="st1" d="M34.1,116.6c0.7,0.4,1,1.3,0.6,2.1c-0.3,0.5-0.8,0.8-1.3,0.8c-0.3,0-0.5-0.1-0.8-0.2l-3.5-2
						c-0.7-0.4-1-1.3-0.6-2.1c0.4-0.7,1.3-1,2.1-0.6L34.1,116.6z"/>
				</g>
				<g>
					<path class="st1" d="M19.4,66.7c0.1,1.5-0.8,3.1-2,3.7c-0.1,0-0.1,0-0.2,0c-0.1,0-0.1,0-0.2,0c-0.1,0-0.2,0-0.3,0
						c-2.1,0-4.1-0.6-5.8-1.7c-1.4-0.9-2.6-2.2-3.4-3.7c-0.1-0.7-0.1-1.6,0-1.9c0.9,0,1.7-0.4,2.5-0.7c0.5-0.2,1-0.4,1.3-0.4
						c0.7-0.1,1.3,0,1.9,0.4c3.5,2.3,4.9,2.6,5.7,2.7c0.1,0.1,0.1,0.2,0.2,0.3c0,0,0,0.1,0.1,0.1C19.3,65.8,19.4,66.2,19.4,66.7z"/>
				</g>
			</g>
			<path class="st0" d="M19,62c0.4,0,0.8,0.1,1.1,0.2c-0.8,1.2-1,2.2-1.1,2.3c-0.1,0.3-0.1,0.6,0,0.8C19.1,65.2,19,65.1,19,65
				c-0.8,0-2.3-0.3-5.7-2.7C12.7,62,12,61.9,11.3,62C11,62,10.5,62.2,10,62.4c-0.8,0.3-1.6,0.7-2.5,0.7c-0.1,0.4-0.1,1.2,0,1.9
				c-0.8-1.4-1.3-3-1.4-4.7c0.4-0.2,0.8-0.3,1.2-0.3c0.3,0,1-0.3,1.5-0.5c0.6-0.3,1.3-0.5,2-0.6c1.4-0.2,2.9,0.1,4.1,0.9
				C17.4,61.6,18.7,62,19,62z"/>
			<path class="st0" d="M19.2,116.2l-13.9-7.4c0.2,0.1,0.5,0.2,0.7,0.2c0.8,0,1.5-0.7,1.5-1.5v-0.9l10.8,5.7v2.5
				C18.4,115.4,18.7,115.9,19.2,116.2z"/>
			<path class="st0" d="M18.7,73.3c0.1,0,0.2,0,0.2,0C18.9,73.3,18.8,73.3,18.7,73.3z"/>
			<path class="st0" d="M18.7,73.3c-0.2,0-0.3,0-0.5,0.1C18.4,73.3,18.6,73.3,18.7,73.3z"/>
			<path class="st0" d="M17.9,70.3c0.1,0,0.3,0,0.4,0C18.2,70.3,18.1,70.3,17.9,70.3z"/>
			<path class="st0" d="M18,73.4c0.1,0,0.1,0,0.2,0C18.2,73.4,18.1,73.4,18,73.4z"/>
			<path class="st0" d="M18,73.4C18,73.4,18,73.4,18,73.4C18,73.4,18,73.4,18,73.4z"/>
			<path class="st0" d="M17.5,70.4c0.1,0,0.3,0,0.4,0C17.8,70.4,17.7,70.4,17.5,70.4z"/>
			<path class="st0" d="M17.9,73.4c-0.1,0-0.3,0-0.4,0c-0.1,0-0.2,0-0.3,0c-0.1,0-0.3,0-0.4,0c-2.4,0-4.7-0.6-6.7-1.8
				c0.2-0.1,0.5-0.3,0.7-0.4c0.7-0.4,1-1.3,0.7-2c-0.1-0.2-0.3-0.4-0.5-0.6l0,0c1.7,1.1,3.7,1.7,5.8,1.7c0.1,0,0.2,0,0.3,0
				c0.1,0,0.1,0,0.2,0c0.1,0,0.1,0,0.2,0c-0.1,0-0.1,0.1-0.2,0.1c-0.8,0.3-1.1,1.2-0.8,2C16.7,73.1,17.2,73.4,17.9,73.4
				C17.8,73.4,17.9,73.4,17.9,73.4z"/>
			<path class="st0" d="M17.5,70.4c0,0-0.1,0-0.1,0c0,0,0,0,0,0C17.5,70.4,17.5,70.4,17.5,70.4z"/>
			<path class="st0" d="M17.2,73.4c0.1,0,0.2,0,0.3,0C17.4,73.4,17.3,73.4,17.2,73.4z"/>
			<path class="st0" d="M17.4,70.4C17.4,70.4,17.4,70.4,17.4,70.4c-0.1,0-0.1,0-0.2,0C17.3,70.4,17.4,70.4,17.4,70.4z"/>
			<path class="st0" d="M17.1,70.4c0.1,0,0.1,0,0.2,0C17.2,70.4,17.1,70.4,17.1,70.4z"/>
			<path class="st0" d="M11.5,69.2c0.4,0.7,0.1,1.7-0.7,2c-0.2,0.1-0.5,0.3-0.7,0.4c-0.9-0.5-1.8-1.2-2.6-1.9c0.6-0.4,1.3-0.8,2-1.2
				c0.5-0.3,1.1-0.2,1.6,0.1C11.2,68.8,11.3,69,11.5,69.2z"/>
			<path class="st0" d="M11,68.7L11,68.7c-0.4-0.3-1-0.4-1.6-0.1c-0.7,0.3-1.3,0.7-2,1.2c-1-1-1.9-2.1-2.6-3.3
				c0.3,0.5,1,0.8,1.6,0.7c0.8-0.2,1.3-1,1.1-1.8c0-0.1,0-0.1,0-0.2C8.4,66.5,9.6,67.7,11,68.7z"/>
			<path class="st0" d="M10.1,71.7c-1.8,1.1-3.6,2.6-4.4,3.5c0,0,0,0-0.1,0.1c-0.7,0.7-2.5,2.9-2.5,4.9l-0.1,24l1.5,0.8v2.5
				c0,0.6,0.3,1.1,0.8,1.3l-4.5-2.4c-0.5-0.3-0.8-0.8-0.8-1.3l0.1-24.9c0-3.6,3-6.7,3.4-7.1c0.8-0.8,2.3-2.2,4-3.3
				C8.2,70.5,9.1,71.1,10.1,71.7z"/>
			<path class="st0" d="M7.6,65.2C7.8,66,7.3,66.9,6.5,67c-0.6,0.1-1.3-0.1-1.6-0.7c0,0,0,0,0,0c0-0.1-0.1-0.1-0.1-0.2
				c0-0.1-0.1-0.2-0.1-0.3C4,63,4.9,61.5,5.2,61.1c0.3-0.3,0.6-0.6,1-0.8C6.3,62,6.8,63.6,7.6,65C7.6,65.1,7.6,65.2,7.6,65.2z"/>
			<path class="st0" d="M7.6,106.6v0.9c0,0.8-0.7,1.5-1.5,1.5c-0.3,0-0.5-0.1-0.7-0.2c-0.5-0.3-0.8-0.8-0.8-1.3V105L7.6,106.6z"/>
			<path class="st0" d="M7.6,84v22.6l-3-1.6V84c0-0.8,0.7-1.5,1.5-1.5S7.6,83.2,7.6,84z"/>
			<path class="st0" d="M4.8,66.2c0,0.1,0.1,0.1,0.1,0.2C4.8,66.3,4.8,66.3,4.8,66.2z"/>
		</g>
	</g>
</g>
</svg>
