<svg xmlns="http://www.w3.org/2000/svg" width="202" height="118" viewBox="0 0 202 118">
    <g fill="none">
        <path fill="#FFF" d="M46.27 14.888c.075.05.175.099.25.148.324.198.672.37 1.046.543.175.074.349.173.548.247 2.766 1.16 6.055 1.653 9.269 1.48l.921-.074c.3-.025.598-.074.897-.099.847-.123 1.67-.296 2.467-.493.299-.074.598-.173.872-.247.299-.098.573-.197.847-.296.747-.271 1.445-.617 2.118-.987.074-.05.174-.098.249-.148.05-.024.124-.074.174-.098.05-.025.1-.074.175-.1.199-.123.373-.246.548-.37.05-.049.1-.073.174-.123.05-.049.125-.098.175-.148v2.22c.024 1.382-1.022 2.74-2.89 3.8-4.36 2.492-11.76 2.468-16.145-.024C46.12 19.058 45.1 17.775 45 16.467V14c.025.025.075.05.1.074.074.05.15.123.224.173l.025.024c.124.1.249.173.374.272.1.074.224.148.323.222.075.05.15.099.225.123z"/>
        <path fill="#000" d="M200.796 64.298c.766.13 1.31.885 1.186 1.692-.123.806-.84 1.379-1.606 1.249-8.524-1.353-18.359 2.862-22.287 4.761-1.013-.546-2.051-1.093-3.089-1.691.593-.338 13.985-7.884 25.796-6.01z"/>
        <path fill="#000" d="M178 71.822c-1.136.561-1.781.954-1.833.982-.232.14-.464.196-.697.196-.516 0-1.032-.308-1.29-.841-.388-.785-.13-1.738.593-2.159 1.084.645 2.169 1.234 3.227 1.822zM172.341 92.252c.672.44.846 1.348.448 2.048-.274.44-.722.7-1.195.7-.248 0-.522-.078-.746-.233-.125-.078-9.084-5.912-15.255-4.616-2.813.597-7.317 1.556-11.647 2.464l.298-.312c.548-.57.573-1.503.025-2.1-.348-.363-.821-.492-1.269-.415 4.455-.933 9.133-1.944 12.02-2.54 7.267-1.556 16.898 4.718 17.321 5.004zM143.977 81.304c.743.214 1.188.949.965 1.684-.222.712-.99 1.115-1.756.925-1.658-.474-3.267 0-5.494.617-2.4.664-5.27 1.47-9.254 1.47-1.138 0-2.35-.071-3.662-.213-.198-.024-.396-.048-.619-.072-.47-.426-.99-.877-1.51-1.328-.667-.569-1.36-1.162-2.127-1.778-.149-.119-.322-.214-.52-.261 1.707.356 3.44.569 5.097.759 5.395.616 8.933-.38 11.779-1.162 2.524-.736 4.676-1.328 7.101-.64z"/>
        <path fill="#000" d="M143.604 90.438c.532.598.532 1.534-.024 2.106l-.29.312c-1.86.416-3.671.806-5.29 1.144 1.329-1.196 2.536-2.418 3.648-3.588.193-.208.435-.338.676-.39h.048c.435-.078.894.052 1.232.416zM143.356 33.26c.651.444.852 1.383.401 2.062-.225.365-.576.574-.926.652-.076.026-.176.026-.25.026-.276 0-.552-.078-.777-.235-.751-.522-1.552-1.017-2.353-1.513-.15-.078-.3-.182-.451-.26.125-.027.25-.079.376-.105l.85-.209c.902-.235 1.778-.443 2.68-.678.15.078.3.157.45.26z"/>
        <path fill="#000" d="M143.946 34.836c.434-.685.255-1.633-.41-2.081-.153-.106-.28-.185-.434-.29 5.776-1.397 11.73-2.372 17.838-.158 3.552 1.29 6.798 3.188 9.966 5.033.537.316 1.023.632 1.534.922 2.223 1.37 4.14 2.53 6.619 2.688 2.734.158 5.494-.211 7.845-.606 3.424-.554 6.874-1.37 10.222-2.372.767-.237 1.585.237 1.815 1.028.23.79-.23 1.633-.997 1.87-3.476 1.055-7.028 1.871-10.58 2.451-2.504.422-5.469.817-8.459.632-3.22-.184-5.52-1.607-7.947-3.109-.486-.29-.972-.606-1.483-.896-3.04-1.792-6.184-3.636-9.48-4.822-5.623-2.055-11.168-1.001-16.97.422l-.025-.08c.383-.052.716-.29.946-.632zM143 90c-.263.051-.525.18-.735.386-1.208 1.158-2.547 2.341-3.965 3.55-1.812.36-3.388.67-4.57.9-.892.181-1.837.207-2.73.104l.394-.155c.761-.308 1.129-1.183.788-1.93-.21-.488-.657-.797-1.156-.874.71.129 1.418.103 2.127-.026 2.206-.411 5.908-1.157 9.847-1.955z"/>
        <path fill="#000" d="M138.489 93.719c1.686-.353 3.573-.73 5.511-1.108C131.945 104.273 109.724 118 72 118c-11.098 0-21.215-1.285-30.099-3.803-8.858-2.52-16.483-6.297-22.674-11.209-6.266-4.962-11.073-11.083-14.294-18.21C1.762 77.774.1 69.764 0 61c.126 2.645 1.283 5.189 3.347 7.405.68 5.491 2.089 10.554 4.178 15.188 3.045 6.7 7.575 12.468 13.463 17.128 5.914 4.685 13.213 8.287 21.694 10.705 8.606 2.468 18.471 3.703 29.318 3.703 33.345 0 54.182-10.957 66.489-21.41zM137.907 71.826c-.353.373-.682.77-.986 1.193.253-.323.38-.745.304-1.168-.152-.77-.91-1.267-1.694-1.118-.025 0-.202.025-.531.074.253-.298.506-.62.809-.919 1.112-1.168 2.655-2.261 4.829-3.479 3.363-1.864 7.382-3.007 11.605-3.28 6.548-.447 11.402.273 14.436 2.112 3.236 1.988 6.093 3.628 8.773 5.07-.708.372-.96 1.217-.582 1.913.253.472.759.745 1.264.745.228 0 .455-.05.683-.174.025-.024.683-.347 1.795-.87 5.79 2.858 11.327 4.871 19.366 7.307.759.223 1.189 1.018.961 1.764-.227.745-1.036 1.168-1.795.944-13.425-4.05-19.998-7.008-31.982-14.313-3.135-1.914-8.647-1.988-12.717-1.715-3.818.249-7.408 1.267-10.391 2.932-1.922 1.094-3.262 2.063-4.147 2.982zM130.756 73.304c2.521-.133 4.236-.451 4.412-.504.353-.08.63-.266.832-.531-.05.053-.1.132-.126.186-.832 1.14-1.765 2.468-3.353 3.317-1.714.929-3.58 1.088-5.496 1.168-2.647.106-5.47.159-8.218-.61-.378-.107-.757-.213-1.16-.346-1.689-.504-3.277-.982-4.84-.955-1.034.026-1.815.822-2.168 1.619.201-.531.1-1.195-.303-1.646-.302-.318-.756-.716-1.336-1.167.958-1.115 2.32-1.779 3.756-1.832 2.017-.053 3.883.531 5.673 1.062.378.106.73.212 1.109.318 2.344.664 4.916.61 7.336.505 1.487-.027 2.773-.107 3.882-.584zM134.652 59.168c.8.074 1.419.745 1.341 1.54-.077.745-.696 1.292-1.47 1.292h-.129c-.103 0-10.29-.845-19.394-1.168.774 0 1.444-.596 1.47-1.366.026-.77-.593-1.441-1.418-1.466 9.207.298 19.497 1.143 19.6 1.168zM135 70l-.618.871c-.264.387-.53.774-.794 1.129-.088-.806-.647-1.452-1.382-1.613-.088 0-.147-.032-.206-.032 1.324-.13 2.382-.258 3-.355z"/>
        <path fill="#000" d="M133 72.166c-.482.71-1.014 1.301-1.7 1.716-.075.03-.126.088-.202.118-4.641-.917-8.598-2.781-12.098-5 4.565 1.893 9.51 1.923 12.605 1.686.05 0 .127.03.178.03.659.089 1.14.71 1.217 1.45zM132.892 92.894c.29.754-.024 1.612-.726 1.95l-.364.156c-.944-.104-1.865-.416-2.712-.858-.363-.182-.703-.416-1.09-.702 1.041-.416 2.083-.859 3.076-1.327.242-.104.484-.13.726-.104.485.078.896.39 1.09.885zM131.653 66.833c.8.084 1.418.834 1.34 1.723-.077.833-.696 1.444-1.469 1.444h-.129c-.387-.028-1.701-.139-3.326-.25-2.964-.944-5.62-2.25-8.069-3.75 1.83.139 10.544.75 11.653.833zM131.094 37.229c.796.356 1.137 1.22.74 1.932-.171.28-.399.508-.712.661-.227.102-.483.178-.767.178-.228 0-.483-.05-.71-.153-.882-.38-1.764-.737-2.645-1.067.37-.33.824-.636 1.308-.84.71-.304 1.45-.61 2.217-.94.228.076.398.153.569.229z"/>
        <path fill="#000" d="M131.187 73.813c.723-.438 1.285-1.063 1.793-1.813.027.156.027.313 0 .5-.134.875-.776 1.5-1.498 1.5-.08 0-.16 0-.241-.031-.08 0-.16-.031-.241-.063.054 0 .107-.062.187-.094z"/>
        <path fill="#000" d="M134.962 73.42c-.159.03-1.698.427-3.962.58.068-.03.158-.092.226-.122.068.03.136.03.204.061.068.03.136.03.204.03.611 0 1.177-.61 1.268-1.464.022-.153.022-.336 0-.489.203-.335.407-.702.61-1.068l.476-.824c.295-.061.453-.092.476-.092.701-.183 1.38.428 1.516 1.374.068.519-.045 1.037-.271 1.434-.181.305-.453.52-.747.58zM132.17 39.29c.364-.686.052-1.519-.676-1.861-.156-.074-.338-.147-.494-.22 2.73-1.2 5.746-2.425 8.996-3.209.156.098.312.171.468.245.832.465 1.638.955 2.444 1.42.26.147.52.22.806.22.078 0 .182 0 .26-.024l.026.074c-.676.147-1.326.294-2.002.465l-.884.196c-3.38.784-6.578 2.106-9.49 3.404l-.052-.098c.208-.122.442-.343.598-.612zM130.214 91.734c-1.032.447-2.064.844-3.12 1.266-1.18-.82-2.458-2.035-4.08-3.6-.638-.595-1.301-1.24-2.014-1.91.27-.125.565-.249.835-.373.467-.199.762-.645.836-1.117.344.05.688.1 1.032.124.442.397.835.794 1.253 1.167 1.892 1.812 3.415 3.227 4.52 3.798.492.248.983.422 1.524.496-.27.025-.54.05-.786.149zM130.14 43.221c.52.262.889.76.858 1.311-.03.813-.797 1.468-1.748 1.468h-.03-.43c-.153-.052-.276-.131-.429-.21-1.226-.603-2.085-1.625-2.361-2.778 1.993-.027 3.25 0 3.281 0 .307 0 .583.078.859.21-.031-.027 0 0 0 0zM131 40.146c-.436.204-.897.408-1.308.612-.436.204-.718.637-.743 1.121 0 .23.025.79.59 1.121-.206-.102-.436-.178-.693-.178-.025 0-1.077-.026-2.743 0-.077-.332-.103-.688-.103-1.045.051-1.07.487-2.064 1.205-2.777.82.331 1.616.688 2.385 1.07.205.102.436.153.64.153.232 0 .462-.051.693-.178l.077.101zM131 37.168c-.677.275-1.33.572-1.957.847-.451.183-.827.458-1.153.756-5.644-2.107-11.99-3.16-18.888-3.137-6.948.045-14.323 1.168-21.923 3.366-.251-.847-.602-1.672-1.079-2.427 7.952-2.313 15.677-3.527 23.002-3.573 8.102 0 15.501 1.374 21.998 4.168z"/>
        <path fill="#000" d="M128.382 45.727c.791 0 1.428-.632 1.454-1.415 0-.53-.28-1.01-.714-1.264 2.116 1.213 5.38 1.062 9.41-.454.101-.05.229-.076.331-.076.076 0 2.167-.278 4.488-.43 4.462-.278 5.763.152 6.451.581.485.329.944.885 1.607 1.744 2.346 3.007 7.19 9.248 16.855 7.327.79-.151 1.556.354 1.709 1.138.153.783-.357 1.54-1.148 1.692-1.479.304-2.856.43-4.13.43-8.722 0-13.44-6.039-15.607-8.818-.331-.43-.739-.935-.918-1.112-.943-.404-5.227-.202-8.797.253-4.667 1.718-8.492 1.87-11.373.379.23.025.357.025.382.025zM128.195 94.336c.877.457 1.828.737 2.805.838-12.046 5.082-26.597 7.826-41.398 7.826-1.502 0-3.005-.025-4.508-.076-16.654-.635-32.432-4.726-44.378-11.561L8.184 72.307c-1.878-1.093-3.456-2.338-4.683-3.684C3.2 66.158 3.025 63.617 3 61c.15 3.278 2.48 6.377 6.612 8.791l32.507 19.031c11.545 6.606 26.847 10.57 43.075 11.18 14.776.559 29.502-1.703 41.849-6.378.4.28.776.508 1.152.712z"/>
        <path fill="#000" d="M128.645 44.672c.127.076.228.126.355.202-1.37 0-6.697-.025-12.202.403-11.364.908-13.343 2.824-13.673 3.404-.025.05-.025.05-.05.075-.051.101-.229.454-.153.681.076.252.508.53 1.116.756.102.025.203.076.28.152-1.523.15-2.816.352-3.856.655-.127-.202-.229-.429-.305-.68-.482-1.488.28-2.799.482-3.127 2.004-3.327 10.046-4.336 15.956-4.79 3.882-.302 7.661-.403 10.097-.403.228 1.11.913 2.092 1.953 2.672zM128 70c-3.556-.266-8.566-.651-8.618-.651-.234-.03-.467-.09-.675-.237-.467-.326-.753-.888-.7-1.54.051-.917.752-1.628 1.583-1.569.025 0 .155 0 .311.03 2.466 1.57 5.114 2.96 8.099 3.967zM122.879 85.074c.101.309.152.617.101.926-1.318-.216-2.662-.494-3.98-.833.66-.34 1.318-.648 1.977-1.019.533-.277 1.116-.154 1.521.278.153.185.305.401.38.648z"/>
        <path fill="#000" d="M122 84c.689.679 1.377 1.357 2 2-.459-.071-.918-.107-1.377-.179.033-.357 0-.714-.131-1.071-.099-.321-.295-.571-.492-.75z"/>
        <path fill="#000" d="M123 85.605c-.092.442-.46.86-1.043 1.046-.337.116-.705.233-1.043.349-.89-.628-1.871-1.28-2.914-1.953.061-.024.092-.024.153-.047 1.657.256 3.283.442 4.847.605zM120.598 82.317c.866.704 1.648 1.382 2.402 2.032-.447-.379-1.09-.487-1.676-.243l-2.178.894c-.084-.027-.195-.027-.28-.054-.11-.082-.195-.163-.306-.244-.67-.542-.754-1.518-.168-2.169.363-.406.922-.596 1.424-.515.084.028.14.028.224.055.195-.027.39.081.558.244zM118.617 86.06c.853.736 1.63 1.472 2.383 2.133C110.667 92.587 98.454 95 86.416 95h-.452c-12.665-.076-24.327-2.845-32.829-7.798C45.762 82.884 42 77.728 42 71.861c0-4.42 2.157-9.043 6.395-13.742 3.913-4.317 9.48-8.585 16.553-12.75 2.708-1.575 5.467-3.048 8.25-4.369.327.686.552 1.448.678 2.21 0 .101.025.203.05.305.025.101.025.228.025.33-2.558 1.219-5.091 2.59-7.574 4.038-13.894 8.128-21.543 16.637-21.543 23.952 0 4.75 3.26 9.068 9.706 12.827 8.075 4.725 19.21 7.34 31.399 7.417 11.336.102 22.822-2.032 32.678-6.02z"/>
        <path fill="#000" d="M120.1 83.025c-.075-.025-.125-.025-.2-.05.05.025.125.025.2.05zM119.738 66.3c-.837-.052-1.544.565-1.597 1.363-.026.565.262 1.08.707 1.337-3.089-1.672-5.838-3.575-8.43-5.35-1.727-1.183-3.324-2.314-4.973-3.291-.157-.078-.288-.18-.445-.258.366.155.838.18 1.23 0 .315-.154.576-.128 1.938.052.706.077 1.57.206 2.748.308.393.283.786.54 1.204.823 2.514 1.75 5.079 3.498 7.88 5.067-.105-.051-.21-.051-.262-.051zM119 82.223c-.486-.077-.972.103-1.304.488-.512.618-.46 1.543.153 2.058.102.077.18.154.281.231-3.4-.771-6.751-2.031-9.513-4.423-1.33-1.157-1.867-2.854-1.509-4.577.282.231.486.411.64.566.28.283.664.437 1.048.437.358 0 .742-.129 1.023-.412.128-.128.23-.257.307-.411-.026.051-.051.103-.051.154-.18.463-.333 1.363.46 2.032 2.327 2.057 5.345 3.163 8.465 3.857zM119.659 69.228c.076 0 4.967.372 8.413.629 1.242.428 2.56.77 3.928 1.028-3.092.257-8.033.228-12.595-1.628-.126-.086-.278-.171-.405-.257.203.143.405.228.659.228zM119.126 85c-.05.025-.1.025-.126.05-.05-.025-.075-.075-.126-.1.076.025.176.025.252.05zM115.553 58c.815.027 1.473.737 1.446 1.553-.026.816-.684 1.447-1.499 1.447h-.053c-.815-.026-1.473-.737-1.446-1.552.026-.816.736-1.474 1.552-1.447z"/>
        <path fill="#000" d="M116 57.77c-.782-.028-1.462.652-1.487 1.559-.026.878.58 1.643 1.386 1.671-1.588-.057-2.874-.17-3.907-.283-1.26-.992-2.496-1.927-3.757-2.805-.025-.028-.53-.368-1.235-.793.807-.227 1.588-.085 2.723.057 1.21.198 3.075.453 6.277.595zM111 61c-1.042-.125-1.829-.281-2.43-.375-1.18-.219-1.435-.25-1.713-.063-.37.22-.764.22-1.088 0-.07-.062-.139-.124-.208-.156-.186-.187-.324-.406-.44-.718-.301-.876-.023-1.938.648-2.376.231-.156.463-.25.671-.312.671.469 1.111.844 1.134.875 1.135 1 2.269 2.031 3.426 3.125zM110.61 74.248c.39.482.488 1.163.292 1.76 0 .027-.024.056-.024.084-.073.17-.17.34-.293.454-.268.312-.61.454-.975.454-.366 0-.732-.17-1-.482-.147-.17-.342-.37-.61-.624.049-.256.098-.483.195-.738.244-.823.634-1.56 1.122-2.156.561.482 1 .908 1.293 1.248z"/>
        <path fill="#000" d="M109 73.385c-.503.564-.905 1.205-1.156 1.948-.075.231-.15.436-.201.667-1.935-1.564-6.961-4.77-13.872-8.846-1.91-1.128-3.82-3.333-3.77-5.667.025-1.025.452-2.051 1.231-2.949.604-.717 1.383-1.359 2.187-1.846.854-.513 1.734-.692 2.613-.692.05.667.201 1.256.277 1.641.05.154.075.308.075.385.076.538.453.974.905 1.153-.93-.333-1.76-.41-2.438 0-.527.334-1.106.795-1.508 1.257-.326.385-.502.77-.502 1.102-.025 1.026 1.156 2.36 2.337 3.052 4.95 2.948 10.932 6.59 13.822 8.795zM106 57.316c-.225.05-.475.148-.725.247-.725.32-1.025 1.157-.7 1.87.1.222.275.42.475.567-1.475-.812-2.875-1.231-3.625-1.206l-.45-.222c-.525-.27-1.15-.59-1.825-.862-.075-.295-.125-.566-.15-.812.25-.246.525-.419.8-.542 1.225-.59 2.825-.443 4.925.419.475.147.9.369 1.275.541zM106.113 60.063c-.075-.05-.15-.076-.226-.126.05.025.126.076.226.126zM104.258 51c.62.4.903 1.2.649 1.914-.226.629-.79 1.029-1.382 1.086h-.113c-.169 0-.366-.029-.535-.086-1.354-.485-2.341-1.228-2.877-2.171 1.128-.372 2.595-.6 4.258-.743zM103.636 77.477c3.144 1.964 3.144 5.134.048 7.072-3.096 1.939-8.175 1.939-11.32-.026-3.144-1.964-3.144-5.134-.048-7.072 3.096-1.939 8.175-1.939 11.32.026z"/>
        <path fill="#000" d="M133.4 54.987c-9.077-1.164-22.743-2.27-29.375-1.34l-.025-.32c.555-.057 1.034-.465 1.236-1.105.226-.757-.026-1.543-.58-1.95 9.48-1.02 26.727 1.135 29.072 1.426.782.087 1.361.931 1.26 1.834-.075.902-.781 1.571-1.588 1.455zM103.433 52.87c.142.049.307.073.449.073h.094l.024.268c-1.3.17-2.293.388-2.93.704-1.254.632-1.466 1.482-1.348 2.502-.166.17-.307.34-.45.583-.708-.267-1.465-.437-2.245-.462-.141-1.603.19-3.74 2.837-5.1.307-.17.685-.317 1.134-.438.473.826 1.3 1.457 2.435 1.87zM101.446 58.87l.554.216c-.215 0-.37.025-.492.073-.185.072-.277.362-.308.603-.092.749-.954 1.304-1.938 1.232-.216-.024-.431-.073-.616-.145-.277-.097-.492-.266-.646-.459.923-.12 1.57-.82 1.415-1.57-.03-.192-.092-.385-.153-.603-.031-.072-.031-.145-.062-.217.83.29 1.6.604 2.246.87z"/>
        <path fill="#000" d="M99.974 58.194c.176.862-.562 1.64-1.617 1.806-.246-.306-.387-.667-.352-1.056.106-.833.422-1.472.809-1.944.316.083.598.167.879.278.035.083.035.166.07.25.106.222.176.444.211.666zM98.976 61.352c-.334-.18-.668-.333-.976-.486.154.077.334.128.514.153.796.077 1.515-.485 1.618-1.303.025-.256.077-.563.256-.64.103-.05.231-.076.411-.076 1.438.767 2.8 1.636 4.135 2.48.308.178.59.383.899.562.899.562 1.823 1.125 2.722 1.713 2.234 1.405 4.571 2.888 6.882 4.243 1.053.613 2.183 1.125 3.313 1.533 3.544 1.918 7.525 3.528 12.25 4.32-.077.052-.18.077-.257.103-4.366.204-11.145-.154-16.795-3.451-2.363-1.38-4.7-2.863-6.96-4.295l-2.696-1.687c-.308-.179-.617-.383-.899-.562-1.464-.92-2.928-1.84-4.417-2.607z"/>
        <path fill="#000" d="M98.76 57c.04.333.12.667.24 1-.32-.09-.68-.212-1-.303.2-.273.48-.485.76-.697z"/>
        <path fill="#000" d="M98.526 60.969h-.031c-.095 0-.19.031-.284.031-.222 0-.443-.031-.632-.125-.6-.219-1.042-.75-1.137-1.406 0-.094-.063-.282-.095-.469-.126-.469-.284-1.188-.347-2 1.042.031 2.053.25 3 .594-.347.531-.632 1.25-.726 2.187-.095.438.031.844.252 1.188z"/>
        <path fill="#000" d="M97.569 60.095h.02c.097.381.235.667.411.905-.333-.381-.686-.762-1-1 .118.095.255.19.392.19.059-.047.118-.047.177-.095z"/>
        <path fill="#FFF" d="M89.254 73.58c.697.37.946 1.23.573 1.894C88.233 78.352 85.27 80 82.158 80c-1.17 0-2.39-.246-3.535-.738l-1.12-.492-1.57.443c-2.116.59-4.332.074-5.975-1.377-1.245-1.132-1.967-2.657-2.067-4.28-1.17-.37-2.265-1.18-2.987-2.288-1.17-1.746-1.196-3.886-.125-5.829 2.39-4.304 7.968-3.37 8.217-3.32.771.147 1.294.86 1.145 1.623-.15.762-.872 1.254-1.643 1.131-.075-.024-3.835-.614-5.23 1.919-.721 1.328-.398 2.337 0 2.951.549.812 1.445 1.255 1.993 1.206.448-.05.871.123 1.17.442.299.32.423.763.349 1.181-.225 1.18.199 2.361 1.095 3.148.896.812 2.116 1.083 3.287.763l2.066-.566c.324-.098.648-.074.946.074l1.594.689c2.838 1.23 6.1.123 7.594-2.583.349-.64 1.195-.886 1.892-.517z"/>
        <path fill="#000" d="M87 42v5c0-.934-.877-1.717-2-1.717 1.263-.903 1.965-2.048 2-3.283z"/>
        <path fill="#000" d="M87 42.387v.05c-.026 1.014-.553 1.954-1.5 2.697-.579 0-1.105.322-1.342.792L84 46v-3.589c0-.792.658-1.41 1.5-1.41.816-.025 1.5.618 1.5 1.386z"/>
        <path fill="#000" d="M88 41.09V42c0-.831-.754-1.48-1.652-1.48-.928 0-1.652.649-1.652 1.48v-.91c0-1.064-.232-2.129-.696-3.09.319.701 1.217 1.065 2.029.831l1.565-.467c.261.883.406 1.792.406 2.727zM87 46v.054c-.031 1.098-.656 2.142-1.813 2.946v-.804c0-.24-.062-.482-.187-.67h.219C86.188 47.527 87 46.83 87 46z"/>
        <path fill="#000" d="M87 38.506l-1.675.43c-.868.214-1.83-.12-2.17-.765-.032-.023-.032-.071-.063-.095-.31-.716.186-1.48 1.117-1.718.496-.12.961-.239 1.457-.358.59.764 1.055 1.623 1.334 2.506zM87 46.487C87 47.31 86.316 48 85.5 48h-.184c-.21-.451-.658-.77-1.158-.823-.105-.212-.158-.424-.158-.663 0-.24.053-.478.158-.664.184-.08.395-.186.579-.292.29-.16.552-.345.79-.557.815-.027 1.473.637 1.473 1.486z"/>
        <path fill="#000" d="M86 45c-.173.219-.365.438-.577.656-.135.125-.27.25-.423.344.192-.594.558-1 1-1z"/>
        <path fill="#FFF" d="M86 49v17.584c0 .77-.658 1.416-1.5 1.416-.816 0-1.5-.646-1.5-1.416V50.292c.816-.174 1.579-.423 2.237-.795.29-.15.526-.323.763-.497z"/>
        <path fill="#000" d="M86 48.623v.87c-.239.203-.478.406-.743.58-.664.434-1.434.724-2.257.927v-2.348c0-.609.292-1.16.77-1.42.212-.145.478-.232.743-.232h.186c.213.493.664.84 1.168.899.08.202.133.434.133.724z"/>
        <path fill="#000" d="M85 47c.432.065.818.452 1 1-.432-.065-.818-.452-1-1zM84.925 45.12l.15-.12c-.1.32-.15.64-.15 1v-.88zM84 42v4.286c-.966.506-2.052.714-3.138.714-1.328 0-2.655-.298-3.741-.804l.024-1.19c.024-.893-.024-1.786-.145-2.649.145.149.434.328.652.447.024 0 .024.03.048.03 1.641.862 4.176 1.13 5.6.118.483-.357.7-.714.7-.952zM84.829 46c0 .273.057.545.171.758h-.2c-.286 0-.571.09-.8.242.571-.364.829-.758.829-1zM78 47c1.327 1 3.673 1 5 .029-.376.285-.642.8-.642 1.4v2.314c-.597.171-1.216.257-1.836.257-.641 0-1.283-.086-1.88-.257V48.4c-.023-.6-.266-1.143-.642-1.4z"/>
        <path fill="#FFF" d="M78 50.335v17.202c0 .795-.658 1.463-1.5 1.463-.816 0-1.5-.668-1.5-1.463V49c.237.18.474.36.737.513.684.36 1.447.642 2.263.822z"/>
        <path fill="#000" d="M78 48.657V51c-.823-.2-1.593-.514-2.257-.914-.265-.172-.53-.343-.743-.572v-.857c0-.257.053-.486.16-.714.504-.086.928-.429 1.167-.914.08 0 .133-.029.213-.029.265 0 .504.086.717.2 0 0 .026 0 .026.029.425.285.717.828.717 1.428zM76.171 46c0 .226.258.645.829 1-.229-.129-.486-.226-.771-.226-.086 0-.143 0-.229.032.086-.225.143-.483.171-.741V46zM76.995 44.947L76.969 46l-.237-.079c-.262-.447-.735-.737-1.287-.737h-.184c-.5-.342-.998-.816-1.261-1.42.552-.264 1.103-.527 1.655-.764.42-.184.736-.579.84-1 .158.184.264.395.316.632.131.736.21 1.526.184 2.315z"/>
        <path fill="#000" d="M77.113 45.107l-.025.893c0-.357-.075-.714-.201-1l.226.107zM76.15 43c-.05-.17-.15-.32-.3-.453.05-.17.05-.358 0-.547.125.34.225.68.3 1zM77 46c-.143-.037-.286-.11-.393-.148-.357-.148-.964-.406-1.607-.85h.25c.75-.037 1.429.37 1.75.998zM76 47c-.182.531-.545.906-1 1 .182-.563.545-.938 1-1z"/>
        <path fill="#000" d="M76.93 41.106c.093.263.093.5 0 .763-.306-.342-.798-.552-1.35-.552-.952 0-1.75.684-1.75 1.499V43c-.154-.789-.43-1.552-.83-2.288.491-.21.983-.395 1.474-.579.89-.342 1.904 0 2.303.737.092.078.123.157.154.236z"/>
        <path fill="#000" d="M76 42l-.072-.228c-.314-.734-1.135-1.038-1.81-.709-.387.178-.773.38-1.16.557-.7-1.645-1.882-3.038-3.427-3.974.169-.608.217-1.165.193-1.595v-.785c0-.557-.29-1.013-.724-1.266l1.883 1.14c2.51 1.544 4.32 4.025 5.117 6.86zM75.693 42c.535 0 .98.182 1.307.477-.119.364-.446.705-.95.864-.624.227-1.248.432-1.872.659-.06-.09-.089-.182-.119-.273-.03-.09-.03-.182-.059-.272v-.16c0-.704.743-1.295 1.693-1.295zM75.474 48c-.816-.027-1.474-.69-1.474-1.513 0-.77.579-1.407 1.316-1.487.473.319.92.504 1.184.61.105.054.184.08.29.107.131.212.21.478.21.743v.053c0 .213-.053.425-.158.61-.5.08-.92.4-1.158.85-.079 0-.131.027-.21.027.026 0 0 0 0 0z"/>
        <path fill="#000" d="M75.754 47.54c.092 0 .154 0 .246-.026-.123.216-.185.432-.185.675V49c-1.138-.81-1.784-1.865-1.815-2.973V46c0 .838.77 1.514 1.723 1.54h.03zM75.04 43c.18.627.56 1.118.96 1.473-.56.082-1 .736-1 1.527v-.027l.04-1.828c0-.381 0-.763-.04-1.118 0 0 .02-.027.04-.027zM74.038 44.138c-.025 0-.05.025-.05.025 0-.1-.026-.226-.026-.326 0 .1.025.2.076.301z"/>
        <path fill="#000" d="M74.025 44.15c-.025-.1-.05-.2-.05-.3.025.1.025.2.05.3zM70 16.276v-3.054l1.42-.789C76.495 9.601 83.167 8.025 90.245 8h.102c7.052 0 13.673 1.552 18.67 4.36l32.295 18.103c.228.123.431.246.634.37.685.394 1.37.812 2.055 1.231-.913.197-1.827.419-2.714.64l-.863.197c-.127.025-.254.05-.38.099-.051-.025-.102-.074-.178-.099L107.57 14.798c-9.539-5.345-25.115-5.32-34.704.074L70 16.472v-.024-.172zM70 16.006s0-.026 0 0c0-.026 0 0 0 0zM70 35.32c0 .453-.053 1.04-.21 1.68h-.027L67 35.373v-.853c0-.827.684-1.52 1.5-1.52.263 0 .5.08.71.187.474.266.79.746.79 1.333v.8zM70 24.63v.852c0 .826-.658 1.518-1.5 1.518-.816 0-1.5-.666-1.5-1.491 0-.24.079-.506.21-.746.422-.719 1.343-.985 2.053-.559l.737.426z"/>
        <path fill="#000" d="M70 16v9.145l-.73-.414c-.705-.415-1.618-.156-2.035.544-.13.233-.209.466-.209.725V21.414L67 21.364c2.478-1.943 2.974-4.094 3-5.363z"/>
        <path fill="#000" d="M70 16.815V17c0-.954-.684-1.723-1.5-1.723-.684 0-1.237.523-1.447 1.23C67 16.355 67 16.17 67 16.016c0-.615.263-1.2.737-1.507L69.974 13v3.815H70z"/>
        <path fill="#000" d="M70 9v4.487l-2.257 1.257c-.478.282-.743.769-.743 1.256v-1.641C68.912 12.846 69.973 11 70 9z"/>
        <path fill="#000" d="M70 16.388s0 .025 0 0l-.757.422c-.73.397-1.675.149-2.108-.52-.054-.1-.108-.2-.135-.298.19-.57.784-.992 1.486-.992.811 0 1.487.62 1.514 1.388zM69 36.796s0 .026 0 0c-.368 1.451-1.421 3.284-4.018 4.862C62.385 43.211 59.052 44 55.696 44c-3.381 0-6.762-.79-9.384-2.367-2.744-1.655-4.287-3.92-4.312-6.39v-2.748l2.083-1.248c.44-.28.686-.763.686-1.247v5.218c.024 1.4 1.053 2.8 2.915 3.895 4.312 2.596 11.59 2.596 15.877.025 1.837-1.094 2.842-2.494 2.842-3.894L69 36.796zM62.063 29.171L69 33.073c-.193-.094-.41-.165-.65-.165-.747 0-1.373.611-1.373 1.34V35l-6.286-3.549c-.65-.376-.892-1.198-.506-1.833.385-.588 1.204-.799 1.878-.447zM79.809 34.333l-12.122-7.234c-.44-.278-.71-.759-.685-1.264 0 .784.636 1.416 1.395 1.416.784 0 1.396-.658 1.396-1.442V25l11.436 6.804c1.592.935 2.865 2.301 3.771 3.894-.392.127-.76.253-1.15.38-.736.253-1.127 1.062-.882 1.82.024.051.024.077.048.102-.66-1.492-1.763-2.807-3.207-3.667z"/>
        <path fill="#000" d="M67.329 16.404c.403.676 1.285.927 1.965.526l.706-.401c-.025 1.228-.504 3.308-2.898 5.188-.429.326-.908.651-1.462.977C62.968 24.224 59.541 25 56.088 25c-3.478 0-6.956-.777-9.652-2.33-2.823-1.63-4.386-3.835-4.436-6.266 0-.777.655-1.404 1.437-1.404.78 0 1.436.627 1.436 1.404v.075c.05 1.378 1.109 2.706 3 3.784 4.435 2.557 11.92 2.557 16.33.025 1.865-1.077 2.924-2.43 2.924-3.784 0-.126.025-.276.05-.401.076.125.101.225.152.3zM67.127 8.923c-.025-1.416-1.084-2.832-2.999-3.964-2.243-1.313-5.242-1.983-8.216-1.983-2.974 0-5.922.644-8.115 1.931-1.915 1.133-2.948 2.523-2.923 3.964 0-.798-.655-1.441-1.437-1.441-.781 0-1.411.669-1.436 1.467-.025-1.441.529-4.273 4.36-6.538 5.368-3.167 13.81-3.14 19.203.051 2.823 1.673 4.41 3.964 4.436 6.461V9c0-.798-.63-1.467-1.437-1.467-.78 0-1.436.643-1.436 1.441v-.051zM65.912 15.063c.05-.05.1-.076.176-.126-.05.05-.126.1-.176.126z"/>
        <path fill="#000" d="M65.912 15.05c.05-.025.1-.075.176-.1-.075.025-.126.05-.176.1z"/>
        <path fill="#000" d="M65.874 15.075c.076-.05.176-.1.252-.15-.1.05-.176.1-.252.15zM63 16.15c.353-.1.676-.2 1-.3-.324.1-.676.2-1 .3zM62 16.126c.343-.076.686-.176 1-.252-.343.076-.686.151-1 .252zM58 17.05c.333-.025.667-.075 1-.1-.333.05-.667.075-1 .1zM57 17.038c.324-.025.676-.05 1-.076-.324.05-.676.076-1 .076z"/>
        <path fill="#000" d="M47.872 12.256c4.436 2.529 11.921 2.529 16.331.05 1.865-1.067 2.924-2.405 2.924-3.744 0-.769.655-1.388 1.436-1.388.782 0 1.437.644 1.437 1.413-.025 1.933-1.033 3.743-2.873 5.181-.05.05-.126.1-.177.149-.05.05-.1.074-.176.124-.176.124-.353.248-.554.372-.05.025-.101.074-.177.099-.05.025-.126.074-.176.099-.076.05-.177.1-.252.149-.68.372-1.386.719-2.142.991-.278.1-.58.199-.857.298-.278.1-.58.174-.882.248-.807.223-1.639.397-2.495.496-.303.05-.605.074-.908.099-.302.025-.63.05-.932.074-3.251.174-6.578-.322-9.376-1.487-.176-.075-.378-.149-.554-.248-.353-.174-.706-.347-1.059-.546-.075-.05-.176-.099-.252-.148l-.226-.15c-.101-.073-.227-.148-.328-.222-.126-.075-.252-.174-.378-.273l-.025-.025c-.076-.05-.151-.099-.227-.173-1.915-1.463-2.949-3.298-2.974-5.256v-.025C42 7.645 42.63 7 43.437 7c.78 0 1.436.62 1.436 1.388v.124c.025.645.303 1.29.781 1.884.126.15.278.323.429.472.075.074.151.148.252.223.428.446.958.818 1.537 1.165z"/>
        <path fill="#000" d="M47.958 20.222c-1.864-.997-2.908-2.25-2.958-3.503.075 1.23 1.119 2.46 2.958 3.434 4.375 2.366 11.758 2.366 16.109.023 1.889-1.02 2.908-2.274 2.883-3.573V16c0 .116.025.255.05.371-.05.116-.05.232-.05.371-.025 1.276-1.044 2.53-2.883 3.504-4.326 2.343-11.709 2.343-16.109-.024zM47 14.874c.318.076.636.176 1 .252-.318-.076-.682-.151-1-.252zM46.126 15.075c-.076-.05-.176-.1-.252-.15.076.05.176.1.252.15zM45.874 11.887c.076.075.151.15.252.226-.1-.075-.176-.15-.252-.226zM45.887 14.925l.226.15-.226-.15zM44.811 14.862c.126.1.252.176.378.276-.126-.075-.252-.176-.378-.276z"/>
        <path fill="#000" d="M44.887 14.912c.075.05.15.126.226.176-.075-.075-.15-.126-.226-.176zM46.413 22.464c-.576-.333-1.078-.69-1.554-1.073V30c0-.255-.05-.485-.201-.715-.401-.69-1.279-.946-1.956-.537l-.702.409V16.026 16c.05 2.478 1.605 4.752 4.413 6.387 2.708 1.584 6.169 2.376 9.604 2.376 3.41 0 6.846-.792 9.504-2.35.551-.333 1.028-.665 1.454-.997l.025.051c-.451.358-.953.715-1.48 1.022-5.315 3.142-13.716 3.117-19.107-.025zM45 9c.065.684.387 1.368 1 2-.613-.632-.968-1.316-1-2z"/>
        <path fill="#000" d="M44.898 15.932c0-.707-.66-1.277-1.449-1.277-.788 0-1.424.57-1.449 1.277V9c.025 1.801 1.068 3.489 3 4.834-.025-.023-.076-.046-.102-.069v2.167zM44.788 29.739c.132.233.212.491.212.724 0 .518-.265 1.01-.743 1.269L42 33v-3.417l.743-.414c.69-.362 1.62-.13 2.045.57zM3.398 61.105c.03 2.71.211 5.342.602 7.895-2.496-2.316-3.88-4.974-4-7.737V60.5c0-.816.782-1.5 1.714-1.5.933 0 1.715.684 1.715 1.5V60.789c-.03.08-.03.185-.03.316zM3 60V60z"/>
        <path fill="#000" d="M1.434 58.812c-.78 0-1.434.662-1.434 1.45v.255c0-4.503 2.917-8.7 8.199-11.778L42 29v3.358l-32.368 18.9c-4.25 2.492-6.64 5.672-6.765 9.03 0-.84-.629-1.476-1.433-1.476z"/>
    </g>
</svg>
