<svg xmlns="http://www.w3.org/2000/svg" width="170" height="177" viewBox="0 0 170 177">
    <g fill="none">
        <g>
            <g fill="#81C6BC">
                <path d="M6.336 55.02L.024 51.36l3.936-2.273c.024 2.799.912 4.832 2.376 5.933zM91.536 6.004l-6.384-3.612L89.16.072c0 2.775.912 4.808 2.376 5.932z" transform="translate(8 55) translate(46.8 64.588)"/>
            </g>
            <g fill="#000">
                <path d="M71.664 102.91c-.216 0-.432-.047-.624-.167-.384-.215-.624-.622-.624-1.076V76.095c0-.694.552-1.244 1.248-1.244s1.248.55 1.248 1.244v23.419l5.544-3.182 52.872-30.428 4.008-2.32c.6-.335 1.368-.144 1.704.454.336.598.144 1.364-.456 1.698l-4.008 2.32-52.872 30.43-7.416 4.257c-.192.12-.408.168-.624.168zM155.52 54.66c-.432 0-.84-.215-1.08-.621-.336-.598-.144-1.364.456-1.699l2.664-1.53c1.08-.623 1.752-1.795 1.752-3.039v-1.53c0-.694.552-1.245 1.248-1.245s1.248.55 1.248 1.244v1.531c0 2.13-1.152 4.115-3 5.191l-2.664 1.531c-.192.12-.408.168-.624.168z" transform="translate(8 55)"/>
                <path d="M160.56 47.484c-.696 0-1.248-.55-1.248-1.244V25.644L119.184 2.56c-.6-.335-.792-1.1-.456-1.699.336-.598 1.104-.79 1.704-.454L161.16 23.85c.024.024.048.024.096.048.336.215.552.598.552 1.028V46.24c0 .694-.552 1.244-1.248 1.244zM98.208 45.714c-.216 0-.432-.048-.624-.167L56.832 22.104c-.6-.335-.792-1.1-.456-1.699.336-.598 1.104-.79 1.704-.454l40.752 23.443c.6.335.792 1.1.456 1.698-.216.407-.648.622-1.08.622zM42.048 119.967c-.432 0-.84-.216-1.08-.622-.336-.598-.144-1.364.456-1.699l8.736-5.023c.6-.335 1.368-.144 1.704.454.336.598.144 1.364-.456 1.699l-8.736 5.023c-.192.12-.408.168-.624.168zM70.344 103.676c-.432 0-.84-.215-1.08-.622-.336-.598-.144-1.363.456-1.698l8.736-5.024c.6-.335 1.368-.143 1.704.455.336.598.144 1.363-.456 1.698l-8.736 5.024c-.216.12-.432.167-.624.167z" transform="translate(8 55)"/>
                <path d="M71.664 77.338c-.432 0-.84-.215-1.08-.622-.336-.598-.144-1.363.456-1.698l88.872-51.144c.48-.287 1.128-.24 1.536.191.48.479.48 1.268 0 1.77-.072.072-.168.144-.264.192L72.288 77.17c-.192.12-.408.167-.624.167z" transform="translate(8 55)"/>
                <path d="M42.048 115.709c-.696 0-1.248-.55-1.248-1.244v-4.258c0-.287 0-.598.024-.933.072-2.249.384-4.521.936-6.698 2.04-7.99 7.32-14.927 14.472-19.042l14.616-8.42 21.216-26.147c1.608-1.985 3.408-3.827 5.352-5.454 1.824-1.53 3.792-2.918 5.856-4.114l15.384-8.851c2.976-1.723 6.168-3.038 9.504-3.947 2.64-.718 5.376-1.172 8.136-1.364l24.192-1.555c.72-.047 1.32.527 1.32 1.244 0 .67-.528 1.22-1.2 1.244l-24.168 1.555c-2.568.168-5.136.598-7.632 1.268-3.12.861-6.12 2.105-8.904 3.708l-15.384 8.85c-1.944 1.125-3.792 2.417-5.496 3.852-1.824 1.531-3.528 3.253-5.04 5.12L72.624 76.86c-.096.12-.216.215-.336.287L57.48 85.663c-6.576 3.78-11.424 10.167-13.32 17.51-.504 2.01-.816 4.067-.864 6.149 0 .31-.024.574-.024.86v4.259c.024.694-.552 1.268-1.224 1.268z" transform="translate(8 55)"/>
                <path d="M71.664 77.338c-.216 0-.432-.047-.624-.167L30.288 53.728c-.6-.335-.792-1.1-.456-1.699.336-.598 1.104-.789 1.704-.454l40.752 23.443c.6.335.792 1.1.456 1.698-.216.407-.648.622-1.08.622zM128.496 29.04c-.216 0-.432-.047-.624-.167L87.12 5.43c-.6-.335-.792-1.1-.456-1.698.336-.598 1.104-.79 1.704-.455L129.12 26.72c.6.335.792 1.1.456 1.699-.24.406-.648.622-1.08.622z" transform="translate(8 55)"/>
                <path d="M1.296 92.265c-.696 0-1.248-.55-1.248-1.243v-4.258c0-.288 0-.575.024-.838.072-2.248.36-4.52.912-6.698 2.04-8.013 7.32-14.999 14.496-19.137l14.616-8.42 21.216-26.147c1.608-1.985 3.408-3.827 5.352-5.454 1.824-1.53 3.792-2.918 5.88-4.114l15.384-8.851c2.976-1.723 6.168-3.038 9.504-3.947 2.64-.718 5.376-1.173 8.136-1.364L119.76.24c.696-.048 1.272.479 1.32 1.172.048.694-.48 1.268-1.176 1.316L95.712 4.282c-2.568.167-5.136.598-7.632 1.268-3.12.861-6.12 2.105-8.904 3.708l-15.384 8.85c-1.944 1.125-3.792 2.417-5.496 3.852-1.824 1.531-3.528 3.253-5.016 5.12L31.92 53.416c-.096.12-.216.215-.336.287L16.776 62.22c-6.6 3.804-11.472 10.215-13.32 17.582-.504 2.01-.792 4.09-.84 6.148v5.024c-.072.717-.624 1.291-1.32 1.291zM56.16 121.809c-1.392 0-2.664-.407-3.744-1.196 0 0-.024 0-.024-.024-1.848-1.388-2.856-3.852-2.856-6.914 0-1.602.264-3.3.792-5.047 1.608-5.359 5.376-10.382 9.6-12.822 3.024-1.746 5.928-1.986 8.184-.694 2.232 1.292 3.456 3.875 3.456 7.32 0 3.206-1.08 6.818-3.024 10.167s-4.56 6.1-7.368 7.703c-1.728 1.004-3.456 1.507-5.016 1.507zm-2.28-3.206s.024 0 0 0c1.464 1.1 3.648.933 6.048-.454 5.04-2.895 9.144-9.952 9.144-15.717 0-2.512-.792-4.33-2.208-5.167-1.44-.837-3.456-.598-5.688.694-3.648 2.105-7.056 6.674-8.472 11.386-.456 1.508-.696 2.967-.696 4.33.024 2.273.672 4.02 1.872 4.928zM141.336 72.793c-1.392 0-2.688-.406-3.744-1.22-1.848-1.387-2.856-3.851-2.856-6.913 0-1.603.264-3.301.792-5.047.504-1.651 1.2-3.302 2.112-4.88 1.968-3.47 4.632-6.292 7.512-7.942 2.52-1.46 4.944-1.866 7.032-1.196 1.68.526 2.976 1.746 3.768 3.468.552 1.22.84 2.703.84 4.354 0 3.205-1.08 6.818-3.024 10.167s-4.56 6.1-7.368 7.702c-1.776 1.005-3.504 1.507-5.064 1.507zm8.808-25.022c-1.128 0-2.424.407-3.768 1.173-2.448 1.41-4.848 3.97-6.576 7.009-.816 1.435-1.44 2.894-1.896 4.377-.456 1.507-.696 2.966-.696 4.33 0 2.273.672 4.019 1.872 4.928 1.44 1.076 3.648.909 6.024-.455 5.04-2.894 9.144-9.951 9.144-15.716 0-1.292-.216-2.416-.624-3.325-.504-1.1-1.272-1.818-2.256-2.13-.36-.119-.792-.19-1.224-.19z" transform="translate(8 55)"/>
                <path d="M42.048 119.967c-.216 0-.432-.048-.624-.168L.672 96.356c-.384-.215-.624-.622-.624-1.076v-4.258c0-.455.24-.862.624-1.077.384-.215.864-.215 1.248 0l40.752 23.443c.384.216.624.622.624 1.077v4.258c0 .454-.24.86-.624 1.076-.192.12-.408.168-.624.168zM2.544 94.562l38.232 22.008v-1.388L2.544 93.175v1.387zM53.136 120.852c-.216 0-.456-.072-.648-.192l-6.288-3.636c-.6-.335-.792-1.1-.456-1.698.336-.598 1.104-.79 1.704-.455l6.312 3.66c.024.024.048.024.072.048.576.383.72 1.172.336 1.723-.24.358-.624.55-1.032.55zM138.336 71.836c-.216 0-.432-.047-.624-.167l-6.384-3.612c-.6-.335-.816-1.1-.48-1.699.336-.598 1.104-.813 1.704-.478l6.384 3.612c.6.335.816 1.1.48 1.699-.216.406-.648.645-1.08.645zM108.696 77.338c-.696 0-1.248-.55-1.248-1.243v-38.37c0-.694.552-1.245 1.248-1.245s1.248.55 1.248 1.244v38.37c.024.694-.552 1.244-1.248 1.244zM138.696 56.598c-.696 0-1.248-.55-1.248-1.243V26.338c0-.694.552-1.244 1.248-1.244s1.248.55 1.248 1.244v29.017c0 .67-.552 1.243-1.248 1.243z" transform="translate(8 55)"/>
                <path d="M71.664 98.653c-.432 0-.84-.216-1.08-.622-.336-.598-.144-1.364.456-1.699l65.04-37.437c.6-.335 1.368-.144 1.704.454.336.598.144 1.364-.456 1.699l-65.04 37.437c-.192.12-.408.168-.624.168zM42.048 115.709c-.432 0-.84-.216-1.08-.622-.336-.598-.144-1.364.456-1.699l9.48-5.454c.6-.335 1.368-.143 1.704.455.336.598.144 1.363-.456 1.698l-9.48 5.454c-.192.096-.408.168-.624.168zM154.776 50.81c-.432 0-.84-.216-1.08-.623-.336-.598-.144-1.363.456-1.698l5.784-3.325c.6-.335 1.368-.144 1.704.454.336.598.144 1.364-.456 1.699l-5.784 3.325c-.192.12-.408.167-.624.167zM42.96 104.13c-.216 0-.432-.047-.624-.167l-10.968-6.315c-.6-.335-.792-1.1-.456-1.699.336-.598 1.104-.789 1.704-.454l10.968 6.315c.6.335.792 1.1.456 1.699-.216.406-.648.622-1.08.622zM42.048 110.542c-.216 0-.432-.048-.624-.168l-10.056-5.789c-.6-.335-.792-1.1-.456-1.698.336-.598 1.104-.79 1.704-.455l10.056 5.79c.6.334.792 1.1.456 1.698-.216.406-.648.622-1.08.622zM11.712 93.198c-.216 0-.432-.047-.624-.167L.72 87.051c-.384-.216-.648-.622-.648-1.1 0-.695.552-1.245 1.248-1.245.216 0 .432.048.624.168l10.416 5.98c.6.335.792 1.1.456 1.699-.24.406-.672.645-1.104.645zM11.712 86.237c-.216 0-.432-.048-.624-.167l-9.504-5.454c-.6-.335-.792-1.1-.456-1.699.336-.598 1.104-.79 1.704-.454l9.528 5.478c.6.335.792 1.1.456 1.698-.24.383-.672.598-1.104.598z" transform="translate(8 55)"/>
                <path d="M31.992 104.776c-.216 0-.432-.047-.624-.167l-20.28-11.578c-.384-.215-.624-.646-.624-1.076v-6.938c0-.454.24-.86.624-1.076.384-.216.864-.216 1.248 0l20.28 11.578c.384.215.624.646.624 1.076v6.938c0 .454-.24.86-.624 1.076-.192.096-.408.167-.624.167zM12.96 91.213l17.784 10.143v-4.067L12.96 87.146v4.067zM101.304 65.617c-.432 0-.84-.215-1.08-.622-.36-.598-.144-1.364.456-1.699l2.88-1.674c.6-.335 1.368-.144 1.704.454.36.599.144 1.364-.456 1.699l-2.88 1.674c-.192.096-.408.168-.624.168zM131.832 47.891c-.432 0-.84-.215-1.08-.622-.336-.598-.144-1.364.456-1.698l2.88-1.675c.6-.335 1.368-.143 1.704.455.336.598.144 1.363-.456 1.698l-2.88 1.675c-.192.095-.408.167-.624.167z" transform="translate(8 55)"/>
            </g>
        </g>
        <path fill="#000" d="M103.203 0H21.797C9.778 0 0 9.758 0 21.751c0 11.993 9.778 21.751 21.797 21.751h20.881c.193.048.386.12.578.168 2.481 5.192 12.982 11.417 14.234 12.138.217.12.458.192.723.192.361 0 .747-.144 1.011-.433.458-.456.53-1.177.193-1.73-.048-.072-3.733-6.129-5.154-10.335h48.94c12.019 0 21.797-9.758 21.797-21.75C125 9.757 115.222 0 103.203 0zm0 41.099H51.927c-.626.264-.988.937-.843 1.61.482 2.187 1.806 5.12 3.107 7.619-.482-.337-.988-.697-1.518-1.082-5.395-3.965-6.72-6.225-7.056-7.234-.145-.457-.506-.793-.94-.913h-22.88c-10.694 0-19.389-8.677-19.389-19.348S11.103 2.403 21.797 2.403h81.406c10.694 0 19.389 8.677 19.389 19.348S113.897 41.1 103.203 41.1z"/>
        <path fill="#FFF" d="M45.13 38H23.395C13.26 38 5 30.603 5 21.5S13.261 5 23.396 5h77.208C110.74 5 119 12.397 119 21.5S110.739 38 100.604 38h-48.63"/>
        <g fill="#000">
            <path d="M8.608 8.976c.12 0 .216.048.288.144l.84.912c-.456.576-1.032 1.008-1.703 1.32-.672.312-1.487.456-2.422.456-.84 0-1.607-.144-2.278-.432-.671-.288-1.247-.696-1.726-1.2-.48-.504-.84-1.128-1.103-1.848C.24 7.608.12 6.84.12 6c0-.864.144-1.632.431-2.352.288-.72.672-1.32 1.2-1.848.503-.504 1.126-.912 1.846-1.2.72-.288 1.51-.432 2.374-.432.839 0 1.582.144 2.206.408.623.264 1.174.624 1.63 1.08l-.695.984c-.048.072-.096.12-.168.168-.072.048-.168.072-.264.072-.12 0-.24-.048-.36-.144-.12-.096-.287-.192-.48-.312-.191-.12-.43-.216-.742-.312-.288-.096-.672-.144-1.127-.144-.528 0-1.031.096-1.463.288-.432.192-.84.456-1.151.792-.312.336-.576.768-.743 1.272-.192.504-.264 1.056-.264 1.68 0 .648.096 1.2.264 1.704.191.504.431.912.743 1.248.312.336.671.6 1.103.792.408.192.863.264 1.343.264.287 0 .551-.024.791-.048s.456-.072.647-.144c.192-.072.384-.168.552-.264.168-.096.36-.24.527-.408.048-.048.096-.096.168-.12-.024-.024.048-.048.12-.048zM14.675 3.48c.6 0 1.15.096 1.63.288.48.192.911.48 1.247.816.336.36.623.792.791 1.296.192.504.288 1.08.288 1.728 0 .648-.096 1.224-.288 1.728-.192.504-.455.96-.791 1.32-.336.36-.767.648-1.247.84-.48.192-1.03.288-1.63.288-.6 0-1.151-.096-1.63-.288-.504-.192-.912-.48-1.272-.84s-.623-.792-.815-1.32c-.192-.504-.288-1.08-.288-1.728 0-.624.096-1.2.288-1.728.192-.504.456-.96.815-1.296.36-.36.768-.624 1.271-.816.48-.192 1.007-.288 1.63-.288zm0 6.816c.671 0 1.175-.216 1.486-.672.312-.456.48-1.104.48-1.992 0-.864-.168-1.536-.48-1.992-.311-.456-.815-.696-1.486-.696-.672 0-1.175.24-1.511.696-.336.456-.48 1.128-.48 1.992 0 .864.168 1.536.48 1.968.312.456.815.696 1.51.696zM20.166 11.664V3.6h1.175c.24 0 .407.12.503.36l.12.6c.144-.168.288-.312.456-.432.143-.12.311-.24.503-.336.168-.096.36-.168.576-.216.215-.048.431-.072.671-.072.504 0 .935.144 1.247.408.312.264.575.648.743 1.104.12-.264.288-.504.48-.696.192-.192.383-.336.623-.48.216-.12.456-.216.72-.264.263-.048.503-.096.767-.096.455 0 .84.072 1.175.216.335.144.647.336.863.6.24.264.408.576.528.96.12.384.191.816.191 1.296v5.136h-1.942V6.552c0-.504-.12-.912-.336-1.152-.215-.264-.551-.384-.983-.384-.192 0-.383.024-.551.096-.168.072-.312.168-.456.288-.144.12-.24.288-.311.48-.072.192-.12.408-.12.672v5.136h-1.943V6.552c0-.528-.12-.936-.335-1.176-.216-.24-.528-.36-.96-.36-.287 0-.527.072-.79.216-.24.144-.48.336-.672.576v5.904h-1.942v-.048zM36.71 3.48c.504 0 .984.072 1.391.24.432.168.792.408 1.103.72.312.312.552.696.72 1.152.168.456.263.96.263 1.56 0 .144 0 .264-.024.36-.023.096-.047.168-.071.216-.024.048-.072.096-.144.12-.048.024-.12.024-.216.024h-4.964c.048.84.288 1.44.672 1.824.383.384.911.576 1.534.576.312 0 .576-.048.816-.12s.431-.144.6-.24c.167-.096.31-.168.455-.24.12-.072.263-.12.383-.12.072 0 .144.024.216.048.048.024.096.072.144.144l.575.696c-.215.24-.455.456-.719.624-.264.168-.551.312-.84.408-.287.096-.575.168-.886.216-.312.048-.6.072-.887.072-.552 0-1.08-.096-1.56-.288-.479-.192-.91-.456-1.246-.816-.36-.36-.647-.816-.84-1.344-.215-.528-.31-1.152-.31-1.872 0-.552.095-1.08.263-1.56s.431-.912.767-1.272.744-.648 1.223-.864c.456-.168.983-.264 1.583-.264zm.049 1.392c-.576 0-1.008.168-1.32.48-.31.312-.527.768-.623 1.368h3.645c0-.24-.024-.48-.096-.72-.072-.216-.168-.408-.312-.576-.143-.168-.311-.312-.527-.408-.216-.096-.48-.144-.767-.144zM48.268 3.48c.6 0 1.151.096 1.63.288.48.192.912.48 1.248.816.335.36.623.792.79 1.296.193.504.289 1.08.289 1.728 0 .648-.096 1.224-.288 1.728-.192.504-.456.96-.791 1.32-.336.36-.768.648-1.247.84-.48.192-1.031.288-1.63.288-.6 0-1.152-.096-1.631-.288-.504-.192-.912-.48-1.271-.84-.36-.36-.624-.792-.816-1.32-.191-.504-.287-1.08-.287-1.728 0-.624.096-1.2.287-1.728.192-.504.456-.96.816-1.296.36-.36.767-.624 1.27-.816.48-.192 1.032-.288 1.631-.288zm0 6.816c.672 0 1.175-.216 1.487-.672.311-.456.48-1.104.48-1.992 0-.864-.169-1.536-.48-1.992-.312-.456-.815-.696-1.487-.696-.671 0-1.175.24-1.51.696-.336.456-.48 1.128-.48 1.992 0 .864.168 1.536.48 1.968.311.456.815.696 1.51.696zM53.76 11.664V3.6h1.174c.24 0 .408.12.504.36l.143.648c.168-.168.336-.312.504-.456.192-.144.384-.264.575-.36.192-.096.408-.168.648-.24.24-.048.48-.072.743-.072.432 0 .84.072 1.175.216.336.144.624.36.863.624.24.264.408.6.528.96.12.384.168.792.168 1.248v5.136h-1.942V6.528c0-.504-.12-.864-.336-1.152-.24-.264-.576-.408-1.031-.408-.336 0-.648.072-.935.24-.288.144-.576.36-.84.624v5.832H53.76zM68.074 1.248c0 .168-.024.336-.096.48-.072.144-.168.264-.264.384-.12.12-.24.192-.407.264-.144.072-.312.096-.48.096-.168 0-.335-.024-.48-.096-.143-.072-.287-.144-.383-.264-.096-.12-.192-.24-.264-.384-.072-.144-.096-.312-.096-.48 0-.168.024-.336.096-.48.072-.144.144-.288.264-.384.12-.12.24-.192.384-.264.144-.072.311-.096.48-.096.167 0 .335.024.479.096.144.072.288.144.407.264.12.12.192.24.264.384.072.144.096.312.096.48zM67.786 3.6v8.064h-1.942V3.6h1.942zM69.968 11.664V3.6h1.175c.24 0 .408.12.504.36l.144.648c.168-.168.335-.312.503-.456.192-.144.384-.264.576-.36.192-.096.407-.168.647-.24.24-.048.48-.072.743-.072.432 0 .84.072 1.175.216.336.144.624.36.864.624s.407.6.527.96c.12.384.168.792.168 1.248v5.136h-1.942V6.528c0-.504-.12-.864-.336-1.152-.24-.264-.575-.408-1.031-.408-.336 0-.647.072-.935.24-.288.144-.576.36-.84.624v5.832h-1.942zM78.457 10.608c0-.168.024-.312.096-.456.072-.144.143-.264.24-.384.095-.096.24-.192.383-.24.144-.072.312-.096.48-.096.167 0 .311.024.455.096.144.072.264.144.384.24.096.096.192.24.24.384.072.144.096.312.096.456 0 .168-.024.312-.096.48-.072.144-.144.264-.24.384-.096.096-.24.192-.384.24-.144.048-.312.096-.455.096-.168 0-.336-.024-.48-.096-.144-.072-.264-.144-.384-.24-.096-.096-.191-.24-.24-.384-.047-.144-.095-.312-.095-.48zM81.981 10.608c0-.168.024-.312.096-.456.072-.144.144-.264.24-.384.096-.096.24-.192.384-.24.144-.072.312-.096.48-.096.167 0 .311.024.455.096.144.072.264.144.384.24.096.096.191.24.24.384.071.144.095.312.095.456 0 .168-.024.312-.096.48-.072.144-.143.264-.24.384-.095.096-.24.192-.383.24-.144.048-.312.096-.456.096-.167 0-.335-.024-.48-.096-.143-.072-.263-.144-.383-.24-.096-.096-.192-.24-.24-.384-.048-.144-.096-.312-.096-.48zM85.506 10.608c0-.168.024-.312.096-.456.072-.144.144-.264.24-.384.096-.096.24-.192.384-.24.143-.072.311-.096.48-.096.167 0 .31.024.455.096.144.072.264.144.383.24.096.096.192.24.24.384.072.144.096.312.096.456 0 .168-.024.312-.096.48-.072.144-.144.264-.24.384-.095.096-.24.192-.383.24-.144.048-.312.096-.456.096-.168 0-.336-.024-.48-.096-.143-.072-.263-.144-.383-.24-.096-.096-.192-.24-.24-.384-.048-.144-.096-.312-.096-.48z" transform="translate(17 15)"/>
        </g>
    </g>
</svg>
