<svg xmlns="http://www.w3.org/2000/svg" width="165" height="160" viewBox="0 0 165 160">
    <g fill="none">
        <path fill="#000" d="M164.771 43.143v-.16.16zM164.771 42.983v.16c0 .068 0 .137-.023.182 0 .069-.023.137-.046.183-.091.365-.343.684-.663.867L160.88 46.2l-.595.342.16-.547c.183-.64-.092-1.324-.664-1.666l-.732-.41 1.35-.776 2.174-1.255c.435-.25.961-.25 1.396-.023.046.023.069.046.115.069.022.023.068.045.091.068l.023.023c.046.023.092.068.114.114l.07.068.068.069c.023.023.046.046.046.068.022.023.022.046.045.069l.069.137c.023.023.023.045.023.068.023.046.023.069.046.114.022.046.022.091.022.137.046.023.046.069.07.114z"/>
        <path fill="#000" d="M164.771 43.143c0 .068 0 .137-.023.182.023-.068.023-.114.023-.182zM164.771 42.983c0-.045 0-.091-.023-.137 0 .046 0 .092.023.137zM164.725 43.508v.023l-21.283 71.045c-.114.342-.343.662-.663.844l-1.373.799-1.67-.958.503-1.711.595-.343L160.88 46.2l3.158-1.825c.343-.183.572-.502.686-.867zM164.68 42.618c.022.046.022.069.045.114-.023-.045-.045-.091-.045-.114zM164.68 42.618c0-.023-.023-.045-.023-.068 0 .023 0 .045.023.068zM164.565 42.39c-.023-.023-.023-.046-.046-.068.023.022.046.045.046.068zM164.474 42.253l-.069-.068.069.068zM164.336 42.116l-.114-.114c.046.023.091.069.114.114zM164.199 41.98c-.023-.023-.046-.046-.092-.07.046.024.07.047.092.07zM91.7.228l72.316 41.614c-.435-.228-.961-.228-1.396.023l-2.174 1.255L90.967 3.148l-1.35.776-2.174-1.255c-.389-.228-.847-.25-1.259-.09-.091.045-.205.09-.297.159.023-.023.069-.046.092-.069L90.235.23c.458-.252 1.007-.252 1.465 0zM159.782 44.33c.572.341.87 1.026.664 1.665l-.16.547-.504.297c-.229.137-.48.182-.732.182s-.504-.068-.732-.182l-.984-.57.32-1.096c.114-.365.343-.661.664-.844l.732-.41.732.41z"/>
        <path fill="#000" d="M160.286 46.542l-20.07 67.008-.504 1.71-.686-.387c-.824-.48-1.854-.228-2.38.502l.274-.936 8.262-27.606 12.152-40.587.984.57c.228.137.48.183.732.183s.503-.069.732-.183l.504-.274z"/>
        <path fill="#000" d="M89.617 3.947l69.456 39.972-.733.41c-.32.183-.549.48-.663.844l-.32 1.096L87.602 6.114l-1.602-.912c-.457-.251-.732-.73-.732-1.255 0-.137.023-.251.046-.365 0-.023.023-.023.023-.046.023-.045.023-.091.045-.137 0-.022.023-.045.023-.068.023-.023.023-.068.046-.091.046-.092.115-.183.183-.274.023-.023.023-.046.046-.069.069-.068.137-.136.206-.182.092-.068.183-.114.297-.16.412-.16.87-.137 1.26.092l2.173 1.3zM157.334 46.269L145.182 86.856z"/>
        <path fill="#FFF" d="M153.169 47.911L134.815 109.169 71.332 72.642 89.686 11.385z"/>
        <path fill="#000" d="M141.383 116.219L139.232 117.474 139.232 116.835 139.712 115.261z"/>
        <path fill="#000" d="M139.712 115.26l-.48 1.575v-.205c0-.525-.275-1.004-.733-1.255-.457-.251-1.007-.251-1.441 0l-.504.296.092-.273c.526-.753 1.579-.982 2.38-.502l.686.365zM139.232 119.162v2.35c0 .525-.275 1.004-.733 1.255L74.65 159.52c.458-.25.733-.73.733-1.254v-2.51l60.942-35.066v-1.552l-60.92 35.067v-.845c0-.524-.274-1.003-.732-1.254l-.732-.411 60.942-35.066 2.06 1.186c.092.068.183.137.275.182l2.014 1.164z"/>
        <path fill="#000" d="M139.232 117.474v1.71l-2.037-1.163c-.092-.068-.183-.114-.275-.182l.046.023c.023.022.046.022.069.045.023.023.045.023.068.046h.023c.023.023.046.023.069.023.137.068.274.09.435.114h.251c.092 0 .183-.023.275-.046.023 0 .069-.023.092-.023.022 0 .045-.023.045-.023h.046c.046-.022.069-.022.115-.045.022 0 .022-.023.045-.023l.733-.456z"/>
        <path fill="#000" d="M139.232 116.835v.616l-.733.41c.32-.182.55-.479.664-.844l.069-.182z"/>
        <path fill="#000" d="M139.232 116.63v.205l-.069.205c-.114.365-.343.662-.664.844-.023 0-.023.023-.045.023-.046.023-.07.046-.115.046h-.023c-.023 0-.046.023-.068.023-.023 0-.046.022-.092.022-.092.023-.183.046-.275.046h-.251c-.16-.023-.298-.046-.435-.114-.023 0-.046-.023-.069-.023h-.023c-.023-.023-.045-.023-.068-.045-.023-.023-.046-.023-.069-.046-.023-.023-.069-.046-.092-.069-.274-.25-.457-.57-.526-.935-.023-.205-.023-.41.046-.616l.16-.548.504-.296c.457-.251 1.006-.251 1.441 0 .458.274.733.753.733 1.278z"/>
        <path fill="#000" d="M138.34 117.953c.045-.023.068-.023.114-.046-.023.023-.07.046-.115.046zM138.34 117.976s-.024 0 0 0c-.024.022-.047.022-.07.022.023-.022.046-.022.07-.022zM137.927 118.067c.092 0 .183-.023.275-.046-.115.023-.206.046-.275.046zM137.79 118.09h.137c-.046-.023-.091 0-.137 0zM137.653 118.067h.114c-.023.023-.069 0-.114 0zM137.15 117.93c.022.023.045.023.068.023-.023 0-.046 0-.069-.023zM137.058 117.884c.022.023.045.023.068.046-.023-.023-.046-.023-.068-.046zM136.989 117.839l-.046-.023-.046-.046c.023.023.046.046.092.069z"/>
        <path fill="#000" d="M136.943 117.816l-2.06-1.186 1.58-.913c-.16.365-.184.753-.092 1.118.046.365.229.684.526.935 0 .023.023.023.046.046z"/>
        <path fill="#000" d="M136.92 114.462l-.274.936c-.023.045-.069.09-.092.16-.046.068-.069.136-.091.182l-1.58.912-69.455-39.994.366-.205c.526-.069 1.03-.388 1.304-.89.206-.365.275-.776.23-1.164l69.592 40.063z"/>
        <path fill="#000" d="M136.646 115.375l-.092.273-.114.069c.023-.069.068-.137.091-.183.046-.045.069-.114.115-.16zM136.44 115.717l.114-.069-.16.548c-.069.205-.069.41-.046.616-.091-.342-.069-.73.092-1.095zM136.874 117.77c-.297-.228-.48-.57-.526-.935.069.342.252.684.526.935zM118.338 115.443c.457.251.732.73.732 1.255 0 .525-.275 1.004-.732 1.255l-4.875 2.806c.23-.114.412-.297.55-.525.411-.684.16-1.574-.527-1.985l-.732-.41 1.945-1.118-6.202-3.56.733-.41c.686-.41.938-1.278.526-1.985-.115-.205-.275-.365-.458-.479l9.04 5.156z"/>
        <path fill="#000" d="M113.486 118.227c.687.387.938 1.277.526 1.984-.137.229-.32.411-.549.525-.229.114-.457.183-.71.183-.25 0-.503-.069-.732-.183l-2.174-1.255 2.907-1.665.732.41z"/>
        <path fill="#000" d="M113.463 120.736l-4.851 2.806c.228-.114.412-.296.549-.524.412-.685.16-1.575-.526-1.985l-.733-.41 1.945-1.119 2.174 1.255c.23.137.481.183.733.183s.503-.069.71-.206zM112.754 117.816L109.847 119.481 103.646 115.922 106.552 114.234zM109.756 110.72c.412.685.16 1.575-.526 1.985l-.733.411-2.906-1.665 2.174-1.255c.458-.274 1.007-.251 1.419-.023.023.023.068.046.091.046.206.136.366.296.48.501z"/>
        <path fill="#000" d="M100.19 104.994l9.017 5.179c-.435-.228-.962-.251-1.42.023l-2.173 1.255-6.202-3.56.732-.41c.687-.41.939-1.278.527-1.985-.138-.205-.298-.388-.481-.502zM108.612 121.033c.686.388.938 1.277.526 1.985-.137.228-.32.41-.55.524-.228.114-.457.183-.709.183-.251 0-.503-.069-.732-.183l-2.174-1.254 2.906-1.666.733.41z"/>
        <path fill="#000" d="M108.612 123.542l-4.852 2.807c.229-.114.412-.297.55-.525.411-.685.16-1.574-.527-1.985l-.732-.41 1.945-1.119 2.174 1.255c.229.137.48.183.732.183.23-.023.48-.092.71-.206zM105.614 111.451L108.497 113.116 106.552 114.234 103.646 112.568zM107.902 120.622L104.996 122.288 98.794 118.706 101.7 117.04z"/>
        <path fill="#000" d="M106.552 114.234L103.646 115.922 100.739 114.234 103.646 112.568zM103.76 123.839c.687.388.938 1.278.526 1.985-.137.228-.32.41-.549.525-.229.114-.458.182-.71.182-.251 0-.503-.068-.732-.182l-2.174-1.255 2.907-1.666.732.411z"/>
        <path fill="#000" d="M103.737 126.349l-4.783 2.76c.183-.114.344-.274.458-.479.389-.684.16-1.574-.526-1.985l-.733-.41 1.945-1.118 2.175 1.254c.228.137.48.183.732.183.274-.023.526-.091.732-.205zM103.646 112.568L100.739 114.234 94.537 110.675 97.444 109.009zM103.646 115.922L101.7 117.04 98.794 115.375 100.739 114.234zM96.826 119.846L103.028 123.406 100.121 125.094 93.92 121.512z"/>
        <path fill="#000" d="M101.7 117.04L98.794 118.706 95.888 117.04 98.794 115.375zM100.67 105.473c.413.685.16 1.574-.526 1.985l-.732.41-2.906-1.665 2.174-1.255c.457-.25.984-.25 1.418-.022.046.022.07.045.115.068.16.114.32.297.458.48z"/>
        <path fill="#000" d="M91.105 99.747l8.993 5.179c-.434-.229-.96-.229-1.418.022l-2.174 1.255-6.202-3.559.732-.41c.687-.411.938-1.278.526-1.986-.114-.205-.274-.365-.457-.501zM98.908 126.622c.687.411.939 1.278.527 1.985-.115.206-.275.365-.458.48-.023.022-.069.045-.091.045-.23.114-.458.183-.71.183-.252 0-.503-.069-.732-.183l-2.174-1.255 2.906-1.665.732.41zM99.412 107.869L97.444 109.009 94.537 107.344 96.506 106.203z"/>
        <path fill="#000" d="M98.886 129.132l-4.852 2.806c.229-.114.412-.296.55-.524.411-.685.16-1.575-.527-1.985l-.732-.411 1.945-1.118 2.174 1.255c.229.137.48.182.732.182s.48-.068.71-.205zM92.592 111.793L98.794 115.375 95.888 117.04 89.686 113.481zM98.794 118.706L96.826 119.846 93.92 118.181 95.888 117.04zM98.176 126.212L95.27 127.877 89.068 124.318 91.974 122.63zM97.444 109.009L94.537 110.675 91.631 109.009 94.537 107.344z"/>
        <path fill="#000" d="M96.826 119.846L93.92 121.512 91.013 119.846 93.92 118.181zM94.034 129.429c.687.41.938 1.277.526 1.985-.137.228-.32.41-.549.524-.229.114-.458.183-.71.183-.251 0-.503-.069-.732-.183l-2.174-1.255 2.907-1.665.732.41zM88.336 103.762L94.537 107.344 91.631 109.009 85.429 105.427zM94.537 110.675L92.592 111.793 89.686 110.127 91.631 109.009z"/>
        <path fill="#000" d="M94.034 131.938l-4.852 2.784c-.228.137-.48.205-.732.205s-.503-.068-.732-.205l-9.063-5.225c.206.114.458.183.687.183.252 0 .503-.069.732-.206l2.174-1.255 6.202 3.56 1.945-1.118 2.174 1.254c.23.137.48.183.733.183.251.023.503-.046.732-.16zM93.92 118.181L91.013 119.846 84.811 116.264 87.718 114.599zM93.92 121.512L91.974 122.63 89.068 120.964 91.013 119.846z"/>
        <path fill="#000" d="M93.302 128.995L90.395 130.683 84.193 127.102 87.1 125.436zM92.592 111.793L89.686 113.481 86.779 111.793 89.686 110.127zM91.974 122.63L89.068 124.318 86.162 122.63 89.068 120.964zM91.562 100.248c.39.685.16 1.575-.526 1.985l-.732.411-2.907-1.665 2.174-1.255c.458-.251.984-.251 1.42-.023.045.023.068.046.114.068.183.114.343.274.457.48z"/>
        <path fill="#000" d="M81.997 94.522L90.99 99.7c-.435-.228-.96-.228-1.419.023l-2.174 1.255-6.201-3.56.732-.41c.686-.41.938-1.278.526-1.985-.114-.228-.274-.388-.457-.502zM90.304 102.644L88.336 103.762 85.429 102.096 87.397 100.979zM89.686 110.127L86.779 111.793 80.578 108.234 83.484 106.568zM89.686 113.481L87.718 114.599 84.811 112.934 86.779 111.793zM89.068 120.964L86.162 122.63 79.96 119.071 82.866 117.405zM89.068 124.318L87.1 125.436 84.216 123.771 86.162 122.63z"/>
        <path fill="#000" d="M88.336 103.762L85.429 105.427 82.523 103.762 85.429 102.096zM87.718 114.599L84.811 116.264 81.905 114.599 84.811 112.934zM87.58 6.114l-20.344 67.92c-.138-.388-.412-.73-.801-.935l-1.67-.958L85.291 3.58c-.023.115-.046.252-.046.366 0 .525.275 1.004.733 1.255l1.601.912zM84.216 123.771L87.1 125.436 84.193 127.102 81.31 125.436zM85.681 2.92c-.023.023-.046.046-.046.069 0-.023.023-.046.046-.069z"/>
        <path fill="#000" d="M85.429 102.096L82.523 103.762 76.344 100.203 79.227 98.515zM85.429 105.427L83.484 106.568 80.578 104.88 82.523 103.762zM85.43 3.24c-.024.023-.024.068-.047.091.023-.023.046-.046.046-.091zM85.36 3.4c-.022.045-.022.09-.045.136.023-.068.023-.091.046-.137zM84.811 112.934L81.905 114.599 75.726 111.04 78.61 109.352zM84.811 116.264L82.866 117.405 79.96 115.717 81.905 114.599zM84.216 123.771L81.31 125.436 75.108 121.877 78.015 120.189zM81.31 125.436L84.193 127.102 82.248 128.242 79.342 126.554z"/>
        <path fill="#000" d="M83.484 106.568L80.578 108.234 77.671 106.568 80.578 104.88zM79.96 115.717L82.866 117.405 79.96 119.071 77.053 117.405zM82.454 95.001c.412.684.16 1.574-.526 1.985l-.732.41-2.907-1.665 2.174-1.255c.458-.273 1.007-.25 1.42-.023.022.023.068.046.09.046.207.137.367.297.481.502zM82.248 128.242l-2.174 1.255c-.229.137-.48.205-.732.205s-.48-.068-.687-.182c-.045-.023-.068-.046-.114-.069-.183-.114-.343-.273-.458-.479-.412-.684-.16-1.574.527-1.985l.732-.41 2.906 1.665z"/>
        <path fill="#000" d="M72.888 89.275l9.017 5.178c-.435-.228-.961-.25-1.419.023l-2.174 1.255-6.225-3.582.733-.41c.686-.411.938-1.278.526-1.985-.114-.206-.275-.365-.458-.48zM81.196 97.397L79.227 98.515 76.344 96.849 78.289 95.731zM80.578 104.88L77.671 106.568 71.469 102.986 74.376 101.321zM80.578 108.234L78.61 109.352 75.726 107.686 77.671 106.568zM79.96 115.717L77.053 117.405 70.852 113.823 73.758 112.158zM79.96 119.071L78.015 120.189 75.108 118.523 77.053 117.405zM73.14 122.995l6.202 3.559-.732.41c-.687.411-.939 1.278-.527 1.986.115.205.275.365.458.479l-8.948-5.157c.206.092.412.137.64.137.252 0 .504-.068.733-.205l2.174-1.21z"/>
        <path fill="#000" d="M79.227 98.515L76.344 100.203 73.438 98.515 76.344 96.849zM78.61 109.352L75.726 111.04 72.82 109.352 75.726 107.686zM75.108 118.523L78.015 120.189 75.108 121.877 72.202 120.189z"/>
        <path fill="#000" d="M76.344 96.849L73.438 98.515 67.236 94.955 70.142 93.29zM76.344 100.203L74.376 101.321 71.469 99.655 73.438 98.515zM75.726 107.686L72.82 109.352 66.618 105.792 69.524 104.127zM75.726 111.04L73.758 112.158 70.852 110.492 72.82 109.352zM75.406 154.206v4.061c0 .524-.275 1.003-.733 1.254-.228.137-.48.183-.732.183s-.503-.068-.732-.183c-.458-.25-.733-.73-.733-1.254v-4.061L3.044 114.234.87 112.979c-.458-.25-.733-.73-.733-1.255 0-.388.16-.753.435-1.026l.069-.069c.068-.068.16-.114.229-.16l.068-.045h.023c.435-.205.938-.205 1.373.046l2.174 1.254 69.456 39.972.732.41c.458.252.733.73.733 1.255v.845h-.023zM68.906 114.964L75.108 118.523 72.202 120.189 66 116.63zM72.202 120.189L75.108 121.877 73.14 122.995 70.234 121.329z"/>
        <path fill="#000" d="M74.376 101.321L71.469 102.986 68.563 101.321 71.469 99.655zM70.852 110.492L73.758 112.158 70.852 113.823 67.945 112.158zM73.346 89.754c.412.684.16 1.574-.526 1.985l-.733.41-2.906-1.665 2.174-1.255c.458-.274.984-.251 1.419-.023.023.023.069.046.091.069.206.114.367.273.481.479zM73.209 159.521L.869 117.884c-.457-.25-.732-.73-.732-1.254v-4.906c0 .525.275 1.004.733 1.255l2.174 1.255v1.551l69.455 39.972v2.51c0 .524.275 1.003.71 1.254zM70.234 121.33l2.906 1.665-2.174 1.255c-.229.137-.48.205-.732.205-.23 0-.435-.046-.641-.137-.023 0-.023-.023-.046-.023l-.114-.068c-.183-.114-.344-.274-.458-.48-.389-.684-.16-1.573.526-1.984l.733-.434z"/>
        <path fill="#000" d="M63.712 83.981l9.062 5.225c-.435-.228-.961-.25-1.419.023l-2.174 1.255-6.202-3.56-1.945 1.119-2.174-1.255c-.458-.274-.984-.251-1.419-.023l4.829-2.784c.435-.25.984-.25 1.442 0zM72.499 154.206L3.044 114.234 3.044 114.234zM72.087 92.149L70.142 93.29 67.236 91.602 69.181 90.484zM65.268 96.073L71.469 99.655 68.563 101.321 62.361 97.762zM71.469 102.986L69.524 104.127 66.618 102.439 68.563 101.321zM70.852 110.492L67.945 112.158 61.743 108.599 64.65 106.91zM70.852 113.823L68.906 114.964 66 113.276 67.945 112.158zM70.234 121.33l-.733.41c-.686.41-.938 1.278-.526 1.985.114.205.275.365.458.48l-8.994-5.18c.206.114.435.16.687.16.251 0 .503-.069.732-.206l2.174-1.254 6.202 3.604z"/>
        <path fill="#000" d="M70.142 93.29L67.236 94.955 64.329 93.29 67.236 91.602zM69.456 124.204l.114.068c-.046-.022-.091-.045-.114-.068zM69.524 104.127L66.618 105.792 63.712 104.127 66.618 102.439zM66 113.276L68.906 114.964 66 116.63 63.094 114.964zM67.327 74.4c.069.387-.023.798-.229 1.163-.297.502-.778.798-1.304.89l.366-.206c.687-.41.938-1.277.527-1.985-.39-.684-1.282-.935-1.991-.524l-.504.296.572-1.893 1.67.958c.39.228.664.547.802.935l-.069.274.16.091z"/>
        <path fill="#000" d="M67.327 74.4l-.183-.092.069-.274c.069.114.091.251.114.365zM61.034 88.043L67.236 91.602 64.329 93.29 58.128 89.708zM67.236 94.955L65.268 96.073 62.361 94.408 64.329 93.29zM66.687 74.262c.411.685.16 1.575-.527 1.985l-.366.206c-.275.045-.572.022-.847-.069l-.229-.137c-.595-.342-.87-1.026-.663-1.665l.16-.548.503-.296c.687-.411 1.58-.183 1.969.524zM66.618 102.439L63.712 104.127 57.51 100.545 60.416 98.88zM66.618 105.792L64.65 106.91 61.743 105.245 63.712 104.127zM63.094 114.964L66 116.63 64.032 117.747 61.126 116.082zM66 113.276L63.094 114.964 56.892 111.382 59.798 109.717z"/>
        <path fill="#000" d="M65.794 76.453l-.366.205-.48-.274c.274.091.571.114.846.069z"/>
        <path fill="#000" d="M65.428 76.658l-60.92 35.066-2.174-1.254c-.412-.251-.938-.251-1.373-.046L62.5 74.992l2.128 1.232c.114.069.206.114.32.137l.48.297zM65.268 96.073L62.361 97.762 59.455 96.073 62.361 94.408z"/>
        <path fill="#000" d="M64.696 76.247l.228.137c-.114-.046-.206-.091-.32-.137l-2.128-1.232 1.716-.98-.16.547c-.183.639.091 1.323.664 1.665zM64.65 106.91L61.743 108.599 58.837 106.91 61.743 105.245zM64.032 117.747l-2.174 1.255c-.229.137-.48.206-.732.206-.23 0-.481-.069-.687-.16-.046-.023-.069-.046-.114-.069-.184-.114-.344-.273-.458-.479-.412-.684-.16-1.574.526-1.985l.733-.41 2.906 1.642zM61.766 124.067c1.145.662 1.785 1.688 1.785 2.852 0 1.255-.778 2.441-2.15 3.24l-4.395 2.532c-1.098.639-2.471.958-3.776.958-1.144 0-2.265-.25-3.135-.752l-16.294-9.4c-1.144-.662-1.785-1.689-1.785-2.852 0-1.255.778-2.441 2.151-3.24l4.394-2.532c2.083-1.187 5.058-1.278 6.934-.206l16.271 9.4zm-2.174 2.943l-15.928-9.194c-.663-.388-2.265-.388-3.295.205l-4.394 2.533h-.023l15.95 9.194c.687.388 2.267.388 3.296-.205l4.394-2.533zM62.361 94.408L59.455 96.073 53.253 92.514 56.16 90.849zM62.361 97.762L60.416 98.88 57.51 97.214 59.455 96.073z"/>
        <path fill="#000" d="M61.743 105.245L58.837 106.91 52.635 103.351 55.542 101.686zM61.743 108.599L59.798 109.717 56.892 108.051 58.837 106.91zM61.126 116.082l-.733.41c-.686.411-.938 1.278-.526 1.986.114.205.274.365.458.479l-8.994-5.18c.206.115.457.183.686.183.252 0 .504-.068.733-.205l2.174-1.255 6.202 3.582zM61.034 88.043l-2.906 1.665-.733-.41c-.686-.411-.938-1.278-.526-1.986.114-.205.275-.365.458-.479.023-.022.068-.045.091-.068.435-.228.961-.251 1.419.023l2.197 1.255zM57.51 97.214L60.416 98.88 57.51 100.545 54.603 98.88z"/>
        <path fill="#000" d="M56.892 108.051L59.798 109.717 56.892 111.382 53.985 109.717zM58.128 89.708l-1.946 1.118-2.174-1.255c-.457-.274-1.007-.25-1.441-.023l4.783-2.737c-.184.114-.344.273-.458.479-.39.684-.16 1.574.526 1.985l.71.433zM57.51 97.214L54.603 98.88 48.402 95.32 51.308 93.632zM57.51 100.545L55.542 101.686 52.635 99.997 54.603 98.88z"/>
        <path fill="#000" d="M56.892 108.051L53.985 109.717 47.784 106.135 50.69 104.469zM56.892 111.382L54.924 112.5 52.017 110.835 53.985 109.717zM56.16 90.849l-2.907 1.665-.732-.41c-.687-.411-.938-1.278-.527-1.985.115-.206.275-.365.458-.48.023-.022.069-.045.092-.045.435-.228.984-.251 1.441.023l2.175 1.232zM52.635 99.997L55.542 101.686 52.635 103.351 49.729 101.686z"/>
        <path fill="#000" d="M54.924 112.5l-2.174 1.255c-.23.137-.48.205-.733.205-.251 0-.48-.068-.686-.182-.046-.023-.069-.046-.115-.069-.183-.114-.343-.274-.457-.479-.412-.684-.16-1.574.526-1.985l.732-.41 2.907 1.665zM53.253 92.514l-1.945 1.118-2.174-1.255c-.458-.273-1.007-.25-1.442 0l4.783-2.76c-.183.114-.343.274-.458.479-.412.684-.16 1.574.527 1.985l.71.433zM52.635 99.997L49.729 101.686 43.55 98.104 46.456 96.438zM52.635 103.351L50.69 104.469 47.784 102.804 49.729 101.686z"/>
        <path fill="#000" d="M45.838 107.275l6.202 3.56-.732.41c-.687.41-.938 1.278-.526 1.985.114.205.274.365.457.48l-8.994-5.18c.206.114.435.183.687.183.252 0 .504-.069.732-.206l2.174-1.232zM51.308 93.632l-2.906 1.666-.733-.411c-.686-.41-.938-1.278-.526-1.985.114-.205.274-.365.458-.479.022-.023.045-.023.091-.046.435-.25.984-.25 1.442 0l2.174 1.255zM47.784 102.804L50.69 104.469 47.784 106.135 44.877 104.469z"/>
        <path fill="#000" d="M48.402 95.32l-1.946 1.118-2.174-1.254c-.457-.274-1.007-.251-1.442 0l4.783-2.738c-.183.114-.343.274-.457.479-.412.684-.16 1.574.526 1.985l.71.41zM41.582 99.222L47.784 102.804 44.877 104.469 38.675 100.91zM47.784 106.135L45.838 107.275 42.932 105.587 44.877 104.469z"/>
        <path fill="#000" d="M46.456 96.438l-2.906 1.666-.732-.41c-.687-.411-.939-1.278-.527-1.986.115-.205.275-.365.458-.479.023-.023.069-.045.091-.045.435-.229.985-.251 1.442 0l2.174 1.254zM42.932 105.587l2.906 1.666-2.174 1.254c-.228.137-.48.206-.732.206-.229 0-.48-.069-.687-.183l-.114-.068c-.183-.114-.343-.274-.458-.48-.389-.684-.16-1.574.527-1.984l.732-.41z"/>
        <path fill="#000" d="M43.55 98.104l-1.945 1.118-2.174-1.255c-.458-.251-.984-.251-1.396-.023l4.737-2.738c-.183.114-.343.274-.458.48-.389.684-.16 1.574.526 1.984l.71.434zM42.932 105.587l-.732.41c-.687.411-.939 1.278-.527 1.986.115.205.275.365.458.479l-9.04-5.202c-.457-.25-.732-.73-.732-1.255 0-.525.275-1.004.733-1.255l4.782-2.76c-.183.114-.343.296-.457.479-.39.684-.16 1.574.526 1.985l.732.41-1.945 1.118 6.202 3.605zM42.245 108.553c-.045-.023-.068-.046-.114-.068l.114.068z"/>
        <path fill="#000" d="M39.408 97.967l2.174 1.255-2.907 1.665-.732-.41c-.686-.388-.938-1.278-.526-1.985.114-.206.274-.365.457-.48l.115-.068c.435-.228.961-.228 1.419.023z"/>
        <path fill="#000" d="M37.989 97.944l-.115.069c.046-.023.092-.046.115-.069zM.87 110.47c.023-.023.045-.023.068-.046l-.068.046c-.092.045-.16.114-.23.16.07-.046.138-.115.23-.16zM.64 110.652l-.068.068c0-.022.046-.045.069-.068z"/>
        <path fill="#EFE2D0" d="M137.255 76.73l-1.007 3.411c-1.1 3.71-5.335 5.393-8.678 3.48L88.416 60.713c-2.381-1.383-3.503-4.24-2.725-6.891L86.7 50.41c1.099-3.71 5.335-5.393 8.678-3.48l39.153 22.908c2.382 1.383 3.504 4.218 2.725 6.891z"/>
        <g fill="#000">
            <path d="M.208 7.925L3.923 0 5.86.946c.37.18.646.382.877.607.207.226.369.473.438.72.07.271.092.541.046.834-.046.293-.138.608-.3.923-.092.18-.184.36-.3.495-.115.158-.253.27-.392.383-.161.113-.323.203-.508.248-.184.067-.369.09-.6.09.647.608.762 1.396.324 2.319-.162.337-.347.63-.577.855-.231.248-.462.428-.739.54-.277.113-.553.18-.853.18-.3 0-.623-.09-.946-.247L.208 7.925zm2.676-2.972L1.8 7.272l1.061.518c.185.09.37.135.53.135.162 0 .3-.045.44-.113.138-.067.253-.18.345-.292.093-.136.185-.27.277-.45.07-.18.139-.338.162-.496.023-.158.023-.293-.023-.428s-.116-.27-.208-.383c-.092-.112-.254-.225-.438-.292l-1.062-.518zm.462-1.013l.83.405c.347.18.67.203.923.113.277-.09.508-.338.693-.743.184-.405.254-.743.161-.99-.092-.248-.3-.474-.646-.631l-.9-.428L3.346 3.94zM9.553 5.448c.3.135.53.338.715.586.185.247.3.54.346.878.046.337.046.698-.023 1.103-.07.405-.208.833-.415 1.26-.208.45-.439.834-.692 1.126-.254.315-.531.563-.831.72-.277.18-.577.27-.9.27-.3.023-.6-.044-.9-.18-.3-.134-.53-.337-.715-.585-.185-.247-.3-.54-.346-.878-.046-.337-.046-.698.023-1.103s.207-.833.415-1.26c.208-.45.439-.811.692-1.126.254-.315.531-.54.831-.72.3-.18.577-.248.9-.27.3-.023.6.044.9.18zm-2.215 4.75c.323.158.646.113.946-.112.3-.248.6-.653.877-1.26.276-.609.415-1.104.415-1.51 0-.404-.185-.674-.508-.832-.346-.158-.646-.113-.969.112-.323.226-.6.653-.877 1.261-.277.608-.415 1.103-.415 1.486.023.405.185.698.53.856zM13.96 7.587c.3.135.53.338.715.585.185.248.3.54.346.878.047.338.047.698-.023 1.104-.069.405-.207.833-.415 1.26-.208.45-.438.833-.692 1.126-.254.315-.53.563-.83.72-.278.18-.578.27-.9.27-.3.023-.6-.044-.9-.18-.3-.134-.531-.337-.716-.585-.185-.247-.3-.54-.346-.878-.046-.337-.046-.698.023-1.103.07-.405.208-.833.415-1.26.208-.451.439-.811.693-1.126.253-.316.53-.54.83-.72.277-.158.577-.248.9-.271.3-.023.6.045.9.18zm-2.238 4.75c.323.158.646.113.946-.112.3-.248.6-.653.877-1.26.277-.609.415-1.104.415-1.51 0-.405-.185-.675-.508-.832-.346-.158-.646-.113-.969.112-.3.248-.6.653-.877 1.261-.276.608-.415 1.103-.415 1.486.023.405.208.698.53.855zM18.76 6.934l-2.193 4.66.185.09c.07.023.115.046.162.046.046 0 .115-.045.184-.09l1.8-1.239c.07-.045.161-.09.23-.112.07-.023.14 0 .231.022l.877.428-2.215 1.486c-.07.045-.161.112-.23.135-.07.045-.162.068-.231.09.023.09.046.158.046.27 0 .09 0 .203.023.293l.046 3.354-.854-.427c-.069-.045-.138-.09-.161-.158-.023-.067-.046-.135-.046-.248v-2.611c0-.113-.023-.18-.047-.225-.023-.045-.069-.09-.161-.113l-.208-.112-1.2 2.566-.946-.473L17.86 6.44l.9.495zM24.159 9.838l.07.068c.022.023.022.068.045.113 0 .045.023.09.023.157l.462 6.71c.046-.136.092-.27.161-.383.047-.136.116-.248.162-.338l2.261-4.818.923.45-3.715 7.902-.53-.27c-.093-.045-.139-.09-.185-.157-.046-.068-.07-.158-.07-.27l-.46-6.687c-.047.113-.093.248-.14.36-.045.113-.092.225-.138.315l-2.284 4.863-.923-.45 3.715-7.902.554.27c0 .022.046.045.069.067zM29.95 15.354c.3.135.531.338.716.586.185.247.3.54.346.878.046.337.046.698-.023 1.103-.07.405-.208.833-.415 1.26-.208.45-.439.834-.693 1.126-.253.316-.53.563-.83.72-.277.18-.577.27-.9.27-.3.023-.6-.044-.9-.18-.3-.134-.53-.337-.715-.585-.185-.247-.3-.54-.347-.878-.046-.337-.046-.698.024-1.103.069-.405.207-.833.415-1.26.208-.45.438-.811.692-1.126.254-.315.53-.54.83-.72.278-.158.578-.248.9-.27.3-.023.624.044.9.18zm-2.215 4.75c.324.158.647.113.947-.112.3-.248.6-.653.876-1.26.277-.609.416-1.104.416-1.51 0-.404-.185-.674-.508-.832-.346-.158-.646-.113-.97.113-.299.247-.599.652-.876 1.26s-.415 1.103-.415 1.486c.023.405.184.676.53.856zM32.143 16.525l.761.36c.07.045.116.09.139.158.023.067.023.157 0 .225l-.831 3.264c-.046.18-.092.36-.162.518-.046.158-.115.338-.161.496.092-.136.208-.293.3-.428.115-.135.208-.293.323-.428l2.077-2.68c.046-.067.115-.112.184-.134.07-.023.139-.023.185 0l.415.202c.07.023.115.09.139.158.023.068.023.135 0 .225l-.785 3.377c-.046.18-.092.338-.115.496-.046.157-.093.315-.139.495.093-.158.185-.293.277-.45.092-.136.208-.293.3-.45l1.984-2.702c.047-.068.116-.113.185-.135.07-.023.139-.023.208.022l.715.36-3.9 4.998-.761-.382c-.092-.045-.115-.158-.07-.338l.808-3.58c.023-.112.047-.225.093-.36.046-.135.069-.225.092-.338-.07.113-.138.203-.208.293-.069.09-.138.203-.207.293L31.75 22.94c-.115.135-.207.18-.323.135l-.738-.36 1.454-6.191z" transform="translate(93.304 52.025)"/>
        </g>
    </g>
</svg>
