<svg xmlns="http://www.w3.org/2000/svg" width="178" height="160" viewBox="0 0 178 160">
    <g fill="none">
        <path fill="#000" d="M177.401 130.77c1.614 4.816-.078 10.304-4.788 15.43-4.45 4.842-11.112 8.855-18.789 11.263-4.866 1.527-9.785 2.304-14.417 2.304-2.628 0-5.178-.259-7.546-.777-6.767-1.475-11.373-4.919-12.986-9.708l-4.58-14.318c0 .026.026.052.026.052.13.337.338.596.624.777 1.067 1.709 2.603 3.21 4.554 4.427l2.577 8.026c1.197 3.599 4.944 6.265 10.513 7.482 2.16.466 4.476.7 6.844.7 11.112 0 23.76-4.92 30.682-12.48 3.851-4.194 5.283-8.518 4.086-12.168l-2.499-7.845c.937-2.226 1.328-4.453 1.12-6.576.077-.259.077-.57 0-.854 0-.026 0-.052-.027-.078l4.606 14.343z"/>
        <path fill="#000" d="M172.847 116.505c.078.285.078.595 0 .854-.052-.75-.208-1.476-.416-2.2v-.026l.416 1.32c-.026 0 0 .026 0 .052zM172.847 117.36c.183 2.122-.182 4.349-1.119 6.575l-.156.389c-.026.051-.052.13-.078.18-.052.104-.104.234-.156.337-.026.052-.052.13-.078.182-.078.13-.13.259-.208.414-.078.155-.156.285-.234.44-.079.13-.157.285-.235.414-.208.363-.442.725-.676 1.062-.104.13-.182.259-.287.414-.598.854-1.275 1.683-2.03 2.485-4.45 4.842-11.111 8.829-18.788 11.237-.313.103-.599.18-.911.284-.312.078-.599.182-.91.26-.261.077-.547.155-.808.206-.052.026-.13.026-.182.052-.286.078-.546.13-.833.207-.312.078-.598.13-.91.208-.26.051-.547.103-.807.18-.052 0-.104.027-.156.027-.286.051-.547.103-.833.155-.286.052-.572.104-.833.155-.052 0-.078.026-.13.026-.286.052-.572.078-.833.13-2.784.388-5.543.517-8.145.388-.312-.026-.65-.026-.963-.052-.468-.026-.963-.077-1.431-.13-.312-.025-.625-.077-.937-.129-.312-.051-.624-.103-.91-.155-.313-.052-.6-.104-.912-.181-.156-.026-.286-.052-.442-.104-1.223-.259-2.394-.595-3.487-1.01-.312-.103-.599-.233-.91-.362-.105-.052-.21-.078-.313-.13-.208-.077-.417-.18-.599-.284-.104-.052-.234-.104-.338-.156-.13-.051-.26-.129-.39-.207-.417-.207-.807-.44-1.197-.673-1.952-1.217-3.488-2.692-4.555-4.427.287.181.599.285.937.285.182 0 .365-.026.547-.104.859-.31 1.327-1.217 1.04-2.071l-.494-1.553.078.233c.078.18.13.362.235.517.078.156.156.311.234.44.416.777.963 1.502 1.64 2.15.077.077.155.155.233.207.39.362.781.673 1.224 1.01.078.051.156.129.26.18.182.13.39.26.598.363.495.285 1.015.57 1.562.828.338.156.676.311 1.04.44.13.052.235.104.365.13.963.337 1.978.647 3.045.88.416.078.806.181 1.223.233 3.513.596 7.364.596 11.242.052.26-.026.494-.078.755-.104.364-.051.702-.103 1.067-.18.364-.053.702-.13 1.067-.208 1.951-.388 3.93-.932 5.829-1.58.286-.103.598-.206.885-.31.104-.026.182-.077.286-.103.26-.104.52-.182.78-.285l.235-.078c.312-.13.598-.233.91-.362.26-.104.547-.233.807-.337.13-.052.26-.103.39-.181.6-.259 1.198-.544 1.77-.829.313-.155.65-.336.963-.491.312-.156.625-.337.937-.518 3.253-1.838 6.141-4.013 8.406-6.499.65-.699 1.249-1.424 1.77-2.174.103-.156.233-.311.337-.466l.313-.466c.104-.156.182-.311.286-.466.182-.311.364-.622.52-.933.183-.388.365-.776.52-1.165.053-.155.131-.31.183-.466l.078-.233c.052-.155.104-.31.13-.466.39-1.372.495-2.718.286-3.987-.026-.155-.052-.336-.078-.492-.052-.18-.104-.388-.156-.57l.417 1.295c.234.7.884 1.165 1.587 1.165.156 0 .312-.026.469-.051.39-.104.806-.544.962-1.088z"/>
        <path fill="#000" d="M172.821 116.427l-.416-1.32-.625-1.916c.209.544.39 1.061.573 1.605.182.518.338 1.087.468 1.631z"/>
        <path fill="#000" d="M172.405 115.159c.208.724.364 1.45.416 2.2-.156.544-.572.984-1.145 1.165-.156.052-.312.052-.468.052-.703 0-1.38-.466-1.588-1.165l-.416-1.294v-.026c-.26-.88.234-1.787 1.12-2.072.884-.258 1.82.208 2.081 1.088v.052z"/>
        <path fill="#000" d="M171.806 113.19l.625 1.917c-.286-.88-1.223-1.372-2.082-1.088-.885.26-1.38 1.191-1.119 2.072l-.598-1.864c-.287-.855.182-1.787 1.04-2.072.86-.284 1.796.13 2.134.984-.026.026-.026.026 0 .052z"/>
        <path fill="#000" d="M151.508 49.709l20.272 63.482c0-.026-.026-.052-.026-.052-.312-.854-1.275-1.268-2.134-.984-.858.285-1.327 1.217-1.04 2.072L150.363 57.19c.937-2.227 1.327-4.453 1.12-6.576.077-.285.077-.57 0-.854.051 0 .051-.026.025-.052zM171.468 124.505c.026-.052.052-.13.078-.181-.026.051-.052.13-.078.18zM171.208 125.023c.026-.052.052-.13.078-.182-.026.052-.052.13-.078.182zM170.765 125.851c.079-.155.157-.285.235-.44-.078.155-.156.31-.235.44zM170.505 126.291c.078-.13.156-.285.234-.414-.052.13-.13.259-.234.414zM169.542 127.767c.104-.13.183-.259.287-.414-.078.155-.183.285-.287.414zM169.36 116.686c.026.155.052.337.078.492-.026-.155-.052-.337-.078-.492zM169.152 121.165c-.052.155-.078.31-.13.466.052-.181.078-.31.13-.466zM168.944 121.838c-.052.156-.104.31-.182.466.052-.155.13-.31.182-.466zM168.241 123.47c-.156.31-.338.62-.52.931.208-.31.364-.621.52-.932zM167.46 124.893l-.312.466.313-.466zM156.635 134.498c-.312.182-.625.337-.937.518.312-.155.625-.336.937-.518zM155.698 135.016c-.312.181-.625.337-.963.492.338-.155.65-.31.963-.492zM154.735 135.508c-.572.285-1.171.57-1.77.829.599-.26 1.198-.544 1.77-.829zM152.575 136.518c-.26.103-.546.233-.807.336.287-.103.547-.207.807-.336z"/>
        <path fill="#000" d="M151.534 49.76c.078.285.078.596 0 .855-.052-.75-.208-1.476-.416-2.2l.416 1.294v.052zM151.508 50.615c.182 2.123-.182 4.35-1.119 6.576-.052.103-.078.207-.13.31-.052.104-.078.182-.13.285-.208.466-.442.907-.703 1.373-.052.077-.104.18-.156.258-.026.052-.052.078-.078.13-.026.052-.052.103-.104.155-.052.104-.13.207-.182.31-.104.156-.182.286-.286.441-.052.078-.078.13-.13.207-.079.13-.183.26-.26.389-.6.854-1.276 1.682-2.03 2.485-4.45 4.841-11.113 8.828-18.79 11.262-2.446.75-4.892 1.346-7.312 1.735-.312.052-.599.103-.91.13-.313.051-.6.077-.912.129-.442.051-.884.103-1.353.155l-.885.078c-1.04.077-2.056.103-3.07.103-1.328 0-2.603-.052-3.878-.181-.312-.026-.625-.078-.937-.104-.312-.025-.624-.077-.937-.129-.598-.104-1.223-.207-1.795-.337-1.223-.258-2.394-.595-3.487-1.01-.469-.18-.911-.362-1.354-.543-.13-.052-.234-.104-.364-.155-.13-.052-.234-.104-.364-.182-.078-.025-.156-.077-.234-.129-.079-.026-.157-.078-.235-.104-.442-.233-.832-.466-1.249-.699-1.952-1.216-3.487-2.692-4.554-4.427.286.181.599.285.937.285.182 0 .364-.026.546-.104.86-.31 1.328-1.216 1.041-2.07l-.494-1.58c.026.078.052.155.104.259l.078.233c.052.103.078.207.13.31l.234.467.235.388c.026.052.052.103.104.155.104.156.208.31.338.466.052.078.104.156.182.233.234.311.495.596.78.88.079.078.157.156.235.208.312.284.625.543.989.802.338.26.729.518 1.093.751.104.052.182.13.286.181.39.233.807.44 1.25.648.442.207.91.388 1.405.57.936.336 1.977.646 3.044.88.547.129 1.093.232 1.64.31.546.078 1.119.155 1.691.207.417.052.833.078 1.276.104h.052c.286.026.546.026.832.052 2.186.077 4.45-.026 6.714-.337.313-.052.599-.078.911-.13 3.07-.466 6.142-1.242 9.082-2.33.287-.103.599-.207.885-.336l1.171-.466c.286-.104.573-.233.859-.363.104-.051.208-.103.312-.13.286-.129.547-.258.833-.387.26-.13.546-.26.807-.389l.312-.155c.599-.285 1.171-.596 1.744-.932.312-.181.624-.363.91-.544 1.822-1.087 3.514-2.278 5.023-3.599.26-.207.494-.44.755-.673.598-.543 1.17-1.139 1.717-1.708.65-.7 1.25-1.424 1.77-2.175 1.9-2.641 2.81-5.256 2.732-7.69 0-.155-.026-.336-.026-.491 0-.13-.026-.26-.052-.389 0-.077-.026-.155-.026-.233v-.077c-.026-.156-.052-.311-.104-.492-.026-.13-.052-.233-.104-.363l.416 1.295c.234.699.885 1.165 1.588 1.165.156 0 .312-.026.468-.052.65-.155 1.093-.621 1.223-1.165z"/>
        <path fill="#000" d="M151.508 49.709l-.416-1.295v-.026l-.625-1.916c.208.544.39 1.088.573 1.606.182.517.338 1.087.468 1.63zM151.768 136.854c-.312.13-.598.26-.91.363.312-.104.624-.233.91-.363z"/>
        <path fill="#000" d="M151.118 48.414c.208.725.338 1.45.416 2.2-.156.545-.572.985-1.145 1.166-.156.052-.312.052-.468.052-.703 0-1.38-.466-1.588-1.165l-.416-1.295v-.026c-.26-.88.234-1.786 1.119-2.07.885-.26 1.822.206 2.082 1.086-.026.026-.026.052 0 .052-.026 0 0 0 0 0z"/>
        <path fill="#000" d="M150.467 46.447l.625 1.915c-.286-.88-1.223-1.372-2.082-1.087-.885.259-1.38 1.191-1.12 2.071l-.598-1.864c-.286-.854.183-1.786 1.041-2.071.86-.31 1.796.13 2.134.984v.052z"/>
        <path fill="#000" d="M150.467 46.447c0-.026-.026-.026-.026-.052-.312-.855-1.249-1.269-2.134-.984-.858.31-1.327 1.217-1.04 2.071l-.937-2.925c-.026.026-.026.077-.053.103.495-1.165.86-2.33 1.041-3.47.183-1.112.235-2.2.13-3.235.079-.26.079-.57 0-.855v-.026l3.02 9.373zM150.65 137.32c-.26.104-.521.208-.781.285.26-.077.52-.181.78-.285zM150.129 57.812c.052-.103.078-.18.13-.284-.052.103-.078.18-.13.284zM149.27 59.443c.052-.077.104-.18.156-.259-.052.078-.104.182-.156.26zM148.698 138.02c.286-.104.598-.208.884-.311-.286.103-.572.207-.884.31zM149.088 59.728c.026-.052.052-.103.104-.155-.026.052-.078.103-.104.155zM148.906 60.013c.052-.104.13-.207.182-.31-.052.129-.104.232-.182.31zM148.49 60.66c.052-.077.078-.13.13-.207-.026.052-.078.13-.13.207zM148.23 61.023c.077-.13.181-.26.26-.389-.079.156-.157.26-.26.389zM147.813 141.773c.312-.077.598-.18.91-.284-.286.103-.598.207-.91.284zM148.177 50.926c.026.155.026.336.026.491 0-.18 0-.336-.026-.491zM148.1 50.304c.025.078.025.156.025.233 0-.077 0-.155-.026-.233zM147.995 49.76c.052.156.078.311.104.492-.026-.18-.078-.336-.104-.491zM147.891 49.346L147.891 49.372 147.292 47.508z"/>
        <path fill="#000" d="M95.402 57.631c1.067.75 2.29 1.372 3.721 1.89.937.337 1.978.647 3.045.88 2.16.466 4.476.7 6.844.7 1.223 0 2.472-.052 3.747-.182.313-.026.65-.052.963-.103l.677-.078c.312-.052.598-.078.91-.13 2.004-.31 3.982-.75 5.96-1.294.364-.104.703-.207 1.067-.31.703-.208 1.405-.44 2.082-.7.286-.103.598-.207.885-.336.104-.026.182-.078.286-.104.286-.103.572-.233.859-.362.286-.104.572-.233.858-.363.105-.052.209-.103.313-.13l1.64-.776.311-.155c.911-.466 1.796-.932 2.655-1.45.442-.26.91-.544 1.327-.829.286-.18.573-.388.859-.57.416-.284.833-.595 1.249-.905.26-.207.546-.415.807-.622.26-.207.52-.414.78-.647.495-.44.99-.88 1.458-1.346.364-.337.676-.7 1.015-1.036.65-.699 1.249-1.424 1.77-2.175 1.404-1.941 2.263-3.909 2.575-5.799.235-1.372.157-2.718-.208-3.935-.026-.13-.052-.233-.052-.363-.052-.75.417-1.475 1.171-1.708.885-.26 1.822.207 2.082 1.087l.443 1.346v.026c.078.285.078.57 0 .854.104 1.062.052 2.15-.13 3.237-.209 1.165-.547 2.304-1.041 3.469-.026.078-.079.155-.105.233-.026.078-.078.155-.104.259-.052.078-.078.181-.13.259l-.078.155c-.078.155-.156.285-.208.414v.026c-.078.156-.156.31-.26.466-.078.156-.156.285-.26.44 0 .026-.027.026-.027.026-.104.156-.182.311-.286.466-.078.104-.156.233-.234.337-.13.207-.26.388-.416.595-.599.855-1.276 1.683-2.03 2.486-4.45 4.841-11.112 8.828-18.79 11.236-.311.104-.598.181-.91.285-.312.077-.598.181-.91.259-.26.077-.547.155-.807.207-.052.026-.13.026-.183.052-.286.077-.546.13-.832.207-.313.077-.599.13-.911.207-.286.052-.547.13-.833.181-.052 0-.104.026-.156.026-.286.052-.547.104-.833.155-.312.052-.598.104-.91.156-.313.051-.6.103-.911.13-2.785.387-5.543.517-8.172.387-.312-.025-.65-.025-.963-.051-.494-.026-.989-.078-1.483-.156-.286-.026-.599-.077-.885-.103-.338-.052-.65-.104-.989-.156-.286-.051-.546-.103-.832-.155-.157-.026-.287-.052-.443-.103-1.223-.26-2.394-.596-3.487-1.01-.156-.052-.312-.13-.494-.181-.078-.026-.157-.052-.235-.104-.104-.026-.182-.078-.286-.104-.13-.051-.286-.129-.416-.18-.156-.078-.313-.13-.443-.208-.156-.078-.286-.155-.442-.207-.13-.052-.234-.13-.364-.181-.026-.026-.078-.026-.104-.052-.105-.052-.183-.104-.287-.155l-.156-.078c-.104-.052-.208-.13-.312-.181-.026 0-.052-.026-.078-.052-1.067-.647-2.004-1.398-2.837-2.2-.728-.726-1.353-1.476-1.847-2.305-.287-.181-.495-.466-.625-.777 0-.025-.026-.025-.026-.051l-.52-1.58c-.287-.88.208-1.812 1.066-2.097.755-.259 1.562.078 1.952.725.052.104.104.207.156.337.339.958.86 1.864 1.536 2.692"/>
        <path fill="#000" d="M147.475 37.1l-.443-1.346c-.286-.88-1.197-1.346-2.082-1.087-.754.233-1.223.958-1.17 1.708-3.254-10.097-12.128-17.346-22.563-18.692l-1.119-3.47c12.387.959 23.109 9.373 26.882 21.23.208.518.364 1.088.495 1.657zM146.902 142.032c.312-.077.599-.18.91-.259-.285.104-.598.182-.91.26zM146.095 142.265c.26-.077.547-.155.807-.207-.26.052-.546.13-.807.207zM146.304 44.686c-.027.078-.053.155-.105.233.052-.078.078-.155.105-.233zM146.095 45.178c.052-.078.078-.155.104-.259-.026.078-.078.181-.104.259zM145.965 45.437c.052-.078.078-.181.13-.259-.052.078-.078.155-.13.259zM145.679 46.006c.078-.155.156-.284.208-.414-.052.13-.13.26-.208.414zM145.419 46.472c.078-.155.182-.31.26-.466-.104.156-.182.311-.26.466zM145.08 142.498c.26-.051.547-.13.833-.207-.286.078-.546.156-.833.207zM145.158 46.939c.079-.156.183-.285.26-.44-.103.129-.181.284-.26.44zM144.846 47.43c.104-.155.208-.31.286-.466-.104.156-.208.311-.286.466zM144.612 47.793c.078-.104.156-.233.234-.337-.078.104-.156.207-.234.337zM144.17 142.706c.312-.078.598-.13.91-.208-.312.078-.598.156-.91.208zM143.337 142.887c.26-.052.546-.104.807-.181-.26.077-.52.129-.807.18zM142.348 143.068c.286-.052.546-.104.833-.155-.287.051-.547.103-.833.155zM141.801 139.806c.365-.052.703-.13 1.067-.207-.364.051-.702.13-1.067.207zM141.49 143.223c.285-.051.572-.103.832-.155-.26.052-.547.104-.833.155zM141.255 63.638c.26-.208.494-.44.755-.674-.235.233-.495.466-.755.674zM140.735 139.961c.364-.052.702-.103 1.066-.181-.364.078-.702.13-1.066.181zM140.526 143.379c.287-.052.573-.078.833-.13-.26.026-.546.078-.833.13zM137.221 51.003c.495-.44.99-.88 1.458-1.346-.469.466-.963.906-1.458 1.346zM136.44 51.65c.26-.207.521-.44.781-.647-.26.207-.52.44-.78.647zM135.66 52.272c.26-.207.546-.414.807-.622-.287.208-.547.415-.807.622zM135.322 67.78c.312-.181.624-.363.91-.544-.286.181-.598.363-.91.544zM134.359 140.479c1.847 0 3.721-.13 5.62-.388-3.877.543-7.702.543-11.241-.052 1.821.285 3.695.44 5.62.44zM134.41 53.178c.417-.285.834-.595 1.25-.906-.416.31-.833.621-1.25.906zM132.381 143.767c2.628.13 5.36 0 8.145-.388-2.108.284-4.19.44-6.193.44-.65 0-1.301-.026-1.952-.052zM133.526 53.748c.286-.182.573-.389.859-.57-.26.207-.547.388-.859.57zM133.578 68.686c.599-.285 1.171-.595 1.744-.932-.573.337-1.145.647-1.744.932zM132.46 69.256c.26-.13.546-.26.806-.389-.26.13-.547.26-.807.389zM131.626 69.644c.287-.13.547-.259.833-.388-.286.13-.546.259-.833.388zM131.418 143.715c.312.026.65.052.963.052-.338-.026-.65-.052-.963-.052zM130.455 70.136c.287-.13.573-.233.859-.363-.286.13-.572.233-.859.363zM129.544 56.052c.911-.466 1.796-.932 2.655-1.45-.859.518-1.744.984-2.655 1.45zM129.05 143.456c.312.052.625.078.937.13-.312-.052-.625-.104-.937-.13zM128.425 70.913c.287-.104.599-.207.885-.337-.286.13-.598.233-.885.337zM127.593 56.984c.546-.26 1.093-.518 1.64-.777-.547.285-1.094.544-1.64.777zM127.228 143.12c.287.052.599.13.911.181-.312-.052-.598-.104-.91-.181zM126.422 57.476c.286-.13.572-.233.858-.363-.286.13-.572.26-.858.363zM126.422 57.476c-.287.13-.573.233-.86.362.287-.103.573-.233.86-.362zM124.392 58.278c.286-.103.598-.207.885-.336-.313.13-.599.233-.885.336zM123.065 138.33c.338.155.676.31 1.04.44-.364-.155-.702-.285-1.04-.44zM122.466 62.395c.312-.078.599-.181.91-.285-.285.104-.598.207-.91.285zM122.102 141.54c.104.052.208.104.312.13-.13-.026-.234-.078-.312-.13zM121.555 62.654c.313-.078.599-.182.911-.26-.286.104-.598.182-.91.26zM121.503 137.502c.495.284 1.015.57 1.562.828-.547-.259-1.067-.544-1.562-.828zM121.243 59.288c.364-.104.703-.207 1.067-.31-.364.103-.703.232-1.067.31z"/>
        <path fill="#000" d="M121.66 19.055c.676 1.994-.027 4.324-1.874 6.343-.182.181-.365.388-.547.57-.182.18-.39.362-.598.517-.209.182-.417.337-.625.492l-1.015.7c-.364.232-.728.44-1.093.62-.13.053-.26.13-.39.182-.39.181-.78.362-1.171.518-.26.103-.547.207-.807.31-1.9.674-3.93 1.036-5.855 1.036-.963 0-1.926-.104-2.81-.285-2.707-.595-4.58-2.02-5.231-4.039l-.443-1.424-1.119-3.469c.312-.259.599-.492.937-.725.442-.336 1.015-.44 1.535-.259.52.156.911.544 1.093 1.062l1.223 3.806c.26.828 1.276 1.475 2.759 1.812 3.773.828 9.16-.854 11.736-3.676 1.015-1.114 1.432-2.227 1.146-3.055l-1.224-3.806c-.156-.518-.078-1.088.26-1.528.339-.44.86-.673 1.406-.647l1.171.078 1.119 3.469.416 1.398zM121.139 141.1c.104.052.234.104.338.156-.104-.026-.234-.078-.338-.156zM120.749 140.92c.13.077.26.129.39.206-.13-.077-.26-.155-.39-.207zM120.749 62.887c.26-.078.546-.156.806-.207-.26.051-.546.13-.806.207zM120.67 136.958c.079.052.183.13.26.181-.103-.078-.181-.13-.26-.181zM119.734 63.12c.26-.052.546-.13.832-.207-.286.077-.572.155-.832.207z"/>
        <path fill="#000" d="M117.001 4.505l3.097 9.683-1.171-.078c-.547-.026-1.067.233-1.405.647-.339.44-.443 1.01-.26 1.528l-1.9-5.903c.182-.207.338-.414.494-.647 1.25-1.71 1.64-3.573 1.145-5.23zM119.213 76.634c.312-.051.599-.077.911-.13-.312.027-.599.079-.91.13zM119.213 135.741c.078.078.156.155.234.207-.104-.077-.182-.13-.234-.207zM118.823 63.327c.312-.078.598-.13.91-.207-.312.077-.624.155-.91.207zM118.667 26.485c.208-.18.39-.362.598-.517-.208.155-.416.336-.598.517zM118.406 73.372c.313-.052.599-.078.911-.13-.286.052-.598.104-.91.13zM119.213 76.634c-.312.052-.598.078-.91.13.312-.052.624-.104.91-.13zM117.99 63.508c.286-.052.547-.103.833-.181-.286.078-.573.13-.833.181zM118.016 26.977c.208-.155.442-.336.625-.492-.183.182-.417.337-.625.492zM117.522 133.929c.286.854-.183 1.786-1.041 2.071-.182.052-.365.104-.547.104-.338 0-.676-.104-.937-.285-.468-.751-.858-1.554-1.145-2.382v-.026c-.286-.88.209-1.812 1.067-2.097.86-.285 1.822.181 2.108 1.036l.026.051.469 1.528zM117.34 133.126c.078.156.156.31.234.44-.078-.13-.156-.284-.235-.44zM117.001 63.69c.286-.052.547-.104.833-.156-.286.052-.573.104-.833.155zM117.131 132.608c.078.182.156.363.234.518-.104-.181-.182-.336-.234-.518z"/>
        <path fill="#000" d="M117.001 4.505c.495 1.657.078 3.52-1.145 5.23-.156.207-.312.44-.494.647-.052.052-.078.103-.13.155-.052.052-.105.104-.13.156-.183.18-.365.388-.547.57-.156.129-.286.284-.442.413-.105.078-.183.156-.287.233-.156.13-.338.26-.494.389-.182.13-.364.259-.52.388-.73.492-1.536.932-2.369 1.32-.26.13-.52.233-.78.337-.26.104-.547.207-.807.31-1.9.674-3.93 1.036-5.855 1.036-.73 0-1.432-.051-2.134-.155-.235-.026-.469-.078-.677-.13-.156-.025-.312-.077-.468-.103-.313-.078-.599-.181-.885-.285-1.952-.725-3.331-1.993-3.878-3.624v-.026-.026c-.26-.855.209-1.787 1.093-2.071.885-.285 1.822.18 2.108 1.035.026.052.026.078.052.13 0 .026.026.051.026.077.052.104.104.182.156.285.052.078.105.13.183.207.338.363.832.647 1.43.88.287.104.573.182.886.26 3.773.828 9.16-.855 11.736-3.677.182-.207.365-.414.52-.647.053-.078.105-.156.157-.26.052-.077.104-.154.156-.258.104-.207.208-.414.26-.595.156-.467.182-.88.078-1.27v-.025c-.26-.88.235-1.786 1.12-2.071.884-.26 1.82.207 2.081 1.087v.078zM116.48 130.667l.521 1.657c-.312-.855-1.249-1.32-2.108-1.036-.885.285-1.353 1.217-1.067 2.097l-.546-1.735c0-.025 0-.051-.026-.051-.234-.88.286-1.76 1.17-2.02.86-.259 1.77.233 2.057 1.062v.026z"/>
        <path fill="#000" d="M116.975 4.35l.026.103c-.286-.88-1.223-1.346-2.082-1.087-.884.259-1.379 1.19-1.119 2.07l-.026-.05c-.208-.596-.754-1.01-1.17-1.244-.443-.233-.964-.44-1.588-.57-3.774-.828-9.16.855-11.737 3.677-.39.44-.702.88-.91 1.295-.235.466-.443 1.139-.235 1.76v.026c-.312-.854-1.249-1.32-2.108-1.036-.858.285-1.353 1.217-1.093 2.072-.442-1.347-.312-2.822.417-4.272.338-.7.832-1.398 1.457-2.071 3.41-3.729 9.967-5.774 14.937-4.686.937.207 1.77.517 2.499.906 1.327.699 2.29 1.786 2.732 3.107 0-.026 0 0 0 0zM116.09 63.845c.313-.052.599-.104.911-.156-.312.052-.624.104-.91.156zM116.09 76.97c.287-.025.599-.05.885-.077-.312.026-.598.052-.885.078zM98.238 73.502l18.243 57.139c-.287-.855-1.197-1.32-2.056-1.062-.885.26-1.38 1.14-1.171 2.02 0 .026 0 .051.026.051L93.034 68.298c.13.336.338.595.624.776 1.093 1.71 2.629 3.21 4.58 4.428zM115.908 28.298l1.093-.622c-.364.233-.728.44-1.093.622zM115.18 63.974c.312-.052.598-.078.91-.13-.312.052-.624.104-.91.13zM115.232 10.537c.052-.052.104-.103.13-.155-.026.052-.078.103-.13.155zM114.373 60.738c.312-.052.598-.078.91-.13-.286.052-.598.078-.91.13zM115.518 28.505c-.39.181-.78.362-1.171.518.39-.156.78-.337 1.17-.518zM114.997 135.793c-.26-.181-.494-.44-.624-.777 0-.026-.026-.052-.026-.052l-.495-1.553c.287.854.677 1.631 1.145 2.382z"/>
        <path fill="#000" d="M113.852 133.411l.495 1.553c-.208-.543-.39-1.087-.573-1.63-.182-.544-.338-1.114-.494-1.684l.546 1.735.026.026zM114.087 11.65c.156-.129.312-.258.442-.414-.13.156-.286.285-.442.414zM114.347 29.023c-.26.103-.547.207-.807.31.26-.103.52-.207.807-.31zM113.8 5.437c.104.362.078.802-.078 1.269.156-.467.182-.88.078-1.27zM113.332 12.272c.156-.13.338-.26.494-.389-.182.13-.338.26-.494.389zM113.462 7.301c-.052.078-.104.155-.156.259.052-.078.104-.181.156-.259zM112.76 60.92c.312-.027.624-.053.962-.104-.338.051-.65.077-.963.103zM112.785 12.66c.183-.13.365-.259.52-.388-.155.13-.337.259-.52.388zM111.692 73.709c-.286 0-.546-.026-.832-.052.286.026.572.052.832.052zM109.637 14.317c.26-.103.52-.233.78-.336-.234.129-.52.233-.78.336zM110.808 73.683c-.417-.026-.86-.052-1.276-.104.443.026.86.052 1.276.104zM107.008 64.388c2.629.13 5.361 0 8.172-.388-2.108.285-4.19.44-6.194.44-.677 0-1.327-.026-1.978-.052zM108.804 21.385c.52 1.657-.443 2.719-2.16 2.33-1.718-.388-3.565-2.045-4.086-3.702-.52-1.657.443-2.719 2.16-2.33 1.718.388 3.565 2.045 4.086 3.702zm-2.785.363c.599.129.937-.233.729-.803-.182-.57-.807-1.14-1.405-1.269-.599-.13-.937.233-.755.803.208.57.833 1.14 1.431 1.269zM108.205 76.764c.313.052.625.077.937.103-.312-.026-.624-.051-.937-.103zM107.84 73.346c.547.078 1.12.156 1.692.207-.546-.051-1.119-.13-1.691-.207zM107.294 76.634c.313.052.625.104.937.13-.338-.026-.65-.078-.937-.13zM107.008 64.388c-.312-.026-.65-.026-.963-.051.339 0 .65.025.963.051zM104.588 64.181c-.286-.026-.573-.077-.885-.103.286.026.573.077.885.103zM102.975 15.663c1.925 0 3.955-.362 5.855-1.035-2.629.932-5.491 1.268-7.99.88.677.104 1.406.155 2.135.155zM101.882 63.741c.286.052.546.104.832.155-.286-.025-.546-.077-.832-.155zM99.696 15.275l1.9 5.955c-.183-.518-.573-.906-1.094-1.062-.52-.155-1.093-.051-1.535.26-.312.232-.625.491-.937.724l-3.123-9.786c.547 1.605 1.926 2.9 3.878 3.624.312.104.598.207.91.285zM100.476 70.939c.39.233.807.44 1.25.647-.417-.207-.833-.414-1.25-.647zM100.294 74.589c.104.052.234.104.364.155-.13-.026-.26-.103-.364-.155zM99.696 74.304c.078.052.156.078.234.13-.078-.052-.156-.078-.234-.13zM99.461 74.2c.078.027.157.078.235.104-.078-.026-.157-.077-.235-.103zM99.097 70.032c.338.26.729.518 1.093.751-.39-.259-.755-.492-1.093-.75zM98.525 10.977c-.052-.077-.13-.13-.183-.207.078.078.13.156.183.207zM98.16 10.434c0 .026.026.051.026.077 0-.026-.026-.051-.026-.077zM97.9 68.997c.078.077.156.155.234.207-.104-.052-.182-.13-.234-.207zM97.223 62.369c.078.026.157.078.235.103-.078-.025-.157-.077-.235-.103zM96.937 62.265c.104.052.182.078.286.104-.104-.026-.182-.078-.286-.104zM96.911 67.883c.052.078.104.156.182.234-.052-.078-.13-.156-.182-.234zM96.495 67.262c.026.052.052.104.104.155-.052-.051-.078-.103-.104-.155zM96.078 61.877c.157.078.313.13.443.207-.156-.078-.313-.155-.443-.207zM96.208 67.184c.287.855-.182 1.787-1.04 2.072-.183.051-.365.103-.547.103-.338 0-.677-.103-.937-.285-.442-.699-.807-1.45-1.067-2.226.365-.181.677-.518.807-.958l.078-.207c.13-.363.104-.725-.026-1.062.052-.026.078-.026.13-.051.859-.285 1.796.18 2.108 1.01l.026.051.468 1.553zM96.026 66.408l.235.466-.235-.466zM95.636 61.644c.156.078.286.155.442.207-.156-.052-.312-.13-.442-.207zM95.818 65.864l.078.233-.078-.233zM95.714 65.605c0-.026 0-.026 0 0z"/>
        <path fill="#000" d="M95.714 65.605c0-.026 0-.026 0 0l-.52-1.657.52 1.657zM95.168 63.922l.52 1.631c-.312-.854-1.25-1.294-2.108-1.01-.052.027-.078.027-.13.052-.156-.466-.546-.854-1.067-1.035-.078-.026-.156-.052-.234-.052.208-.31.546-.57.937-.699.91-.233 1.821.259 2.082 1.113zM95.272 61.463c.104.052.234.13.364.181-.13-.052-.26-.13-.364-.181z"/>
        <path fill="#000" d="M94.179 60.841l.989 3.081c-.287-.854-1.198-1.346-2.056-1.087-.39.104-.729.362-.937.699-.208-.052-.443-.026-.65.026l-2.551-7.948c0 .026.026.026.026.051.13.337.364.596.625.777.52.829 1.145 1.58 1.847 2.304.833.803 1.77 1.554 2.837 2.201-.026-.052-.078-.078-.13-.104zM94.881 61.256c.104.051.182.103.287.155-.105-.052-.209-.104-.287-.155zM94.413 60.97c.104.053.208.13.312.182-.104-.052-.208-.103-.312-.181z"/>
        <path fill="#81C6BC" d="M93.45 64.595c.13.337.13.7.026 1.062l-.078.207c-.13.44-.442.777-.807.958-.026-.052-.052-.104-.052-.155v-.026c-.286-.829.13-1.709.911-2.046z"/>
        <path fill="#000" d="M93.658 69.074c-.26-.18-.494-.44-.624-.776v-.026l-.443-1.424c.286.777.65 1.527 1.067 2.226z"/>
        <path fill="#000" d="M92.591 66.848l.443 1.424c-.183-.466-.339-.932-.495-1.398.026 0 .026-.026.052-.026z"/>
        <path fill="#81C6BC" d="M92.54 66.667c.025.051.025.103.051.155l-.052-.155z"/>
        <path fill="#81C6BC" d="M92.54 66.667l.051.18c-.026 0-.026.027-.052.027-.026-.104-.052-.181-.104-.285-.182-.544-.338-1.113-.494-1.683l.546 1.735c.026.026.052.026.052.026zM90.848 39.482c.26.57.182 1.269-.287 1.787l-.026.025c.078-.62.183-1.216.313-1.812z"/>
        <path fill="#000" d="M90.405 41.424l.13-.155c-.468 3.728-.182 7.611.963 11.34-.39-.648-1.197-.959-1.952-.726-.884.285-1.353 1.217-1.066 2.098L89 55.56c-.208-.544-.39-1.088-.573-1.657-1.457-4.583-1.795-9.372-1.066-13.929l.156.026c-.104.544.078 1.14.546 1.553.312.285.703.415 1.093.415.469.026.937-.156 1.25-.544zM83.457 65.89c.807.466 1.067 1.502.599 2.278l-6.923 11.703c-.312.517-.884.828-1.457.828-.286 0-.572-.078-.859-.233-.806-.466-1.067-1.502-.598-2.278l6.922-11.703c.494-.802 1.51-1.061 2.316-.595zM77.914 42.693c.494.776.26 1.812-.546 2.304l-11.58 7.197c-.287.181-.573.26-.886.26-.546 0-1.119-.286-1.43-.778-.495-.776-.261-1.812.546-2.304l11.58-7.197c.807-.518 1.822-.26 2.316.518zM76.066 25.709c.078.932-.624 1.734-1.535 1.786l-13.61 1.088h-.13c-.86 0-1.588-.674-1.666-1.528-.078-.906.625-1.735 1.536-1.786l13.61-1.088c.885-.077 1.717.622 1.795 1.528zM70.888 87.197c.806.466 1.067 1.502.598 2.279l-6.922 11.702c-.312.518-.885.828-1.457.828-.287 0-.573-.077-.859-.233-.807-.466-1.067-1.501-.599-2.278l6.923-11.702c.494-.803 1.509-1.062 2.316-.596zM58.318 108.505c.807.466 1.067 1.501.599 2.278l-6.922 11.702c-.313.518-.885.829-1.458.829-.286 0-.572-.078-.858-.233-.807-.466-1.067-1.502-.599-2.278l6.922-11.703c.495-.802 1.51-1.061 2.316-.595zM56.835 55.767c.495.777.26 1.812-.546 2.304l-11.555 7.172c-.286.18-.572.259-.885.259-.546 0-1.119-.285-1.43-.777-.495-.777-.261-1.812.546-2.304l11.58-7.198c.78-.492 1.796-.233 2.29.544zM51.292 27.728c.078.932-.624 1.735-1.535 1.787l-13.61 1.087h-.13c-.86 0-1.588-.673-1.666-1.528-.078-.932.624-1.734 1.535-1.786l13.61-1.087c.911-.078 1.718.595 1.796 1.527zM35.756 68.841c.495.777.26 1.813-.546 2.305l-11.58 7.197c-.287.181-.573.259-.886.259-.572 0-1.119-.285-1.43-.777-.495-.776-.261-1.812.546-2.304l11.58-7.197c.807-.492 1.848-.26 2.316.517zM26.544 29.722c.078.932-.625 1.734-1.536 1.786l-13.61 1.087h-.13c-.859 0-1.587-.673-1.665-1.527-.078-.932.624-1.735 1.535-1.786l13.61-1.088c.911-.077 1.718.596 1.796 1.528zM14.703 81.916c.495.777.26 1.812-.546 2.304l-11.58 7.197c-.287.182-.573.26-.885.26-.547 0-1.093-.285-1.432-.777-.494-.777-.26-1.813.547-2.305l11.58-7.197c.78-.492 1.822-.259 2.316.518z"/>
        <path fill="#FFF" d="M100.867 76.91l18.044 55.805s8.34 8.896 28.641 3.103c0 0 19.173-6.671 20.065-17.558L150.7 62.222s-6.531 9.129-19.855 14.688c.026 0-17.336 6.44-29.978 0z"/>
        <path fill="#000" d="M90.601 42.418c-.392 2.258-1.96 2.02-1.96 2.02l-.785-2.126s-.287-1.222-.26-2.232h-.08c.654-4.197 2.118-8.261 4.34-11.874l3.267-4.41c.967-1.09 2.012-2.125 3.136-3.055l1.124 3.56c-4.365 4.09-7.24 9.457-8.364 15.248l-.418 2.87zM93.992 69.63L92.343 63.746 91.967 62.222 93.756 62.677 94.933 65.886 94.698 67.223z"/>
        <g fill="#000">
            <path d="M36.966 18.811c-2.099.745-4.381.693-6.375-.205-2.02-.873-3.542-2.464-4.276-4.465-.21-.54-.84-.822-1.417-.616-.577.205-.866.82-.656 1.36.76 2.002.63 4.183-.315 6.108-.97 1.95-2.65 3.439-4.749 4.183-.577.205-.865.821-.656 1.36.21.539.84.821 1.417.616 4.33-1.54 9.13.539 10.678 4.696.21.54.84.822 1.417.616.577-.205.866-.821.656-1.36-1.548-4.132.734-8.777 5.063-10.317.578-.205.866-.82.656-1.36-.21-.539-.866-.821-1.443-.616zm-6.952 8.444c-1.653-1.489-3.778-2.438-6.06-2.67.786-.795 1.442-1.693 1.915-2.694.498-1 .813-2.079.944-3.157.813.745 1.758 1.335 2.807 1.797 1.05.462 2.152.744 3.253.847-1.574 1.616-2.57 3.695-2.86 5.877zM13.879 18.247c-3.044 1.103-6.428-.385-7.504-3.285-.21-.54-.84-.821-1.416-.616-.578.205-.866.821-.656 1.36 1.075 2.9-.525 6.16-3.568 7.237-.578.205-.866.821-.656 1.36.21.54.84.822 1.416.616 3.044-1.103 6.428.385 7.504 3.31.21.54.84.822 1.417.617.577-.206.865-.822.656-1.36-1.076-2.9.524-6.16 3.568-7.263.577-.206.865-.821.655-1.36-.21-.54-.84-.822-1.416-.616zm-5.221 5.98c-1.076-.848-2.335-1.412-3.726-1.643.892-1.027 1.496-2.284 1.758-3.593 1.076.847 2.335 1.411 3.7 1.642-.866 1.027-1.496 2.259-1.732 3.593zM12.278 8.88c2.257-.796 4.723.282 5.51 2.412.21.539.84.821 1.417.616.577-.205.865-.821.656-1.36-.788-2.13.367-4.543 2.623-5.338.577-.206.866-.822.656-1.36-.21-.54-.84-.822-1.417-.616-2.256.795-4.722-.283-5.51-2.413-.21-.539-.839-.821-1.416-.616-.577.206-.866.822-.656 1.36.787 2.13-.367 4.543-2.623 5.338-.578.206-.866.822-.656 1.36.21.54.84.822 1.416.617zm4.146-4.466c.682.488 1.469.821 2.282 1.001-.498.667-.892 1.437-1.102 2.233-.682-.488-1.469-.822-2.282-1.001.524-.667.892-1.412 1.102-2.233z" transform="translate(118.667 87.407)"/>
        </g>
    </g>
</svg>
