<svg xmlns="http://www.w3.org/2000/svg" xmlns:xlink="http://www.w3.org/1999/xlink" viewBox="0 0 41.86 53.49"><defs><style>.cls-1{fill:none;}.cls-2{clip-path:url(#clip-path);}.cls-3{fill:#97bf41;}</style><clipPath id="clip-path" transform="translate(0)"><rect class="cls-1" width="41.86" height="53.49"/></clipPath></defs><title>global-pdf-icon</title><g id="Layer_2" data-name="Layer 2"><g id="Cosmetic_Treatment_Details" data-name="Cosmetic Treatment Details"><g class="cls-2"><g class="cls-2"><path class="cls-3" d="M38.47,5.69a.39.39,0,0,0,.59,0L41.76,3a.39.39,0,0,0-.29-.65h-1V.39A.39.39,0,0,0,40.11,0H37.42A.39.39,0,0,0,37,.39V2.31h-1a.39.39,0,0,0-.29.65Z" transform="translate(0)"/><path class="cls-3" d="M25.49,24.3c-1.12-1.25-2.22-2.64-3.22-3.89-.47-.59-.92-1.16-1.34-1.67l0,0a17.55,17.55,0,0,0,1-4.26c.2-2.74-.11-4.51-.93-5.39a2.06,2.06,0,0,0-2.19-.55,2.89,2.89,0,0,0-1.77,2A11,11,0,0,0,18.58,19a62.55,62.55,0,0,1-3.26,7,15.45,15.45,0,0,0-5.75,3.33c-1.81,1.77-2.55,3.53-2,4.82a2.07,2.07,0,0,0,2,1.28,3.79,3.79,0,0,0,2-.68c1.72-1.12,4-4.87,5.16-7a32,32,0,0,1,6.2-1.22c.57-.05,1.13-.1,1.67-.13,2.19,2.31,4,3.53,5.62,3.83a5.35,5.35,0,0,0,1,.09,3.31,3.31,0,0,0,3-1.43,2.12,2.12,0,0,0,0-2.17c-.91-1.58-3.67-2.45-7.77-2.45h-.91m-15,8.76a1.84,1.84,0,0,1-.89.34H9.46c0-.21.11-1.1,1.56-2.52A11,11,0,0,1,13.59,29a15.46,15.46,0,0,1-3.14,4M19,11.18c.15-.46.34-.67.46-.71h0c.11.13.59.85.38,3.82a10.63,10.63,0,0,1-.38,1.95A8.23,8.23,0,0,1,19,11.18m3.71,13.29a35.33,35.33,0,0,0-4.67.77c.73-1.46,1.4-2.93,2-4.3l.6.75c.68.86,1.44,1.82,2.24,2.76Zm9.62,3.3c0,.05,0,.07,0,.09a1.44,1.44,0,0,1-1.17.39,3.39,3.39,0,0,1-.61-.06,6.92,6.92,0,0,1-3.05-1.81c3.24.15,4.54.93,4.81,1.39" transform="translate(0)"/><path class="cls-3" d="M29.9,0H3A3,3,0,0,0,0,3V50.5a3,3,0,0,0,3,3H38.87a3,3,0,0,0,3-3V12Zm0,4.23L37.63,12H29.9Zm9,46.27H3V3H26.91v9a3,3,0,0,0,3,3h9V50.5Z" transform="translate(0)"/><path class="cls-3" d="M16,38.25a2.17,2.17,0,0,0-.87-.47,5.38,5.38,0,0,0-1.4-.14h-2a1.21,1.21,0,0,0-.85.26,1.11,1.11,0,0,0-.28.84v5.9a1.15,1.15,0,0,0,.25.8.92.92,0,0,0,1.34,0,1.16,1.16,0,0,0,.26-.81v-2h1.27A3.43,3.43,0,0,0,16,42a2.33,2.33,0,0,0,.77-1.89,2.76,2.76,0,0,0-.19-1,2.1,2.1,0,0,0-.56-.8M14.7,40.71a.92.92,0,0,1-.49.32,3,3,0,0,1-.87.11h-.9v-2h.9c.81,0,1.14.16,1.27.29a1,1,0,0,1,.26.72,1,1,0,0,1-.16.6" transform="translate(0)"/><path class="cls-3" d="M23.34,38.37a2.64,2.64,0,0,0-1.08-.58,5.64,5.64,0,0,0-1.39-.15h-2a1,1,0,0,0-1.1,1.1v5.61a2.41,2.41,0,0,0,.07.64.74.74,0,0,0,.35.45,1.38,1.38,0,0,0,.71.15h2a6.17,6.17,0,0,0,1-.07,3.22,3.22,0,0,0,.82-.25,2.8,2.8,0,0,0,.71-.47,3.34,3.34,0,0,0,.67-.85,3.91,3.91,0,0,0,.39-1.07,6.28,6.28,0,0,0,.12-1.29,4,4,0,0,0-1.25-3.22M22,43.74a1.12,1.12,0,0,1-.36.21,1.78,1.78,0,0,1-.42.1l-.59,0h-1v-4.9h.88a4,4,0,0,1,1.17.15,1.37,1.37,0,0,1,.76.65,3.22,3.22,0,0,1,.32,1.62A2.71,2.71,0,0,1,22,43.74" transform="translate(0)"/><path class="cls-3" d="M30.38,37.64H26.72a1.43,1.43,0,0,0-.6.11.76.76,0,0,0-.38.38,1.42,1.42,0,0,0-.11.61v5.89a1.16,1.16,0,0,0,.26.81.93.93,0,0,0,1.34,0,1.16,1.16,0,0,0,.26-.81V42.26h2.41a.92.92,0,0,0,.63-.19.68.68,0,0,0,.23-.53.69.69,0,0,0-.22-.53.91.91,0,0,0-.63-.2H27.47V39.13h2.91a.94.94,0,0,0,.65-.2.76.76,0,0,0,0-1.09.94.94,0,0,0-.65-.2" transform="translate(0)"/></g></g></g></g></svg>