<svg xmlns="http://www.w3.org/2000/svg" width="26" height="26" viewBox="0 0 26 26">
    <g fill="none" fill-rule="evenodd">
        <circle cx="13" cy="13" r="13" fill="#307DA1"/>
        <path fill="#FFF" fill-rule="nonzero" d="M10.244 19c.235 0 .431-.064.588-.19.157-.128.282-.273.376-.435l1.787-2.985c.062-.1.121-.209.176-.324.055-.116.102-.24.14-.37l2.175 3.68c.102.169.232.315.388.439.157.123.365.185.623.185H20l-4.09-6.365L19.835 7h-3.338c-.18 0-.333.037-.458.11-.125.073-.24.199-.341.376l-1.552 2.673c-.086.147-.164.286-.235.417-.07.13-.129.266-.176.405l-2.174-3.553c-.094-.154-.202-.264-.324-.33-.121-.065-.311-.098-.57-.098H7.165l3.925 5.797L7 19h3.244z"/>
    </g>
</svg>
