<?xml version="1.0" encoding="utf-8"?>
<!-- Generator: Adobe Illustrator 21.1.0, SVG Export Plug-In . SVG Version: 6.00 Build 0)  -->
<svg version="1.1" id="Layer_1" xmlns="http://www.w3.org/2000/svg" xmlns:xlink="http://www.w3.org/1999/xlink" x="0px" y="0px"
	 viewBox="0 0 27.6 29" style="enable-background:new 0 0 27.6 29;" xml:space="preserve">
<style type="text/css">
	.st0{fill:#A7A9AC;}
	.st1{fill:#FFFFFF;}
</style>
<title>footer-google-plus</title>
<g id="Layer_2">
	<g id="Footer">
		<ellipse class="st0" cx="13.8" cy="14.5" rx="13.8" ry="14.5"/>
	</g>
</g>
<g>
	<path class="st1" d="M10.3,13.6c0,0.7,0,1.4,0,2.1c1.2,0,2.3,0,3.5,0c-0.5,2.6-4.1,3.4-5.9,1.7C6,16,6,12.7,8,11.4
		c1.4-1.1,3.4-0.8,4.8,0.1c0.5-0.5,1.1-1.1,1.6-1.6c-1.2-0.9-2.6-1.6-4.1-1.5C7.1,8.3,4.2,11,4.1,14.2c-0.2,2.6,1.5,5.1,3.9,6
		c2.4,0.9,5.5,0.3,7-1.9c1-1.4,1.2-3.1,1.1-4.8C14.2,13.6,12.2,13.6,10.3,13.6z"/>
	<path class="st1" d="M21.7,13.6c0-0.6,0-1.2,0-1.8c-0.6,0-1.2,0-1.7,0c0,0.6,0,1.2,0,1.8c-0.6,0-1.2,0-1.8,0c0,0.6,0,1.2,0,1.7
		c0.6,0,1.2,0,1.8,0c0,0.6,0,1.2,0,1.8c0.6,0,1.2,0,1.7,0c0-0.6,0-1.2,0-1.8c0.6,0,1.2,0,1.8,0c0-0.6,0-1.2,0-1.7
		C22.9,13.6,22.3,13.6,21.7,13.6z"/>
</g>
</svg>
