<?xml version="1.0" encoding="utf-8"?>
<!-- Generator: Adobe Illustrator 21.1.0, SVG Export Plug-In . SVG Version: 6.00 Build 0)  -->
<svg version="1.1" id="Layer_1" xmlns="http://www.w3.org/2000/svg" xmlns:xlink="http://www.w3.org/1999/xlink" x="0px" y="0px"
	 viewBox="0 0 27.6 29" style="enable-background:new 0 0 27.6 29;" xml:space="preserve">
<style type="text/css">
	.st0{fill:#A7A9AC;}
	.st1{fill:none;}
	.st2{fill:#FFFFFF;}
</style>
<title>footer-linkedin</title>
<g id="Layer_2">
	<g id="Footer">
		<ellipse class="st0" cx="13.8" cy="14.5" rx="13.8" ry="14.5"/>
		<rect x="2.4" y="3" class="st1" width="21.9" height="23"/>
	</g>
</g>
<g>
	<g>
		<path class="st2" d="M7.3,11.1h3.3v10.5H7.3V11.1z M9,5.9c1,0,1.9,0.8,1.9,1.9c0,1-0.8,1.9-1.9,1.9C8,9.8,7.1,9,7.1,7.8
			S7.9,5.9,9,5.9"/>
	</g>
	<path class="st2" d="M12.4,11.1h3.1v1.5l0,0c0.4-0.8,1.5-1.7,3-1.7c3.3,0,3.9,2.1,3.9,4.9v5.7h-3.3v-5.1c0-1.2,0-2.8-1.7-2.8
		s-1.9,1.3-1.9,2.7v5.2h-3.3C12.4,21.6,12.4,11.1,12.4,11.1z"/>
</g>
</svg>
