<?xml version="1.0" encoding="utf-8"?>
<!-- Generator: Adobe Illustrator 21.1.0, SVG Export Plug-In . SVG Version: 6.00 Build 0)  -->
<svg version="1.1" id="Layer_1" xmlns="http://www.w3.org/2000/svg" xmlns:xlink="http://www.w3.org/1999/xlink" x="0px" y="0px"
	 viewBox="0 0 27.6 29" style="enable-background:new 0 0 27.6 29;" xml:space="preserve">
<style type="text/css">
	.st0{fill:#A7A9AC;}
	.st1{fill:none;}
	.st2{fill:#FFFFFF;}
</style>
<title>footer-twitter</title>
<g id="Layer_2">
	<g id="Footer">
		<ellipse class="st0" cx="13.8" cy="14.5" rx="13.8" ry="14.5"/>
		
			<rect x="3.8" y="5" transform="matrix(1.692891e-02 -0.9999 0.9999 1.692891e-02 -0.9217 28.0626)" class="st1" width="20" height="19"/>
		<path class="st2" d="M10.5,21.7c6.7,0,10.4-5.6,10.4-10.4c0-0.2,0-0.3,0-0.5c0.7-0.5,1.3-1.2,1.8-1.9c-0.7,0.3-1.4,0.5-2.1,0.6
			c0.8-0.5,1.3-1.2,1.6-2c-0.7,0.4-1.5,0.7-2.3,0.9c-0.7-0.7-1.6-1.2-2.7-1.2c-2,0-3.7,1.6-3.7,3.6c0,0.3,0,0.6,0.1,0.8
			c-3-0.2-5.7-1.6-7.5-3.8C5.8,8.5,5.7,9.1,5.7,9.8c0,1.3,0.6,2.4,1.6,3c-0.6,0-1.2-0.2-1.7-0.5c0,0,0,0,0,0c0,1.8,1.3,3.2,2.9,3.6
			c-0.3,0.1-0.6,0.1-1,0.1c-0.2,0-0.5,0-0.7-0.1c0.5,1.5,1.8,2.5,3.4,2.5c-1.2,1-2.8,1.6-4.5,1.6c-0.3,0-0.6,0-0.9-0.1
			C6.5,21.1,8.4,21.7,10.5,21.7"/>
	</g>
</g>
</svg>
