<?xml version="1.0" encoding="utf-8"?>
<!-- Generator: Adobe Illustrator 21.1.0, SVG Export Plug-In . SVG Version: 6.00 Build 0)  -->
<svg version="1.1" id="Layer_1" xmlns="http://www.w3.org/2000/svg" xmlns:xlink="http://www.w3.org/1999/xlink" x="0px" y="0px"
	 viewBox="0 0 27.6 29" style="enable-background:new 0 0 27.6 29;" xml:space="preserve">
<style type="text/css">
	.st0{fill:#A7A9AC;}
	.st1{fill:#FFFFFF;}
</style>
<title>footer-youtube</title>
<g id="Layer_2">
	<g id="Footer">
		<ellipse class="st0" cx="13.8" cy="14.5" rx="13.8" ry="14.5"/>
		<path class="st1" d="M22.7,10.4c-0.1,1.7-1.3,4.1-3.6,7.1c-2.4,3.1-4.4,4.7-6.1,4.7c-1,0-1.9-1-2.6-2.9c-0.5-1.7-1-3.5-1.4-5.2
			c-0.5-1.9-1.1-2.9-1.7-2.9c-0.1,0-0.6,0.3-1.4,0.8L5,11c0.9-0.8,1.7-1.5,2.6-2.3c1.2-1,2-1.5,2.6-1.6c1.4-0.1,2.2,0.8,2.5,2.8
			c0.3,2.2,0.6,3.5,0.7,4.1c0.4,1.8,0.8,2.7,1.3,2.7c0.4,0,0.9-0.6,1.7-1.8c0.7-1.2,1.1-2.1,1.2-2.7c0.1-1-0.3-1.5-1.2-1.5
			c-0.4,0-0.9,0.1-1.3,0.3c0.9-2.9,2.5-4.2,5-4.2C21.9,6.9,22.8,8.1,22.7,10.4z"/>
	</g>
</g>
</svg>
