<svg xmlns="http://www.w3.org/2000/svg" viewBox="0 0 49.27 49.27"><defs><style>.cls-1{fill:#fcfcfc;}</style></defs><title>services-cosmetic-lasers</title><g id="Layer_2" data-name="Layer 2"><g id="Cosmetic_Services_Landing" data-name="Cosmetic Services Landing"><path class="cls-1" d="M30,40.45H19.29a1.1,1.1,0,0,1-1.1-1.1V31.08H9.93A1.1,1.1,0,0,1,8.83,30V19.29a1.1,1.1,0,0,1,1.1-1.1h8.26V9.93a1.1,1.1,0,0,1,1.1-1.1H30a1.1,1.1,0,0,1,1.1,1.1v8.26h8.26a1.1,1.1,0,0,1,1.1,1.1V30a1.1,1.1,0,0,1-1.1,1.1H31.08v8.26A1.1,1.1,0,0,1,30,40.45Zm-9.59-2.21h8.49V30a1.1,1.1,0,0,1,1.1-1.1h8.26V20.39H30a1.1,1.1,0,0,1-1.1-1.1V11H20.39v8.26a1.1,1.1,0,0,1-1.1,1.1H11v8.49h8.26a1.1,1.1,0,0,1,1.1,1.1Z"/><path class="cls-1" d="M2.21,16.78H0V1.1A1.1,1.1,0,0,1,1.1,0H16.81V2.21H2.21Z"/><path class="cls-1" d="M49.27,16.78H47.07V2.21H32.46V0H48.17a1.1,1.1,0,0,1,1.1,1.1Z"/><path class="cls-1" d="M16.81,49.27H1.1A1.1,1.1,0,0,1,0,48.17V32.49H2.21V47.07H16.81Z"/><path class="cls-1" d="M48.17,49.27H32.46V47.07H47.07V32.49h2.21V48.17A1.1,1.1,0,0,1,48.17,49.27Z"/></g></g></svg>