<svg xmlns="http://www.w3.org/2000/svg" viewBox="0 0 78.83 64.5"><defs><style>.cls-1{fill:#fcfcfc;}</style></defs><title>services-cosmetic-patients</title><g id="Layer_2" data-name="Layer 2"><g id="Cosmetic_Services_Landing" data-name="Cosmetic Services Landing"><path class="cls-1" d="M39.42,0a8.06,8.06,0,1,0,8.06,8.06A8.08,8.08,0,0,0,39.42,0Zm0,1.79a6.27,6.27,0,1,1-6.27,6.27A6.26,6.26,0,0,1,39.42,1.79ZM16.13,8.06a8.06,8.06,0,1,0,0,16.13,8,8,0,0,0,3.81-.92,8.05,8.05,0,0,0-.22,1.82,8,8,0,0,0,.08,1.15A25,25,0,0,0,16.13,26,20.88,20.88,0,0,0,4.87,29C1.95,30.9,0,33.62,0,36.65v9.94a.9.9,0,0,0,.9.9H11.65v8.06a.9.9,0,0,0,.9.9H23.29V63.6a.9.9,0,0,0,.9.9H54.65a.9.9,0,0,0,.9-.9V56.44H66.29a.9.9,0,0,0,.9-.9V47.48H77.94a.9.9,0,0,0,.9-.9V36.65c0-3-1.95-5.75-4.87-7.64a20.88,20.88,0,0,0-11.25-3,25,25,0,0,0-3.67.25,8,8,0,0,0,.08-1.15,8.05,8.05,0,0,0-.22-1.82,8,8,0,0,0,3.81.92A8.08,8.08,0,1,0,54.87,18a8,8,0,0,0-8.9.84,23.69,23.69,0,0,0-13.1,0A8,8,0,0,0,24,18a8.05,8.05,0,0,0-7.84-9.94Zm0,1.79a6.27,6.27,0,1,1-6.27,6.27A6.26,6.26,0,0,1,16.13,9.85Zm46.58,0a6.27,6.27,0,1,1-6.27,6.27A6.26,6.26,0,0,1,62.71,9.85Zm-34.94,9a6.25,6.25,0,0,1,5.6,9.07,7.93,7.93,0,0,0-1.09,1.6,6.28,6.28,0,1,1-4.51-10.67Zm23.29,0a6.27,6.27,0,1,1-4.51,10.67,7.93,7.93,0,0,0-1.09-1.6,6.25,6.25,0,0,1,5.6-9.07Zm-11.65.9a21.49,21.49,0,0,1,5.12.64A8,8,0,0,0,43,25.08a7.7,7.7,0,0,0,.08.92,8.18,8.18,0,0,0-7.33,0,7.68,7.68,0,0,0,.08-.92,8,8,0,0,0-1.54-4.73A21.49,21.49,0,0,1,39.42,19.71Zm0,7.22a6.27,6.27,0,1,1-6.27,6.27A6.26,6.26,0,0,1,39.42,26.93Zm-23.29.84a21.71,21.71,0,0,1,4.2.42,8,8,0,0,0,11.06,4.09,8.44,8.44,0,0,0,0,.92,8,8,0,0,0,.28,2,24.1,24.1,0,0,0-3.86-.31,20.88,20.88,0,0,0-11.25,3c-2.93,1.89-4.87,4.61-4.87,7.64v.08H1.79v-9c0-2.26,1.45-4.46,4-6.13a19.29,19.29,0,0,1,10.3-2.74Zm46.58,0A19.29,19.29,0,0,1,73,30.51c2.58,1.67,4,3.87,4,6.13v9H67.19V45.6c0-3-1.95-5.75-4.87-7.64a20.88,20.88,0,0,0-11.25-3,24.1,24.1,0,0,0-3.86.31,8,8,0,0,0,.28-2,8.49,8.49,0,0,0,0-.92,8,8,0,0,0,11.06-4.09,21.71,21.71,0,0,1,4.2-.42Zm-34.94,9a21.78,21.78,0,0,1,4.68.5,8,8,0,0,0,13.94,0,21.78,21.78,0,0,1,4.68-.5,19.29,19.29,0,0,1,10.3,2.74c2.58,1.67,4,3.87,4,6.13v9H55.54v-1c0-3-1.95-5.75-4.87-7.64a20.87,20.87,0,0,0-11.25-3,20.87,20.87,0,0,0-11.25,3c-2.93,1.89-4.87,4.61-4.87,7.64v1H13.44v-9c0-2.26,1.45-4.46,4-6.13A19.29,19.29,0,0,1,27.77,36.73Zm11.65,8.06a19.28,19.28,0,0,1,10.3,2.74c2.58,1.67,4,3.87,4,6.13v9H25.08v-9c0-2.26,1.45-4.46,4-6.13a19.28,19.28,0,0,1,10.3-2.74Z"/></g></g></svg>