<svg xmlns="http://www.w3.org/2000/svg" xmlns:xlink="http://www.w3.org/1999/xlink" viewBox="0 0 63.37 51.81"><defs><style>.cls-1,.cls-2,.cls-3,.cls-7,.cls-8{fill:none;}.cls-1,.cls-2,.cls-7{stroke:#fff;stroke-width:0.84px;}.cls-1,.cls-2,.cls-3,.cls-7{stroke-miterlimit:10;}.cls-1{clip-rule:evenodd;}.cls-3{stroke:#fcfcfc;stroke-width:1.97px;}.cls-3,.cls-7{fill-rule:evenodd;}.cls-4{isolation:isolate;}.cls-5{clip-path:url(#clip-path);}.cls-6{clip-path:url(#clip-path-2);}</style><clipPath id="clip-path"><path class="cls-1" d="M37,15.63c0-.17,0-.19,0-.09a5.38,5.38,0,0,0-10.76.22v0h0s0,0,0,0a5.34,5.34,0,0,0,.56,2.31,26.73,26.73,0,0,0,4.82,6.77,26.6,26.6,0,0,0,4.82-6.75,5.34,5.34,0,0,0,.57-2.4s0-.08,0-.12m-5.38,1.72a1.6,1.6,0,1,1,1.6-1.6,1.6,1.6,0,0,1-1.6,1.6"/></clipPath><clipPath id="clip-path-2"><rect class="cls-2" x="26.06" y="10.38" width="11.06" height="14.63"/></clipPath></defs><title>services-cosmetic-locations</title><g id="Layer_2" data-name="Layer 2"><g id="Cosmetic_Services_Landing" data-name="Cosmetic Services Landing"><polygon class="cls-3" points="25.86 50.82 25.86 33.35 37.51 33.35 37.51 50.82 52.07 50.82 52.07 27.53 60.8 27.53 31.69 1.33 2.57 27.53 11.31 27.53 11.31 50.82 25.86 50.82 25.86 50.82"/><g class="cls-4"><g class="cls-5"><g class="cls-6"><rect class="cls-2" x="25.38" y="9.53" width="12.46" height="16.22"/></g><rect class="cls-2" x="26.06" y="10.38" width="11.06" height="14.63"/></g><path class="cls-7" d="M37,15.63c0-.17,0-.19,0-.09a5.38,5.38,0,0,0-10.76.22v0h0s0,0,0,0a5.34,5.34,0,0,0,.56,2.31,26.73,26.73,0,0,0,4.82,6.77,26.6,26.6,0,0,0,4.82-6.75,5.34,5.34,0,0,0,.57-2.4s0-.08,0-.12m-5.38,1.72a1.6,1.6,0,1,1,1.6-1.6,1.6,1.6,0,0,1-1.6,1.6"/><rect class="cls-8" x="26.23" y="10.38" width="10.89" height="14.63"/></g></g></g></svg>