<svg xmlns="http://www.w3.org/2000/svg" viewBox="0 0 21.51 28.92"><defs><style>.cls-1{isolation:isolate;}.cls-2{fill:none;stroke:#97bf41;stroke-miterlimit:10;stroke-width:0.78px;fill-rule:evenodd;}</style></defs><title>locations-pin-green</title><g id="Layer_2" data-name="Layer 2"><g id="Locations"><g class="cls-1"><path class="cls-2" d="M21.12,10.5c0-.33,0-.37,0-.18a10.36,10.36,0,0,0-20.72.42s0,0,0,.06h0s0,.05,0,.08a10.28,10.28,0,0,0,1.07,4.45c2.65,6.31,9.29,13,9.29,13s6.62-6.69,9.28-13a10.28,10.28,0,0,0,1.09-4.62c0-.08,0-.16,0-.23M10.76,13.81a3.08,3.08,0,1,1,3.08-3.08,3.08,3.08,0,0,1-3.08,3.08"/></g></g></g></svg>