<svg xmlns="http://www.w3.org/2000/svg" xmlns:xlink="http://www.w3.org/1999/xlink" viewBox="0 0 23.32 26.39"><defs><style>.cls-1,.cls-13,.cls-2,.cls-3,.cls-4,.cls-9{fill:none;stroke:#97bf41;stroke-miterlimit:10;}.cls-1,.cls-2,.cls-9{stroke-width:0.75px;}.cls-1,.cls-3{clip-rule:evenodd;}.cls-5{fill:transparent;}.cls-6{fill:#727272;}.cls-7{clip-path:url(#clip-path);}.cls-8{clip-path:url(#clip-path-2);}.cls-13,.cls-9{fill-rule:evenodd;}.cls-10{clip-path:url(#clip-path-3);}.cls-11{clip-path:url(#clip-path-5);}.cls-12{clip-path:url(#clip-path-6);}</style><clipPath id="clip-path"><path class="cls-1" d="M16.94,14a.92.92,0,0,0,1.82.26,7.85,7.85,0,0,0-.31-3.55A8,8,0,0,0,16,7.06,8.11,8.11,0,0,0,12,5.28a.91.91,0,1,0-.28,1.81,6.17,6.17,0,0,1,5,4.2A6,6,0,0,1,16.94,14Z"/></clipPath><clipPath id="clip-path-2"><rect class="cls-2" x="-2.02" y="-0.36" width="26.75" height="27.22"/></clipPath><clipPath id="clip-path-3"><path class="cls-1" d="M18.57,3.93a12.24,12.24,0,0,0-6-2.67.91.91,0,1,0-.27,1.81,10.25,10.25,0,0,1,8.29,7A10,10,0,0,1,21,14.6a.92.92,0,0,0,1.82.26,11.85,11.85,0,0,0-.47-5.36A12,12,0,0,0,18.57,3.93Z"/></clipPath><clipPath id="clip-path-5"><path class="cls-3" d="M18,18.44a1.74,1.74,0,0,0-2.19-.55l-2.11,1c-.37-.22-1.58-1.13-4.09-4.68s-3-5-3-5.4L8.17,7.13A1.72,1.72,0,0,0,8.39,4.9L5.82,1.26A1.81,1.81,0,0,0,3.13,1l-1,.91A4.85,4.85,0,0,0,.56,5,9.85,9.85,0,0,0,1,8.88,28.75,28.75,0,0,0,5.2,17.21a33.39,33.39,0,0,0,4.89,5.58,11.28,11.28,0,0,0,5.58,3,4.65,4.65,0,0,0,3-.54l1.19-.61a1.77,1.77,0,0,0,.65-2.61L18,18.44"/></clipPath><clipPath id="clip-path-6"><rect class="cls-4" x="-2.02" y="-0.36" width="26.75" height="27.22"/></clipPath></defs><title>phone-green</title><g id="Background"><rect class="cls-5" x="-193.52" y="-959.61" width="1440" height="4000"/><rect class="cls-5" x="-194.02" y="-959.11" width="1440" height="4000"/></g><g id="Locations"><path class="cls-6" d="M276.17-338.07V259.09H-92.72V-338.07H276.17m.69-.69H-93.41V259.78H276.86V-338.76Z"/><g class="cls-7"><g class="cls-8"><rect class="cls-2" x="8.07" y="3.39" width="13.58" height="13.57" transform="translate(2.73 23.47) rotate(-82)"/></g><rect class="cls-2" x="-2.02" y="-0.36" width="26.75" height="27.22"/></g><path class="cls-9" d="M16.94,14a.92.92,0,0,0,1.82.26,7.85,7.85,0,0,0-.31-3.55A8,8,0,0,0,16,7.06,8.11,8.11,0,0,0,12,5.28a.91.91,0,1,0-.28,1.81,6.17,6.17,0,0,1,5,4.2A6,6,0,0,1,16.94,14Z"/><g class="cls-10"><g class="cls-8"><rect class="cls-2" x="8.35" y="-0.39" width="17.65" height="17.66" transform="translate(6.43 24.28) rotate(-82)"/></g><rect class="cls-2" x="-2.02" y="-0.36" width="26.75" height="27.22"/></g><path class="cls-9" d="M18.57,3.93a12.24,12.24,0,0,0-6-2.67.91.91,0,1,0-.27,1.81,10.25,10.25,0,0,1,8.29,7A10,10,0,0,1,21,14.6a.92.92,0,0,0,1.82.26,11.85,11.85,0,0,0-.47-5.36A12,12,0,0,0,18.57,3.93Z"/><g class="cls-11"><g class="cls-12"><rect class="cls-4" x="-3.29" y="-0.39" width="28.22" height="27.33" transform="translate(-3.82 22.14) rotate(-82)"/></g><rect class="cls-4" x="-2.02" y="-0.36" width="26.75" height="27.22"/></g><path class="cls-13" d="M18,18.44a1.74,1.74,0,0,0-2.19-.55l-2.11,1c-.37-.22-1.58-1.13-4.09-4.68s-3-5-3-5.4L8.17,7.13A1.72,1.72,0,0,0,8.39,4.9L5.82,1.26A1.81,1.81,0,0,0,3.13,1l-1,.91A4.85,4.85,0,0,0,.56,5,9.85,9.85,0,0,0,1,8.88,28.75,28.75,0,0,0,5.2,17.21a33.39,33.39,0,0,0,4.89,5.58,11.28,11.28,0,0,0,5.58,3,4.65,4.65,0,0,0,3-.54l1.19-.61a1.77,1.77,0,0,0,.65-2.61L18,18.44"/></g></svg>
