<svg xmlns="http://www.w3.org/2000/svg" viewBox="0 0 25.45 34.34"><defs><style>.cls-1{isolation:isolate;}.cls-2{fill:#97bf41;fill-rule:evenodd;}</style></defs><title>locations-pin-solid-green</title><g id="Layer_2" data-name="Layer 2"><g id="Locations_Expanded" data-name="Locations Expanded"><g class="cls-1"><path class="cls-2" d="M25.45,12.41c0-.41,0-.45,0-.22A12.73,12.73,0,0,0,0,12.7s0,0,0,.07H0s0,.07,0,.1a12.62,12.62,0,0,0,1.32,5.46c3.25,7.75,11.4,16,11.4,16s8.13-8.21,11.39-16a12.63,12.63,0,0,0,1.34-5.68c0-.1,0-.19,0-.29M12.73,16.48a3.78,3.78,0,1,1,3.78-3.78,3.78,3.78,0,0,1-3.78,3.78"/></g></g></g></svg>