<svg xmlns="http://www.w3.org/2000/svg" xmlns:xlink="http://www.w3.org/1999/xlink" viewBox="0 0 24.98 24.98"><defs><style>.cls-1{fill:none;}.cls-2{clip-path:url(#clip-path);}.cls-3{fill:#4e93b8;}.cls-4{fill:#37a8e0;}.cls-5{fill:#307da1;}.cls-6{fill:#fff;}</style><clipPath id="clip-path" transform="translate(-0.05 -0.05)"><rect class="cls-1" width="25" height="25"/></clipPath></defs><title>global-plus-button</title><g id="Layer_2" data-name="Layer 2"><g id="Cosmetic_Treatment_Details" data-name="Cosmetic Treatment Details"><g class="cls-2"><g class="cls-2"><path class="cls-3" d="M0,12.54A12.49,12.49,0,1,1,12.54,25,12.49,12.49,0,0,1,0,12.54" transform="translate(-0.05 -0.05)"/></g><g class="cls-2"><path class="cls-4" d="M24.74,15.19,14.53,5l-2.36,7.25L4.51,14.06,15.19,24.74a12.51,12.51,0,0,0,9.55-9.55" transform="translate(-0.05 -0.05)"/><path class="cls-5" d="M15.19,24.74,4.51,14.06l7.66-1.83L14.53,5,24.74,15.19a12.51,12.51,0,0,1-9.55,9.55" transform="translate(-0.05 -0.05)"/><path class="cls-6" d="M20.14,10.56H14.58V5.05a.47.47,0,0,0-.47-.47H11a.47.47,0,0,0-.47.47v5.5H5.05a.47.47,0,0,0-.47.47v3.09a.47.47,0,0,0,.47.47h5.5v5.5a.47.47,0,0,0,.47.47h3.09a.47.47,0,0,0,.47-.47v-5.5h5.5a.47.47,0,0,0,.47-.47V11a.47.47,0,0,0-.47-.47" transform="translate(-0.05 -0.05)"/></g></g></g></g></svg>