<svg xmlns="http://www.w3.org/2000/svg" xmlns:xlink="http://www.w3.org/1999/xlink" viewBox="0 0 29.18 29.25"><defs><style>.cls-1,.cls-11,.cls-2,.cls-3,.cls-4,.cls-7{fill:none;stroke:#97bf41;stroke-miterlimit:10;}.cls-1,.cls-2,.cls-7{stroke-width:0.67px;}.cls-1,.cls-3{clip-rule:evenodd;}.cls-11,.cls-3,.cls-4{stroke-width:0.89px;}.cls-5{clip-path:url(#clip-path);}.cls-6{clip-path:url(#clip-path-2);}.cls-11,.cls-7{fill-rule:evenodd;}.cls-8{clip-path:url(#clip-path-3);}.cls-9{clip-path:url(#clip-path-5);}.cls-10{clip-path:url(#clip-path-6);}</style><clipPath id="clip-path"><path class="cls-1" d="M19.73,15.29a.82.82,0,0,0,1.62.23,7,7,0,0,0-.28-3.16,7.09,7.09,0,0,0-2.22-3.27,7.21,7.21,0,0,0-3.51-1.58.81.81,0,1,0-.25,1.61,5.49,5.49,0,0,1,4.42,3.74A5.38,5.38,0,0,1,19.73,15.29Z"/></clipPath><clipPath id="clip-path-2"><rect class="cls-2" x="2.86" y="2.5" width="23.8" height="24.21"/></clipPath><clipPath id="clip-path-3"><path class="cls-1" d="M21.18,6.31a10.89,10.89,0,0,0-5.33-2.38.81.81,0,1,0-.24,1.61A9.11,9.11,0,0,1,23,11.75a8.94,8.94,0,0,1,.36,4A.82.82,0,0,0,25,16a10.54,10.54,0,0,0-.42-4.77A10.71,10.71,0,0,0,21.18,6.31Z"/></clipPath><clipPath id="clip-path-5"><path class="cls-3" d="M20.63,19.22a1.55,1.55,0,0,0-1.95-.49l-1.88.86c-.33-.19-1.41-1-3.64-4.16s-2.63-4.44-2.7-4.81l1.45-1.46a1.53,1.53,0,0,0,.2-2L9.84,3.94a1.61,1.61,0,0,0-2.4-.25l-.88.81A4.31,4.31,0,0,0,5.16,7.25a8.76,8.76,0,0,0,.35,3.47,25.57,25.57,0,0,0,3.78,7.41,29.7,29.7,0,0,0,4.35,5,10,10,0,0,0,5,2.71,4.13,4.13,0,0,0,2.68-.48l1.06-.54a1.58,1.58,0,0,0,.58-2.32l-2.29-3.23"/></clipPath><clipPath id="clip-path-6"><rect class="cls-4" x="2.86" y="2.5" width="23.8" height="24.21"/></clipPath></defs><title>global-phone-green</title><g id="Layer_2" data-name="Layer 2"><g id="Cosmetic_Treatment_Details" data-name="Cosmetic Treatment Details"><g class="cls-5"><g class="cls-6"><rect class="cls-2" x="11.84" y="5.83" width="12.08" height="12.07" transform="translate(3.64 27.92) rotate(-82)"/></g><rect class="cls-2" x="2.86" y="2.5" width="23.8" height="24.21"/></g><path class="cls-7" d="M19.73,15.29a.82.82,0,0,0,1.62.23,7,7,0,0,0-.28-3.16,7.09,7.09,0,0,0-2.22-3.27,7.21,7.21,0,0,0-3.51-1.58.81.81,0,1,0-.25,1.61,5.49,5.49,0,0,1,4.42,3.74A5.38,5.38,0,0,1,19.73,15.29Z"/><g class="cls-8"><g class="cls-6"><rect class="cls-2" x="12.09" y="2.47" width="15.7" height="15.71" transform="translate(6.94 28.63) rotate(-82)"/></g><rect class="cls-2" x="2.86" y="2.5" width="23.8" height="24.21"/></g><path class="cls-7" d="M21.18,6.31a10.89,10.89,0,0,0-5.33-2.38.81.81,0,1,0-.24,1.61A9.11,9.11,0,0,1,23,11.75a8.94,8.94,0,0,1,.36,4A.82.82,0,0,0,25,16a10.54,10.54,0,0,0-.42-4.77A10.71,10.71,0,0,0,21.18,6.31Z"/><g class="cls-9"><g class="cls-10"><rect class="cls-4" x="1.74" y="2.47" width="25.1" height="24.31" transform="translate(-2.18 26.73) rotate(-82)"/></g><rect class="cls-4" x="2.86" y="2.5" width="23.8" height="24.21"/></g><path class="cls-11" d="M20.63,19.22a1.55,1.55,0,0,0-1.95-.49l-1.88.86c-.33-.19-1.41-1-3.64-4.16s-2.63-4.44-2.7-4.81l1.45-1.46a1.53,1.53,0,0,0,.2-2L9.84,3.94a1.61,1.61,0,0,0-2.4-.25l-.88.81A4.31,4.31,0,0,0,5.16,7.25a8.76,8.76,0,0,0,.35,3.47,25.57,25.57,0,0,0,3.78,7.41,29.7,29.7,0,0,0,4.35,5,10,10,0,0,0,5,2.71,4.13,4.13,0,0,0,2.68-.48l1.06-.54a1.58,1.58,0,0,0,.58-2.32l-2.29-3.23"/></g></g></svg>