<svg xmlns="http://www.w3.org/2000/svg" viewBox="0 0 48.21 54.24"><defs><style>.cls-1{fill:#fff;}.cls-2,.cls-3,.cls-4{fill:none;stroke:#fff;stroke-miterlimit:10;}.cls-3{stroke-width:0.71px;}.cls-4{stroke-width:0.95px;}</style></defs><title>home-appointment-icon-white</title><g id="Layer_2" data-name="Layer 2"><g id="Home"><path class="cls-1" d="M33.35,10.84a2,2,0,0,1-2,2h0a2,2,0,0,1-2-2V2a2,2,0,0,1,2-2h0a2,2,0,0,1,2,2Z"/><path class="cls-1" d="M14.7,10.84a2,2,0,0,1-2,2h0a2,2,0,0,1-2-2V2a2,2,0,0,1,2-2h0a2,2,0,0,1,2,2Z"/><rect class="cls-2" x="15.51" y="22.99" width="5.37" height="5.37"/><rect class="cls-2" x="23.09" y="22.99" width="5.37" height="5.37"/><rect class="cls-2" x="30.67" y="22.99" width="5.37" height="5.37"/><rect class="cls-2" x="7.93" y="30.51" width="5.37" height="5.37"/><rect class="cls-2" x="15.51" y="30.51" width="5.37" height="5.37"/><rect class="cls-2" x="23.09" y="30.51" width="5.37" height="5.37"/><rect class="cls-2" x="7.93" y="38.04" width="5.37" height="5.37"/><rect class="cls-2" x="15.51" y="38.04" width="5.37" height="5.37"/><path class="cls-2" d="M23.09,38v5.37h2.69A11.56,11.56,0,0,1,27.09,38Z"/><path class="cls-2" d="M36,31.88V30.51H30.67v3.43A11.54,11.54,0,0,1,36,31.88Z"/><path class="cls-2" d="M26.08,46.05h-20a2.23,2.23,0,0,1-2.23-2.23V20.34H40.11V32.13a11.53,11.53,0,0,1,3.36,1.4V9.08a2.64,2.64,0,0,0-2.64-2.64H34.41v4.4a3.1,3.1,0,1,1-6.2,0V6.44H15.76v4.4a3.1,3.1,0,0,1-6.2,0V6.44H3.14A2.64,2.64,0,0,0,.5,9.08V46.77a2.64,2.64,0,0,0,2.64,2.64h24.3A11.51,11.51,0,0,1,26.08,46.05Z"/><path class="cls-3" d="M37.88,33.94a10,10,0,1,0,10,10A10,10,0,0,0,37.88,33.94Zm0,17.75a7.78,7.78,0,1,1,7.78-7.78A7.78,7.78,0,0,1,37.88,51.69Z"/><path class="cls-4" d="M38.42,38.69a.85.85,0,0,0-.85.85v3.94H33.63a.85.85,0,0,0,0,1.69h4.79a.85.85,0,0,0,.85-.85V39.53A.85.85,0,0,0,38.42,38.69Z"/></g></g></svg>