<svg xmlns="http://www.w3.org/2000/svg" viewBox="0 0 49.63 49.63"><defs><style>.cls-1{fill:none;stroke:#fff;stroke-miterlimit:10;stroke-width:2.23px;}</style></defs><title>home-doctors-icon-white</title><g id="Layer_2" data-name="Layer 2"><g id="Home"><path id="path10760" class="cls-1" d="M24.81,1.12a23.7,23.7,0,1,0,23.7,23.7A23.68,23.68,0,0,0,24.81,1.12ZM21.41,8.83h6.82a1.7,1.7,0,0,1,1.71,1.71V19.7H39.1A1.7,1.7,0,0,1,40.8,21.4v6.82a1.7,1.7,0,0,1-1.71,1.71H29.93V39.1a1.7,1.7,0,0,1-1.71,1.71H21.41a1.7,1.7,0,0,1-1.71-1.71V29.93H10.53a1.7,1.7,0,0,1-1.71-1.71V21.4a1.7,1.7,0,0,1,1.71-1.71H19.7V10.53a1.7,1.7,0,0,1,1.71-1.71Z"/></g></g></svg>