<svg xmlns="http://www.w3.org/2000/svg" xmlns:xlink="http://www.w3.org/1999/xlink" viewBox="0 0 42.11 54.2"><defs><style>.cls-1,.cls-2,.cls-6,.cls-7{fill:none;}.cls-1,.cls-2,.cls-6{stroke:#fff;stroke-miterlimit:10;stroke-width:2px;}.cls-1{clip-rule:evenodd;}.cls-3{isolation:isolate;}.cls-4{clip-path:url(#clip-path);}.cls-5{clip-path:url(#clip-path-2);}.cls-6{fill-rule:evenodd;}</style><clipPath id="clip-path"><path class="cls-1" d="M38.36,20.63c0-.56,0-.61,0-.3A17.32,17.32,0,0,0,3.74,21s0,.06,0,.09h0s0,.09,0,.14a17.17,17.17,0,0,0,1.79,7.43C10,39.23,21,50.46,21,50.46s11.06-11.17,15.5-21.71A17.18,17.18,0,0,0,38.37,21c0-.13,0-.26,0-.39M21.05,26.16A5.14,5.14,0,1,1,26.2,21a5.14,5.14,0,0,1-5.15,5.14"/></clipPath><clipPath id="clip-path-2"><rect class="cls-2" x="3.19" y="3.74" width="35.58" height="47.07"/></clipPath></defs><title>home-locations-pin-icon-white</title><g id="Layer_2" data-name="Layer 2"><g id="Home"><g class="cls-3"><g class="cls-4"><g class="cls-5"><rect class="cls-2" x="1" y="1" width="40.11" height="52.2"/></g><rect class="cls-2" x="3.19" y="3.74" width="35.58" height="47.07"/></g><path class="cls-6" d="M38.36,20.63c0-.56,0-.61,0-.3A17.32,17.32,0,0,0,3.74,21s0,.06,0,.09h0s0,.09,0,.14a17.17,17.17,0,0,0,1.79,7.43C10,39.23,21,50.46,21,50.46s11.06-11.17,15.5-21.71A17.18,17.18,0,0,0,38.37,21c0-.13,0-.26,0-.39M21.05,26.16A5.14,5.14,0,1,1,26.2,21a5.14,5.14,0,0,1-5.15,5.14"/><rect class="cls-7" x="3.74" y="3.74" width="35.03" height="47.07"/></g></g></g></svg>