<svg xmlns="http://www.w3.org/2000/svg" viewBox="0 0 41.87 54.81"><defs><style>.cls-1{fill:#fff;}</style></defs><title>home-services-icon-white</title><g id="Layer_2" data-name="Layer 2"><g id="Home"><g id="_Group_" data-name="&lt;Group&gt;"><path id="_Compound_Path_" data-name="&lt;Compound Path&gt;" class="cls-1" d="M20.93,54.81c-4.89,0-10.06-3-13.83-8C1.23,39,0,28.52,0,21.07A21.26,21.26,0,0,1,6.18,6.33,20.63,20.63,0,0,1,20.93,0,20.59,20.59,0,0,1,35.69,6.4a21.26,21.26,0,0,1,6.18,14.67C41.87,34,38,41.93,34.77,46.35,30.9,51.64,25.72,54.81,20.93,54.81Zm0-52.53A18.38,18.38,0,0,0,7.8,7.93,19,19,0,0,0,2.27,21.07c0,7.1,1.15,17.1,6.64,24.38,3.34,4.43,7.83,7.08,12,7.08,4,0,8.61-2.88,12-7.53,3-4.14,6.65-11.66,6.65-23.93C39.59,11.06,30.87,2.27,20.93,2.27Z"/><g id="_Group_2" data-name="&lt;Group&gt;"><path id="_Path_" data-name="&lt;Path&gt;" class="cls-1" d="M17.62,35.22a.85.85,0,0,0,.44,1.12l1.59.7a3.07,3.07,0,0,0,2.38,0l1.76-.72a.85.85,0,1,0-.64-1.58l-1.76.72a1.36,1.36,0,0,1-1.05,0l-1.59-.7A.85.85,0,0,0,17.62,35.22Z"/><path id="_Path_2" data-name="&lt;Path&gt;" class="cls-1" d="M27.88,40.46l-5.26-1-1.66.7-1.42-.71-5.33,1a.85.85,0,1,0,.32,1.68l4.77-.9,1.61.8,1.91-.81,4.75.91.16,0a.85.85,0,0,0,.16-1.69Z"/><path id="_Path_3" data-name="&lt;Path&gt;" class="cls-1" d="M35.87,22.6A11,11,0,0,0,29.2,21,8,8,0,0,0,23,24.31l-.12.16c-.94,1.2-1.78,4.05-1,8.14a.85.85,0,0,0,.84.7h.16a.85.85,0,0,0,.68-1c-.36-1.92-.48-5.31.67-6.77l.14-.18a6.34,6.34,0,0,1,5-2.64A9.4,9.4,0,0,1,34.92,24a.85.85,0,0,0,.94-1.42Z"/><path id="_Path_4" data-name="&lt;Path&gt;" class="cls-1" d="M17.44,25.26a.85.85,0,0,0,1.41-1A8.67,8.67,0,0,0,12.68,21,11,11,0,0,0,6,22.6.85.85,0,0,0,7,24a9.3,9.3,0,0,1,5.54-1.3A7,7,0,0,1,17.44,25.26Z"/><path id="_Path_5" data-name="&lt;Path&gt;" class="cls-1" d="M25.48,42.8a21.89,21.89,0,0,1-4.55.66,22.14,22.14,0,0,1-4.57-.66.85.85,0,0,0-.43,1.65,23.49,23.49,0,0,0,5,.71,23.25,23.25,0,0,0,5-.71.85.85,0,0,0-.43-1.65Z"/></g></g></g></g></svg>